<svg width="328" height="375" viewBox="0 0 328 375" fill="none" xmlns="http://www.w3.org/2000/svg">
<path d="M26.0922 149.357C31.4106 182.459 29.8264 189.577 24.6211 203.021C24.2817 203.925 27.9027 206.975 29.2606 203.586C33.4474 192.74 33.4474 192.627 34.1264 183.137C34.8053 171.161 25.8659 148.453 26.0922 149.357ZM243.581 138.285C243.808 137.268 228.645 169.693 229.55 182.798C230.342 193.192 229.889 196.355 234.981 208.105C236.566 211.833 240.979 208.444 240.639 207.427C233.51 184.267 232.379 182.911 243.581 138.285ZM267.458 141.448C267.684 140.431 256.934 166.642 257.839 179.748C258.631 190.141 258.292 188.56 263.384 200.309C264.968 204.038 269.608 200.874 269.155 199.971C262.931 185.283 261.008 177.601 267.458 141.448ZM294.05 146.758C294.163 145.967 284.997 165.851 285.789 176.358C286.468 184.719 286.468 184.832 290.768 194.209C292.126 197.146 295.86 194.548 295.521 193.757C290.202 182.12 288.505 175.793 294.05 146.758ZM117.524 127.1C115.826 124.84 113.111 122.468 114.468 125.179C117.976 132.636 122.163 136.251 128.5 137.607C135.968 139.189 141.966 134.443 145.813 126.196C147.058 123.372 139.703 132.975 130.537 132.749C124.992 132.636 120.918 131.506 117.524 127.1ZM118.203 160.88C116.505 158.621 113.789 156.248 115.147 158.96C118.655 166.416 122.842 170.031 129.179 171.387C136.647 172.969 142.645 168.224 146.492 159.976C147.737 157.152 140.382 166.755 131.216 166.529C125.671 166.416 121.597 165.399 118.203 160.88ZM118.882 197.259C117.184 195 114.468 192.627 115.826 195.451C119.334 202.908 123.521 206.523 129.858 207.879C137.326 209.461 143.324 204.716 147.171 196.468C148.416 193.644 141.06 203.247 131.895 203.021C126.35 202.795 122.163 201.778 118.882 197.259ZM120.692 228.441C118.995 226.181 116.279 223.809 117.637 226.633C121.145 234.09 125.332 237.705 131.668 239.061C139.137 240.643 145.134 235.897 148.982 227.65C150.226 224.826 142.871 234.429 133.705 234.203C128.274 233.977 124.087 232.96 120.692 228.441ZM149.66 109.475C147.963 107.216 145.247 104.843 146.605 107.555C150.113 115.011 154.3 118.627 160.637 119.982C168.105 121.564 174.103 116.819 177.95 108.572C179.195 105.747 171.839 115.35 162.674 115.124C157.129 114.898 153.055 113.882 149.66 109.475ZM150.226 143.256C148.529 140.996 145.813 138.624 147.171 141.335C150.679 148.792 154.866 152.407 161.203 153.763C168.671 155.344 174.668 150.599 178.516 142.352C179.76 139.527 172.405 149.131 163.239 148.905C157.695 148.792 153.621 147.662 150.226 143.256ZM150.905 179.635C149.208 177.375 146.492 175.002 147.85 177.714C151.358 185.17 155.545 188.786 161.882 190.141C169.35 191.723 175.347 186.978 179.195 178.731C180.439 175.906 173.084 185.509 163.918 185.283C158.374 185.17 154.3 184.041 150.905 179.635ZM152.829 210.816C151.132 208.557 148.416 206.184 149.774 209.009C153.282 216.465 157.468 220.081 163.805 221.436C171.274 223.018 177.271 218.273 181.118 210.026C182.363 207.201 175.008 216.804 165.842 216.578C160.297 216.352 156.224 215.336 152.829 210.816ZM179.308 128.795C177.61 126.535 174.895 124.163 176.253 126.874C179.76 134.33 183.947 137.946 190.284 139.302C197.753 140.883 203.75 136.138 207.597 127.891C208.842 125.066 201.487 134.669 192.321 134.443C186.776 134.218 182.589 133.201 179.308 128.795ZM179.874 162.575C178.176 160.315 175.46 157.943 176.818 160.654C180.326 168.111 184.513 171.726 190.85 173.082C198.318 174.664 204.316 169.918 208.163 161.671C209.408 158.847 202.053 168.45 192.887 168.224C187.342 168.111 183.268 166.981 179.874 162.575ZM180.553 198.954C178.855 196.694 176.139 194.322 177.497 197.146C181.005 204.603 185.192 208.218 191.529 209.574C198.997 211.155 204.995 206.41 208.842 198.163C210.087 195.338 202.731 204.942 193.566 204.716C188.021 204.49 183.834 203.473 180.553 198.954ZM182.476 230.136C180.779 227.876 178.063 225.504 179.421 228.215C182.929 235.672 187.116 239.287 193.453 240.643C200.921 242.224 206.918 237.479 210.766 229.232C212.01 226.407 204.655 236.01 195.489 235.785C189.945 235.672 185.758 234.655 182.476 230.136ZM74.8632 139.753C85.7263 190.706 84.5947 192.175 77.6921 218.725C77.3527 219.855 81.6526 223.696 83.1237 219.516C87.9895 206.071 87.65 202.343 88.329 190.593C89.2342 175.567 74.6369 138.624 74.8632 139.753ZM51.8922 143.369C58.1158 184.606 56.1922 193.418 50.1948 210.139C49.7422 211.268 54.2685 214.771 55.8527 210.59C60.7185 197.146 60.4922 198.954 61.1711 187.091C62.0764 172.065 51.6658 142.126 51.8922 143.369ZM152.603 12.6535C149.887 12.6535 147.737 14.9131 147.737 17.6245C147.737 19.6581 150.113 22.5955 152.263 22.7085C162.108 23.1604 158.713 17.5115 160.976 17.5115C162.674 17.5115 174.216 17.2856 174.216 22.1436C174.216 24.0643 175.46 24.4032 175.46 22.3696C175.347 15.7039 157.695 12.6535 152.603 12.6535ZM259.65 52.7606C293.823 56.3759 328.11 119.756 327.771 166.19C327.771 173.195 314.871 161.671 317.813 167.998C327.205 187.995 322.566 210.703 323.471 222.905C324.15 230.7 314.192 232.282 314.192 232.282C314.192 256.685 311.25 274.649 301.066 297.018C293.71 313.4 279.566 332.267 275.266 348.31C265.647 345.599 257.5 332.042 257.5 325.376C257.5 314.417 271.531 287.867 278.887 268.774C282.281 258.606 283.866 250.585 288.958 245.952C279.566 253.409 277.981 261.43 273.455 270.921C266.779 285.269 255.802 307.525 252.747 321.535C245.505 315.434 238.829 306.96 238.829 298.939C238.829 294.759 257.952 249.116 263.95 239.4C246.184 252.844 244.034 275.892 235.095 295.55C229.55 290.918 223.779 281.202 223.779 274.197C223.779 268.209 238.602 233.412 242.224 230.023C229.663 236.123 223.892 257.928 220.158 270.356C211.671 262.56 210.426 252.053 209.974 243.58C206.918 257.815 194.584 290.918 194.584 295.889C194.584 299.73 204.542 325.489 207.71 329.556C210.087 329.782 214.387 325.489 222.081 329.782C225.703 333.51 227.287 330.686 231.474 339.611C229.097 339.724 225.363 336.448 223.779 335.883C218.913 334.188 220.384 335.996 216.989 337.69C213.255 339.498 209.408 335.77 208.616 336.335C217.442 343.452 222.195 344.017 218.46 353.959C217.781 355.88 215.292 361.303 214.5 362.32C213.029 360.625 213.595 353.168 212.124 349.214C201.374 349.101 207.71 338.707 201.826 338.029C199.563 348.988 188.474 339.272 185.645 350.118L182.363 353.62C181.118 333.51 197.187 333.284 196.96 332.267C190.85 304.701 162.56 280.863 162.56 280.863C151.132 295.663 139.25 301.425 128.839 332.267C128.5 333.284 144.455 335.996 146.605 356.219L144.568 355.428C144.003 352.603 140.834 348.875 137.326 348.197C131.895 347.068 125.558 348.875 126.803 339.272C124.766 340.741 124.653 342.887 121.937 347.068C119.787 350.344 114.242 354.411 113.563 358.93C113.111 361.868 115.374 365.144 116.958 368.194C115.826 366.726 108.471 360.173 109.376 358.252C115.034 345.825 103.605 347.858 117.071 336.335C116.392 335.657 112.432 340.854 108.697 339.046C104.058 336.787 105.529 342.548 95.9105 342.322C101.682 338.594 102.813 332.38 108.132 330.121C110.395 329.217 117.297 329.33 119.674 329.104C122.842 325.037 130.989 299.73 130.989 295.889C130.989 290.918 118.655 257.815 115.6 243.58C115.147 252.053 114.016 262.56 105.416 270.356C101.682 257.928 95.9105 236.123 83.35 230.023C86.9711 233.412 101.795 268.209 101.795 274.197C101.795 281.202 96.0237 290.918 90.479 295.55C81.5395 275.892 79.3895 252.731 61.6237 239.4C67.6211 249.116 86.7448 294.759 86.7448 298.939C86.7448 306.847 80.0684 315.321 72.8263 321.535C69.7711 307.638 58.7948 285.269 52.1185 270.921C47.5922 261.43 46.0079 253.409 36.6158 245.952C41.7079 250.585 43.2922 258.606 46.6869 268.774C54.0422 287.754 68.0737 314.304 68.0737 325.376C68.0737 331.929 59.8132 345.599 50.3079 348.31C45.8948 332.267 32.8816 312.948 24.508 297.018C2.66851 255.443 13.8711 246.856 10.3632 224.939C9.23166 217.934 2.66851 225.955 3.34746 213.415C3.34746 213.415 -8.42095 170.144 12.1738 140.318C12.5132 135.46 0.292197 145.967 0.857986 141.448C3.46062 122.694 27.5632 56.7148 66.0369 52.7606C88.8947 50.3881 87.7632 80.5531 102.134 90.8341C105.416 93.2066 109.489 94.5624 114.808 94.5624C124.539 94.5624 130.311 88.2356 133.705 80.3272C138.345 69.9332 138.684 56.9408 138.684 53.0995C138.684 42.7056 139.703 28.9223 119.674 29.4872C123.182 27.3406 127.029 26.7757 129.066 26.7757C134.95 26.7757 140.947 29.4872 146.605 33.4414L147.85 32.0857C143.889 25.42 133.479 23.3864 128.613 23.3864C125.218 23.3864 114.355 25.8719 112.432 30.0521C111.187 29.1483 110.282 28.3574 110.282 26.3238C110.168 21.5787 111.413 15.478 114.129 13.4444C123.521 6.55271 132.347 11.0718 137.213 7.79547C145.474 2.14658 148.982 0 156.11 0C158.147 0 175.8 2.48552 185.984 5.08401C186.889 5.98783 187.003 5.42293 187.003 7.56951C187.003 9.71608 186.097 10.8459 185.305 11.2978C191.076 13.5573 193.679 28.8093 193.679 34.1193V63.2675C193.679 76.7119 198.318 91.173 215.745 91.399C244.826 91.8509 234.189 50.1621 259.65 52.7606ZM118.542 265.837L127.595 294.759C123.408 306.735 122.729 317.806 118.203 325.376C116.732 327.748 107 326.28 104.397 327.974C101.229 330.121 97.2684 336.9 93.6474 339.385L118.542 265.837ZM124.2 374.295C122.163 374.295 103.153 374.069 101.003 374.069C95.0053 374.069 85.8395 372.149 85.8395 362.546C85.8395 360.399 89.2342 351.022 92.9684 344.921C94.2132 346.842 94.6658 344.582 96.7026 344.582C98.7395 344.582 101.116 344.921 102.926 344.017C102.926 344.017 106.887 342.435 108.018 342.209C106.434 346.164 108.584 350.231 107.905 353.281C106.661 358.478 106.095 360.512 107.339 362.207C109.263 364.805 111.753 369.55 117.524 370.341C120.239 370.454 116.053 363.562 116.053 359.834C116.166 354.976 122.389 352.603 124.766 346.842C125.445 351.022 131.895 350.118 136.987 351.813C140.834 353.62 139.476 358.139 146.605 360.399C150.226 361.529 149.208 354.411 149.208 353.281C149.208 346.164 141.06 334.075 133.479 331.703C136.874 312.157 162.9 287.076 163.692 286.173C171.387 294.42 189.153 312.835 191.755 330.121C188.926 333.284 182.363 332.945 179.534 347.632C179.308 348.762 178.855 356.784 182.363 358.365C184.853 359.495 189.039 352.942 189.718 349.214C190.624 344.469 196.847 351.474 201.26 344.356C202.731 346.277 203.524 348.084 204.429 350.683C205.221 352.942 209.521 351.135 210.2 353.281C211.784 358.478 210.539 366.048 213.708 365.935C217.442 365.144 221.968 357.461 221.968 352.942C221.968 350.796 225.25 344.017 217.555 340.176C218.46 339.159 224.005 338.82 224.005 338.82C225.816 339.724 228.871 343.339 234.189 345.034C237.924 351.135 241.318 360.512 241.318 362.658C241.318 372.149 233.51 374.182 227.4 374.182C225.476 374.069 143.324 374.295 124.2 374.295ZM208.05 263.464L231.36 333.51C227.739 331.025 224.684 327.409 221.516 325.376C218.913 323.681 212.01 327.409 210.539 324.924C204.316 314.191 201.826 307.525 197.639 295.55L208.05 263.464Z" fill="#EFF0F2" fill-opacity="0.7"/>
</svg>
