<svg width="30" height="30" viewBox="0 0 30 30" fill="none" xmlns="http://www.w3.org/2000/svg">
<path d="M5.94043 21.6705C6.97018 19.5982 7.50443 17.315 7.50104 15.001C7.49997 13.8765 7.75226 12.7662 8.23916 11.7526C8.72605 10.7389 9.43505 9.84803 10.3135 9.146" stroke="white" stroke-width="2" stroke-linecap="round" stroke-linejoin="round"/>
<path d="M15.0006 15.001C15.0065 18.8129 14.0394 22.5633 12.1909 25.8971" stroke="white" stroke-width="2" stroke-linecap="round" stroke-linejoin="round"/>
<path d="M11.2505 15.001C11.2505 14.0064 11.6456 13.0526 12.3488 12.3493C13.0521 11.6461 14.0059 11.251 15.0005 11.251C15.995 11.251 16.9489 11.6461 17.6521 12.3493C18.3554 13.0526 18.7505 14.0064 18.7505 15.001C18.756 18.8663 17.9045 22.6847 16.2573 26.1814" stroke="white" stroke-width="2" stroke-linecap="round" stroke-linejoin="round"/>
<path d="M25.6134 21.5635C26.0385 19.4019 26.2521 17.204 26.251 15.001C26.251 12.0173 25.0657 9.15581 22.9559 7.04603C20.8462 4.93624 17.9847 3.75098 15.001 3.75098C12.0173 3.75098 9.15583 4.93624 7.04605 7.04603C4.93626 9.15581 3.751 12.0173 3.751 15.001C3.7524 16.2783 3.53591 17.5465 3.11084 18.751" stroke="white" stroke-width="2" stroke-linecap="round" stroke-linejoin="round"/>
<path d="M10.8757 18.751C10.4755 20.7223 9.75863 22.6157 8.75293 24.3578" stroke="white" stroke-width="2" stroke-linecap="round" stroke-linejoin="round"/>
<path d="M14.063 7.559C15.1186 7.42698 16.1902 7.52085 17.2068 7.83441C18.2234 8.14796 19.1617 8.67403 19.9596 9.37774C20.7574 10.0814 21.3965 10.9467 21.8346 11.9162C22.2727 12.8856 22.4996 13.9371 22.5005 15.001C22.5008 16.2546 22.4233 17.5069 22.2684 18.7509" stroke="white" stroke-width="2" stroke-linecap="round" stroke-linejoin="round"/>
<path d="M21.5554 22.501C21.3769 23.1946 21.1745 23.8782 20.9482 24.5518" stroke="white" stroke-width="2" stroke-linecap="round" stroke-linejoin="round"/>
</svg>
