<svg width="122" height="100" viewBox="0 0 122 100" fill="none" xmlns="http://www.w3.org/2000/svg">
<path d="M31.8154 52.9091C32.9288 59.8391 32.5972 61.3291 31.5074 64.1437C31.4364 64.3329 32.1944 64.9715 32.4787 64.262C33.3552 61.9914 33.3552 61.9677 33.4974 59.981C33.6395 57.4739 31.768 52.7199 31.8154 52.9091ZM77.3467 50.5912C77.3941 50.3783 74.2197 57.1664 74.4092 59.91C74.575 62.086 74.4802 62.7482 75.5463 65.208C75.8779 65.9885 76.8018 65.279 76.7307 65.0661C75.2383 60.2175 75.0014 59.9337 77.3467 50.5912ZM82.3452 51.2534C82.3925 51.0406 80.142 56.5278 80.3316 59.2714C80.4974 61.4474 80.4263 61.1163 81.4923 63.576C81.824 64.3566 82.7953 63.6943 82.7005 63.5051C81.3976 60.4304 80.9949 58.822 82.3452 51.2534ZM87.9122 52.3651C87.9359 52.1995 86.017 56.3622 86.1829 58.5619C86.325 60.3121 86.325 60.3357 87.2252 62.2988C87.5095 62.9138 88.2912 62.3698 88.2202 62.2042C87.1068 59.7681 86.7514 58.4436 87.9122 52.3651ZM50.9565 48.2497C50.6012 47.7766 50.0327 47.2799 50.3169 47.8476C51.0513 49.4086 51.9278 50.1655 53.2544 50.4493C54.8179 50.7804 56.0735 49.787 56.8789 48.0604C57.1395 47.4692 55.5997 49.4796 53.6808 49.4323C52.5201 49.4086 51.6672 49.1721 50.9565 48.2497ZM51.0987 55.3216C50.7433 54.8485 50.1748 54.3518 50.4591 54.9195C51.1934 56.4805 52.07 57.2374 53.3966 57.5212C54.9601 57.8523 56.2156 56.8589 57.0211 55.1323C57.2816 54.541 55.7418 56.5515 53.823 56.5042C52.6622 56.4805 51.8094 56.2676 51.0987 55.3216ZM51.2408 62.9375C50.8855 62.4644 50.3169 61.9677 50.6012 62.559C51.3356 64.12 52.2121 64.8769 53.5387 65.1607C55.1022 65.4918 56.3578 64.4985 57.1632 62.7719C57.4238 62.1806 55.884 64.191 53.9651 64.1437C52.8043 64.0964 51.9278 63.8835 51.2408 62.9375ZM51.6199 69.4654C51.2645 68.9923 50.696 68.4956 50.9802 69.0869C51.7146 70.6479 52.5911 71.4048 53.9177 71.6886C55.4812 72.0197 56.7368 71.0264 57.5422 69.2998C57.8028 68.7085 56.263 70.7189 54.3442 70.6716C53.2071 70.6243 52.3305 70.4114 51.6199 69.4654ZM57.6844 44.56C57.329 44.0869 56.7605 43.5903 57.0448 44.1579C57.7791 45.7189 58.6556 46.4758 59.9823 46.7596C61.5458 47.0907 62.8013 46.0973 63.6068 44.3708C63.8673 43.7795 62.3275 45.7899 60.4087 45.7426C59.2479 45.6953 58.3951 45.4824 57.6844 44.56ZM57.8028 51.6319C57.4475 51.1588 56.8789 50.6621 57.1632 51.2298C57.8976 52.7908 58.7741 53.5477 60.1007 53.8315C61.6642 54.1626 62.9198 53.1692 63.7252 51.4427C63.9858 50.8514 62.446 52.8618 60.5271 52.8145C59.3663 52.7908 58.5135 52.5543 57.8028 51.6319ZM57.945 59.2478C57.5896 58.7747 57.0211 58.278 57.3053 58.8457C58.0397 60.4067 58.9162 61.1636 60.2428 61.4474C61.8064 61.7785 63.0619 60.7851 63.8673 59.0585C64.1279 58.4673 62.5881 60.4777 60.6693 60.4304C59.5085 60.4067 58.6556 60.1702 57.945 59.2478ZM58.3477 65.7757C57.9923 65.3026 57.4238 64.8059 57.7081 65.3972C58.4424 66.9583 59.319 67.7151 60.6456 67.9989C62.2091 68.3301 63.4646 67.3367 64.2701 65.6101C64.5306 65.0188 62.9908 67.0292 61.072 66.9819C59.9112 66.9346 59.0584 66.7217 58.3477 65.7757ZM63.891 48.6044C63.5357 48.1314 62.9671 47.6347 63.2514 48.2024C63.9858 49.7634 64.8623 50.5202 66.1889 50.8041C67.7524 51.1352 69.008 50.1418 69.8134 48.4152C70.074 47.8239 68.5342 49.8343 66.6153 49.787C65.4545 49.7397 64.578 49.5269 63.891 48.6044ZM64.0095 55.6763C63.6541 55.2033 63.0856 54.7066 63.3699 55.2743C64.1042 56.8353 64.9807 57.5921 66.3074 57.876C67.8709 58.2071 69.1264 57.2137 69.9319 55.4871C70.1924 54.8958 68.6526 56.9062 66.7338 56.8589C65.573 56.8353 64.7202 56.5988 64.0095 55.6763ZM64.1516 63.2922C63.7963 62.8192 63.2277 62.3225 63.512 62.9138C64.2464 64.4748 65.1229 65.2317 66.4495 65.5155C68.013 65.8466 69.2686 64.8532 70.074 63.1267C70.3346 62.5354 68.7948 64.5458 66.8759 64.4985C65.7151 64.4512 64.8386 64.2383 64.1516 63.2922ZM64.5543 69.8201C64.199 69.3471 63.6304 68.8504 63.9147 69.418C64.6491 70.9791 65.5256 71.7359 66.8522 72.0197C68.4157 72.3509 69.6713 71.3575 70.4767 69.6309C70.7373 69.0396 69.1975 71.05 67.2786 71.0027C66.1178 70.9791 65.2413 70.7662 64.5543 69.8201ZM42.0256 50.8987C44.2998 61.5656 44.0629 61.8731 42.6178 67.4313C42.5468 67.6678 43.447 68.472 43.7549 67.5969C44.7736 64.7823 44.7025 64.0018 44.8447 61.542C45.0342 58.3963 41.9782 50.6621 42.0256 50.8987ZM37.2166 51.6555C38.5195 60.2884 38.1168 62.1333 36.8613 65.6338C36.7665 65.8703 37.7141 66.6035 38.0458 65.7284C39.0644 62.9138 39.017 63.2922 39.1592 60.8088C39.3487 57.6631 37.1692 51.3954 37.2166 51.6555ZM58.3003 24.2904C57.7318 24.2904 57.2817 24.7634 57.2817 25.331C57.2817 25.7568 57.7791 26.3717 58.2292 26.3954C60.2902 26.49 59.5795 25.3074 60.0533 25.3074C60.4087 25.3074 62.825 25.2601 62.825 26.2771C62.825 26.6792 63.0856 26.7502 63.0856 26.3244C63.0619 24.929 59.3663 24.2904 58.3003 24.2904ZM80.7106 32.6868C87.8648 33.4436 95.0428 46.7123 94.9717 56.4332C94.9717 57.8996 92.2711 55.4871 92.887 56.8116C94.8532 60.998 93.882 65.752 94.0715 68.3064C94.2136 69.9384 92.1289 70.2695 92.1289 70.2695C92.1289 75.3783 91.513 79.1389 89.381 83.822C87.8411 87.2515 84.8799 91.2014 83.9797 94.5599C81.9661 93.9923 80.2605 91.1541 80.2605 89.7586C80.2605 87.4644 83.198 81.9062 84.7378 77.909C85.4485 75.7804 85.7801 74.1011 86.8462 73.1314C84.8799 74.6924 84.5483 76.3717 83.6007 78.3584C82.203 81.3622 79.9051 86.0216 79.2655 88.9545C77.7494 87.6773 76.3517 85.9034 76.3517 84.2241C76.3517 83.349 80.3552 73.7936 81.6108 71.7596C77.8915 74.5741 77.4414 79.3991 75.57 83.5145C74.4092 82.5448 73.201 80.5107 73.201 79.0443C73.201 77.7908 76.3043 70.506 77.0624 69.7965C74.4329 71.0737 73.2247 75.6385 72.4429 78.2402C70.6662 76.6082 70.4056 74.4086 70.3109 72.6347C69.6713 75.6148 67.0891 82.5448 67.0891 83.5855C67.0891 84.3897 69.1738 89.7823 69.8371 90.6337C70.3346 90.681 71.2348 89.7823 72.8457 90.681C73.6037 91.4615 73.9354 90.8703 74.8119 92.7387C74.3144 92.7624 73.5327 92.0765 73.201 91.9582C72.1824 91.6035 72.4903 91.9819 71.7796 92.3367C70.9979 92.7151 70.1924 91.9346 70.0266 92.0528C71.8744 93.5429 72.8694 93.6612 72.0876 95.7425C71.9455 96.1446 71.4243 97.2799 71.2585 97.4928C70.9505 97.138 71.069 95.577 70.761 94.7492C68.5105 94.7255 69.8371 92.5495 68.6052 92.4076C68.1315 94.7019 65.8099 92.6678 65.2176 94.9384L64.5306 95.6716C64.2701 91.4616 67.634 91.4142 67.5866 91.2014C66.3074 85.4303 60.385 80.4398 60.385 80.4398C57.9923 83.5382 55.5049 84.7444 53.3255 91.2014C53.2544 91.4142 56.5947 91.9819 57.0448 96.2156L56.6183 96.05C56.4999 95.4587 55.8366 94.6782 55.1022 94.5363C53.9651 94.2998 52.6385 94.6782 52.8991 92.6678C52.4727 92.9753 52.449 93.4247 51.8804 94.2998C51.4303 94.9857 50.2696 95.8371 50.1274 96.7832C50.0327 97.3982 50.5064 98.0841 50.8381 98.7227C50.6012 98.4152 49.0614 97.0434 49.2509 96.6413C50.4354 94.0396 48.0427 94.4653 50.8618 92.0528C50.7197 91.9109 49.8905 92.9989 49.1088 92.6205C48.1375 92.1475 48.4455 93.3537 46.4318 93.3064C47.64 92.5259 47.8769 91.225 48.9903 90.752C49.4641 90.5628 50.9092 90.5864 51.4066 90.5391C52.07 89.6877 53.7756 84.3897 53.7756 83.5855C53.7756 82.5448 51.1934 75.6148 50.5538 72.6347C50.4591 74.4086 50.2222 76.6082 48.4218 78.2402C47.64 75.6385 46.4318 71.0737 43.8023 69.7965C44.5604 70.506 47.6637 77.7908 47.6637 79.0443C47.6637 80.5107 46.4555 82.5448 45.2948 83.5145C43.4233 79.3991 42.9732 74.5505 39.2539 71.7596C40.5095 73.7936 44.513 83.349 44.513 84.2241C44.513 85.8797 43.1153 87.6536 41.5992 88.9545C40.9596 86.0453 38.6617 81.3622 37.264 78.3584C36.3164 76.3717 35.9848 74.6924 34.0185 73.1314C35.0846 74.1011 35.4162 75.7804 36.1269 77.909C37.6667 81.8826 40.6042 87.4407 40.6042 89.7586C40.6042 91.1304 38.8749 93.9923 36.885 94.5599C35.9611 91.2014 33.2368 87.1569 31.4838 83.822C26.9117 75.1181 29.2569 73.3206 28.5226 68.7321C28.2857 67.2657 26.9117 68.945 27.0538 66.3197C27.0538 66.3197 24.5901 57.261 28.9016 51.0169C28.9727 49.9999 26.4142 52.1995 26.5326 51.2534C27.0775 47.3272 32.1234 33.5146 40.1778 32.6868C44.9631 32.1901 44.7262 38.5051 47.7348 40.6574C48.4218 41.1541 49.2746 41.4379 50.388 41.4379C52.4253 41.4379 53.6335 40.1134 54.3442 38.4578C55.3154 36.2818 55.3865 33.5619 55.3865 32.7577C55.3865 30.5817 55.5997 27.6962 51.4066 27.8145C52.141 27.3651 52.9465 27.2468 53.3729 27.2468C54.6047 27.2468 55.8603 27.8145 57.0448 28.6423L57.3053 28.3585C56.4762 26.963 54.2968 26.5373 53.2781 26.5373C52.5674 26.5373 50.2932 27.0576 49.8905 27.9327C49.6299 27.7435 49.4404 27.578 49.4404 27.1522C49.4167 26.1589 49.6773 24.8817 50.2459 24.4559C52.2121 23.0132 54.0599 23.9592 55.0785 23.2733C56.8079 22.0907 57.5422 21.6414 59.0347 21.6414C59.4611 21.6414 63.1567 22.1617 65.2887 22.7057C65.4782 22.8949 65.5019 22.7766 65.5019 23.226C65.5019 23.6754 65.3124 23.9119 65.1466 24.0065C66.3547 24.4796 66.8996 27.6726 66.8996 28.7842V34.8864C66.8996 37.7009 67.8709 40.7284 71.5191 40.7757C77.6073 40.8703 75.3804 32.1428 80.7106 32.6868ZM51.1698 77.2941L53.0649 83.349C52.1884 85.8561 52.0463 88.174 51.0987 89.7586C50.7907 90.2553 48.7534 89.9478 48.2086 90.3026C47.5453 90.752 46.7161 92.1711 45.9581 92.6914L51.1698 77.2941ZM52.3542 99.9999C51.9278 99.9999 47.948 99.9526 47.4979 99.9526C46.2423 99.9526 44.3235 99.5505 44.3235 97.5401C44.3235 97.0907 45.0342 95.1276 45.8159 93.8504C46.0765 94.2525 46.1713 93.7794 46.5977 93.7794C47.0241 93.7794 47.5216 93.8504 47.9006 93.6612C47.9006 93.6612 48.7297 93.33 48.9666 93.2827C48.635 94.1105 49.0851 94.962 48.9429 95.6006C48.6824 96.6886 48.5639 97.1143 48.8245 97.4691C49.2272 98.0131 49.7484 99.0065 50.9565 99.172C51.5251 99.1957 50.6486 97.7529 50.6486 96.9724C50.6723 95.9554 51.9752 95.4587 52.4727 94.2525C52.6148 95.1276 53.9651 94.9384 55.0311 95.2931C55.8366 95.6716 55.5523 96.6176 57.0448 97.0907C57.8028 97.3272 57.5896 95.8371 57.5896 95.6006C57.5896 94.1105 55.884 91.5798 54.2968 91.0831C55.0075 86.9913 60.456 81.7406 60.6219 81.5514C62.2328 83.278 65.952 87.1333 66.4969 90.752C65.9046 91.4142 64.5306 91.3433 63.9384 94.418C63.891 94.6545 63.7963 96.3338 64.5306 96.6649C65.0518 96.9015 65.9283 95.5297 66.0705 94.7492C66.26 93.7558 67.5629 95.2222 68.4868 93.7321C68.7948 94.1342 68.9606 94.5126 69.1501 95.0566C69.3159 95.5297 70.2161 95.1512 70.3583 95.6006C70.6899 96.6886 70.4293 98.2733 71.0926 98.2496C71.8744 98.0841 72.822 96.4757 72.822 95.5297C72.822 95.0803 73.509 93.6612 71.8981 92.857C72.0876 92.6441 73.2484 92.5732 73.2484 92.5732C73.6274 92.7624 74.267 93.5193 75.3804 93.874C76.1622 95.1512 76.8729 97.1143 76.8729 97.5637C76.8729 99.5505 75.2383 99.9762 73.9591 99.9762C73.5564 99.9526 56.3578 99.9999 52.3542 99.9999ZM69.9082 76.7974L74.7882 91.4615C74.0301 90.9412 73.3905 90.1844 72.7272 89.7586C72.1824 89.4038 70.7373 90.1843 70.4293 89.664C69.1264 87.4171 68.6052 86.0216 67.7287 83.5145L69.9082 76.7974Z" fill="#3BA6B3"/>
<path fill-rule="evenodd" clip-rule="evenodd" d="M12.5319 97.7293L12.982 97.4219L12.8636 97.209C12.5082 96.6886 13.3848 96.121 14.1191 95.6007L18.17 92.7624C18.6438 92.4313 19.6388 91.7691 19.9941 92.2658L20.1363 92.455L20.5864 92.1475L20.3495 91.8164C20.2547 91.6745 20.0889 91.5562 19.9468 91.4379C19.8046 91.296 19.6625 91.1305 19.544 90.9413C19.4256 90.7757 19.3071 90.5865 19.2361 90.3973C19.1176 90.208 19.0702 90.0188 18.9518 89.8769L18.7149 89.5458L18.2648 89.8533L18.4069 90.0425C18.7623 90.5392 17.791 91.2487 17.3172 91.5799L13.2663 94.4181C12.5556 94.9148 11.7028 95.5534 11.3238 95.033L11.1816 94.8438L10.7315 95.1513L10.9447 95.4588C11.0395 95.6007 11.2053 95.7426 11.3238 95.8845C11.4659 96.0264 11.608 96.192 11.7265 96.3575C11.8449 96.5231 11.9397 96.7123 12.0344 96.9015C12.1055 97.0671 12.2003 97.2563 12.295 97.3982L12.5319 97.7293ZM10.3051 93.5903L10.163 93.3774C10.0682 93.2355 10.1393 92.999 10.3999 92.8807C10.9921 92.5969 11.7739 92.7388 12.3661 92.8098C13.0768 92.8807 13.8349 92.8807 14.9483 92.928C15.4457 91.5562 16.109 90.1607 16.3696 89.5931C17.0329 88.1976 17.3883 87.4644 16.8434 86.7076C16.5828 86.3528 16.4644 86.3291 15.9669 85.9744L15.5168 86.3055C15.9195 86.4947 16.0143 86.6366 16.0617 86.7076C16.2512 86.9914 15.8958 87.6063 15.6589 88.0557C15.3036 88.7653 14.9483 89.5221 14.6166 90.2317C14.3086 90.894 13.9533 91.5325 14.1428 92.4786C13.9059 92.455 13.7875 92.4313 13.5743 92.4077C13.0057 92.3604 13.5032 92.4313 12.0581 92.2421C9.4286 91.911 9.23909 91.9819 8.83636 91.4379L8.74161 91.296L8.2915 91.6035L8.43364 91.8164C8.50471 91.911 8.59947 91.9819 8.67054 92.0765C8.83636 92.2421 9.02588 92.4313 9.16802 92.6205C9.33384 92.8571 9.4286 93.0936 9.54705 93.3537C9.61812 93.472 9.6655 93.5666 9.73657 93.6612L9.8787 93.8504L10.3051 93.5903Z" fill="#3BA6B3"/>
<path fill-rule="evenodd" clip-rule="evenodd" d="M6.06496 87.3935L6.56244 87.1806L6.46768 86.9678C6.23079 86.3292 7.51002 85.9271 8.29177 85.6196L12.319 83.9876C13.0297 83.7038 14.3089 83.1598 14.5695 83.7984L14.6643 84.0113L15.1617 83.7984L15.067 83.5856C14.9012 83.1835 14.759 83.0416 14.6169 82.8287C14.4037 82.5212 14.4274 82.3793 14.38 82.0718C14.3563 81.859 14.2852 81.6698 14.2378 81.4806C14.1431 81.1494 14.0246 80.842 13.9062 80.5108C13.1007 78.5241 11.3951 78.7606 10.2343 79.2336C8.97877 79.7303 8.03119 80.9839 8.78925 82.8287C8.9077 83.1362 9.04984 83.42 9.21567 83.7038L7.74692 84.2951C6.6572 84.7209 5.75699 85.1702 5.49641 84.5553L5.40165 84.3424L4.90417 84.5553L5.04631 84.9101C5.11738 85.0756 5.23583 85.2412 5.33058 85.4068C5.42534 85.596 5.54379 85.7615 5.61486 85.9507C5.68593 86.14 5.757 86.3528 5.80437 86.5657C5.85175 86.7549 5.87544 86.9441 5.94651 87.1097L6.06496 87.3935ZM9.66577 83.4673C9.61839 83.3727 9.57101 83.2781 9.52363 83.1835C9.07353 82.0718 9.64208 81.1021 10.9924 80.5345C12.319 79.9905 13.2666 80.3453 13.5272 80.9839C13.8114 81.6698 13.385 81.9536 12.5322 82.3084L9.66577 83.4673ZM3.53018 81.1258L4.02766 80.9129L3.9329 80.7C3.67232 80.0614 4.92786 79.6594 5.80437 79.3046L9.83159 77.6726C10.4712 77.4124 11.7504 76.8684 11.9873 77.4834L12.0821 77.6963L12.5796 77.4834L12.4374 77.105C12.3664 76.9394 12.2242 76.7975 12.1295 76.6319C12.011 76.4664 11.9163 76.2771 11.8452 76.0879C11.7741 75.8987 11.7031 75.7095 11.6557 75.4966C11.632 75.3074 11.632 75.1182 11.5609 74.9526L11.3951 74.5742L10.8976 74.7634L10.9924 74.9763C11.2056 75.5203 10.1396 75.9697 9.3578 76.2771L5.21214 77.9564C4.40669 78.2876 3.19853 78.8788 2.93794 78.2166L2.84318 77.9801L2.3457 78.193L2.48784 78.5477C2.55891 78.7133 2.67736 78.8788 2.77211 79.0444C2.86687 79.2336 2.98532 79.3992 3.05639 79.5884C3.12746 79.7776 3.19853 79.9905 3.24591 80.2034C3.29328 80.4162 3.31697 80.6054 3.38804 80.771L3.53018 81.1258Z" fill="#3BA6B3"/>
<path fill-rule="evenodd" clip-rule="evenodd" d="M10.447 68.9214L9.90212 69.016L9.97319 69.3235C10.1153 70.0094 8.43337 70.2459 7.58054 70.4114L2.96109 71.3102L1.58709 71.5704C1.53972 71.4521 1.53972 71.3575 1.51603 71.2393C1.30282 70.1513 2.06088 69.3235 3.52964 69.0396C5.23528 68.7085 5.99335 69.4654 5.92228 70.2459L6.39607 70.1513C6.39607 69.9384 6.39607 69.7255 6.34869 69.5127C6.01704 67.857 4.50091 67.3367 3.00847 67.6205C2.15564 67.7861 0.331549 68.4956 0.80534 70.8845C0.852719 71.1446 0.947477 71.4048 1.04224 71.665C1.16068 71.9961 1.27913 72.3272 1.3502 72.682C1.39758 72.8949 1.42127 73.1314 1.44496 73.3443C1.44496 73.4625 1.46865 73.6044 1.49234 73.7227L1.53972 73.9592L2.08457 73.8646L2.0372 73.6281C1.91875 73.0131 3.26905 72.753 4.33508 72.5401L7.03569 72.0198C7.53316 71.9252 8.76502 71.7123 9.28619 71.6177C9.61784 71.5704 10.447 71.4521 10.5654 71.9488L10.6128 72.1853L11.1577 72.0907L11.0866 71.665C11.0392 71.4758 10.9445 71.3102 10.8734 71.1446C10.8023 70.9554 10.7313 70.7662 10.7076 70.5533C10.6602 70.3405 10.6365 70.1276 10.6365 69.9147C10.6365 69.7255 10.6839 69.5363 10.6365 69.3471L10.447 68.9214Z" fill="#3BA6B3"/>
<path fill-rule="evenodd" clip-rule="evenodd" d="M0.165827 64.4748L0.710686 64.4511V64.1909C0.686996 63.5996 1.91885 63.5523 2.70061 63.5287L7.39113 63.3631C8.1492 63.3395 9.35736 63.2685 9.38105 63.9071V64.1436L9.92591 64.12L9.90222 63.6943C9.90222 63.505 9.80746 63.3395 9.76009 63.1503C9.71271 62.9374 9.68902 62.7482 9.68902 62.5353C9.68902 62.3224 9.68902 62.1332 9.7364 61.9204C9.78378 61.7312 9.83115 61.5419 9.83115 61.3764L9.80746 60.8087L9.26261 60.8324L9.28629 61.2345C9.30998 61.8258 8.1492 61.8967 7.22531 61.9204L0.758065 62.1569L0.734375 61.3527C0.710686 60.8087 0.52117 60.0282 1.8004 59.9809C2.15575 59.9573 2.51109 60.0282 2.58216 60.0519L2.55847 59.6025C1.87147 59.4369 0.99496 59.295 0 59.1768C0.0947581 60.7378 0.142137 60.6668 0.189516 61.4946C0.189516 61.7548 0.213206 62.4407 0.213206 62.7718C0.213206 63.505 0.142137 63.3158 0.142137 63.9544L0.165827 64.4748Z" fill="#3BA6B3"/>
<path fill-rule="evenodd" clip-rule="evenodd" d="M0.166016 55.203L0.710875 55.2976L0.758254 55.0611C0.876702 54.3752 2.15594 54.6826 2.98507 54.8246L7.27287 55.5105C8.03094 55.6287 9.40493 55.8416 9.31017 56.5038L9.2628 56.7404L9.80765 56.835L9.85503 56.5984C9.9261 56.1727 9.87872 55.9835 9.85503 55.7233C9.83134 55.3685 9.9261 55.2503 10.0445 54.9428C10.1393 54.7536 10.1867 54.5644 10.2341 54.3515C10.3288 54.0204 10.3999 53.6893 10.4473 53.3581C10.7789 51.2295 9.19173 50.5672 7.95987 50.378C6.63326 50.1651 5.1882 50.7328 4.85654 52.6959C4.80916 53.0034 4.78547 53.3345 4.78547 53.6656L3.22196 53.4054C2.06118 53.2162 1.06622 53.1453 1.16098 52.483L1.20835 52.2465L0.663496 52.1519L0.616117 52.5303C0.592427 52.7195 0.592427 52.9088 0.592427 53.098C0.592427 53.3108 0.592427 53.5237 0.545048 53.7129C0.521359 53.9258 0.45029 54.1387 0.379221 54.3279C0.331842 54.4934 0.237084 54.6826 0.213395 54.8719L0.166016 55.203ZM5.25926 53.6893C5.25926 53.5947 5.28295 53.4764 5.30664 53.3581C5.49616 52.1755 6.49112 51.6316 7.93618 51.8444C9.35755 52.0809 9.97348 52.8615 9.87872 53.5237C9.76027 54.2569 9.2628 54.2806 8.36259 54.1387L5.25926 53.6893ZM1.23204 48.5095L1.7769 48.6041L1.82428 48.3676C1.94273 47.6817 3.22196 47.9892 4.14586 48.1311L8.43366 48.817C9.12066 48.9353 10.471 49.1245 10.3762 49.7631L10.3288 49.9996L10.8737 50.0942L10.9448 49.6685C10.9684 49.4792 10.9211 49.29 10.9211 49.1008C10.9211 48.8879 10.9211 48.6751 10.9684 48.4859C10.9921 48.273 11.0395 48.0838 11.1106 47.8946C11.1816 47.729 11.2764 47.5398 11.3001 47.3742L11.3712 46.9722L10.8263 46.8775L10.8026 47.1141C10.7079 47.7054 9.54707 47.5398 8.74163 47.3979L4.33537 46.6883C3.45886 46.5464 2.15594 46.4518 2.25069 45.7659L2.29807 45.5294L1.72952 45.4111L1.65846 45.7896C1.63477 45.9788 1.63477 46.168 1.63477 46.3572C1.63477 46.5701 1.63477 46.7829 1.58739 46.9722C1.5637 47.185 1.49263 47.3979 1.42156 47.5871C1.37418 47.7527 1.30311 47.9419 1.25573 48.1311L1.23204 48.5095Z" fill="#3BA6B3"/>
<path fill-rule="evenodd" clip-rule="evenodd" d="M9.85445 43.8032L10.1387 43.9215C11.0626 44.2762 11.9391 44.7966 12.9104 43.5667C13.1473 43.2829 13.3368 42.9517 13.4553 42.6206C14.237 40.6102 12.8393 39.1911 11.6075 38.7181C9.94921 38.0795 8.78842 39.1674 8.50414 39.9243L8.43308 40.1135L8.29094 40.0189C8.43308 39.2384 8.3857 37.9139 6.96433 37.3699C6.04043 37.0151 4.7612 36.9442 4.16896 38.4815C3.64779 39.8297 3.83731 40.1845 3.38721 40.8467L3.74255 40.9886C4.09789 41.1305 5.09285 41.5563 5.51926 41.7455L5.6614 41.3434C4.73751 40.7521 4.0742 40.1845 4.40586 39.3094C4.69013 38.5998 5.47189 38.3869 6.46685 38.7654C7.55656 39.1911 7.95929 40.1608 7.67501 40.894C7.62763 41.0359 7.53287 41.2252 7.43812 41.3671L8.17249 41.6509C8.19618 41.4853 8.21987 41.3434 8.31463 41.1305C8.8358 39.7587 10.1387 39.806 11.2521 40.2318C12.6972 40.7758 13.1473 41.7691 12.8393 42.5733C12.6024 43.2119 11.8681 43.8742 9.94921 43.4721L9.85445 43.8032Z" fill="#3BA6B3"/>
<path fill-rule="evenodd" clip-rule="evenodd" d="M17.1274 30.3926C17.9091 31.3623 17.838 32.7578 17.4116 33.4437C16.7009 34.6263 14.5215 35.3595 11.8683 33.7748C9.66515 32.4503 8.69388 30.5345 9.71253 28.8316C10.2337 27.9565 11.3945 27.3652 12.6737 28.122L12.9106 27.7436C12.8159 27.6963 12.7448 27.649 12.65 27.6017C12.1762 27.3179 11.276 26.7266 10.7786 26.3481C10.7075 26.5847 10.5417 26.8448 10.3995 27.105C10.0679 27.649 9.5467 27.9801 8.93077 28.9735C7.39096 31.5279 8.81233 33.8694 10.9207 35.123C13.5502 36.7076 16.4404 36.2583 17.838 33.9404C18.2171 33.3254 18.525 32.474 18.525 31.7881C18.525 31.3387 18.4303 30.9129 17.3642 30.0378L17.1274 30.3926Z" fill="#3BA6B3"/>
<path fill-rule="evenodd" clip-rule="evenodd" d="M15.6348 21.2633L20.2306 25.3787C20.9413 26.0173 22.0784 27.058 21.6283 27.5547L21.4625 27.7439L21.8652 28.0986L22.1731 27.7675C22.3153 27.6256 22.3863 27.4364 22.4574 27.2708C22.5522 27.0816 22.6943 26.9161 22.8364 26.7741C22.9786 26.6322 23.1444 26.4667 23.3102 26.3484C23.4761 26.2302 23.6419 26.1592 23.784 26.0173L24.0683 25.7098L23.6656 25.355L23.4998 25.5442C23.0497 26.0646 21.9126 24.9766 21.2019 24.3617L16.6061 20.1753L17.222 19.4894C17.53 19.1583 18.1222 18.5197 18.9751 19.2765C19.0224 19.3238 19.2119 19.4894 19.4252 19.7496L19.7331 19.4184C18.9277 18.496 18.8329 18.2831 18.0275 17.4553C17.4115 18.2358 16.464 19.4894 15.7059 20.3408C15.3979 20.672 14.6399 21.4998 14.3556 21.76C14.0476 22.0674 13.9766 22.1147 13.2422 22.777C13.8107 23.3683 14.0003 23.6284 14.9715 24.6928L15.2558 24.3617C14.403 23.1554 14.5214 22.4932 15.0189 21.9492L15.6348 21.2633Z" fill="#3BA6B3"/>
<path fill-rule="evenodd" clip-rule="evenodd" d="M26.6274 23.0608L26.9354 22.8243C27.0301 22.7534 27.1012 22.6114 27.1723 22.5168C27.2907 22.3513 27.4565 22.233 27.6224 22.0911C28.4041 21.4525 27.8593 22.0675 28.5462 21.4998L28.7121 21.3816L28.3567 20.9558L28.1435 21.1214C27.954 21.2633 27.5039 21.5235 27.0775 20.5774L26.3194 18.9218C26.8406 18.5433 26.959 18.4724 27.1959 18.2832C27.5513 17.9757 27.954 17.6209 28.1198 17.4553L29.7781 18.6616C30.1808 18.9691 30.2519 19.3711 29.9913 19.584L29.7781 19.7496L30.1334 20.1753L30.5125 19.8678C30.6783 19.7259 30.8204 19.5367 30.9626 19.3711C31.1047 19.2292 31.2232 19.0873 31.389 18.9691C31.5785 18.8035 31.7917 18.6616 32.0286 18.5197C32.1944 18.4251 32.384 18.3305 32.5498 18.2122L32.763 18.023L32.4076 17.5973L32.3366 17.7392C32.0997 17.9284 31.9102 18.2359 30.9152 17.5973C29.9676 16.9823 30.7968 17.6209 26.5326 14.5935C24.6375 13.2453 24.1874 12.9142 23.5951 12.4412C23.4767 12.725 23.3109 13.0088 23.0977 13.269C23.5241 14.0022 23.8794 14.8063 25.3719 18.2359C25.6798 18.9454 26.1299 20.0334 26.4853 21.0977C26.6511 21.5708 26.8169 22.1857 26.4616 22.4695L26.2721 22.6114L26.6274 23.0608ZM24.519 14.8063C25.1113 15.374 25.3719 15.4213 27.6224 17.1006C27.4565 17.3134 27.2907 17.479 26.959 17.7392C26.6037 18.0466 26.3431 18.2122 26.0825 18.3541C24.7796 15.5159 24.7322 15.3267 24.448 14.901L24.519 14.8063Z" fill="#3BA6B3"/>
<path fill-rule="evenodd" clip-rule="evenodd" d="M30.3462 8.32534L30.5831 8.82203L30.7963 8.72742C31.2464 8.51456 31.5544 9.0349 31.7676 9.43698C31.9571 9.81541 32.3124 10.5013 32.5019 10.8797L34.326 14.6404C34.5866 15.1607 35.0841 16.2487 34.5392 16.5089L34.326 16.6035L34.5629 17.1002L34.942 16.911C35.1078 16.84 35.2499 16.6744 35.3921 16.5562C35.5579 16.4379 35.7474 16.3197 35.9369 16.2251C36.1264 16.1304 36.316 16.0595 36.5292 16.0122C36.7187 15.9649 36.9082 15.9649 37.074 15.8703L37.453 15.6811L37.2162 15.1844L37.0029 15.279C36.5292 15.5155 36.0317 14.6877 35.6763 13.9545L34.6103 11.7549C34.9183 11.6603 35.2736 11.4947 35.7948 11.2582C36.0317 11.1399 36.2923 11.0217 36.5292 10.9034C36.7661 10.7851 37.0266 10.6669 37.2635 10.5486C37.7847 10.2884 38.1164 10.0992 38.3769 9.91002L39.443 12.1096C39.7983 12.8428 40.1537 13.7416 39.6799 13.9781L39.4667 14.0727L39.7036 14.5694L40.0826 14.3802C40.2484 14.3093 40.3906 14.1437 40.5327 14.0254C40.6985 13.9072 40.888 13.7889 41.0775 13.6943C41.2671 13.5997 41.4566 13.5287 41.6698 13.4814C41.8593 13.4341 42.0488 13.4341 42.2146 13.3395L42.5937 13.1503L42.3568 12.6536L42.1436 12.7482C41.5987 13.0084 41.0539 11.9441 40.7933 11.4237L38.9692 7.66309C38.448 6.62241 37.6663 5.29791 38.3296 4.96678L38.5428 4.87218L38.3059 4.37549L37.9742 4.54105C37.761 4.73027 37.5952 4.84852 37.453 4.96678C37.2872 5.08504 37.0977 5.2033 36.9082 5.29791C36.7187 5.39252 36.5292 5.46347 36.316 5.51078C36.1264 5.55808 35.9369 5.60538 35.7711 5.69999L35.4157 5.86555L35.6526 6.36224L35.8659 6.26763C36.3633 6.03112 36.7187 6.71702 36.8608 6.97719C36.9793 7.19006 37.453 8.11248 37.5952 8.4436L38.0453 9.36602C37.761 9.55524 37.3346 9.86271 36.2212 10.4067C35.1078 10.9507 34.6103 11.1163 34.2787 11.2109L33.8286 10.2884C33.6627 9.95732 33.2126 9.01125 33.1179 8.79838C32.9994 8.51456 32.6678 7.805 33.1652 7.56849L33.3785 7.47388L33.1652 6.95354L32.8099 7.1191C32.6441 7.19006 32.4782 7.33197 32.3361 7.42657C32.1703 7.54483 31.9808 7.66309 31.8149 7.7577C31.6254 7.85231 31.4122 7.92326 31.2227 7.99422C31.0332 8.04152 30.8437 8.08883 30.6778 8.18343L30.3462 8.32534Z" fill="#3BA6B3"/>
<path fill-rule="evenodd" clip-rule="evenodd" d="M55.1018 7.97089C54.8886 9.20079 53.8226 10.0759 53.0172 10.2415C51.6432 10.5016 49.6532 9.39 49.061 6.36257C48.5635 3.83182 49.3453 1.82142 51.2878 1.44299C52.3065 1.25377 53.5146 1.70316 53.7989 3.16957L54.249 3.07496C54.2253 2.98036 54.2016 2.88575 54.1779 2.79114C54.0832 2.24715 53.8937 1.18282 53.87 0.567871C53.6331 0.662478 53.3488 0.733434 53.0408 0.780738C52.4249 0.898997 51.809 0.733434 50.6719 0.9463C47.7344 1.51394 46.9526 4.11564 47.4264 6.52813C48.0187 9.53191 50.2692 11.3768 52.9224 10.8564C53.6331 10.7145 54.4622 10.3834 54.9834 9.93399C55.315 9.62652 55.5756 9.27174 55.5046 7.87629L55.1018 7.97089Z" fill="#3BA6B3"/>
<path fill-rule="evenodd" clip-rule="evenodd" d="M57.8975 10.0757H58.2765C58.3949 10.0757 58.5371 10.0284 58.6555 10.0047C58.8687 9.95742 59.0582 9.95742 59.2715 9.98107C60.2664 10.0047 59.4847 10.123 60.3612 10.123H60.5744V9.57899H60.3138C60.0769 9.57899 59.5794 9.48438 59.84 8.49101L60.3375 6.74077C60.9771 6.78807 61.0955 6.81173 61.4035 6.81173C61.8773 6.81173 62.4222 6.81173 62.6591 6.78807L63.1328 8.77483C63.2513 9.27152 63.0381 9.62629 62.7064 9.60264H62.4459V10.1466H62.9433C63.1565 10.1466 63.3697 10.0993 63.6066 10.052C63.7962 10.0284 63.9857 10.0047 64.1752 10.0284C64.4358 10.0284 64.6964 10.052 64.9333 10.0993C65.1228 10.123 65.3123 10.1939 65.5255 10.1939H65.8098V9.64995H65.6913C65.3834 9.64995 65.0517 9.7682 64.6964 8.63292C64.3647 7.54493 64.6016 8.58561 63.275 3.52412C62.6827 1.2772 62.5406 0.733207 62.3985 0C62.1379 0.141911 61.8299 0.26017 61.4983 0.307474C61.3561 1.13529 61.1192 1.98675 60.0295 5.58183C59.8163 6.33869 59.461 7.45033 59.0346 8.49101C58.845 8.96404 58.5845 9.53169 58.1344 9.53169H57.8975V10.0757ZM61.593 2.38883C61.6878 3.21665 61.8536 3.40586 62.4932 6.12582C62.2326 6.19678 61.9957 6.22043 61.593 6.19678C61.1192 6.19678 60.835 6.14947 60.527 6.10217C61.3561 3.09839 61.4509 2.90917 61.4983 2.41249L61.593 2.38883Z" fill="#3BA6B3"/>
<path fill-rule="evenodd" clip-rule="evenodd" d="M67.373 10.4779L67.8468 10.5725C68.1074 10.6198 68.3443 10.5015 68.8181 10.5962C69.055 10.6435 69.2919 10.7381 69.5288 10.8327C69.6709 10.88 69.7894 10.9509 69.9315 10.9746L70.121 11.0219L70.2158 10.4779L69.9552 10.4069C69.7183 10.3596 69.363 10.1468 69.8604 9.08244L71.8741 4.80146C72.1109 4.28112 72.2531 3.9973 72.3478 3.52426L72.4426 3.54791C72.4189 3.87904 72.3952 3.97365 72.4189 4.13921L72.7979 9.05879C72.8453 9.76834 73.0348 10.9982 72.1109 10.809L71.9688 10.7854L71.8741 11.353L72.4426 11.4713C72.6321 11.4949 72.7979 11.4713 72.9875 11.4476C73.2007 11.424 73.4139 11.4713 73.6271 11.5186C73.864 11.5659 74.0772 11.6132 74.2904 11.7314C74.4325 11.8024 74.5983 11.897 74.7405 11.9207L75.1195 11.9916L75.2143 11.4476L74.9774 11.4003C74.4325 11.2821 74.2904 9.792 74.1482 8.37289C73.864 5.34545 73.7218 3.80808 73.6508 1.46655C73.3665 1.4902 73.0585 1.4902 72.7506 1.4902C72.0873 3.12218 71.4476 4.37573 70.7843 5.65293C69.5999 7.99446 69.5999 7.89985 69.1498 8.75131C68.8892 9.22435 68.368 10.1468 67.7521 10.0049L67.4678 9.93391L67.373 10.4779Z" fill="#3BA6B3"/>
<path fill-rule="evenodd" clip-rule="evenodd" d="M81.1605 3.78418L80.9473 4.28087L81.1605 4.37548C81.8001 4.6593 81.1605 5.81824 80.8052 6.59875L79.0285 10.5723C78.7205 11.2582 78.152 12.5354 77.5597 12.2752L77.3465 12.1806L77.1333 12.6773L77.3465 12.7719C77.7255 12.9374 77.9387 12.9611 78.1993 13.0084C78.5547 13.0793 78.6494 13.1976 78.91 13.3868C79.0758 13.5287 79.2417 13.6233 79.4312 13.7179C79.7391 13.9072 80.0234 14.0491 80.3314 14.191C82.2976 15.0661 83.3636 13.7179 83.8611 12.559C84.406 11.3291 84.2402 9.79174 82.4161 8.96393C82.1318 8.84567 81.8238 8.72741 81.5159 8.6328L82.1555 7.19004C82.6293 6.12571 82.9846 5.17964 83.5768 5.43981L83.7901 5.53441L84.0033 5.03773L83.6479 4.89582C83.4821 4.82486 83.2926 4.77756 83.1031 4.73025C82.8899 4.68295 82.7003 4.61199 82.5108 4.51739C82.3213 4.44643 82.1318 4.32817 81.966 4.20991C81.8001 4.11531 81.658 3.99705 81.4922 3.92609L81.1605 3.78418ZM81.3263 9.08219C81.4211 9.10584 81.5395 9.15314 81.6343 9.20045C82.7477 9.69714 83.0083 10.7851 82.4161 12.1333C81.8238 13.4578 80.8999 13.8362 80.284 13.5524C79.597 13.2686 79.6918 12.7719 80.0708 11.9204L81.3263 9.08219ZM87.3672 6.55144L87.154 7.04813L87.3672 7.14274C88.0068 7.42656 87.3909 8.5855 86.9881 9.43697L85.2114 13.4105C84.9272 14.0491 84.3823 15.3026 83.7901 15.0425L83.5768 14.9478L83.3636 15.4445L83.7427 15.6101C83.9085 15.681 84.098 15.7047 84.2875 15.7284C84.5007 15.7757 84.6903 15.8466 84.8798 15.9176C85.0693 16.0122 85.2588 16.1068 85.4246 16.225C85.5668 16.3433 85.7089 16.4852 85.8747 16.5562L86.2538 16.7217L86.467 16.225L86.2538 16.1304C85.7089 15.8939 86.1827 14.8296 86.5144 14.0491L88.3384 9.95731C88.6938 9.15315 89.1439 7.8996 89.7835 8.18342L90.0204 8.32533L90.2336 7.82864L89.8783 7.66308C89.7124 7.59212 89.5229 7.54482 89.3334 7.49752C89.1202 7.45021 88.9307 7.37926 88.7412 7.28465C88.5516 7.21369 88.3858 7.09544 88.1963 7.00083C88.0305 6.90622 87.8883 6.78796 87.6988 6.71701L87.3672 6.55144Z" fill="#3BA6B3"/>
<path fill-rule="evenodd" clip-rule="evenodd" d="M94.0715 10.312L93.7399 10.7614L93.9294 10.9033C94.4506 11.2817 93.7872 12.1096 93.2661 12.8191L90.3523 16.8163C89.9969 17.2893 89.2862 18.2354 88.7888 17.8806L88.5992 17.7387L88.2676 18.1881L88.5992 18.4246C88.7414 18.5428 88.9309 18.5902 89.1204 18.6611C89.3099 18.7557 89.4994 18.874 89.6653 18.9922C89.8311 19.1105 89.9969 19.2524 90.1391 19.418C90.2575 19.5599 90.3759 19.7254 90.5181 19.8437L90.8497 20.0802L91.1814 19.6308L90.9919 19.4889C90.5181 19.1341 91.1814 18.1644 91.5367 17.6677L94.4505 13.6706C94.9717 12.961 95.564 12.0859 96.0851 12.4643L96.2746 12.6062L96.6063 12.1569L96.2983 11.944C96.1562 11.8257 95.9904 11.7548 95.8245 11.6838C95.635 11.5892 95.4455 11.471 95.2797 11.3527C95.1139 11.2344 94.948 11.0689 94.8059 10.927C94.6638 10.785 94.5453 10.6431 94.4032 10.5485L94.0715 10.312ZM97.5302 13.505L97.7434 13.6469C97.8855 13.7652 97.8855 13.978 97.6723 14.1909C97.1985 14.6403 96.4168 14.7586 95.8245 14.9005C95.1375 15.066 94.4269 15.3025 93.3371 15.61C93.3135 17.0764 93.1476 18.5902 93.1002 19.2288C92.9344 20.7661 92.8397 21.5703 93.574 22.1143C93.9294 22.3744 94.0715 22.3508 94.6401 22.5164L94.9717 22.067C94.5216 22.0197 94.3795 21.9014 94.3084 21.8541C94.0241 21.6412 94.1663 20.9553 94.261 20.435C94.3795 19.6545 94.4506 18.8267 94.5453 18.0225C94.6401 17.313 94.7585 16.5797 94.261 15.7519C94.4979 15.7046 94.6164 15.681 94.8296 15.6337C95.3744 15.4918 94.9007 15.5864 96.322 15.3025C98.9279 14.7586 99.07 14.6166 99.6386 15.0187L99.757 15.1133L100.089 14.6639L99.8755 14.522C99.7807 14.4511 99.6622 14.4038 99.5675 14.3565C99.3543 14.2619 99.1174 14.1436 98.9279 14.0017C98.7147 13.8361 98.5251 13.6469 98.3356 13.4341C98.2409 13.3394 98.1461 13.2685 98.0514 13.1975L97.8382 13.0556L97.5302 13.505Z" fill="#3BA6B3"/>
<path fill-rule="evenodd" clip-rule="evenodd" d="M106.247 20.9319L105.82 21.2867L105.963 21.4759C106.365 21.9726 105.513 22.6112 104.826 23.1552L100.988 26.2535C100.538 26.632 99.5902 27.3415 99.2111 26.8921L99.069 26.7029L98.6426 27.0577L98.9032 27.3888C99.0216 27.5307 99.1874 27.6254 99.3296 27.7436C99.4954 27.8855 99.6375 28.0274 99.7797 28.193C99.8981 28.3586 100.04 28.5241 100.135 28.7133C100.206 28.8789 100.277 29.0681 100.396 29.21L100.656 29.5412L101.083 29.1864L100.94 28.9972C100.561 28.5241 101.462 27.7673 101.935 27.3888L105.773 24.2904C106.46 23.7465 107.266 23.0369 107.668 23.5336L107.81 23.7228L108.237 23.368L108 23.0842C107.881 22.9423 107.739 22.824 107.597 22.6821C107.455 22.5402 107.289 22.3983 107.147 22.2327C107.005 22.0672 106.91 21.878 106.792 21.7124C106.697 21.5468 106.602 21.3813 106.484 21.2394L106.247 20.9319ZM108.758 24.9054L108.924 25.0946C109.042 25.2365 108.971 25.473 108.711 25.5913C108.142 25.8988 107.337 25.8278 106.744 25.8042C106.034 25.7805 105.276 25.8278 104.162 25.8515C103.76 27.2469 103.215 28.6897 102.978 29.281C102.433 30.7237 102.101 31.4806 102.693 32.1902C102.978 32.5449 103.12 32.5449 103.617 32.8524L104.044 32.4976C103.641 32.3321 103.523 32.1902 103.452 32.1192C103.238 31.859 103.546 31.2204 103.76 30.7474C104.067 30.0142 104.375 29.2337 104.66 28.5005C104.92 27.8146 105.228 27.1523 104.991 26.2299C105.228 26.2535 105.347 26.2535 105.56 26.2535C106.128 26.2535 105.631 26.2299 107.076 26.3008C109.729 26.4428 109.919 26.3482 110.345 26.8921L110.44 27.0104L110.866 26.6556L110.701 26.4664C110.629 26.3718 110.535 26.3008 110.44 26.2299C110.25 26.0643 110.061 25.8988 109.919 25.7096C109.753 25.4967 109.611 25.2602 109.492 25C109.421 24.8817 109.35 24.7871 109.279 24.6925L109.137 24.5033L108.758 24.9054Z" fill="#3BA6B3"/>
<path fill-rule="evenodd" clip-rule="evenodd" d="M113.544 30.9602L113.046 31.1967L113.141 31.4096C113.425 32.0482 112.193 32.4976 111.412 32.8524L107.479 34.6735C106.792 35.0047 105.537 35.596 105.252 34.981L105.158 34.7681L104.66 35.0047L104.755 35.2175C104.944 35.596 105.087 35.7379 105.252 35.9507C105.489 36.2346 105.466 36.3765 105.537 36.6839C105.584 36.8968 105.631 37.086 105.702 37.2752C105.797 37.6064 105.939 37.9138 106.082 38.2213C106.982 40.1608 108.687 39.8296 109.824 39.3093C111.056 38.7417 111.933 37.4645 111.08 35.6433C110.938 35.3594 110.772 35.0756 110.606 34.7918L112.051 34.1296C113.117 33.6329 113.994 33.1598 114.278 33.7511L114.373 33.964L114.87 33.7275L114.705 33.3727C114.633 33.2071 114.515 33.0416 114.397 32.8997C114.278 32.7341 114.16 32.5449 114.089 32.3557C113.994 32.1664 113.946 31.9536 113.875 31.7644C113.828 31.5752 113.781 31.3859 113.71 31.2204L113.544 30.9602ZM110.18 35.0756C110.227 35.1702 110.275 35.2648 110.322 35.3594C110.843 36.4474 110.322 37.4645 108.995 38.0794C107.692 38.6944 106.745 38.3869 106.437 37.7483C106.129 37.086 106.532 36.7786 107.361 36.3765L110.18 35.0756ZM116.41 37.1097L115.913 37.3462L116.007 37.5591C116.292 38.174 115.084 38.647 114.207 39.0491L110.275 40.894C109.659 41.1778 108.403 41.7927 108.119 41.2014L108.024 40.9886L107.527 41.2251L107.692 41.6035C107.763 41.7691 107.906 41.911 108.024 42.0529C108.143 42.2185 108.261 42.4077 108.332 42.5969C108.427 42.7861 108.498 42.9753 108.545 43.1882C108.593 43.3774 108.593 43.5666 108.664 43.7322L108.83 44.1106L109.327 43.8741L109.232 43.6612C108.972 43.1172 110.038 42.6206 110.796 42.2658L114.847 40.3736C115.652 39.9952 116.789 39.3566 117.097 39.9952L117.192 40.2081L117.689 39.9716L117.524 39.6168C117.452 39.4512 117.334 39.2856 117.216 39.1437C117.097 38.9782 116.979 38.789 116.908 38.5997C116.813 38.4105 116.765 38.1977 116.694 38.0084C116.647 37.8192 116.6 37.63 116.529 37.4645L116.41 37.1097Z" fill="#3BA6B3"/>
<path fill-rule="evenodd" clip-rule="evenodd" d="M112.052 45.6717L111.744 45.7427C110.796 45.9792 109.754 46.0502 109.683 47.6348C109.659 48.0133 109.683 48.368 109.778 48.7228C110.299 50.8042 112.241 51.1826 113.544 50.8751C115.274 50.4494 115.582 48.8884 115.392 48.1079L115.345 47.9187L115.487 47.8714C115.818 48.6046 116.624 49.6452 118.116 49.2905C119.088 49.0539 120.154 48.3917 119.751 46.7834C119.396 45.3879 119.04 45.1987 119.04 44.3945L118.661 44.4891C118.306 44.5837 117.216 44.7966 116.766 44.8912L116.861 45.2933C117.974 45.246 118.827 45.317 119.064 46.2394C119.253 46.9962 118.709 47.6112 117.69 47.8477C116.553 48.1315 115.653 47.5639 115.463 46.807C115.416 46.6415 115.392 46.4522 115.368 46.2867L114.61 46.4759C114.681 46.6178 114.752 46.7597 114.8 46.9962C115.155 48.4153 114.065 49.1249 112.905 49.4087C111.412 49.7871 110.465 49.2432 110.275 48.3917C110.109 47.7294 110.322 46.7597 112.123 46.0029L112.052 45.6717Z" fill="#3BA6B3"/>
<path fill-rule="evenodd" clip-rule="evenodd" d="M111.08 53.4765L111.104 53.8313C111.127 54.2334 111.341 54.6118 111.341 54.8956C111.364 55.2504 111.222 55.6762 111.246 55.889L111.27 56.1492L111.814 56.1019L111.791 55.8417C111.743 55.1795 112.999 55.2268 113.449 55.2031C114.586 55.1322 117.547 55.0612 118.187 55.0139L118.424 54.9902V55.1085C118.116 55.1795 117.381 55.3923 114.989 56.5513C113.994 57.0243 113.473 57.3318 112.667 57.6866C112.193 57.8994 112.193 57.8994 111.649 58.1596L111.672 58.5853C112.478 58.8218 112.573 58.8455 112.975 58.9874C113.923 59.2712 114.041 59.3185 115.321 59.7206C116.458 60.0517 116.955 60.2173 117.476 60.3592C118.684 60.6903 118.092 60.5011 118.803 60.714V60.785L118.045 60.8086L113.615 61.3289C112.336 61.4709 112.146 61.2107 112.122 60.8559V60.6903L111.578 60.7376L111.601 61.0215C111.625 61.2107 111.672 61.3762 111.72 61.5655C111.767 61.802 111.838 62.0148 111.862 62.2514C111.886 62.4879 111.886 62.7244 111.838 62.9846C111.814 63.1501 111.767 63.3393 111.767 63.5286L111.814 63.8597L112.359 63.8124L112.336 63.6468C112.265 62.7717 114.207 62.7007 115.581 62.5352L119.348 62.0858C119.798 62.0385 120.272 61.9675 120.745 61.9202C120.84 61.9202 120.935 61.8966 121.03 61.8966C121.267 61.8729 121.456 61.8493 121.811 61.802C121.669 61.4708 121.575 61.1397 121.503 60.7613C121.29 60.714 120.272 60.5011 117.737 59.7443C115.96 59.2003 115.036 58.7745 113.639 58.5617V58.4671C114.136 58.3252 114.515 58.1359 114.989 57.9467L121.361 55.1558C121.219 54.9429 121.124 54.6828 121.053 54.4226C120.674 54.4463 119.206 54.5172 118.021 54.5172H113.875C112.099 54.5172 111.696 53.9969 111.672 53.6184L111.649 53.4529L111.08 53.4765Z" fill="#3BA6B3"/>
<path fill-rule="evenodd" clip-rule="evenodd" d="M111.364 65.634L111.317 66.0125C111.293 66.1307 111.341 66.2726 111.341 66.3909C111.364 66.6038 111.317 66.8166 111.293 67.0058C111.128 67.9992 111.128 67.1951 110.985 68.0465L110.962 68.2594L111.507 68.354L111.554 68.0938C111.578 67.8573 111.767 67.3606 112.691 67.7864L114.349 68.5196C114.231 69.1582 114.16 69.2764 114.136 69.5602C114.065 70.0333 113.994 70.5536 113.994 70.7901L111.957 71.003C111.459 71.0503 111.128 70.7901 111.175 70.459L111.222 70.1988L110.677 70.1042L110.606 70.6009C110.583 70.8138 110.606 71.0503 110.606 71.2632C110.606 71.4524 110.583 71.6416 110.559 71.8308C110.512 72.091 110.464 72.3275 110.369 72.5877C110.298 72.7769 110.227 72.9661 110.204 73.1553L110.156 73.4391L110.701 73.5338L110.725 73.4155C110.772 73.108 110.701 72.7532 111.886 72.564C112.999 72.3748 111.933 72.4694 117.145 71.8545C119.466 71.5943 120.011 71.5233 120.769 71.4997C120.674 71.2159 120.603 70.9084 120.58 70.5773C119.774 70.3171 118.969 69.9623 115.557 68.4013C114.847 68.0702 113.804 67.5735 112.809 67.0058C112.359 66.7457 111.838 66.4145 111.909 65.9652L111.957 65.7286L111.364 65.634ZM118.448 70.3644C117.618 70.3408 117.405 70.4827 114.61 70.7428C114.586 70.4827 114.61 70.2461 114.657 69.8441C114.728 69.371 114.799 69.0872 114.918 68.8034C117.784 70.0569 117.95 70.1515 118.448 70.2698V70.3644Z" fill="#3BA6B3"/>
<path fill-rule="evenodd" clip-rule="evenodd" d="M117.264 80.842L111.436 78.8316C110.536 78.5242 109.091 78.0038 109.304 77.3889L109.375 77.1523L108.854 76.9631L108.712 77.3889C108.641 77.5781 108.664 77.7673 108.641 77.9565C108.617 78.1694 108.546 78.3822 108.499 78.5715C108.427 78.7607 108.356 78.9735 108.238 79.1391C108.143 79.3047 108.001 79.4466 107.954 79.6358L107.812 80.0379L108.333 80.2271L108.404 79.9906C108.617 79.3283 110.086 79.896 110.986 80.2034L116.814 82.2138L116.529 83.0653C116.387 83.491 116.055 84.3189 115.013 83.9641C114.966 83.9404 114.705 83.8695 114.421 83.7039L114.279 84.1296C115.345 84.6736 115.511 84.8155 116.6 85.2649C116.861 84.3189 117.24 82.8051 117.619 81.7171C117.761 81.2914 118.14 80.2507 118.306 79.896C118.472 79.4939 118.519 79.4229 118.946 78.5242C118.188 78.2167 117.903 78.0511 116.624 77.4362L116.482 77.8383C117.761 78.6188 117.88 79.281 117.643 79.9669L117.264 80.842Z" fill="#3BA6B3"/>
<path fill-rule="evenodd" clip-rule="evenodd" d="M114.326 89.2146L113.852 88.9308L113.733 89.1437C113.354 89.735 112.288 88.9308 111.578 88.4814L107.882 86.1872C107.242 85.7851 106.034 85.0519 106.39 84.4843L106.508 84.2951L106.034 84.0112L105.916 84.2241C105.679 84.5789 105.655 84.7917 105.56 85.0283C105.442 85.383 105.324 85.454 105.087 85.6669C104.921 85.8088 104.802 85.9743 104.684 86.1399C104.471 86.4001 104.281 86.6839 104.092 86.9677C102.955 88.7889 104.139 90.0188 105.229 90.681C106.366 91.3906 107.929 91.4379 108.995 89.7586C109.161 89.4748 109.303 89.191 109.446 88.9072L110.796 89.735C111.791 90.3499 112.667 90.823 112.312 91.3906L112.194 91.6035L112.667 91.8873L112.881 91.5562C112.975 91.3906 113.046 91.2014 113.117 91.0358C113.212 90.8466 113.283 90.6574 113.402 90.4682C113.52 90.3026 113.662 90.1134 113.781 89.9715C113.899 89.8296 114.041 89.6877 114.136 89.5221L114.326 89.2146ZM109.043 88.6233C108.995 88.7179 108.948 88.8126 108.877 88.9072C108.237 89.9242 107.124 90.0425 105.868 89.2619C104.637 88.5051 104.376 87.5353 104.755 86.9441C105.134 86.3291 105.631 86.471 106.39 86.9677L109.043 88.6233ZM110.725 94.9384L110.251 94.6546L110.133 94.8674C109.777 95.4587 108.711 94.6782 107.906 94.1815L104.234 91.8873C103.642 91.5325 102.457 90.7993 102.812 90.2553L102.931 90.0661L102.457 89.7823L102.244 90.1371C102.149 90.3026 102.102 90.4918 102.054 90.6574C101.983 90.8466 101.889 91.0358 101.77 91.225C101.652 91.3906 101.533 91.5562 101.391 91.7217C101.249 91.8636 101.107 91.9819 101.012 92.1238L100.799 92.4786L101.273 92.7624L101.391 92.5732C101.699 92.0765 102.694 92.6678 103.405 93.1172L107.195 95.4824C107.929 95.9554 109.114 96.5704 108.735 97.1617L108.616 97.3745L109.09 97.6583L109.303 97.3272C109.398 97.1617 109.469 96.9724 109.54 96.8069C109.635 96.6177 109.706 96.4284 109.825 96.2392C109.943 96.0737 110.085 95.8845 110.204 95.7425C110.322 95.6006 110.464 95.4587 110.559 95.2932L110.725 94.9384Z" fill="#3BA6B3"/>
</svg>
