<svg width="264" height="60" viewBox="0 0 264 60" fill="none" xmlns="http://www.w3.org/2000/svg">
<path d="M87.275 17V6.35H93.47V7.55H88.625V17H87.275ZM98.3366 17.15C97.5566 17.15 96.8666 16.965 96.2666 16.595C95.6766 16.215 95.2166 15.72 94.8866 15.11C94.5566 14.49 94.3916 13.82 94.3916 13.1C94.3916 12.37 94.5566 11.7 94.8866 11.09C95.2266 10.47 95.6916 9.975 96.2816 9.605C96.8816 9.225 97.5666 9.035 98.3366 9.035C99.1166 9.035 99.8016 9.225 100.392 9.605C100.992 9.975 101.457 10.47 101.787 11.09C102.127 11.7 102.297 12.37 102.297 13.1C102.297 13.82 102.127 14.49 101.787 15.11C101.457 15.72 100.997 16.215 100.407 16.595C99.8166 16.965 99.1266 17.15 98.3366 17.15ZM95.7416 13.115C95.7416 13.655 95.8566 14.145 96.0866 14.585C96.3266 15.025 96.6416 15.375 97.0316 15.635C97.4216 15.885 97.8566 16.01 98.3366 16.01C98.8166 16.01 99.2516 15.88 99.6416 15.62C100.042 15.36 100.357 15.01 100.587 14.57C100.827 14.12 100.947 13.625 100.947 13.085C100.947 12.545 100.827 12.055 100.587 11.615C100.357 11.175 100.042 10.825 99.6416 10.565C99.2516 10.305 98.8166 10.175 98.3366 10.175C97.8566 10.175 97.4216 10.31 97.0316 10.58C96.6416 10.84 96.3266 11.19 96.0866 11.63C95.8566 12.07 95.7416 12.565 95.7416 13.115ZM107.361 17.15C106.581 17.15 105.891 16.965 105.291 16.595C104.691 16.215 104.221 15.715 103.881 15.095C103.541 14.475 103.371 13.8 103.371 13.07C103.371 12.33 103.536 11.655 103.866 11.045C104.196 10.435 104.661 9.95 105.261 9.59C105.861 9.22 106.556 9.035 107.346 9.035C108.116 9.035 108.786 9.21 109.356 9.56C109.936 9.9 110.366 10.36 110.646 10.94L109.356 11.345C109.156 10.975 108.876 10.69 108.516 10.49C108.156 10.28 107.756 10.175 107.316 10.175C106.836 10.175 106.396 10.3 105.996 10.55C105.606 10.8 105.296 11.145 105.066 11.585C104.836 12.015 104.721 12.51 104.721 13.07C104.721 13.62 104.836 14.12 105.066 14.57C105.306 15.01 105.621 15.36 106.011 15.62C106.411 15.88 106.851 16.01 107.331 16.01C107.641 16.01 107.936 15.955 108.216 15.845C108.506 15.735 108.756 15.59 108.966 15.41C109.186 15.22 109.336 15.015 109.416 14.795L110.706 15.185C110.476 15.755 110.056 16.225 109.446 16.595C108.846 16.965 108.151 17.15 107.361 17.15ZM113.045 20.285C112.715 20.285 112.365 20.185 111.995 19.985L112.445 19.085C112.615 19.185 112.785 19.235 112.955 19.235C113.445 19.235 113.875 18.78 114.245 17.87L114.62 16.925L111.185 9.17H112.58L115.22 15.665L117.605 9.17H118.91L115.25 18.275C114.98 18.945 114.655 19.445 114.275 19.775C113.895 20.115 113.485 20.285 113.045 20.285ZM119.374 18.845V15.83H119.539C119.829 15.83 120.089 15.71 120.319 15.47C120.559 15.22 120.754 14.78 120.904 14.15C121.054 13.51 121.144 12.605 121.174 11.435L121.249 9.17H126.574V15.83H127.639V18.845H126.469V17H120.544V18.845H119.374ZM121.384 15.83H125.254V10.34H122.419L122.374 11.555C122.334 12.835 122.229 13.805 122.059 14.465C121.899 15.125 121.674 15.58 121.384 15.83ZM128.491 14.735C128.491 14.235 128.631 13.805 128.911 13.445C129.201 13.075 129.596 12.79 130.096 12.59C130.596 12.39 131.176 12.29 131.836 12.29C132.186 12.29 132.556 12.32 132.946 12.38C133.336 12.43 133.681 12.51 133.981 12.62V12.05C133.981 11.45 133.801 10.98 133.441 10.64C133.081 10.29 132.571 10.115 131.911 10.115C131.481 10.115 131.066 10.195 130.666 10.355C130.276 10.505 129.861 10.725 129.421 11.015L128.941 10.085C129.451 9.735 129.961 9.475 130.471 9.305C130.981 9.125 131.511 9.035 132.061 9.035C133.061 9.035 133.851 9.315 134.431 9.875C135.011 10.425 135.301 11.195 135.301 12.185V15.5C135.301 15.81 135.441 15.97 135.721 15.98V17C135.591 17.02 135.476 17.035 135.376 17.045C135.286 17.055 135.211 17.06 135.151 17.06C134.841 17.06 134.606 16.975 134.446 16.805C134.296 16.635 134.211 16.455 134.191 16.265L134.161 15.77C133.821 16.21 133.376 16.55 132.826 16.79C132.276 17.03 131.731 17.15 131.191 17.15C130.671 17.15 130.206 17.045 129.796 16.835C129.386 16.615 129.066 16.325 128.836 15.965C128.606 15.595 128.491 15.185 128.491 14.735ZM133.591 15.29C133.711 15.15 133.806 15.01 133.876 14.87C133.946 14.72 133.981 14.595 133.981 14.495V13.52C133.341 13.27 132.681 13.145 132.001 13.145C131.331 13.145 130.786 13.28 130.366 13.55C129.956 13.81 129.751 14.17 129.751 14.63C129.751 14.88 129.816 15.125 129.946 15.365C130.086 15.595 130.286 15.785 130.546 15.935C130.816 16.085 131.146 16.16 131.536 16.16C131.946 16.16 132.336 16.08 132.706 15.92C133.076 15.75 133.371 15.54 133.591 15.29ZM141.627 17.15C140.987 17.15 140.417 16.99 139.917 16.67C139.417 16.35 139.022 15.945 138.732 15.455V20.195H137.412V9.17H138.582V10.64C138.892 10.16 139.297 9.775 139.797 9.485C140.297 9.185 140.842 9.035 141.432 9.035C141.972 9.035 142.467 9.145 142.917 9.365C143.367 9.585 143.757 9.885 144.087 10.265C144.417 10.645 144.672 11.08 144.852 11.57C145.042 12.05 145.137 12.555 145.137 13.085C145.137 13.825 144.987 14.505 144.687 15.125C144.397 15.745 143.987 16.24 143.457 16.61C142.927 16.97 142.317 17.15 141.627 17.15ZM141.222 16.01C141.742 16.01 142.192 15.87 142.572 15.59C142.952 15.31 143.247 14.945 143.457 14.495C143.677 14.045 143.787 13.575 143.787 13.085C143.787 12.555 143.667 12.07 143.427 11.63C143.197 11.19 142.877 10.84 142.467 10.58C142.067 10.31 141.612 10.175 141.102 10.175C140.792 10.175 140.462 10.255 140.112 10.415C139.772 10.575 139.472 10.79 139.212 11.06C138.962 11.32 138.802 11.61 138.732 11.93V14.165C138.952 14.685 139.287 15.125 139.737 15.485C140.197 15.835 140.692 16.01 141.222 16.01ZM150.222 17.15C149.442 17.15 148.752 16.965 148.152 16.595C147.552 16.215 147.082 15.715 146.742 15.095C146.402 14.475 146.232 13.8 146.232 13.07C146.232 12.33 146.397 11.655 146.727 11.045C147.057 10.435 147.522 9.95 148.122 9.59C148.722 9.22 149.417 9.035 150.207 9.035C150.977 9.035 151.647 9.21 152.217 9.56C152.797 9.9 153.227 10.36 153.507 10.94L152.217 11.345C152.017 10.975 151.737 10.69 151.377 10.49C151.017 10.28 150.617 10.175 150.177 10.175C149.697 10.175 149.257 10.3 148.857 10.55C148.467 10.8 148.157 11.145 147.927 11.585C147.697 12.015 147.582 12.51 147.582 13.07C147.582 13.62 147.697 14.12 147.927 14.57C148.167 15.01 148.482 15.36 148.872 15.62C149.272 15.88 149.712 16.01 150.192 16.01C150.502 16.01 150.797 15.955 151.077 15.845C151.367 15.735 151.617 15.59 151.827 15.41C152.047 15.22 152.197 15.015 152.277 14.795L153.567 15.185C153.337 15.755 152.917 16.225 152.307 16.595C151.707 16.965 151.012 17.15 150.222 17.15ZM156.968 17V10.34H154.268V9.17H160.988V10.34H158.288V17H156.968ZM162.299 17V9.17H166.349C166.819 9.17 167.209 9.265 167.519 9.455C167.829 9.635 168.059 9.87 168.209 10.16C168.369 10.45 168.449 10.76 168.449 11.09C168.449 11.51 168.349 11.89 168.149 12.23C167.949 12.56 167.659 12.81 167.279 12.98C167.729 13.11 168.094 13.345 168.374 13.685C168.654 14.015 168.794 14.425 168.794 14.915C168.794 15.575 168.559 16.09 168.089 16.46C167.629 16.82 167.024 17 166.274 17H162.299ZM163.559 12.62H166.004C166.354 12.62 166.639 12.49 166.859 12.23C167.089 11.96 167.204 11.655 167.204 11.315C167.204 10.985 167.094 10.7 166.874 10.46C166.664 10.22 166.389 10.1 166.049 10.1H163.559V12.62ZM163.559 16.07H166.244C166.604 16.07 166.904 15.94 167.144 15.68C167.394 15.42 167.519 15.12 167.519 14.78C167.519 14.43 167.399 14.13 167.159 13.88C166.929 13.62 166.639 13.49 166.289 13.49H163.559V16.07ZM173.938 17.15C173.158 17.15 172.468 16.965 171.868 16.595C171.268 16.225 170.798 15.73 170.458 15.11C170.118 14.49 169.948 13.815 169.948 13.085C169.948 12.345 170.118 11.67 170.458 11.06C170.798 10.45 171.268 9.96 171.868 9.59C172.478 9.22 173.173 9.035 173.953 9.035C174.743 9.035 175.428 9.225 176.008 9.605C176.598 9.975 177.053 10.465 177.373 11.075C177.703 11.675 177.868 12.325 177.868 13.025C177.868 13.245 177.858 13.415 177.838 13.535H171.343C171.383 14.045 171.523 14.5 171.763 14.9C172.013 15.29 172.333 15.6 172.723 15.83C173.113 16.05 173.533 16.16 173.983 16.16C174.463 16.16 174.913 16.04 175.333 15.8C175.763 15.56 176.058 15.245 176.218 14.855L177.358 15.17C177.108 15.75 176.673 16.225 176.053 16.595C175.433 16.965 174.728 17.15 173.938 17.15ZM171.298 12.62H176.638C176.598 12.11 176.453 11.66 176.203 11.27C175.953 10.88 175.633 10.575 175.243 10.355C174.853 10.135 174.423 10.025 173.953 10.025C173.493 10.025 173.068 10.135 172.678 10.355C172.288 10.575 171.968 10.88 171.718 11.27C171.478 11.66 171.338 12.11 171.298 12.62ZM179.321 17V9.17H180.641V12.41H184.721V9.17H186.041V17H184.721V13.58H180.641V17H179.321ZM188.154 17V9.17H189.474V12.41H193.554V9.17H194.874V17H193.554V13.58H189.474V17H188.154ZM196.387 14.735C196.387 14.235 196.527 13.805 196.807 13.445C197.097 13.075 197.492 12.79 197.992 12.59C198.492 12.39 199.072 12.29 199.732 12.29C200.082 12.29 200.452 12.32 200.842 12.38C201.232 12.43 201.577 12.51 201.877 12.62V12.05C201.877 11.45 201.697 10.98 201.337 10.64C200.977 10.29 200.467 10.115 199.807 10.115C199.377 10.115 198.962 10.195 198.562 10.355C198.172 10.505 197.757 10.725 197.317 11.015L196.837 10.085C197.347 9.735 197.857 9.475 198.367 9.305C198.877 9.125 199.407 9.035 199.957 9.035C200.957 9.035 201.747 9.315 202.327 9.875C202.907 10.425 203.197 11.195 203.197 12.185V15.5C203.197 15.81 203.337 15.97 203.617 15.98V17C203.487 17.02 203.372 17.035 203.272 17.045C203.182 17.055 203.107 17.06 203.047 17.06C202.737 17.06 202.502 16.975 202.342 16.805C202.192 16.635 202.107 16.455 202.087 16.265L202.057 15.77C201.717 16.21 201.272 16.55 200.722 16.79C200.172 17.03 199.627 17.15 199.087 17.15C198.567 17.15 198.102 17.045 197.692 16.835C197.282 16.615 196.962 16.325 196.732 15.965C196.502 15.595 196.387 15.185 196.387 14.735ZM201.487 15.29C201.607 15.15 201.702 15.01 201.772 14.87C201.842 14.72 201.877 14.595 201.877 14.495V13.52C201.237 13.27 200.577 13.145 199.897 13.145C199.227 13.145 198.682 13.28 198.262 13.55C197.852 13.81 197.647 14.17 197.647 14.63C197.647 14.88 197.712 15.125 197.842 15.365C197.982 15.595 198.182 15.785 198.442 15.935C198.712 16.085 199.042 16.16 199.432 16.16C199.842 16.16 200.232 16.08 200.602 15.92C200.972 15.75 201.267 15.54 201.487 15.29ZM204.722 17L206.942 13.85C206.432 13.75 206.022 13.51 205.712 13.13C205.402 12.74 205.247 12.22 205.247 11.57C205.247 11.1 205.357 10.685 205.577 10.325C205.797 9.965 206.102 9.68 206.492 9.47C206.892 9.26 207.357 9.155 207.887 9.155H211.097V17H209.777V14.06H208.247L206.177 17H204.722ZM207.977 13.085H209.777V10.19H208.127C207.657 10.19 207.282 10.325 207.002 10.595C206.722 10.855 206.582 11.19 206.582 11.6C206.582 12.01 206.697 12.36 206.927 12.65C207.167 12.94 207.517 13.085 207.977 13.085ZM95.84 24.35V35H94.49V30.155H88.625V35H87.275V24.35H88.625V28.955H94.49V24.35H95.84ZM97.4949 32.735C97.4949 32.235 97.6349 31.805 97.9149 31.445C98.2049 31.075 98.5999 30.79 99.0999 30.59C99.5999 30.39 100.18 30.29 100.84 30.29C101.19 30.29 101.56 30.32 101.95 30.38C102.34 30.43 102.685 30.51 102.985 30.62V30.05C102.985 29.45 102.805 28.98 102.445 28.64C102.085 28.29 101.575 28.115 100.915 28.115C100.485 28.115 100.07 28.195 99.6699 28.355C99.2799 28.505 98.8649 28.725 98.4249 29.015L97.9449 28.085C98.4549 27.735 98.9649 27.475 99.4749 27.305C99.9849 27.125 100.515 27.035 101.065 27.035C102.065 27.035 102.855 27.315 103.435 27.875C104.015 28.425 104.305 29.195 104.305 30.185V33.5C104.305 33.81 104.445 33.97 104.725 33.98V35C104.595 35.02 104.48 35.035 104.38 35.045C104.29 35.055 104.215 35.06 104.155 35.06C103.845 35.06 103.61 34.975 103.45 34.805C103.3 34.635 103.215 34.455 103.195 34.265L103.165 33.77C102.825 34.21 102.38 34.55 101.83 34.79C101.28 35.03 100.735 35.15 100.195 35.15C99.6749 35.15 99.2099 35.045 98.7999 34.835C98.3899 34.615 98.0699 34.325 97.8399 33.965C97.6099 33.595 97.4949 33.185 97.4949 32.735ZM102.595 33.29C102.715 33.15 102.81 33.01 102.88 32.87C102.95 32.72 102.985 32.595 102.985 32.495V31.52C102.345 31.27 101.685 31.145 101.005 31.145C100.335 31.145 99.7899 31.28 99.3699 31.55C98.9599 31.81 98.7549 32.17 98.7549 32.63C98.7549 32.88 98.8199 33.125 98.9499 33.365C99.0899 33.595 99.2899 33.785 99.5499 33.935C99.8199 34.085 100.15 34.16 100.54 34.16C100.95 34.16 101.34 34.08 101.71 33.92C102.08 33.75 102.375 33.54 102.595 33.29ZM105.726 35.06V33.875C106.066 33.865 106.366 33.74 106.626 33.5C106.886 33.26 107.091 32.82 107.241 32.18C107.401 31.54 107.501 30.625 107.541 29.435L107.631 27.17H112.956V35H111.636V28.34H108.801L108.771 29.555C108.721 30.975 108.576 32.085 108.336 32.885C108.106 33.685 107.771 34.245 107.331 34.565C106.901 34.885 106.366 35.05 105.726 35.06ZM118.507 35.15C117.727 35.15 117.037 34.965 116.437 34.595C115.847 34.215 115.387 33.72 115.057 33.11C114.727 32.49 114.562 31.82 114.562 31.1C114.562 30.37 114.727 29.7 115.057 29.09C115.397 28.47 115.862 27.975 116.452 27.605C117.052 27.225 117.737 27.035 118.507 27.035C119.287 27.035 119.972 27.225 120.562 27.605C121.162 27.975 121.627 28.47 121.957 29.09C122.297 29.7 122.467 30.37 122.467 31.1C122.467 31.82 122.297 32.49 121.957 33.11C121.627 33.72 121.167 34.215 120.577 34.595C119.987 34.965 119.297 35.15 118.507 35.15ZM115.912 31.115C115.912 31.655 116.027 32.145 116.257 32.585C116.497 33.025 116.812 33.375 117.202 33.635C117.592 33.885 118.027 34.01 118.507 34.01C118.987 34.01 119.422 33.88 119.812 33.62C120.212 33.36 120.527 33.01 120.757 32.57C120.997 32.12 121.117 31.625 121.117 31.085C121.117 30.545 120.997 30.055 120.757 29.615C120.527 29.175 120.212 28.825 119.812 28.565C119.422 28.305 118.987 28.175 118.507 28.175C118.027 28.175 117.592 28.31 117.202 28.58C116.812 28.84 116.497 29.19 116.257 29.63C116.027 30.07 115.912 30.565 115.912 31.115ZM124.052 35V27.17H128.882V28.34H125.372V35H124.052ZM133.654 35.15C132.874 35.15 132.184 34.965 131.584 34.595C130.994 34.215 130.534 33.72 130.204 33.11C129.874 32.49 129.709 31.82 129.709 31.1C129.709 30.37 129.874 29.7 130.204 29.09C130.544 28.47 131.009 27.975 131.599 27.605C132.199 27.225 132.884 27.035 133.654 27.035C134.434 27.035 135.119 27.225 135.709 27.605C136.309 27.975 136.774 28.47 137.104 29.09C137.444 29.7 137.614 30.37 137.614 31.1C137.614 31.82 137.444 32.49 137.104 33.11C136.774 33.72 136.314 34.215 135.724 34.595C135.134 34.965 134.444 35.15 133.654 35.15ZM131.059 31.115C131.059 31.655 131.174 32.145 131.404 32.585C131.644 33.025 131.959 33.375 132.349 33.635C132.739 33.885 133.174 34.01 133.654 34.01C134.134 34.01 134.569 33.88 134.959 33.62C135.359 33.36 135.674 33.01 135.904 32.57C136.144 32.12 136.264 31.625 136.264 31.085C136.264 30.545 136.144 30.055 135.904 29.615C135.674 29.175 135.359 28.825 134.959 28.565C134.569 28.305 134.134 28.175 133.654 28.175C133.174 28.175 132.739 28.31 132.349 28.58C131.959 28.84 131.644 29.19 131.404 29.63C131.174 30.07 131.059 30.565 131.059 31.115ZM139.198 35V27.17H143.248C143.718 27.17 144.108 27.265 144.418 27.455C144.728 27.635 144.958 27.87 145.108 28.16C145.268 28.45 145.348 28.76 145.348 29.09C145.348 29.51 145.248 29.89 145.048 30.23C144.848 30.56 144.558 30.81 144.178 30.98C144.628 31.11 144.993 31.345 145.273 31.685C145.553 32.015 145.693 32.425 145.693 32.915C145.693 33.575 145.458 34.09 144.988 34.46C144.528 34.82 143.923 35 143.173 35H139.198ZM140.458 30.62H142.903C143.253 30.62 143.538 30.49 143.758 30.23C143.988 29.96 144.103 29.655 144.103 29.315C144.103 28.985 143.993 28.7 143.773 28.46C143.563 28.22 143.288 28.1 142.948 28.1H140.458V30.62ZM140.458 34.07H143.143C143.503 34.07 143.803 33.94 144.043 33.68C144.293 33.42 144.418 33.12 144.418 32.78C144.418 32.43 144.298 32.13 144.058 31.88C143.828 31.62 143.538 31.49 143.188 31.49H140.458V34.07ZM146.758 32.735C146.758 32.235 146.898 31.805 147.178 31.445C147.468 31.075 147.863 30.79 148.363 30.59C148.863 30.39 149.443 30.29 150.103 30.29C150.453 30.29 150.823 30.32 151.213 30.38C151.603 30.43 151.948 30.51 152.248 30.62V30.05C152.248 29.45 152.068 28.98 151.708 28.64C151.348 28.29 150.838 28.115 150.178 28.115C149.748 28.115 149.333 28.195 148.933 28.355C148.543 28.505 148.128 28.725 147.688 29.015L147.208 28.085C147.718 27.735 148.228 27.475 148.738 27.305C149.248 27.125 149.778 27.035 150.328 27.035C151.328 27.035 152.118 27.315 152.698 27.875C153.278 28.425 153.568 29.195 153.568 30.185V33.5C153.568 33.81 153.708 33.97 153.988 33.98V35C153.858 35.02 153.743 35.035 153.643 35.045C153.553 35.055 153.478 35.06 153.418 35.06C153.108 35.06 152.873 34.975 152.713 34.805C152.563 34.635 152.478 34.455 152.458 34.265L152.428 33.77C152.088 34.21 151.643 34.55 151.093 34.79C150.543 35.03 149.998 35.15 149.458 35.15C148.938 35.15 148.473 35.045 148.063 34.835C147.653 34.615 147.333 34.325 147.103 33.965C146.873 33.595 146.758 33.185 146.758 32.735ZM151.858 33.29C151.978 33.15 152.073 33.01 152.143 32.87C152.213 32.72 152.248 32.595 152.248 32.495V31.52C151.608 31.27 150.948 31.145 150.268 31.145C149.598 31.145 149.053 31.28 148.633 31.55C148.223 31.81 148.018 32.17 148.018 32.63C148.018 32.88 148.083 33.125 148.213 33.365C148.353 33.595 148.553 33.785 148.813 33.935C149.083 34.085 149.413 34.16 149.803 34.16C150.213 34.16 150.603 34.08 150.973 33.92C151.343 33.75 151.638 33.54 151.858 33.29ZM155.093 35L157.313 31.85C156.803 31.75 156.393 31.51 156.083 31.13C155.773 30.74 155.618 30.22 155.618 29.57C155.618 29.1 155.728 28.685 155.948 28.325C156.168 27.965 156.473 27.68 156.863 27.47C157.263 27.26 157.728 27.155 158.258 27.155H161.468V35H160.148V32.06H158.618L156.548 35H155.093ZM158.348 31.085H160.148V28.19H158.498C158.028 28.19 157.653 28.325 157.373 28.595C157.093 28.855 156.953 29.19 156.953 29.6C156.953 30.01 157.068 30.36 157.298 30.65C157.538 30.94 157.888 31.085 158.348 31.085ZM166.917 29.6C166.917 28.95 167.027 28.315 167.247 27.695C167.477 27.065 167.807 26.495 168.237 25.985C168.677 25.465 169.212 25.055 169.842 24.755C170.472 24.445 171.187 24.29 171.987 24.29C172.937 24.29 173.752 24.51 174.432 24.95C175.112 25.38 175.617 25.935 175.947 26.615L174.882 27.305C174.672 26.855 174.402 26.5 174.072 26.24C173.752 25.97 173.402 25.78 173.022 25.67C172.652 25.56 172.287 25.505 171.927 25.505C171.337 25.505 170.812 25.625 170.352 25.865C169.902 26.105 169.522 26.425 169.212 26.825C168.902 27.225 168.667 27.675 168.507 28.175C168.357 28.665 168.282 29.16 168.282 29.66C168.282 30.21 168.372 30.74 168.552 31.25C168.742 31.76 169.002 32.21 169.332 32.6C169.662 32.99 170.052 33.3 170.502 33.53C170.952 33.76 171.442 33.875 171.972 33.875C172.342 33.875 172.722 33.81 173.112 33.68C173.502 33.55 173.867 33.35 174.207 33.08C174.547 32.8 174.817 32.44 175.017 32L176.142 32.615C175.922 33.145 175.582 33.595 175.122 33.965C174.662 34.335 174.147 34.615 173.577 34.805C173.017 34.995 172.462 35.09 171.912 35.09C171.182 35.09 170.512 34.935 169.902 34.625C169.292 34.305 168.762 33.885 168.312 33.365C167.872 32.835 167.527 32.245 167.277 31.595C167.037 30.935 166.917 30.27 166.917 29.6ZM176.932 35.06V33.875C177.272 33.865 177.572 33.74 177.832 33.5C178.092 33.26 178.297 32.82 178.447 32.18C178.607 31.54 178.707 30.625 178.747 29.435L178.837 27.17H184.162V35H182.842V28.34H180.007L179.977 29.555C179.927 30.975 179.782 32.085 179.542 32.885C179.312 33.685 178.977 34.245 178.537 34.565C178.107 34.885 177.572 35.05 176.932 35.06ZM187.269 38.285C186.939 38.285 186.589 38.185 186.219 37.985L186.669 37.085C186.839 37.185 187.009 37.235 187.179 37.235C187.669 37.235 188.099 36.78 188.469 35.87L188.844 34.925L185.409 27.17H186.804L189.444 33.665L191.829 27.17H193.134L189.474 36.275C189.204 36.945 188.879 37.445 188.499 37.775C188.119 38.115 187.709 38.285 187.269 38.285ZM193.927 35L196.807 30.965L194.182 27.17H195.667L197.917 30.425H198.757V27.17H200.107V30.425H200.977L203.182 27.17H204.682L202.057 30.965L204.952 35H203.437L200.977 31.58H200.107V35H198.757V31.58H197.917L195.442 35H193.927ZM210.14 35.15C208.85 35.15 207.875 34.76 207.215 33.98C206.555 33.2 206.225 32.1 206.225 30.68C206.225 29.71 206.305 28.895 206.465 28.235C206.625 27.565 206.865 27.015 207.185 26.585C207.505 26.145 207.9 25.79 208.37 25.52C208.84 25.24 209.38 25.01 209.99 24.83L213.305 23.825L213.38 24.965L210.155 25.94C209.605 26.12 209.145 26.35 208.775 26.63C208.405 26.91 208.115 27.27 207.905 27.71C207.695 28.15 207.555 28.715 207.485 29.405C207.745 28.875 208.135 28.465 208.655 28.175C209.175 27.875 209.78 27.725 210.47 27.725C211.21 27.725 211.845 27.88 212.375 28.19C212.915 28.49 213.325 28.915 213.605 29.465C213.895 30.005 214.04 30.63 214.04 31.34C214.04 32.1 213.89 32.765 213.59 33.335C213.29 33.905 212.85 34.35 212.27 34.67C211.69 34.99 210.98 35.15 210.14 35.15ZM210.14 34.01C210.95 34.01 211.575 33.775 212.015 33.305C212.465 32.825 212.69 32.19 212.69 31.4C212.69 30.63 212.47 30.005 212.03 29.525C211.59 29.045 210.96 28.805 210.14 28.805C209.41 28.805 208.8 29.03 208.31 29.48C207.83 29.93 207.59 30.57 207.59 31.4C207.59 32.16 207.81 32.785 208.25 33.275C208.69 33.765 209.32 34.01 210.14 34.01ZM215.034 32.735C215.034 32.235 215.174 31.805 215.454 31.445C215.744 31.075 216.139 30.79 216.639 30.59C217.139 30.39 217.719 30.29 218.379 30.29C218.729 30.29 219.099 30.32 219.489 30.38C219.879 30.43 220.224 30.51 220.524 30.62V30.05C220.524 29.45 220.344 28.98 219.984 28.64C219.624 28.29 219.114 28.115 218.454 28.115C218.024 28.115 217.609 28.195 217.209 28.355C216.819 28.505 216.404 28.725 215.964 29.015L215.484 28.085C215.994 27.735 216.504 27.475 217.014 27.305C217.524 27.125 218.054 27.035 218.604 27.035C219.604 27.035 220.394 27.315 220.974 27.875C221.554 28.425 221.844 29.195 221.844 30.185V33.5C221.844 33.81 221.984 33.97 222.264 33.98V35C222.134 35.02 222.019 35.035 221.919 35.045C221.829 35.055 221.754 35.06 221.694 35.06C221.384 35.06 221.149 34.975 220.989 34.805C220.839 34.635 220.754 34.455 220.734 34.265L220.704 33.77C220.364 34.21 219.919 34.55 219.369 34.79C218.819 35.03 218.274 35.15 217.734 35.15C217.214 35.15 216.749 35.045 216.339 34.835C215.929 34.615 215.609 34.325 215.379 33.965C215.149 33.595 215.034 33.185 215.034 32.735ZM220.134 33.29C220.254 33.15 220.349 33.01 220.419 32.87C220.489 32.72 220.524 32.595 220.524 32.495V31.52C219.884 31.27 219.224 31.145 218.544 31.145C217.874 31.145 217.329 31.28 216.909 31.55C216.499 31.81 216.294 32.17 216.294 32.63C216.294 32.88 216.359 33.125 216.489 33.365C216.629 33.595 216.829 33.785 217.089 33.935C217.359 34.085 217.689 34.16 218.079 34.16C218.489 34.16 218.879 34.08 219.249 33.92C219.619 33.75 219.914 33.54 220.134 33.29ZM87.275 53V42.35H88.625V46.955H90.05L93.56 42.35H95.12L91.16 47.51L95.39 53H93.74L90.08 48.185H88.625V53H87.275ZM96.8205 53V45.17H98.1405V47.84H99.7305C100.651 47.84 101.346 48.075 101.816 48.545C102.296 49.005 102.536 49.61 102.536 50.36C102.536 51.11 102.306 51.74 101.846 52.25C101.386 52.75 100.711 53 99.8205 53H96.8205ZM103.886 53V45.185H105.206V53H103.886ZM98.1405 51.965H99.6405C100.191 51.965 100.586 51.81 100.826 51.5C101.076 51.18 101.201 50.81 101.201 50.39C101.201 49.98 101.086 49.625 100.856 49.325C100.626 49.025 100.211 48.875 99.6105 48.875H98.1405V51.965ZM111.553 53.15C110.913 53.15 110.343 52.99 109.843 52.67C109.343 52.35 108.948 51.945 108.658 51.455V56.195H107.338V45.17H108.508V46.64C108.818 46.16 109.223 45.775 109.723 45.485C110.223 45.185 110.768 45.035 111.358 45.035C111.898 45.035 112.393 45.145 112.843 45.365C113.293 45.585 113.683 45.885 114.013 46.265C114.343 46.645 114.598 47.08 114.778 47.57C114.968 48.05 115.063 48.555 115.063 49.085C115.063 49.825 114.913 50.505 114.613 51.125C114.323 51.745 113.913 52.24 113.383 52.61C112.853 52.97 112.243 53.15 111.553 53.15ZM111.148 52.01C111.668 52.01 112.118 51.87 112.498 51.59C112.878 51.31 113.173 50.945 113.383 50.495C113.603 50.045 113.713 49.575 113.713 49.085C113.713 48.555 113.593 48.07 113.353 47.63C113.123 47.19 112.803 46.84 112.393 46.58C111.993 46.31 111.538 46.175 111.028 46.175C110.718 46.175 110.388 46.255 110.038 46.415C109.698 46.575 109.398 46.79 109.138 47.06C108.888 47.32 108.728 47.61 108.658 47.93V50.165C108.878 50.685 109.213 51.125 109.663 51.485C110.123 51.835 110.618 52.01 111.148 52.01ZM116.669 53V45.17H121.499V46.34H117.989V53H116.669ZM122.836 53V45.17H124.156V47.84H125.746C126.666 47.84 127.361 48.075 127.831 48.545C128.311 49.005 128.551 49.61 128.551 50.36C128.551 51.11 128.321 51.74 127.861 52.25C127.401 52.75 126.726 53 125.836 53H122.836ZM129.901 53V45.185H131.221V53H129.901ZM124.156 51.965H125.656C126.206 51.965 126.601 51.81 126.841 51.5C127.091 51.18 127.216 50.81 127.216 50.39C127.216 49.98 127.101 49.625 126.871 49.325C126.641 49.025 126.226 48.875 125.626 48.875H124.156V51.965ZM135.799 53.105C135.039 53.105 134.394 52.965 133.864 52.685C133.344 52.395 132.944 51.995 132.664 51.485L133.744 51.005C133.924 51.325 134.179 51.575 134.509 51.755C134.849 51.935 135.259 52.025 135.739 52.025C136.309 52.025 136.759 51.9 137.089 51.65C137.419 51.4 137.584 51.065 137.584 50.645C137.584 50.265 137.449 49.96 137.179 49.73C136.919 49.49 136.549 49.365 136.069 49.355H135.274V48.485H136.114C136.434 48.485 136.694 48.375 136.894 48.155C137.104 47.925 137.209 47.64 137.209 47.3C137.209 46.95 137.084 46.67 136.834 46.46C136.584 46.24 136.209 46.13 135.709 46.13C134.919 46.13 134.354 46.45 134.014 47.09L133.009 46.55C133.259 46.08 133.619 45.715 134.089 45.455C134.569 45.185 135.129 45.05 135.769 45.05C136.539 45.05 137.169 45.235 137.659 45.605C138.149 45.965 138.394 46.475 138.394 47.135C138.394 47.505 138.304 47.85 138.124 48.17C137.954 48.48 137.699 48.715 137.359 48.875C137.829 49.015 138.189 49.26 138.439 49.61C138.689 49.95 138.814 50.355 138.814 50.825C138.814 51.545 138.529 52.105 137.959 52.505C137.399 52.905 136.679 53.105 135.799 53.105ZM143.865 53.15C143.085 53.15 142.395 52.965 141.795 52.595C141.195 52.215 140.725 51.715 140.385 51.095C140.045 50.475 139.875 49.8 139.875 49.07C139.875 48.33 140.04 47.655 140.37 47.045C140.7 46.435 141.165 45.95 141.765 45.59C142.365 45.22 143.06 45.035 143.85 45.035C144.62 45.035 145.29 45.21 145.86 45.56C146.44 45.9 146.87 46.36 147.15 46.94L145.86 47.345C145.66 46.975 145.38 46.69 145.02 46.49C144.66 46.28 144.26 46.175 143.82 46.175C143.34 46.175 142.9 46.3 142.5 46.55C142.11 46.8 141.8 47.145 141.57 47.585C141.34 48.015 141.225 48.51 141.225 49.07C141.225 49.62 141.34 50.12 141.57 50.57C141.81 51.01 142.125 51.36 142.515 51.62C142.915 51.88 143.355 52.01 143.835 52.01C144.145 52.01 144.44 51.955 144.72 51.845C145.01 51.735 145.26 51.59 145.47 51.41C145.69 51.22 145.84 51.015 145.92 50.795L147.21 51.185C146.98 51.755 146.56 52.225 145.95 52.595C145.35 52.965 144.655 53.15 143.865 53.15ZM148.691 53V45.17H150.011V48.395H150.881L153.341 45.17H154.841L151.916 48.965L155.186 53H153.656L150.881 49.61H150.011V53H148.691ZM159.494 53.15C158.714 53.15 158.024 52.965 157.424 52.595C156.834 52.215 156.374 51.72 156.044 51.11C155.714 50.49 155.549 49.82 155.549 49.1C155.549 48.37 155.714 47.7 156.044 47.09C156.384 46.47 156.849 45.975 157.439 45.605C158.039 45.225 158.724 45.035 159.494 45.035C160.274 45.035 160.959 45.225 161.549 45.605C162.149 45.975 162.614 46.47 162.944 47.09C163.284 47.7 163.454 48.37 163.454 49.1C163.454 49.82 163.284 50.49 162.944 51.11C162.614 51.72 162.154 52.215 161.564 52.595C160.974 52.965 160.284 53.15 159.494 53.15ZM156.899 49.115C156.899 49.655 157.014 50.145 157.244 50.585C157.484 51.025 157.799 51.375 158.189 51.635C158.579 51.885 159.014 52.01 159.494 52.01C159.974 52.01 160.409 51.88 160.799 51.62C161.199 51.36 161.514 51.01 161.744 50.57C161.984 50.12 162.104 49.625 162.104 49.085C162.104 48.545 161.984 48.055 161.744 47.615C161.514 47.175 161.199 46.825 160.799 46.565C160.409 46.305 159.974 46.175 159.494 46.175C159.014 46.175 158.579 46.31 158.189 46.58C157.799 46.84 157.484 47.19 157.244 47.63C157.014 48.07 156.899 48.565 156.899 49.115ZM165.038 53V45.185H166.358V51.23L170.738 45.17H171.938V53H170.618V47.075L166.298 53H165.038ZM168.503 44.285C167.783 44.285 167.238 44.115 166.868 43.775C166.498 43.425 166.313 42.995 166.313 42.485H167.243C167.243 42.765 167.338 43 167.528 43.19C167.728 43.37 168.053 43.46 168.503 43.46C168.943 43.46 169.253 43.375 169.433 43.205C169.613 43.025 169.723 42.785 169.763 42.485H170.693C170.693 42.995 170.508 43.425 170.138 43.775C169.768 44.115 169.223 44.285 168.503 44.285ZM178.051 53V42.35H182.491C182.961 42.35 183.391 42.45 183.781 42.65C184.171 42.84 184.511 43.1 184.801 43.43C185.091 43.75 185.316 44.115 185.476 44.525C185.636 44.925 185.716 45.335 185.716 45.755C185.716 46.335 185.586 46.89 185.326 47.42C185.066 47.94 184.701 48.365 184.231 48.695C183.761 49.015 183.211 49.175 182.581 49.175H179.401V53H178.051ZM179.401 47.975H182.506C182.876 47.975 183.196 47.875 183.466 47.675C183.746 47.475 183.961 47.205 184.111 46.865C184.271 46.525 184.351 46.155 184.351 45.755C184.351 45.335 184.261 44.96 184.081 44.63C183.901 44.29 183.666 44.025 183.376 43.835C183.086 43.645 182.766 43.55 182.416 43.55H179.401V47.975ZM190.652 53.15C189.872 53.15 189.182 52.965 188.582 52.595C187.982 52.225 187.512 51.73 187.172 51.11C186.832 50.49 186.662 49.815 186.662 49.085C186.662 48.345 186.832 47.67 187.172 47.06C187.512 46.45 187.982 45.96 188.582 45.59C189.192 45.22 189.887 45.035 190.667 45.035C191.457 45.035 192.142 45.225 192.722 45.605C193.312 45.975 193.767 46.465 194.087 47.075C194.417 47.675 194.582 48.325 194.582 49.025C194.582 49.245 194.572 49.415 194.552 49.535H188.057C188.097 50.045 188.237 50.5 188.477 50.9C188.727 51.29 189.047 51.6 189.437 51.83C189.827 52.05 190.247 52.16 190.697 52.16C191.177 52.16 191.627 52.04 192.047 51.8C192.477 51.56 192.772 51.245 192.932 50.855L194.072 51.17C193.822 51.75 193.387 52.225 192.767 52.595C192.147 52.965 191.442 53.15 190.652 53.15ZM188.012 48.62H193.352C193.312 48.11 193.167 47.66 192.917 47.27C192.667 46.88 192.347 46.575 191.957 46.355C191.567 46.135 191.137 46.025 190.667 46.025C190.207 46.025 189.782 46.135 189.392 46.355C189.002 46.575 188.682 46.88 188.432 47.27C188.192 47.66 188.052 48.11 188.012 48.62ZM199.514 53.15C198.734 53.15 198.044 52.965 197.444 52.595C196.844 52.215 196.374 51.715 196.034 51.095C195.694 50.475 195.524 49.8 195.524 49.07C195.524 48.33 195.689 47.655 196.019 47.045C196.349 46.435 196.814 45.95 197.414 45.59C198.014 45.22 198.709 45.035 199.499 45.035C200.269 45.035 200.939 45.21 201.509 45.56C202.089 45.9 202.519 46.36 202.799 46.94L201.509 47.345C201.309 46.975 201.029 46.69 200.669 46.49C200.309 46.28 199.909 46.175 199.469 46.175C198.989 46.175 198.549 46.3 198.149 46.55C197.759 46.8 197.449 47.145 197.219 47.585C196.989 48.015 196.874 48.51 196.874 49.07C196.874 49.62 196.989 50.12 197.219 50.57C197.459 51.01 197.774 51.36 198.164 51.62C198.564 51.88 199.004 52.01 199.484 52.01C199.794 52.01 200.089 51.955 200.369 51.845C200.659 51.735 200.909 51.59 201.119 51.41C201.339 51.22 201.489 51.015 201.569 50.795L202.859 51.185C202.629 51.755 202.209 52.225 201.599 52.595C200.999 52.965 200.304 53.15 199.514 53.15ZM204.34 53V45.17H210.835V53H209.515V46.34H205.66V53H204.34ZM213.943 56.285C213.613 56.285 213.263 56.185 212.893 55.985L213.343 55.085C213.513 55.185 213.683 55.235 213.853 55.235C214.343 55.235 214.773 54.78 215.143 53.87L215.518 52.925L212.083 45.17H213.478L216.118 51.665L218.503 45.17H219.808L216.148 54.275C215.878 54.945 215.553 55.445 215.173 55.775C214.793 56.115 214.383 56.285 213.943 56.285ZM224.832 53.15C223.542 53.15 222.567 52.76 221.907 51.98C221.247 51.2 220.917 50.1 220.917 48.68C220.917 47.71 220.997 46.895 221.157 46.235C221.317 45.565 221.557 45.015 221.877 44.585C222.197 44.145 222.592 43.79 223.062 43.52C223.532 43.24 224.072 43.01 224.682 42.83L227.997 41.825L228.072 42.965L224.847 43.94C224.297 44.12 223.837 44.35 223.467 44.63C223.097 44.91 222.807 45.27 222.597 45.71C222.387 46.15 222.247 46.715 222.177 47.405C222.437 46.875 222.827 46.465 223.347 46.175C223.867 45.875 224.472 45.725 225.162 45.725C225.902 45.725 226.537 45.88 227.067 46.19C227.607 46.49 228.017 46.915 228.297 47.465C228.587 48.005 228.732 48.63 228.732 49.34C228.732 50.1 228.582 50.765 228.282 51.335C227.982 51.905 227.542 52.35 226.962 52.67C226.382 52.99 225.672 53.15 224.832 53.15ZM224.832 52.01C225.642 52.01 226.267 51.775 226.707 51.305C227.157 50.825 227.382 50.19 227.382 49.4C227.382 48.63 227.162 48.005 226.722 47.525C226.282 47.045 225.652 46.805 224.832 46.805C224.102 46.805 223.492 47.03 223.002 47.48C222.522 47.93 222.282 48.57 222.282 49.4C222.282 50.16 222.502 50.785 222.942 51.275C223.382 51.765 224.012 52.01 224.832 52.01ZM229.651 53.06V51.875C229.991 51.865 230.291 51.74 230.551 51.5C230.811 51.26 231.016 50.82 231.166 50.18C231.326 49.54 231.426 48.625 231.466 47.435L231.556 45.17H236.881V53H235.561V46.34H232.726L232.696 47.555C232.646 48.975 232.501 50.085 232.261 50.885C232.031 51.685 231.696 52.245 231.256 52.565C230.826 52.885 230.291 53.05 229.651 53.06ZM238.998 53V45.185H240.318V51.23L244.698 45.17H245.898V53H244.578V47.075L240.258 53H238.998ZM247.992 53V45.17H249.312V48.395H250.182L252.642 45.17H254.142L251.217 48.965L254.487 53H252.957L250.182 49.61H249.312V53H247.992ZM255.771 53V45.185H257.091V51.23L261.471 45.17H262.671V53H261.351V47.075L257.031 53H255.771Z" fill="black"/>
<path d="M19.0891 31.7455C19.7571 35.9035 19.5581 36.7975 18.9043 38.4863C18.8617 38.5998 19.3165 38.983 19.4871 38.5572C20.013 37.1949 20.013 37.1807 20.0983 35.9886C20.1835 34.4844 19.0607 31.632 19.0891 31.7455ZM46.4079 30.3548C46.4363 30.2271 44.5316 34.2999 44.6454 35.9461C44.7449 37.2517 44.688 37.649 45.3276 39.1249C45.5266 39.5932 46.0809 39.1675 46.0383 39.0397C45.1428 36.1306 45.0007 35.9603 46.4079 30.3548ZM49.4069 30.7521C49.4354 30.6244 48.0851 33.9167 48.1988 35.5629C48.2983 36.8685 48.2556 36.6698 48.8953 38.1457C49.0942 38.614 49.677 38.2167 49.6202 38.1031C48.8384 36.2583 48.5968 35.2933 49.4069 30.7521ZM52.7472 31.4191C52.7614 31.3198 51.6101 33.8174 51.7096 35.1372C51.7949 36.1873 51.7949 36.2015 52.335 37.3794C52.5055 37.7483 52.9746 37.4219 52.932 37.3226C52.2639 35.8609 52.0507 35.0662 52.7472 31.4191ZM30.5738 28.9499C30.3606 28.666 30.0194 28.368 30.19 28.7086C30.6306 29.6452 31.1565 30.0993 31.9525 30.2696C32.8906 30.4683 33.6439 29.8723 34.1272 28.8363C34.2835 28.4816 33.3597 29.6878 32.2083 29.6594C31.5119 29.6452 31.0002 29.5033 30.5738 28.9499ZM30.659 33.193C30.4458 32.9092 30.1047 32.6112 30.2753 32.9517C30.7159 33.8884 31.2418 34.3425 32.0378 34.5128C32.9759 34.7114 33.7292 34.1154 34.2125 33.0795C34.3688 32.7247 33.4449 33.9309 32.2936 33.9026C31.5972 33.8884 31.0855 33.7606 30.659 33.193ZM30.7443 37.7625C30.5311 37.4787 30.19 37.1807 30.3606 37.5355C30.8012 38.4721 31.3271 38.9262 32.1231 39.0965C33.0612 39.2952 33.8145 38.6991 34.2978 37.6632C34.4541 37.3084 33.5302 38.5147 32.3789 38.4863C31.6824 38.4579 31.1565 38.3302 30.7443 37.7625ZM30.9718 41.6793C30.7585 41.3955 30.4174 41.0974 30.588 41.4522C31.0286 42.3888 31.5545 42.8429 32.3505 43.0132C33.2886 43.2119 34.0419 42.6159 34.5252 41.5799C34.6815 41.2252 33.7576 42.4314 32.6063 42.403C31.9241 42.3746 31.3982 42.2469 30.9718 41.6793ZM34.6105 26.736C34.3973 26.4522 34.0561 26.1542 34.2267 26.4948C34.6673 27.4314 35.1932 27.8855 35.9892 28.0558C36.9273 28.2545 37.6806 27.6585 38.1639 26.6225C38.3202 26.2677 37.3964 27.474 36.245 27.4456C35.5486 27.4172 35.0369 27.2895 34.6105 26.736ZM34.6815 30.9792C34.4683 30.6954 34.1272 30.3974 34.2978 30.7379C34.7384 31.6745 35.2643 32.1287 36.0603 32.299C36.9984 32.4976 37.7517 31.9016 38.235 30.8657C38.3913 30.5109 37.4674 31.7171 36.3161 31.6887C35.6196 31.6745 35.1079 31.5326 34.6815 30.9792ZM34.7668 35.5487C34.5536 35.2649 34.2125 34.9669 34.383 35.3075C34.8237 36.2441 35.3496 36.6982 36.1455 36.8685C37.0837 37.0672 37.837 36.4711 38.3202 35.4352C38.4766 35.0804 37.5527 36.2867 36.4014 36.2583C35.7049 36.2441 35.1932 36.1022 34.7668 35.5487ZM35.0084 39.4655C34.7952 39.1816 34.4541 38.8836 34.6247 39.2384C35.0653 40.175 35.5912 40.6291 36.3872 40.7994C37.3253 40.9981 38.0786 40.4021 38.5619 39.3661C38.7182 39.0114 37.7943 40.2176 36.643 40.1892C35.9466 40.1608 35.4349 40.0331 35.0084 39.4655ZM38.3345 29.1627C38.1213 28.8789 37.7801 28.5809 37.9507 28.9215C38.3913 29.8581 38.9172 30.3122 39.7132 30.4825C40.6513 30.6812 41.4046 30.0851 41.8879 29.0492C42.0442 28.6944 41.1204 29.9007 39.969 29.8723C39.2726 29.8439 38.7467 29.7162 38.3345 29.1627ZM38.4055 33.4059C38.1923 33.122 37.8512 32.824 38.0218 33.1646C38.4624 34.1012 38.9883 34.5553 39.7843 34.7256C40.7224 34.9243 41.4757 34.3283 41.959 33.2923C42.1153 32.9376 41.1914 34.1438 40.0401 34.1154C39.3436 34.1012 38.8319 33.9593 38.4055 33.4059ZM38.4908 37.9754C38.2776 37.6916 37.9365 37.3936 38.107 37.7483C38.5477 38.685 39.0736 39.1391 39.8695 39.3094C40.8076 39.508 41.561 38.912 42.0442 37.8761C42.2006 37.5213 41.2767 38.7275 40.1254 38.6991C39.4289 38.6708 38.903 38.543 38.4908 37.9754ZM38.7324 41.8921C38.5192 41.6083 38.1781 41.3103 38.3487 41.6509C38.7893 42.5875 39.3152 43.0416 40.1112 43.2119C41.0493 43.4106 41.8026 42.8146 42.2859 41.7786C42.4422 41.4238 41.5183 42.6301 40.367 42.6017C39.6705 42.5875 39.1446 42.4598 38.7324 41.8921ZM25.2152 30.5393C26.5797 36.9395 26.4376 37.1239 25.5705 40.4588C25.5279 40.6008 26.068 41.0833 26.2528 40.5582C26.864 38.8694 26.8213 38.4011 26.9066 36.9253C27.0203 35.0378 25.1868 30.3974 25.2152 30.5393ZM22.3298 30.9934C23.1116 36.1731 22.8699 37.28 22.1166 39.3803C22.0597 39.5222 22.6283 39.9622 22.8273 39.4371C23.4385 37.7483 23.4101 37.9754 23.4953 36.4853C23.609 34.5979 22.3014 30.8373 22.3298 30.9934ZM34.98 14.5743C34.6389 14.5743 34.3688 14.8581 34.3688 15.1987C34.3688 15.4541 34.6673 15.8231 34.9374 15.8373C36.174 15.894 35.7476 15.1845 36.0318 15.1845C36.245 15.1845 37.6948 15.1561 37.6948 15.7663C37.6948 16.0076 37.8512 16.0501 37.8512 15.7947C37.837 14.9574 35.6196 14.5743 34.98 14.5743ZM48.4262 19.6121C52.7188 20.0662 57.0255 28.0274 56.9829 33.86C56.9829 34.7398 55.3625 33.2923 55.7321 34.087C56.9118 36.5989 56.329 39.4513 56.4427 40.9839C56.528 41.9631 55.2772 42.1618 55.2772 42.1618C55.2772 45.2271 54.9077 47.4834 53.6284 50.2933C52.7045 52.351 50.9278 54.7209 50.3877 56.736C49.1795 56.3955 48.1561 54.6925 48.1561 53.8552C48.1561 52.4787 49.9186 49.1438 50.8425 46.7455C51.2689 45.4683 51.4679 44.4607 52.1076 43.8789C50.9278 44.8155 50.7288 45.8231 50.1603 47.0151C49.3217 48.8174 47.9429 51.6131 47.5592 53.3727C46.6495 52.6064 45.8109 51.5421 45.8109 50.5345C45.8109 50.0095 48.213 44.2763 48.9663 43.0558C46.7348 44.7446 46.4647 47.6395 45.3418 50.1088C44.6454 49.527 43.9205 48.3065 43.9205 47.4267C43.9205 46.6745 45.7824 42.3037 46.2373 41.878C44.6596 42.6443 43.9347 45.3832 43.4656 46.9442C42.3996 45.965 42.2432 44.6452 42.1864 43.5809C41.8026 45.369 40.2533 49.527 40.2533 50.1514C40.2533 50.6339 41.5041 53.8694 41.9021 54.3803C42.2006 54.4087 42.7407 53.8694 43.7072 54.4087C44.1621 54.877 44.3611 54.5222 44.887 55.6433C44.5885 55.6575 44.1194 55.246 43.9205 55.175C43.3093 54.9622 43.494 55.1892 43.0676 55.4021C42.5986 55.6291 42.1153 55.1608 42.0158 55.2318C43.1245 56.1258 43.7215 56.1968 43.2524 57.4456C43.1671 57.6868 42.8544 58.368 42.7549 58.4957C42.5702 58.2829 42.6412 57.3463 42.4564 56.8496C41.1061 56.8354 41.9021 55.5298 41.163 55.4446C40.8787 56.8212 39.4858 55.6008 39.1304 56.9631L38.7182 57.403C38.5619 54.877 40.5802 54.8486 40.5518 54.7209C39.7843 51.2583 36.2308 48.264 36.2308 48.264C34.7952 50.123 33.3028 50.8467 31.9951 54.7209C31.9525 54.8486 33.9566 55.1892 34.2267 57.7294L33.9708 57.6301C33.8998 57.2753 33.5018 56.807 33.0612 56.7219C32.3789 56.5799 31.5829 56.807 31.7393 55.6008C31.4834 55.7852 31.4692 56.0549 31.1281 56.5799C30.858 56.9915 30.1616 57.5024 30.0763 58.07C30.0194 58.439 30.3037 58.8505 30.5027 59.2337C30.3606 59.0492 29.4367 58.2261 29.5504 57.9849C30.2611 56.4238 28.8255 56.6793 30.5169 55.2318C30.4316 55.1466 29.9341 55.7994 29.4651 55.5724C28.8823 55.2885 29.0671 56.0123 27.8589 55.9839C28.5838 55.5156 28.726 54.7351 29.394 54.4513C29.6783 54.3377 30.5453 54.3519 30.8438 54.3236C31.2418 53.8127 32.2652 50.6339 32.2652 50.1514C32.2652 49.527 30.7159 45.369 30.3321 43.5809C30.2753 44.6452 30.1331 45.965 29.0529 46.9442C28.5838 45.3832 27.8589 42.6443 26.2812 41.878C26.7361 42.3037 28.5981 46.6745 28.5981 47.4267C28.5981 48.3065 27.8732 49.527 27.1767 50.1088C26.0538 47.6395 25.7837 44.7304 23.5522 43.0558C24.3055 44.2763 26.7076 50.0095 26.7076 50.5345C26.7076 51.5279 25.869 52.5922 24.9593 53.3727C24.5756 51.6272 23.1968 48.8174 22.3582 47.0151C21.7897 45.8231 21.5907 44.8155 20.411 43.8789C21.0506 44.4607 21.2496 45.4683 21.676 46.7455C22.5999 49.1296 24.3624 52.4645 24.3624 53.8552C24.3624 54.6783 23.3248 56.3955 22.1308 56.736C21.5765 54.7209 19.9419 52.2942 18.8901 50.2933C16.1468 45.0709 17.554 43.9924 17.1134 41.2394C16.9712 40.3595 16.1468 41.3671 16.2321 39.7919C16.2321 39.7919 14.7539 34.3567 17.3408 30.6102C17.3834 30 15.8483 31.3198 15.9194 30.7521C16.2463 28.3964 19.2739 20.1088 24.1065 19.6121C26.9777 19.3141 26.8356 23.1031 28.6407 24.3945C29.0529 24.6925 29.5646 24.8628 30.2326 24.8628C31.455 24.8628 32.1799 24.0681 32.6063 23.0747C33.1891 21.7692 33.2317 20.1372 33.2317 19.6547C33.2317 18.3491 33.3597 16.6178 30.8438 16.6887C31.2845 16.4191 31.7677 16.3482 32.0236 16.3482C32.7627 16.3482 33.516 16.6887 34.2267 17.1854L34.383 17.0151C33.8856 16.1779 32.5779 15.9224 31.9667 15.9224C31.5403 15.9224 30.1758 16.2346 29.9341 16.7597C29.7778 16.6462 29.6641 16.5468 29.6641 16.2914C29.6499 15.6954 29.8062 14.929 30.1474 14.6736C31.3271 13.8079 32.4358 14.3756 33.047 13.9641C34.0846 13.2545 34.5252 12.9849 35.4206 12.9849C35.6765 12.9849 37.8938 13.2971 39.1731 13.6235C39.2868 13.737 39.301 13.666 39.301 13.9357C39.301 14.2053 39.1873 14.3472 39.0878 14.404C39.8127 14.6878 40.1396 16.6036 40.1396 17.2706V20.9319C40.1396 22.6206 40.7224 24.4371 42.9113 24.4655C46.5642 24.5222 45.2281 19.2857 48.4262 19.6121ZM30.7017 46.3765L31.8388 50.0095C31.3129 51.5137 31.2276 52.9044 30.659 53.8552C30.4743 54.1533 29.2519 53.9688 28.925 54.1816C28.527 54.4513 28.0295 55.3027 27.5747 55.6149L30.7017 46.3765ZM31.4124 60C31.1565 60 28.7686 59.9716 28.4986 59.9716C27.7452 59.9716 26.5939 59.7304 26.5939 58.5241C26.5939 58.2545 27.0203 57.0766 27.4894 56.3103C27.6457 56.5516 27.7026 56.2677 27.9584 56.2677C28.2143 56.2677 28.5128 56.3103 28.7402 56.1968C28.7402 56.1968 29.2377 55.9981 29.3798 55.9697C29.1808 56.4664 29.4509 56.9773 29.3656 57.3604C29.2092 58.0132 29.1382 58.2687 29.2945 58.4815C29.5362 58.8079 29.8489 59.404 30.5738 59.5033C30.9149 59.5175 30.389 58.6518 30.389 58.1835C30.4032 57.5733 31.185 57.2753 31.4834 56.5516C31.5687 57.0766 32.3789 56.9631 33.0185 57.176C33.5018 57.403 33.3312 57.9707 34.2267 58.2545C34.6815 58.3964 34.5536 57.5024 34.5536 57.3604C34.5536 56.4664 33.5302 54.948 32.5779 54.6499C33.0043 52.1949 36.2735 49.0445 36.373 48.9309C37.3395 49.9669 39.5711 52.28 39.898 54.4513C39.5426 54.8486 38.7182 54.806 38.3629 56.6509C38.3345 56.7928 38.2776 57.8004 38.7182 57.9991C39.0309 58.141 39.5568 57.3179 39.6421 56.8496C39.7558 56.2535 40.5376 57.1334 41.0919 56.2394C41.2767 56.4806 41.3762 56.7077 41.4899 57.0341C41.5894 57.3179 42.1295 57.0908 42.2148 57.3604C42.4138 58.0132 42.2574 58.964 42.6554 58.9499C43.1245 58.8505 43.693 57.8855 43.693 57.3179C43.693 57.0482 44.1052 56.1968 43.1387 55.7143C43.2524 55.5866 43.9489 55.544 43.9489 55.544C44.1763 55.6575 44.5601 56.1116 45.2281 56.3245C45.6972 57.0908 46.1236 58.2687 46.1236 58.5383C46.1236 59.7304 45.1428 59.9858 44.3753 59.9858C44.1337 59.9716 33.8145 60 31.4124 60ZM41.9447 46.0785L44.8728 54.877C44.4179 54.5648 44.0342 54.1107 43.6362 53.8552C43.3093 53.6424 42.4422 54.1107 42.2574 53.7985C41.4757 52.4503 41.163 51.6131 40.6371 50.1088L41.9447 46.0785Z" fill="#3BA6B3"/>
<path fill-rule="evenodd" clip-rule="evenodd" d="M7.51902 58.6377L7.78908 58.4532L7.71801 58.3255C7.5048 58.0133 8.03071 57.6727 8.47134 57.3605L10.9019 55.6576C11.1862 55.4589 11.7831 55.0615 11.9963 55.3596L12.0816 55.4731L12.3517 55.2886L12.2095 55.0899C12.1527 55.0048 12.0532 54.9338 11.9679 54.8629C11.8826 54.7777 11.7973 54.6784 11.7263 54.5649C11.6552 54.4655 11.5841 54.352 11.5415 54.2385C11.4704 54.1249 11.442 54.0114 11.3709 53.9263L11.2288 53.7276L10.9587 53.9121L11.044 54.0256C11.2572 54.3236 10.6745 54.7493 10.3902 54.948L7.95964 56.6509C7.53323 56.949 7.02154 57.3321 6.79412 57.0199L6.70884 56.9064L6.43878 57.0909L6.5667 57.2754C6.62355 57.3605 6.72305 57.4456 6.79412 57.5308C6.8794 57.6159 6.96468 57.7153 7.03575 57.8146C7.10682 57.914 7.16368 58.0275 7.22053 58.141C7.26317 58.2404 7.32003 58.3539 7.37688 58.439L7.51902 58.6377ZM6.18293 56.1543L6.09765 56.0265C6.04079 55.9414 6.08343 55.7995 6.23978 55.7285C6.59513 55.5582 7.06418 55.6434 7.41952 55.686C7.84593 55.7285 8.30077 55.7285 8.96882 55.7569C9.26731 54.9338 9.66529 54.0965 9.82164 53.756C10.2196 52.9187 10.4328 52.4788 10.1059 52.0246C9.94957 51.8118 9.8785 51.7976 9.58001 51.5847L9.30995 51.7834C9.55158 51.8969 9.60844 51.9821 9.63686 52.0246C9.75057 52.1949 9.53737 52.5639 9.39523 52.8335C9.18202 53.2593 8.96882 53.7134 8.76983 54.1391C8.58505 54.5365 8.37184 54.9196 8.48555 55.4873C8.34341 55.4731 8.27235 55.4589 8.14442 55.4447C7.80329 55.4163 8.10178 55.4589 7.23474 55.3454C5.65702 55.1467 5.54331 55.1893 5.30168 54.8629L5.24482 54.7777L4.97476 54.9622L5.06004 55.0899C5.10269 55.1467 5.15954 55.1893 5.20218 55.246C5.30168 55.3454 5.41539 55.4589 5.50067 55.5724C5.60017 55.7143 5.65702 55.8562 5.72809 56.0123C5.77073 56.0833 5.79916 56.1401 5.8418 56.1968L5.92708 56.3104L6.18293 56.1543Z" fill="#3BA6B3"/>
<path fill-rule="evenodd" clip-rule="evenodd" d="M3.63866 52.4362L3.93715 52.3085L3.88029 52.1808C3.73816 51.7976 4.5057 51.5564 4.97475 51.3719L7.39108 50.3927C7.8175 50.2224 8.58504 49.896 8.74139 50.2792L8.79824 50.4069L9.09673 50.2792L9.03988 50.1514C8.94038 49.9102 8.8551 49.825 8.76982 49.6973C8.64189 49.5128 8.65611 49.4277 8.62768 49.2432C8.61346 49.1155 8.57082 49.002 8.5424 48.8884C8.48554 48.6898 8.41447 48.5053 8.3434 48.3066C7.86014 47.1145 6.83675 47.2565 6.14028 47.5403C5.38695 47.8383 4.8184 48.5904 5.27324 49.6973C5.34431 49.8818 5.42959 50.0521 5.52909 50.2224L4.64783 50.5772C3.994 50.8326 3.45388 51.1022 3.29753 50.7333L3.24068 50.6056L2.94219 50.7333L3.02747 50.9461C3.07011 51.0455 3.14118 51.1448 3.19803 51.2442C3.25489 51.3577 3.32596 51.457 3.3686 51.5706C3.41124 51.6841 3.45388 51.8118 3.48231 51.9395C3.51074 52.053 3.52495 52.1666 3.56759 52.2659L3.63866 52.4362ZM5.79915 50.0805C5.77072 50.0237 5.74229 49.967 5.71386 49.9102C5.4438 49.2432 5.78493 48.6614 6.59511 48.3208C7.39108 47.9944 7.95963 48.2073 8.11598 48.5904C8.28655 49.002 8.0307 49.1723 7.51901 49.3851L5.79915 50.0805ZM2.11779 48.6756L2.41628 48.5478L2.35942 48.4201C2.20307 48.037 2.9564 47.7957 3.48231 47.5828L5.89864 46.6037C6.28241 46.4476 7.04995 46.1212 7.19209 46.4901L7.24895 46.6179L7.54743 46.4901L7.46215 46.2631C7.41951 46.1637 7.33423 46.0786 7.27737 45.9793C7.20631 45.8799 7.14945 45.7664 7.10681 45.6529C7.06417 45.5393 7.02153 45.4258 6.9931 45.2981C6.97889 45.1846 6.97889 45.071 6.93624 44.9717L6.83675 44.7446L6.53826 44.8582L6.59511 44.9859C6.72304 45.3123 6.08342 45.5819 5.61437 45.7664L3.12697 46.774C2.6437 46.9726 1.9188 47.3274 1.76245 46.9301L1.70559 46.7881L1.4071 46.9159L1.49239 47.1287C1.53503 47.2281 1.6061 47.3274 1.66295 47.4267C1.71981 47.5403 1.79088 47.6396 1.83352 47.7531C1.87616 47.8667 1.9188 47.9944 1.94723 48.1221C1.97565 48.2498 1.98987 48.3634 2.03251 48.4627L2.11779 48.6756Z" fill="#3BA6B3"/>
<path fill-rule="evenodd" clip-rule="evenodd" d="M6.26826 41.3529L5.94135 41.4096L5.98399 41.5941C6.06927 42.0057 5.0601 42.1476 4.5484 42.2469L1.77673 42.7862L0.95233 42.9423C0.923903 42.8713 0.923903 42.8146 0.909689 42.7436C0.781765 42.0908 1.2366 41.5941 2.11786 41.4238C3.14124 41.2252 3.59608 41.6793 3.55344 42.1476L3.83772 42.0908C3.83772 41.9631 3.83772 41.8354 3.80929 41.7076C3.6103 40.7143 2.70062 40.4021 1.80515 40.5724C1.29346 40.6717 0.199003 41.0974 0.483277 42.5307C0.511705 42.6868 0.56856 42.8429 0.625414 42.999C0.696483 43.1977 0.767552 43.3964 0.810193 43.6093C0.83862 43.737 0.852834 43.8789 0.867048 44.0066C0.867048 44.0776 0.881262 44.1627 0.895475 44.2337L0.923903 44.3756L1.25082 44.3188L1.22239 44.1769C1.15132 43.8079 1.9615 43.6518 2.60112 43.5241L4.22149 43.2119C4.51998 43.1551 5.25909 43.0274 5.57179 42.9707C5.77078 42.9423 6.26826 42.8713 6.33933 43.1693L6.36776 43.3112L6.69467 43.2545L6.65203 42.999C6.62361 42.8855 6.56675 42.7862 6.52411 42.6868C6.48147 42.5733 6.43883 42.4598 6.42461 42.3321C6.39619 42.2043 6.38197 42.0766 6.38197 41.9489C6.38197 41.8354 6.4104 41.7218 6.38197 41.6083L6.26826 41.3529Z" fill="#3BA6B3"/>
<path fill-rule="evenodd" clip-rule="evenodd" d="M0.0994961 38.6849L0.426412 38.6707V38.5146C0.412198 38.1598 1.15131 38.1315 1.62036 38.1173L4.43468 38.0179C4.88952 38.0037 5.61442 37.9612 5.62864 38.3443V38.4862L5.95555 38.472L5.94134 38.2166C5.94134 38.1031 5.88448 38.0037 5.85606 37.8902C5.82763 37.7625 5.81341 37.649 5.81341 37.5212C5.81341 37.3935 5.81341 37.28 5.84184 37.1523C5.87027 37.0387 5.8987 36.9252 5.8987 36.8259L5.88448 36.4853L5.55757 36.4995L5.57178 36.7407C5.58599 37.0955 4.88952 37.1381 4.33519 37.1523L0.454839 37.2942L0.440626 36.8117C0.426412 36.4853 0.312702 36.017 1.08024 35.9886C1.29345 35.9744 1.50666 36.017 1.5493 36.0312L1.53508 35.7615C1.12288 35.6622 0.596977 35.5771 0 35.5061C0.0568549 36.4427 0.0852824 36.4001 0.11371 36.8968C0.11371 37.0529 0.127924 37.4645 0.127924 37.6632C0.127924 38.1031 0.0852824 37.9895 0.0852824 38.3727L0.0994961 38.6849Z" fill="#3BA6B3"/>
<path fill-rule="evenodd" clip-rule="evenodd" d="M0.0994873 33.1221L0.426403 33.1788L0.45483 33.0369C0.525899 32.6254 1.29344 32.8099 1.79092 32.895L4.36361 33.3065C4.81844 33.3775 5.64284 33.5052 5.58599 33.9026L5.55756 34.0445L5.88447 34.1013L5.9129 33.9593C5.95554 33.7039 5.92711 33.5904 5.9129 33.4343C5.89869 33.2214 5.95554 33.1504 6.02661 32.966C6.08347 32.8524 6.11189 32.7389 6.14032 32.6112C6.19718 32.4125 6.23982 32.2138 6.26824 32.0152C6.46724 30.738 5.51492 30.3406 4.7758 30.2271C3.97983 30.0994 3.1128 30.4399 2.91381 31.6178C2.88538 31.8023 2.87116 32.001 2.87116 32.1996L1.93306 32.0435C1.23659 31.93 0.639609 31.8874 0.696464 31.4901L0.724891 31.3482L0.397976 31.2914L0.369548 31.5185C0.355334 31.632 0.355334 31.7455 0.355334 31.8591C0.355334 31.9868 0.355334 32.1145 0.326907 32.228C0.312693 32.3557 0.270052 32.4835 0.227411 32.597C0.198983 32.6963 0.142128 32.8099 0.127915 32.9234L0.0994873 33.1221ZM3.15544 32.2138C3.15544 32.1571 3.16965 32.0861 3.18387 32.0152C3.29758 31.3056 3.89455 30.9792 4.76159 31.1069C5.61441 31.2488 5.98397 31.7171 5.92711 32.1145C5.85605 32.5544 5.55756 32.5686 5.01744 32.4835L3.15544 32.2138ZM0.739105 29.106L1.06602 29.1627L1.09445 29.0208C1.16552 28.6093 1.93306 28.7938 2.48739 28.8789L5.06008 29.2905C5.47228 29.3614 6.28246 29.475 6.2256 29.8581L6.19718 30L6.52409 30.0568L6.56673 29.8013C6.58095 29.6878 6.55252 29.5743 6.55252 29.4608C6.55252 29.333 6.55252 29.2053 6.58095 29.0918C6.59516 28.9641 6.62359 28.8505 6.66623 28.737C6.70887 28.6377 6.76572 28.5241 6.77994 28.4248L6.82258 28.1836L6.49566 28.1268L6.48145 28.2687C6.4246 28.6235 5.72812 28.5241 5.24486 28.439L2.6011 28.0133C2.0752 27.9281 1.29344 27.8714 1.3503 27.4598L1.37872 27.3179L1.03759 27.2469L0.994952 27.474C0.980738 27.5875 0.980738 27.7011 0.980738 27.8146C0.980738 27.9423 0.980738 28.07 0.952311 28.1836C0.938097 28.3113 0.895456 28.439 0.852815 28.5525C0.824387 28.6519 0.781746 28.7654 0.753319 28.8789L0.739105 29.106Z" fill="#3BA6B3"/>
<path fill-rule="evenodd" clip-rule="evenodd" d="M5.91282 26.2819L6.08338 26.3529C6.63772 26.5657 7.16363 26.8779 7.74639 26.14C7.88853 25.9697 8.00224 25.771 8.0733 25.5723C8.54236 24.3661 7.70375 23.5146 6.96463 23.2308C5.96967 22.8477 5.2732 23.5004 5.10264 23.9546L5.05999 24.0681L4.97471 24.0113C5.05999 23.543 5.03157 22.7483 4.17874 22.4219C3.62441 22.2091 2.85687 22.1665 2.50152 23.0889C2.18882 23.8978 2.30253 24.1107 2.03247 24.508L2.24568 24.5932C2.45888 24.6783 3.05586 24.9337 3.31171 25.0473L3.39699 24.806C2.84265 24.4512 2.44467 24.1107 2.64366 23.5856C2.81423 23.1599 3.28328 23.0321 3.88026 23.2592C4.53409 23.5146 4.77572 24.0965 4.60516 24.5364C4.57673 24.6215 4.51987 24.7351 4.46302 24.8202L4.90364 24.9905C4.91786 24.8912 4.93207 24.806 4.98893 24.6783C5.30163 23.8552 6.08338 23.8836 6.75143 24.139C7.61847 24.4654 7.88853 25.0615 7.70375 25.544C7.56161 25.9271 7.12098 26.3245 5.96967 26.0832L5.91282 26.2819Z" fill="#3BA6B3"/>
<path fill-rule="evenodd" clip-rule="evenodd" d="M10.2765 18.2355C10.7456 18.8174 10.7029 19.6546 10.4471 20.0662C10.0207 20.7757 8.713 21.2156 7.12107 20.2648C5.79919 19.4701 5.21643 18.3207 5.82762 17.2989C6.14032 16.7738 6.83679 16.4191 7.60433 16.8732L7.74647 16.6461C7.68961 16.6177 7.64697 16.5893 7.59012 16.561C7.30584 16.3907 6.76572 16.0359 6.46723 15.8088C6.42459 15.9507 6.3251 16.1069 6.23981 16.263C6.04082 16.5893 5.72812 16.788 5.35856 17.3841C4.43467 18.9167 5.28749 20.3216 6.55252 21.0737C8.13024 22.0245 9.86431 21.7549 10.7029 20.3642C10.9303 19.9952 11.1151 19.4843 11.1151 19.0728C11.1151 18.8032 11.0583 18.5477 10.4186 18.0227L10.2765 18.2355Z" fill="#3BA6B3"/>
<path fill-rule="evenodd" clip-rule="evenodd" d="M9.38099 12.7578L12.1385 15.227C12.5649 15.6102 13.2471 16.2346 12.9771 16.5326L12.8776 16.6462L13.1192 16.859L13.304 16.6603C13.3893 16.5752 13.4319 16.4617 13.4745 16.3623C13.5314 16.2488 13.6167 16.1495 13.702 16.0643C13.7872 15.9792 13.8867 15.8798 13.9862 15.8089C14.0857 15.7379 14.1852 15.6954 14.2705 15.6102L14.4411 15.4257L14.1994 15.2129L14.0999 15.3264C13.8299 15.6386 13.1476 14.9858 12.7212 14.6168L9.96375 12.105L10.3333 11.6935C10.5181 11.4948 10.8734 11.1116 11.3851 11.5657C11.4136 11.5941 11.5273 11.6935 11.6552 11.8496L11.84 11.6509C11.3567 11.0974 11.2998 10.9697 10.8166 10.473C10.447 10.9413 9.87847 11.6935 9.42363 12.2043C9.23885 12.403 8.78401 12.8997 8.61345 13.0558C8.42867 13.2403 8.38603 13.2687 7.9454 13.666C8.28653 14.0208 8.40024 14.1769 8.98301 14.8155L9.15357 14.6168C8.64188 13.8931 8.71295 13.4957 9.01143 13.1693L9.38099 12.7578Z" fill="#3BA6B3"/>
<path fill-rule="evenodd" clip-rule="evenodd" d="M15.9762 13.8364L16.1609 13.6945C16.2178 13.6519 16.2604 13.5668 16.3031 13.51C16.3741 13.4107 16.4736 13.3397 16.5731 13.2546C17.0422 12.8714 16.7153 13.2404 17.1275 12.8998L17.227 12.8288L17.0138 12.5734L16.8858 12.6727C16.7721 12.7579 16.5021 12.914 16.2462 12.3463L15.7914 11.353C16.1041 11.1259 16.1751 11.0833 16.3173 10.9698C16.5305 10.7853 16.7721 10.5725 16.8716 10.4731L17.8666 11.1969C18.1082 11.3813 18.1509 11.6226 17.9945 11.7503L17.8666 11.8497L18.0798 12.1051L18.3072 11.9206C18.4067 11.8355 18.492 11.7219 18.5773 11.6226C18.6625 11.5374 18.7336 11.4523 18.8331 11.3813C18.9468 11.282 19.0747 11.1969 19.2169 11.1117C19.3164 11.0549 19.4301 10.9982 19.5296 10.9272L19.6575 10.8137L19.4443 10.5583L19.4017 10.6434C19.2595 10.7569 19.1458 10.9414 18.5488 10.5583C17.9803 10.1893 18.4778 10.5725 15.9193 8.75599C14.7822 7.9471 14.5121 7.74842 14.1568 7.4646C14.0857 7.63489 13.9862 7.80519 13.8583 7.96129C14.1142 8.40121 14.3274 8.88371 15.2228 10.9414C15.4076 11.3672 15.6777 12.0199 15.8909 12.6585C15.9904 12.9424 16.0899 13.3113 15.8767 13.4816L15.7629 13.5668L15.9762 13.8364ZM14.7111 8.88371C15.0665 9.2243 15.2228 9.25268 16.5731 10.2602C16.4736 10.388 16.3741 10.4873 16.1751 10.6434C15.9619 10.8279 15.8056 10.9272 15.6492 11.0124C14.8675 9.30944 14.8391 9.19591 14.6685 8.94047L14.7111 8.88371Z" fill="#3BA6B3"/>
<path fill-rule="evenodd" clip-rule="evenodd" d="M18.2077 4.99528L18.3498 5.29329L18.4778 5.23653C18.7478 5.10881 18.9326 5.42101 19.0605 5.66226C19.1742 5.88932 19.3874 6.30086 19.5012 6.52792L20.5956 8.78431C20.752 9.09651 21.0504 9.7493 20.7235 9.9054L20.5956 9.96217L20.7377 10.2602L20.9652 10.1467C21.0647 10.1041 21.1499 10.0047 21.2352 9.93379C21.3347 9.86283 21.4484 9.79188 21.5621 9.73511C21.6759 9.67835 21.7896 9.63577 21.9175 9.60739C22.0312 9.57901 22.1449 9.57901 22.2444 9.52224L22.4718 9.40872L22.3297 9.1107L22.2018 9.16747C21.9175 9.30938 21.619 8.81269 21.4058 8.37276L20.7662 7.05299C20.951 6.99623 21.1642 6.89689 21.4769 6.75498C21.619 6.68402 21.7753 6.61307 21.9175 6.54211C22.0596 6.47116 22.216 6.4002 22.3581 6.32925C22.6708 6.17314 22.8698 6.05961 23.0262 5.94609L23.6658 7.26586C23.879 7.70578 24.0922 8.24504 23.8079 8.38696L23.68 8.44372L23.8221 8.74173L24.0495 8.6282C24.149 8.58563 24.2343 8.48629 24.3196 8.41534C24.4191 8.34438 24.5328 8.27343 24.6465 8.21666C24.7602 8.1599 24.8739 8.11732 25.0019 8.08894C25.1156 8.06056 25.2293 8.06056 25.3288 8.0038L25.5562 7.89027L25.4141 7.59225L25.2861 7.64902C24.9592 7.80512 24.6323 7.16652 24.476 6.85432L23.3815 4.59793C23.0688 3.97352 22.5997 3.17882 22.9977 2.98014L23.1257 2.92338L22.9835 2.62537L22.7845 2.7247C22.6566 2.83823 22.5571 2.90919 22.4718 2.98014C22.3723 3.0511 22.2586 3.12205 22.1449 3.17882C22.0312 3.23558 21.9175 3.27816 21.7896 3.30654C21.6759 3.33492 21.5621 3.3633 21.4626 3.42007L21.2494 3.51941L21.3916 3.81742L21.5195 3.76065C21.818 3.61874 22.0312 4.03029 22.1165 4.18639C22.1875 4.31411 22.4718 4.86756 22.5571 5.06624L22.8272 5.61969C22.6566 5.73322 22.4008 5.9177 21.7327 6.2441C21.0647 6.57049 20.7662 6.66983 20.5672 6.7266L20.2971 6.17314C20.1976 5.97447 19.9276 5.40682 19.8707 5.2791C19.7996 5.10881 19.6006 4.68308 19.8991 4.54117L20.0271 4.4844L19.8991 4.1722L19.6859 4.27153C19.5864 4.31411 19.4869 4.39925 19.4017 4.45602C19.3022 4.52697 19.1884 4.59793 19.089 4.65469C18.9752 4.71146 18.8473 4.75403 18.7336 4.79661C18.6199 4.82499 18.5062 4.85337 18.4067 4.91013L18.2077 4.99528Z" fill="#3BA6B3"/>
<path fill-rule="evenodd" clip-rule="evenodd" d="M33.0611 4.78239C32.9332 5.52033 32.2936 6.0454 31.8103 6.14474C30.9859 6.30084 29.792 5.63386 29.4366 3.8174C29.1381 2.29895 29.6072 1.0927 30.7727 0.865647C31.3839 0.752118 32.1088 1.02175 32.2794 1.9016L32.5494 1.84483C32.5352 1.78807 32.521 1.7313 32.5068 1.67454C32.4499 1.34814 32.3362 0.709545 32.322 0.340576C32.1799 0.397341 32.0093 0.439914 31.8245 0.468296C31.455 0.539252 31.0854 0.439914 30.4032 0.567634C28.6407 0.90822 28.1716 2.46924 28.4559 3.91673C28.8112 5.71901 30.1615 6.82591 31.7535 6.51371C32.1799 6.42856 32.6773 6.22989 32.99 5.96025C33.189 5.77577 33.3454 5.5629 33.3028 4.72563L33.0611 4.78239Z" fill="#3BA6B3"/>
<path fill-rule="evenodd" clip-rule="evenodd" d="M34.7383 6.04541H34.9658C35.0368 6.04541 35.1221 6.01703 35.1932 6.00284C35.3211 5.97446 35.4348 5.97445 35.5627 5.98865C36.1597 6.00284 35.6907 6.07379 36.2166 6.07379H36.3445V5.7474H36.1881C36.046 5.7474 35.7475 5.69063 35.9039 5.09461L36.2024 4.04447C36.5861 4.07285 36.6572 4.08704 36.842 4.08704C37.1262 4.08704 37.4532 4.08704 37.5953 4.07285L37.8796 5.2649C37.9506 5.56291 37.8227 5.77578 37.6237 5.76159H37.4674V6.08798H37.7659C37.8938 6.08798 38.0217 6.0596 38.1639 6.03122C38.2776 6.01703 38.3913 6.00284 38.505 6.01703C38.6613 6.01703 38.8177 6.03122 38.9598 6.0596C39.0735 6.07379 39.1872 6.11637 39.3152 6.11637H39.4857V5.78997H39.4147C39.2299 5.78997 39.0309 5.86093 38.8177 5.17975C38.6187 4.52696 38.7608 5.15137 37.9649 2.11447C37.6095 0.76632 37.5242 0.439924 37.439 0C37.2826 0.0851466 37.0978 0.156102 36.8988 0.184484C36.8135 0.681173 36.6714 1.19205 36.0176 3.3491C35.8897 3.80322 35.6764 4.4702 35.4206 5.09461C35.3069 5.37843 35.1505 5.71902 34.8805 5.71902H34.7383V6.04541ZM36.9557 1.4333C37.0125 1.92999 37.112 2.04352 37.4958 3.6755C37.3395 3.71807 37.1973 3.73226 36.9557 3.71807C36.6714 3.71807 36.5008 3.68969 36.3161 3.66131C36.8135 1.85903 36.8704 1.74551 36.8988 1.44749L36.9557 1.4333Z" fill="#3BA6B3"/>
<path fill-rule="evenodd" clip-rule="evenodd" d="M40.4239 6.28669L40.7082 6.34346C40.8645 6.37184 41.0067 6.30088 41.291 6.35765C41.4331 6.38603 41.5752 6.4428 41.7174 6.49956C41.8027 6.52794 41.8737 6.57052 41.959 6.58471L42.0727 6.61309L42.1296 6.28669L41.9732 6.24412C41.8311 6.21574 41.6179 6.08802 41.9164 5.44942L43.1245 2.88083C43.2667 2.56862 43.3519 2.39833 43.4088 2.11451L43.4657 2.1287C43.4514 2.32738 43.4372 2.38414 43.4514 2.48348L43.6789 5.43523C43.7073 5.86096 43.821 6.5989 43.2667 6.48537L43.1814 6.47118L43.1245 6.81176L43.4657 6.88272C43.5794 6.89691 43.6789 6.88272 43.7926 6.86853C43.9205 6.85434 44.0484 6.88272 44.1763 6.9111C44.3185 6.93948 44.4464 6.96787 44.5743 7.03882C44.6596 7.0814 44.7591 7.13816 44.8444 7.15235L45.0718 7.19492L45.1287 6.86853L44.9865 6.84015C44.6596 6.76919 44.5743 5.87515 44.489 5.02369C44.3185 3.20722 44.2332 2.2848 44.1906 0.879883C44.02 0.894074 43.8352 0.894074 43.6504 0.894074C43.2524 1.87326 42.8687 2.62539 42.4707 3.39171C41.76 4.79663 41.76 4.73986 41.4899 5.25074C41.3336 5.53456 41.0209 6.08802 40.6513 6.00287L40.4808 5.9603L40.4239 6.28669Z" fill="#3BA6B3"/>
<path fill-rule="evenodd" clip-rule="evenodd" d="M48.6963 2.27063L48.5683 2.56864L48.6963 2.62541C49.08 2.7957 48.6963 3.49106 48.4831 3.95937L47.417 6.34348C47.2323 6.75502 46.8911 7.52134 46.5358 7.36524L46.4079 7.30847L46.2799 7.60649L46.4079 7.66325C46.6353 7.76259 46.7632 7.77678 46.9196 7.80516C47.1328 7.84773 47.1896 7.91869 47.346 8.03222C47.4455 8.11737 47.545 8.17413 47.6587 8.2309C47.8434 8.34442 48.014 8.42957 48.1988 8.51472C49.3785 9.03979 50.0181 8.23089 50.3166 7.53553C50.6436 6.79759 50.5441 5.87517 49.4496 5.37848C49.279 5.30753 49.0943 5.23657 48.9095 5.17981L49.2932 4.31415C49.5775 3.67555 49.7907 3.10791 50.1461 3.26401L50.274 3.32077L50.4019 3.02276L50.1887 2.93761C50.0892 2.89504 49.9755 2.86666 49.8618 2.83827C49.7339 2.80989 49.6202 2.76732 49.5065 2.71055C49.3927 2.66798 49.279 2.59703 49.1795 2.52607C49.08 2.46931 48.9948 2.39835 48.8953 2.35578L48.6963 2.27063ZM48.7958 5.44944C48.8526 5.46363 48.9237 5.49201 48.9805 5.52039C49.6486 5.81841 49.8049 6.4712 49.4496 7.28009C49.0943 8.07479 48.5399 8.30185 48.1704 8.13156C47.7582 7.96126 47.815 7.66325 48.0424 7.15237L48.7958 5.44944ZM52.4203 3.93099L52.2923 4.229L52.4203 4.28577C52.804 4.45606 52.4345 5.15142 52.1928 5.6623L51.1268 8.04641C50.9563 8.42957 50.6293 9.1817 50.274 9.0256L50.1461 8.96883L50.0181 9.26685L50.2456 9.36618C50.3451 9.40876 50.4588 9.42295 50.5725 9.43714C50.7004 9.46552 50.8141 9.50809 50.9278 9.55067C51.0415 9.60743 51.1552 9.6642 51.2547 9.73515C51.34 9.80611 51.4253 9.89125 51.5248 9.93383L51.7522 10.0332L51.8801 9.73515L51.7522 9.67839C51.4253 9.53648 51.7096 8.89788 51.9086 8.42957L53.003 5.97451C53.2162 5.49201 53.4863 4.73988 53.8701 4.91018L54.0122 4.99532L54.1401 4.69731L53.9269 4.59797C53.8274 4.5554 53.7137 4.52702 53.6 4.49863C53.4721 4.47025 53.3584 4.42768 53.2447 4.37091C53.1309 4.32834 53.0315 4.25738 52.9177 4.20062C52.8182 4.14386 52.733 4.0729 52.6193 4.03033L52.4203 3.93099Z" fill="#3BA6B3"/>
<path fill-rule="evenodd" clip-rule="evenodd" d="M56.4427 6.18726L56.2437 6.45689L56.3574 6.54203C56.6701 6.76909 56.2722 7.26578 55.9595 7.69151L54.2112 10.0898C53.998 10.3736 53.5715 10.9413 53.2731 10.7284L53.1594 10.6433L52.9604 10.9129L53.1594 11.0548C53.2446 11.1258 53.3583 11.1541 53.4721 11.1967C53.5858 11.2535 53.6995 11.3244 53.799 11.3954C53.8985 11.4663 53.998 11.5515 54.0832 11.6508C54.1543 11.736 54.2254 11.8353 54.3107 11.9063L54.5097 12.0482L54.7087 11.7786L54.5949 11.6934C54.3107 11.4805 54.7086 10.8987 54.9219 10.6007L56.6701 8.20239C56.9828 7.77666 57.3382 7.25159 57.6509 7.47865L57.7646 7.56379L57.9636 7.29416L57.7788 7.16644C57.6935 7.09549 57.594 7.05291 57.4945 7.01034C57.3808 6.95358 57.2671 6.88262 57.1676 6.81166C57.0681 6.74071 56.9686 6.64137 56.8834 6.55622C56.7981 6.47108 56.727 6.38593 56.6417 6.32917L56.4427 6.18726ZM58.5179 8.10306L58.6459 8.1882C58.7311 8.25916 58.7311 8.38688 58.6032 8.5146C58.3189 8.78423 57.8499 8.85518 57.4945 8.94033C57.0823 9.03967 56.6559 9.18158 56.0021 9.36606C55.9879 10.2459 55.8884 11.1541 55.86 11.5373C55.7605 12.4597 55.7036 12.9422 56.1442 13.2686C56.3574 13.4247 56.4427 13.4105 56.7839 13.5099L56.9828 13.2402C56.7128 13.2119 56.6275 13.1409 56.5849 13.1125C56.4143 12.9848 56.4996 12.5733 56.5564 12.261C56.6275 11.7927 56.6701 11.2961 56.727 10.8136C56.7839 10.3878 56.8549 9.9479 56.5564 9.45121C56.6986 9.42283 56.7696 9.40864 56.8976 9.38025C57.2245 9.29511 56.9402 9.35187 57.793 9.18158C59.3565 8.85518 59.4418 8.77004 59.783 9.01129L59.854 9.06805L60.053 8.79842L59.9251 8.71327C59.8682 8.6707 59.7972 8.64232 59.7403 8.61394C59.6124 8.55717 59.4702 8.48622 59.3565 8.40107C59.2286 8.30173 59.1149 8.1882 59.0012 8.06048C58.9443 8.00372 58.8875 7.96114 58.8306 7.91857L58.7027 7.83342L58.5179 8.10306Z" fill="#3BA6B3"/>
<path fill-rule="evenodd" clip-rule="evenodd" d="M63.7485 12.5591L63.4926 12.7719L63.5779 12.8855C63.8195 13.1835 63.3078 13.5667 62.8956 13.893L60.593 15.7521C60.323 15.9791 59.7544 16.4049 59.527 16.1352L59.4417 16.0217L59.1859 16.2346L59.3422 16.4333C59.4133 16.5184 59.5128 16.5752 59.5981 16.6461C59.6975 16.7313 59.7828 16.8164 59.8681 16.9158C59.9392 17.0151 60.0245 17.1144 60.0813 17.228C60.124 17.3273 60.1666 17.4408 60.2377 17.526L60.394 17.7246L60.6499 17.5118L60.5646 17.3982C60.3372 17.1144 60.8773 16.6603 61.1616 16.4333L63.4642 14.5742C63.8764 14.2478 64.3596 13.8221 64.6013 14.1201L64.6866 14.2336L64.9424 14.0208L64.8003 13.8505C64.7292 13.7653 64.6439 13.6944 64.5586 13.6092C64.4734 13.5241 64.3739 13.4389 64.2886 13.3396C64.2033 13.2403 64.1464 13.1267 64.0754 13.0274C64.0185 12.9281 63.9617 12.8287 63.8906 12.7436L63.7485 12.5591ZM65.2551 14.9432L65.3546 15.0567C65.4257 15.1419 65.383 15.2838 65.2267 15.3547C64.8856 15.5392 64.4023 15.4966 64.0469 15.4824C63.6205 15.4683 63.1657 15.4966 62.4976 15.5108C62.256 16.3481 61.9291 17.2138 61.787 17.5685C61.46 18.4342 61.2611 18.8883 61.6164 19.314C61.787 19.5269 61.8722 19.5269 62.1707 19.7114L62.4266 19.4985C62.1849 19.3992 62.1139 19.314 62.0712 19.2715C61.9433 19.1154 62.1281 18.7322 62.256 18.4484C62.4408 18.0085 62.6256 17.5402 62.7961 17.1002C62.9525 16.6887 63.1373 16.2913 62.9951 15.7379C63.1373 15.7521 63.2083 15.7521 63.3363 15.7521C63.6774 15.7521 63.3789 15.7379 64.2459 15.7805C65.8379 15.8656 65.9516 15.8088 66.2074 16.1352L66.2643 16.2062L66.5201 15.9933L66.4206 15.8798C66.378 15.823 66.3211 15.7805 66.2643 15.7379C66.1506 15.6386 66.0369 15.5392 65.9516 15.4257C65.8521 15.298 65.7668 15.1561 65.6957 15C65.6531 14.929 65.6105 14.8722 65.5678 14.8155L65.4825 14.7019L65.2551 14.9432Z" fill="#3BA6B3"/>
<path fill-rule="evenodd" clip-rule="evenodd" d="M68.1263 18.5762L67.8278 18.7181L67.8846 18.8458C68.0552 19.229 67.3161 19.4986 66.847 19.7115L64.4875 20.8042C64.0753 21.0029 63.322 21.3576 63.1515 20.9887L63.0946 20.8609L62.7961 21.0029L62.853 21.1306C62.9667 21.3576 63.052 21.4428 63.1515 21.5705C63.2936 21.7408 63.2794 21.8259 63.322 22.0104C63.3504 22.1381 63.3789 22.2517 63.4215 22.3652C63.4784 22.5639 63.5637 22.7484 63.6489 22.9328C64.1891 24.0965 65.2124 23.8978 65.8947 23.5856C66.6338 23.245 67.1597 22.4787 66.648 21.386C66.5627 21.2157 66.4632 21.0454 66.3638 20.8751L67.2308 20.4778C67.8704 20.1798 68.3963 19.8959 68.5669 20.2507L68.6237 20.3784L68.9222 20.2365L68.8227 20.0237C68.7801 19.9243 68.709 19.825 68.638 19.7398C68.5669 19.6405 68.4958 19.527 68.4532 19.4134C68.3963 19.2999 68.3679 19.1722 68.3252 19.0587C68.2968 18.9451 68.2684 18.8316 68.2258 18.7323L68.1263 18.5762ZM66.1079 21.0454C66.1363 21.1022 66.1648 21.159 66.1932 21.2157C66.5059 21.8685 66.1932 22.4787 65.3972 22.8477C64.6155 23.2167 64.0469 23.0322 63.8621 22.649C63.6774 22.2517 63.919 22.0672 64.4165 21.8259L66.1079 21.0454ZM69.8461 22.2659L69.5476 22.4078L69.6045 22.5355C69.7751 22.9045 69.0501 23.1883 68.5242 23.4295L66.1648 24.5364C65.7952 24.7067 65.0419 25.0757 64.8713 24.7209L64.8145 24.5932L64.516 24.7351L64.6155 24.9622C64.6581 25.0615 64.7434 25.1467 64.8145 25.2318C64.8855 25.3311 64.9566 25.4447 64.9992 25.5582C65.0561 25.6717 65.0987 25.7853 65.1272 25.913C65.1556 26.0265 65.1556 26.14 65.1982 26.2394L65.2977 26.4664L65.5962 26.3245L65.5394 26.1968C65.383 25.8704 66.0226 25.5724 66.4775 25.3595L68.908 24.2242C69.3913 23.9972 70.0735 23.614 70.2583 23.9972L70.3152 24.1249L70.6137 23.983L70.5142 23.7701C70.4715 23.6708 70.4005 23.5714 70.3294 23.4863C70.2583 23.387 70.1872 23.2734 70.1446 23.1599C70.0877 23.0464 70.0593 22.9186 70.0167 22.8051C69.9883 22.6916 69.9598 22.5781 69.9172 22.4787L69.8461 22.2659Z" fill="#3BA6B3"/>
<path fill-rule="evenodd" clip-rule="evenodd" d="M67.231 27.403L67.0462 27.4456C66.4777 27.5875 65.8523 27.6301 65.8096 28.5809C65.7954 28.808 65.8096 29.0208 65.8665 29.2337C66.1792 30.4825 67.3447 30.7096 68.1265 30.5251C69.1641 30.2696 69.3488 29.333 69.2351 28.8647L69.2067 28.7512L69.292 28.7228C69.491 29.1627 69.9743 29.7871 70.8697 29.5743C71.4525 29.4324 72.0921 29.035 71.8505 28.07C71.6373 27.2327 71.4241 27.1192 71.4241 26.6367L71.1966 26.6935C70.9834 26.7502 70.3296 26.878 70.0595 26.9347L70.1164 27.176C70.7844 27.1476 71.2961 27.1902 71.4383 27.7436C71.552 28.1977 71.2251 28.5667 70.6139 28.7086C69.9316 28.8789 69.3915 28.5383 69.2778 28.0842C69.2494 27.9849 69.2351 27.8713 69.2209 27.772L68.7661 27.8855C68.8087 27.9707 68.8514 28.0558 68.8798 28.1977C69.093 29.0492 68.4392 29.4749 67.7427 29.6452C66.8472 29.8723 66.2787 29.5459 66.165 29.035C66.0655 28.6377 66.1934 28.0558 67.2736 27.6017L67.231 27.403Z" fill="#3BA6B3"/>
<path fill-rule="evenodd" clip-rule="evenodd" d="M66.648 32.0861L66.6622 32.299C66.6764 32.5402 66.8043 32.7673 66.8043 32.9376C66.8185 33.1504 66.7333 33.4059 66.7475 33.5336L66.7617 33.6897L67.0886 33.6613L67.0744 33.5052C67.046 33.1079 67.7993 33.1362 68.0694 33.122C68.7516 33.0795 70.5283 33.0369 70.9121 33.0085L71.0542 32.9943V33.0653C70.8695 33.1078 70.4288 33.2356 68.9932 33.9309C68.3963 34.2148 68.0836 34.3992 67.6003 34.6121C67.316 34.7398 67.316 34.7398 66.9891 34.8959L67.0033 35.1514C67.4866 35.2933 67.5434 35.3075 67.7851 35.3926C68.3536 35.5629 68.4247 35.5913 69.1922 35.8325C69.8745 36.0312 70.173 36.1306 70.4857 36.2157C71.2106 36.4144 70.8552 36.3008 71.2817 36.4286V36.4711L70.8268 36.4853L68.1688 36.7975C67.4013 36.8827 67.2876 36.7266 67.2734 36.5137V36.4144L66.9465 36.4428L66.9607 36.6131C66.9749 36.7266 67.0033 36.8259 67.0318 36.9395C67.0602 37.0814 67.1028 37.2091 67.117 37.351C67.1312 37.4929 67.1312 37.6348 67.1028 37.7909C67.0886 37.8903 67.0602 38.0038 67.0602 38.1173L67.0886 38.316L67.4155 38.2876L67.4013 38.1883C67.3587 37.6632 68.5242 37.6206 69.3486 37.5213L71.6086 37.2517C71.8786 37.2233 72.1629 37.1807 72.4472 37.1523C72.504 37.1523 72.5609 37.1381 72.6177 37.1381C72.7599 37.1239 72.8736 37.1097 73.0868 37.0814C73.0015 36.8827 72.9447 36.684 72.902 36.457C72.7741 36.4286 72.1629 36.3008 70.642 35.8467C69.576 35.5203 69.0217 35.2649 68.1831 35.1372V35.0804C68.4816 34.9953 68.709 34.8817 68.9932 34.7682L72.8167 33.0937C72.7315 32.9659 72.6746 32.8098 72.632 32.6537C72.4045 32.6679 71.5233 32.7105 70.8126 32.7105H68.3252C67.2592 32.7105 67.0175 32.3983 67.0033 32.1712L66.9891 32.0719L66.648 32.0861Z" fill="#3BA6B3"/>
<path fill-rule="evenodd" clip-rule="evenodd" d="M66.8187 39.3804L66.7903 39.6074C66.776 39.6784 66.8045 39.7635 66.8045 39.8345C66.8187 39.9622 66.7903 40.0899 66.776 40.2035C66.6765 40.7995 66.6765 40.317 66.5913 40.8279L66.577 40.9556L66.904 41.0123L66.9324 40.8562C66.9466 40.7143 67.0603 40.4163 67.6146 40.6718L68.6096 41.1117C68.5385 41.4948 68.4959 41.5658 68.4817 41.7361C68.439 42.0199 68.3964 42.3321 68.3964 42.474L67.174 42.6018C66.8755 42.6301 66.6765 42.474 66.705 42.2754L66.7334 42.1193L66.4065 42.0625L66.3638 42.3605C66.3496 42.4882 66.3638 42.6301 66.3638 42.7579C66.3638 42.8714 66.3496 42.9849 66.3354 43.0984C66.307 43.2545 66.2786 43.3965 66.2217 43.5526C66.1791 43.6661 66.1364 43.7796 66.1222 43.8931L66.0938 44.0634L66.4207 44.1202L66.4349 44.0492C66.4633 43.8648 66.4207 43.6519 67.1314 43.5384C67.7994 43.4248 67.1598 43.4816 70.2868 43.1126C71.6798 42.9565 72.0067 42.914 72.4615 42.8998C72.4047 42.7295 72.362 42.545 72.3478 42.3463C71.8646 42.1902 71.3813 41.9773 69.3345 41.0407C68.9081 40.8421 68.2827 40.544 67.6857 40.2035C67.4157 40.0474 67.103 39.8487 67.1456 39.579L67.174 39.4371L66.8187 39.3804ZM71.0686 42.2186C70.5711 42.2044 70.4432 42.2895 68.766 42.4457C68.7517 42.2895 68.766 42.1476 68.7944 41.9064C68.837 41.6226 68.8797 41.4523 68.9507 41.282C70.6706 42.0341 70.7701 42.0909 71.0686 42.1618V42.2186Z" fill="#3BA6B3"/>
<path fill-rule="evenodd" clip-rule="evenodd" d="M70.358 48.5052L66.8614 47.299C66.3213 47.1145 65.4542 46.8023 65.5821 46.4333L65.6248 46.2914L65.3121 46.1779L65.2268 46.4333C65.1842 46.5468 65.1984 46.6604 65.1842 46.7739C65.1699 46.9016 65.1273 47.0293 65.0989 47.1429C65.0562 47.2564 65.0136 47.3841 64.9425 47.4834C64.8857 47.5828 64.8004 47.6679 64.772 47.7814L64.6867 48.0227L64.9994 48.1362L65.042 47.9943C65.1699 47.597 66.0512 47.9376 66.5913 48.122L70.0879 49.3283L69.9173 49.8392C69.832 50.0946 69.6331 50.5913 69.0077 50.3784C68.9792 50.3642 68.8229 50.3217 68.6523 50.2223L68.567 50.4778C69.2066 50.8042 69.3061 50.8893 69.96 51.1589C70.1163 50.5913 70.3437 49.6831 70.5712 49.0303C70.6564 48.7748 70.8839 48.1504 70.9834 47.9376C71.0829 47.6963 71.1113 47.6537 71.3671 47.1145C70.9123 46.93 70.7417 46.8306 69.9742 46.4617L69.8889 46.7029C70.6564 47.1712 70.7275 47.5686 70.5854 47.9801L70.358 48.5052Z" fill="#3BA6B3"/>
<path fill-rule="evenodd" clip-rule="evenodd" d="M68.5956 53.5289L68.3114 53.3586L68.2403 53.4863C68.0129 53.8411 67.3732 53.3586 66.9468 53.089L64.7295 51.7124C64.3457 51.4712 63.6208 51.0313 63.834 50.6907L63.9051 50.5772L63.6208 50.4069L63.5498 50.5346C63.4076 50.7474 63.3934 50.8752 63.3365 51.0171C63.2655 51.2299 63.1944 51.2725 63.0523 51.4002C62.9528 51.4854 62.8817 51.5847 62.8106 51.6841C62.6827 51.8402 62.569 52.0105 62.4553 52.1807C61.773 53.2735 62.4837 54.0114 63.1376 54.4088C63.8198 54.8345 64.7579 54.8629 65.3975 53.8553C65.497 53.685 65.5823 53.5147 65.6676 53.3444L66.4778 53.8411C67.0748 54.2101 67.6007 54.4939 67.3875 54.8345L67.3164 54.9622L67.6007 55.1325L67.7286 54.9338C67.7854 54.8345 67.8281 54.721 67.8707 54.6216C67.9276 54.5081 67.9702 54.3946 68.0413 54.281C68.1124 54.1817 68.1976 54.0682 68.2687 53.983C68.3398 53.8979 68.4251 53.8127 68.4819 53.7134L68.5956 53.5289ZM65.426 53.1741C65.3975 53.2309 65.3691 53.2877 65.3265 53.3444C64.9427 53.9546 64.2747 54.0256 63.5213 53.5573C62.7822 53.1032 62.6259 52.5213 62.8533 52.1666C63.0807 51.7976 63.3792 51.8827 63.834 52.1807L65.426 53.1741ZM66.4351 56.9632L66.1509 56.7929L66.0798 56.9206C65.8666 57.2754 65.227 56.8071 64.7437 56.509L62.5406 55.1325C62.1852 54.9196 61.4745 54.4797 61.6878 54.1533L61.7588 54.0398L61.4745 53.8695L61.3466 54.0824C61.2898 54.1817 61.2613 54.2952 61.2329 54.3946C61.1903 54.5081 61.1334 54.6216 61.0623 54.7351C60.9913 54.8345 60.9202 54.9338 60.8349 55.0332C60.7496 55.1183 60.6644 55.1893 60.6075 55.2744L60.4796 55.4873L60.7639 55.6576L60.8349 55.544C61.0197 55.246 61.6167 55.6008 62.0431 55.8704L64.3173 57.2895C64.7579 57.5734 65.4686 57.9423 65.2412 58.2971L65.1701 58.4248L65.4544 58.5951L65.5823 58.3965C65.6392 58.2971 65.6818 58.1836 65.7245 58.0843C65.7813 57.9707 65.824 57.8572 65.895 57.7437C65.9661 57.6443 66.0514 57.5308 66.1224 57.4457C66.1935 57.3605 66.2788 57.2754 66.3356 57.176L66.4351 56.9632Z" fill="#3BA6B3"/>
</svg>
