<svg width="216" height="160" viewBox="0 0 216 160" fill="none" xmlns="http://www.w3.org/2000/svg">
<path d="M193.5 147.734H179.255V147.841H193.5V147.734Z" fill="#EBEBEB"/>
<path d="M142.456 148.903H138.719V149.011H142.456V148.903Z" fill="#EBEBEB"/>
<path d="M178.825 143.742H170.572V143.85H178.825V143.742Z" fill="#EBEBEB"/>
<path d="M41.1388 144.465H22.5629V144.572H41.1388V144.465Z" fill="#EBEBEB"/>
<path d="M47.6935 144.465H44.9709V144.572H47.6935V144.465Z" fill="#EBEBEB"/>
<path d="M96.8359 146.28H56.5446V146.387H96.8359V146.28Z" fill="#EBEBEB"/>
<path d="M101.933 121.631H18.8858C18.2352 121.63 17.6116 121.371 17.152 120.91C16.6924 120.45 16.4342 119.826 16.4342 119.175V2.43434C16.4399 1.78749 16.7005 1.16899 17.1595 0.713193C17.6186 0.257394 18.2389 0.00110809 18.8858 0H101.933C102.584 0 103.209 0.25874 103.67 0.719301C104.13 1.17986 104.389 1.80452 104.389 2.45585V119.175C104.389 119.827 104.13 120.451 103.67 120.912C103.209 121.372 102.584 121.631 101.933 121.631ZM18.8858 0.0860195C18.2637 0.0871588 17.6675 0.335073 17.228 0.775345C16.7885 1.21562 16.5417 1.81227 16.5417 2.43434V119.175C16.5417 119.797 16.7885 120.394 17.228 120.834C17.6675 121.275 18.2637 121.522 18.8858 121.524H101.933C102.555 121.522 103.152 121.275 103.592 120.835C104.032 120.394 104.28 119.798 104.281 119.175V2.43434C104.28 1.81188 104.032 1.21523 103.592 0.775083C103.152 0.334933 102.555 0.0871564 101.933 0.0860195H18.8858Z" fill="#EBEBEB"/>
<path d="M194.967 121.631H111.915C111.264 121.63 110.64 121.371 110.18 120.911C109.72 120.45 109.461 119.826 109.459 119.175V2.43434C109.466 1.7871 109.728 1.1686 110.188 0.712924C110.647 0.257244 111.268 0.00109601 111.915 0H194.967C195.613 0.00223843 196.232 0.259025 196.69 0.714702C197.148 1.17038 197.408 1.78823 197.414 2.43434V119.175C197.414 119.825 197.157 120.448 196.698 120.909C196.239 121.369 195.617 121.629 194.967 121.631ZM111.915 0.0860195C111.293 0.0871564 110.696 0.334933 110.256 0.775083C109.816 1.21523 109.568 1.81188 109.567 2.43434V119.175C109.568 119.798 109.816 120.394 110.256 120.835C110.696 121.275 111.293 121.522 111.915 121.524H194.967C195.589 121.522 196.186 121.275 196.626 120.835C197.066 120.394 197.314 119.798 197.315 119.175V2.43434C197.314 1.81188 197.066 1.21523 196.626 0.775083C196.186 0.334933 195.589 0.0871564 194.967 0.0860195H111.915Z" fill="#EBEBEB"/>
<path d="M215.048 140.813H0V140.921H215.048V140.813Z" fill="#EBEBEB"/>
<path d="M118.861 56.7383L97.6878 46.8117C97.6878 46.8117 93.5975 42.6139 96.5609 37.9603C99.5243 33.3066 105.09 40.971 105.09 40.971C105.09 40.971 106.057 32.9927 112.401 38.356C114.203 39.8393 115.528 41.8209 116.211 44.053C116.893 46.2851 116.902 48.6688 116.238 50.9062C116.238 50.9062 126.551 53.6889 118.861 56.7383Z" fill="#F5F5F5"/>
<path d="M71.2453 59.9038L22.6445 49.3019C16.3995 47.8697 14.1931 36.7388 20.6446 35.8399L20.8897 35.8098C13.0147 25.6552 30.2959 12.7954 43.9816 41.2032C43.8956 34.3776 64.9703 42.1881 66.2906 50.8158C68.7766 46.2998 75.5807 56.7727 71.2453 59.9038Z" fill="#F0F0F0"/>
<path d="M162.146 82.4537L191.952 82.1483C196.704 82.0967 199.848 73.4389 195.255 71.5507L195.079 71.4819C202.214 64.6262 191.358 51.0782 177.483 71.7443C178.481 66.209 169.14 69.1637 166.998 75.9549C165.793 71.826 159.398 79.1118 162.146 82.4537Z" fill="#F5F5F5"/>
<path d="M159.308 60.4156C159.12 60.3696 158.936 60.3092 158.757 60.2349C158.426 60.1059 158 59.8866 157.557 59.6715C157.188 59.4895 156.791 59.3717 156.383 59.3231C156.069 59.2844 155.858 59.3231 155.828 59.2414C155.798 59.1597 155.983 59.0049 156.366 58.9361C156.856 58.8667 157.355 58.9524 157.794 59.1812C158.207 59.3944 158.583 59.6733 158.908 60.007C159.157 60.2478 159.308 60.4156 159.308 60.4156Z" fill="#E6E6E6"/>
<path d="M161.239 58.8586L160.843 59.0135C160.602 59.1124 160.305 59.2457 159.983 59.392C159.32 59.6844 158.753 59.9898 158.658 59.8608C158.563 59.7317 158.705 59.65 158.895 59.4608C159.147 59.2232 159.438 59.0298 159.755 58.8887C160.087 58.7464 160.451 58.6959 160.809 58.7425C160.917 58.7576 161.023 58.782 161.127 58.8156L161.239 58.8586Z" fill="#E6E6E6"/>
<path d="M155.725 61.5726L155.613 61.508C155.518 61.4472 155.421 61.3912 155.32 61.3403C155.009 61.1698 154.684 61.026 154.348 60.9102C153.574 60.6349 152.882 60.6952 152.86 60.579C152.839 60.4629 153.019 60.4371 153.316 60.3941C153.709 60.3471 154.108 60.3912 154.482 60.5231C154.854 60.6549 155.187 60.8782 155.449 61.1726C155.526 61.262 155.597 61.3568 155.66 61.4564C155.695 61.5338 155.725 61.5726 155.725 61.5726Z" fill="#E6E6E6"/>
<path d="M156.482 59.9726L156.207 60.1317L155.587 60.4801C155.119 60.7338 154.762 61.0349 154.671 60.9532C154.581 60.8715 154.671 60.794 154.792 60.6306C154.951 60.4185 155.155 60.2438 155.389 60.1188C155.625 59.9927 155.888 59.9291 156.155 59.9338C156.265 59.934 156.375 59.947 156.482 59.9726Z" fill="#E6E6E6"/>
<path d="M155.084 59.0608C155.084 59.0608 154.822 58.9705 154.417 58.7984C154.013 58.6264 153.48 58.3941 152.886 58.1963C152.386 58.0291 151.86 57.9562 151.333 57.9812C150.929 58.007 150.671 58.0845 150.637 58.0113C150.602 57.9382 150.813 57.7361 151.265 57.6027C151.857 57.4513 152.48 57.4767 153.058 57.6759C153.613 57.8729 154.124 58.1752 154.563 58.5662C154.745 58.7221 154.919 58.8872 155.084 59.0608Z" fill="#E6E6E6"/>
<path d="M156.86 56.8028L156.71 56.8458C156.615 56.8673 156.482 56.9103 156.318 56.9619C155.913 57.0963 155.515 57.2528 155.127 57.4307C154.228 57.8307 153.652 58.4286 153.523 58.3339C153.467 58.2909 153.544 58.0716 153.772 57.7877C154.08 57.4212 154.464 57.1274 154.899 56.9275C155.334 56.7308 155.812 56.6479 156.288 56.6867C156.434 56.6956 156.578 56.7186 156.718 56.7555L156.86 56.8028Z" fill="#E6E6E6"/>
<path d="M107.524 160C153.58 160 190.915 157.82 190.915 155.131C190.915 152.442 153.58 150.263 107.524 150.263C61.4682 150.263 24.1326 152.442 24.1326 155.131C24.1326 157.82 61.4682 160 107.524 160Z" fill="#F5F5F5"/>
<path d="M67.3572 121.472C67.3572 121.472 90.5308 108.006 174.688 104.234H197.302C197.302 104.234 197.41 134.835 197.41 138.801C197.414 138.801 42.7256 146.633 67.3572 121.472Z" fill="#018A90"/>
<path opacity="0.5" d="M67.3572 121.472C67.3572 121.472 90.5308 108.006 174.688 104.234H197.302C197.302 104.234 197.41 134.835 197.41 138.801C197.414 138.801 42.7256 146.633 67.3572 121.472Z" fill="white"/>
<path d="M197.307 116.857H174.688C90.531 120.629 67.3617 134.095 67.3617 134.095C62.9317 138.62 63.8908 140.117 69.1122 142.856L16.533 144.512L16.1373 83.1418C16.4555 78.3033 21.7672 74.7421 26.6101 74.4625C42.2914 73.5593 44.958 87.1159 66.9531 91.3782C72.2949 92.4104 77.2754 88.7589 81.6968 85.5762C86.1182 82.3935 91.6277 79.2839 96.6985 81.2494C102.255 83.3999 104.38 90.6341 109.804 93.1029C118.681 97.1458 128.237 85.9159 137.794 87.8428C145.282 89.3567 149.523 98.3543 157.037 99.7349C161.217 100.501 172.09 91.305 175.828 89.3094C179.565 87.3138 183.384 85.0084 187.625 84.7676C191.866 84.5267 196.657 87.1159 197.113 91.3395C198.967 91.262 197.307 116.857 197.307 116.857Z" fill="#018A90"/>
<path opacity="0.6" d="M197.341 116.341C197.319 116.676 197.307 116.857 197.307 116.857H174.688C107.804 119.868 79.4431 128.977 70.6046 132.599C69.4897 133.03 68.4023 133.53 67.3488 134.095C62.9188 138.62 63.8779 140.117 69.0993 142.856L16.533 144.512L16.1373 83.1418C16.4555 78.3033 21.7672 74.7421 26.6101 74.4625C42.2914 73.5593 44.958 87.1159 66.9531 91.3782C72.2906 92.4104 77.2754 88.7589 81.6968 85.5762C86.1182 82.3935 91.6277 79.2839 96.6985 81.2494C102.255 83.3999 104.38 90.6341 109.804 93.1029C118.681 97.1458 128.237 85.9159 137.794 87.8428C145.282 89.3567 149.523 98.3543 157.037 99.7349C161.217 100.501 172.09 91.305 175.828 89.3094C179.565 87.3138 183.384 85.0084 187.625 84.7676C191.866 84.5267 196.657 87.1159 197.113 91.3395C198.812 91.2706 197.56 112.72 197.341 116.341Z" fill="white"/>
<path opacity="0.5" d="M197.341 116.341C197.319 116.676 197.306 116.857 197.306 116.857H174.688C107.804 119.868 79.443 128.977 70.6045 132.599C64.4929 129.91 62.622 126.298 67.3444 121.472C67.3444 121.472 90.518 108.006 174.675 104.234H197.289C197.289 104.234 197.319 109.717 197.341 116.341Z" fill="white"/>
<path d="M16.5889 144.689V113.171C16.5889 113.171 138.259 127.704 174.864 130.986C193.668 132.672 197.59 138.968 197.59 138.968L16.5889 144.689Z" fill="#018A90"/>
<path opacity="0.4" d="M16.5889 144.689V113.171C16.5889 113.171 138.259 127.704 174.864 130.986C193.668 132.672 197.59 138.968 197.59 138.968L16.5889 144.689Z" fill="white"/>
<path d="M131.003 107.868C131.003 107.868 150.787 102.277 165.944 80.4237C173.531 69.4993 181.371 73.3744 187.315 79.9936C193.804 87.3042 197.361 96.7557 197.302 106.531V107.24C197.302 107.24 188.502 117.61 131.003 107.868Z" fill="#018A90"/>
<path opacity="0.5" d="M132.994 107.18C132.994 107.18 150.766 102.268 165.944 80.4237C173.531 69.4993 181.372 73.3744 187.315 79.9936C193.804 87.3042 197.361 96.7557 197.302 106.531V107.24C197.302 107.24 195.685 109.49 188.64 110.681C178.464 112.44 159.884 114.122 132.994 107.18Z" fill="white"/>
<path d="M170.8 75.3485C170.8 75.3485 168.09 79.6495 172.382 79.1032C174.129 78.8753 172.417 84.2988 169.776 90.8105C164.443 103.937 157.871 111.399 144.271 109.885C139.351 109.343 122.577 108.496 122.577 108.496C139.738 101.184 155.394 90.2642 168.636 77.1463C169.169 76.6113 169.753 76.1288 170.378 75.7055L170.8 75.3485Z" fill="#018A90"/>
<path opacity="0.8" d="M170.8 75.3485C170.8 75.3485 168.09 79.6495 172.382 79.1032C174.129 78.8753 172.417 84.2988 169.776 90.8105C164.443 103.937 157.871 111.399 144.271 109.885C139.351 109.343 122.577 108.496 122.577 108.496C139.738 101.184 155.394 90.2642 168.636 77.1463C169.169 76.6113 169.753 76.1288 170.378 75.7055L170.8 75.3485Z" fill="white"/>
<path opacity="0.4" d="M163.781 111.786C169.055 108.083 172.787 102.574 174.271 96.3029L174.782 94.1309L177.341 112.049C177.341 112.049 169.54 112.281 163.781 111.786Z" fill="white"/>
<path d="M26.5286 134.951C26.5286 134.951 16.4343 135.437 16.4343 140.005V144.572L25.1222 145.476L26.5286 134.951Z" fill="white"/>
<path d="M28.907 128.418C27.9263 129.777 27.4747 131.429 27.0403 133.054C25.9307 137.172 24.8225 141.289 23.7157 145.407C32.6806 147.833 42.1241 147.871 51.1085 145.519C52.6526 145.114 54.403 144.422 54.8417 142.886C55.3364 141.166 53.9041 139.562 52.5966 138.349L47.3624 133.497C43.5818 129.988 33.5477 121.945 28.907 128.418Z" fill="white"/>
<path d="M53.332 135.571C52.7768 136.452 52.3849 137.427 52.175 138.448C51.4869 141.003 50.8002 143.556 50.1149 146.108C55.6749 147.612 61.5316 147.636 67.1037 146.177C68.0628 145.927 69.1466 145.497 69.4219 144.547C69.7272 143.484 68.8412 142.482 68.0284 141.73L64.7811 138.719C62.4156 136.547 56.2007 131.558 53.332 135.571Z" fill="white"/>
<path d="M68.8157 139.876L70.5619 141.394L69.3877 136.663L71.5855 141.179C71.488 139.545 71.3905 137.91 71.293 136.276L72.5833 141.437L73.8994 136.108L73.9639 145.08C72.622 145.127 70.8887 145.678 70.1705 144.4C69.4522 143.123 69.8178 141.308 68.8157 139.876Z" fill="white"/>
<path d="M146.637 144.409C147.725 146.194 150.22 146.331 152.314 146.267L163.269 145.914C164.852 145.867 166.748 145.626 167.441 144.194C168.215 142.598 166.869 140.783 165.445 139.725C162.095 137.239 158.073 136.216 154.048 137.11C151.175 137.76 143.966 140.035 146.637 144.409Z" fill="white"/>
<path d="M165.807 131.287C162.796 131.437 159.673 132.211 157.471 134.267C155.269 136.323 154.319 139.91 155.936 142.439C156.861 143.897 158.474 144.818 160.147 145.261C161.84 145.638 163.574 145.803 165.308 145.751L174.413 145.863C175.931 145.95 177.453 145.828 178.937 145.501C180.404 145.11 181.811 144.246 182.516 142.921C183.716 140.628 182.314 139.514 180.817 138.19C179.32 136.865 178.83 135.992 177.643 134.581C175.002 131.433 169.807 131.08 165.807 131.287Z" fill="white"/>
<path d="M140.586 137.773L142.908 139.79L141.347 133.497L144.276 139.519L143.885 133.003C144.458 135.297 145.032 137.591 145.605 139.884C146.179 137.519 146.761 135.156 147.351 132.796L147.442 144.727C145.657 144.792 143.351 145.527 142.397 143.824C141.442 142.121 141.902 139.678 140.586 137.773Z" fill="white"/>
<path d="M186.477 140.138L183.793 140.654L187.797 136.512L182.868 139.824L186.077 134.99C184.615 136.495 183.154 138.003 181.694 139.514C182.302 137.436 182.907 135.358 183.509 133.282L178.12 142.418C179.462 143.278 180.907 144.856 182.421 143.975C183.935 143.093 184.615 141.015 186.477 140.138Z" fill="white"/>
<path d="M92.2728 25.9606C91.9658 25.8892 91.6651 25.7928 91.3739 25.6724C90.8319 25.4617 90.1352 25.1004 89.4126 24.752C88.8081 24.4548 88.1584 24.2601 87.4901 24.1757C86.9826 24.1198 86.6299 24.1757 86.5826 24.0423C86.5353 23.909 86.8363 23.6596 87.4428 23.5434C88.2438 23.4365 89.0584 23.576 89.7782 23.9434C90.4527 24.2938 91.0669 24.7497 91.5975 25.2939C92.0405 25.6939 92.2728 25.9606 92.2728 25.9606Z" fill="#018A90"/>
<path d="M95.4295 23.423L94.7757 23.6768C94.3886 23.8316 93.9155 24.0552 93.3564 24.2961C92.2683 24.7735 91.3436 25.2724 91.2059 25.0574C91.1328 24.9542 91.279 24.7133 91.5887 24.4079C92.0062 24.0143 92.4895 23.697 93.0166 23.4703C93.5586 23.239 94.1523 23.1559 94.737 23.2295C94.9131 23.2522 95.0861 23.294 95.2531 23.3542C95.3131 23.3739 95.372 23.3969 95.4295 23.423Z" fill="#018A90"/>
<g opacity="0.5">
<path opacity="0.5" d="M92.2728 25.9606C91.9658 25.8893 91.6651 25.7929 91.3739 25.6725C90.8319 25.4617 90.1352 25.1004 89.4126 24.7521C88.8081 24.4549 88.1584 24.2601 87.4901 24.1757C86.9826 24.1198 86.6299 24.1757 86.5826 24.0424C86.5353 23.9091 86.8363 23.6596 87.4428 23.5435C88.2438 23.4365 89.0584 23.576 89.7782 23.9435C90.4527 24.2939 91.0669 24.7498 91.5975 25.294C92.0405 25.694 92.2728 25.9606 92.2728 25.9606Z" fill="white"/>
<path opacity="0.5" d="M95.4295 23.423L94.7757 23.6768C94.3886 23.8316 93.9155 24.0552 93.3564 24.2961C92.2683 24.7735 91.3436 25.2724 91.2059 25.0574C91.1328 24.9542 91.279 24.7133 91.5887 24.4079C92.0062 24.0143 92.4895 23.697 93.0166 23.4703C93.5586 23.239 94.1523 23.1559 94.737 23.2295C94.9131 23.2522 95.0861 23.294 95.2531 23.3542C95.3131 23.3739 95.372 23.3969 95.4295 23.423Z" fill="white"/>
</g>
<path d="M86.4147 27.8573L86.2341 27.7498C86.1222 27.6766 85.9588 27.582 85.7567 27.4745C85.2458 27.201 84.7136 26.9694 84.1653 26.782C82.9008 26.3519 81.7654 26.4294 81.731 26.2358C81.731 26.1498 81.9933 26.0036 82.4793 25.9348C83.1225 25.8597 83.7744 25.9333 84.3846 26.1498C84.9945 26.3626 85.5395 26.7284 85.9674 27.2121C86.0959 27.3563 86.211 27.5118 86.3115 27.6766L86.4147 27.8573Z" fill="#018A90"/>
<path d="M87.6534 25.2423L87.2018 25.5047L86.1911 26.0724C85.4255 26.5025 84.8406 26.9799 84.6943 26.8466C84.6255 26.7864 84.6943 26.5842 84.8879 26.3176C85.1508 25.972 85.4853 25.6873 85.8685 25.4832C86.2528 25.2761 86.6837 25.171 87.1201 25.1778C87.2999 25.1769 87.479 25.1986 87.6534 25.2423Z" fill="#018A90"/>
<g opacity="0.5">
<path opacity="0.5" d="M86.4147 27.8573L86.2341 27.7498C86.1222 27.6766 85.9588 27.582 85.7567 27.4745C85.2458 27.201 84.7136 26.9694 84.1653 26.782C82.9008 26.3519 81.7654 26.4294 81.731 26.2358C81.731 26.1498 81.9933 26.0036 82.4793 25.9348C83.1225 25.8597 83.7744 25.9333 84.3846 26.1498C84.9945 26.3626 85.5395 26.7284 85.9674 27.2121C86.0959 27.3563 86.211 27.5118 86.3115 27.6766L86.4147 27.8573Z" fill="white"/>
<path opacity="0.5" d="M87.6533 25.2423L87.2017 25.5047L86.191 26.0724C85.4254 26.5025 84.8405 26.9799 84.6942 26.8466C84.6254 26.7864 84.6942 26.5842 84.8878 26.3176C85.1506 25.972 85.4852 25.6873 85.8684 25.4832C86.2526 25.2761 86.6835 25.171 87.12 25.1778C87.2997 25.1769 87.4789 25.1986 87.6533 25.2423Z" fill="white"/>
</g>
<path d="M155.714 79.9735C156.162 77.2138 154.288 74.6136 151.528 74.1656C148.768 73.7176 146.168 75.5917 145.72 78.3513C145.272 81.111 147.146 83.7113 149.906 84.1592C152.666 84.6072 155.266 82.7332 155.714 79.9735Z" fill="#018A90"/>
<path opacity="0.6" d="M155.714 79.9735C156.162 77.2138 154.288 74.6136 151.528 74.1656C148.768 73.7176 146.168 75.5917 145.72 78.3513C145.272 81.111 147.146 83.7113 149.906 84.1592C152.666 84.6072 155.266 82.7332 155.714 79.9735Z" fill="white"/>
<path d="M101.64 59.1813C99.6662 60.9016 98.5738 63.7575 99.3953 66.2391C99.6853 67.1264 100.196 67.9256 100.879 68.5617C101.645 69.2528 102.561 69.7564 103.554 70.0326C106.406 70.8713 109.515 70.1143 112.41 70.7895C115.773 71.5766 118.431 74.1916 121.756 75.1937C123.403 75.6739 125.142 75.7427 126.822 75.394C128.502 75.0453 130.07 74.2898 131.39 73.1938C131.75 72.9239 132.038 72.5694 132.229 72.1616C132.319 71.9563 132.346 71.7287 132.306 71.5081C132.266 71.2874 132.161 71.0837 132.005 70.9229C131.923 70.8505 131.825 70.7979 131.719 70.769C131.613 70.7401 131.502 70.7356 131.395 70.7559C131.287 70.7762 131.185 70.8207 131.097 70.8862C131.009 70.9516 130.937 71.0363 130.887 71.1336C133.268 70.7033 135.493 69.653 137.338 68.0885C137.964 67.614 138.461 66.99 138.783 66.2735C138.94 65.9138 138.992 65.5171 138.934 65.1291C138.875 64.7411 138.708 64.3775 138.452 64.0801C137.902 63.5252 136.831 63.5295 136.414 64.1919C137.167 63.7033 137.802 63.0523 138.272 62.2866C138.702 61.4909 138.659 60.3984 137.975 59.8221C137.115 59.0823 135.773 59.5511 134.736 60.0501L127.025 63.7618C127.445 63.5195 127.816 63.1999 128.117 62.8199C128.266 62.6273 128.359 62.3972 128.386 62.1551C128.412 61.913 128.372 61.6682 128.268 61.4479C128.13 61.2466 127.939 61.0866 127.717 60.9851C127.495 60.8836 127.25 60.8443 127.007 60.8715C126.524 60.9386 126.055 61.0839 125.618 61.3016C123.868 62.0196 122.034 62.5152 120.16 62.7769C119.132 62.9188 117.937 62.936 117.223 62.1833C116.509 61.4307 116.642 60.1877 116.203 59.2286C114.298 55.0394 110.1 57.0308 109.017 56.7254C106.062 55.8824 103.223 57.7835 101.64 59.1813Z" fill="#263238"/>
<path d="M134.229 78.8367C134.328 79.0259 133.403 80.7592 133.665 80.7119C133.928 80.6646 136.581 81.7441 136.581 81.7441L139.884 79.5076L139.717 78.5614L136.629 79.3786L134.229 78.8367Z" fill="#FFC2BC"/>
<path d="M133.115 78.9054L135.089 78.0452C135.089 78.0452 136.173 79.1978 135.644 80.1956C135.115 81.1935 134.534 81.2881 134.534 81.2881C133.705 81.2211 132.918 80.898 132.28 80.3634C131.029 79.4086 133.115 78.9054 133.115 78.9054Z" fill="#018A90"/>
<path opacity="0.2" d="M133.115 78.9054L135.089 78.0452C135.089 78.0452 136.173 79.1978 135.644 80.1956C135.115 81.1935 134.534 81.2881 134.534 81.2881C133.705 81.2211 132.918 80.898 132.28 80.3634C131.029 79.4086 133.115 78.9054 133.115 78.9054Z" fill="black"/>
<path d="M112.294 71.7227C114.504 72.7335 120.152 75.4087 122.801 76.8151C124.018 77.4602 129.252 77.7699 131.498 78.1828C132.066 78.3508 132.61 78.5938 133.115 78.9053L132.581 80.5827C132.462 80.7911 132.299 80.9707 132.103 81.109C131.906 81.2472 131.682 81.3406 131.446 81.3827C128.732 81.5891 122.104 81.3182 120.737 80.7978C116.762 79.2795 110.152 76.6043 109.765 75.5119C109.188 73.8732 110.591 70.9658 112.294 71.7227Z" fill="#018A90"/>
<path d="M104.771 63.9725C104.888 65.7961 104.81 69.0864 103.412 70.11L106.909 73.7658L108.926 70.8283C107.021 70.0971 107.864 68.2047 107.911 66.2133L104.771 63.9725Z" fill="#FFC2BC"/>
<path opacity="0.2" d="M104.771 63.9768C104.866 65.4391 104.836 67.8477 104.079 69.2756C105.15 69.2326 106.814 68.6649 107.184 67.7961C107.348 67.1898 107.463 66.5713 107.528 65.9466L104.771 63.9768Z" fill="black"/>
<path d="M111.825 62.751C110.965 65.6154 110.638 66.8412 108.814 67.9767C106.066 69.697 102.746 67.9767 102.75 64.923C102.75 62.1618 104.186 57.9511 107.309 57.478C107.996 57.3724 108.698 57.4437 109.35 57.6853C110.002 57.9269 110.581 58.3307 111.033 58.8586C111.485 59.3865 111.795 60.021 111.934 60.7021C112.072 61.3832 112.035 62.0884 111.825 62.751Z" fill="#FFC2BC"/>
<path d="M112.027 64.5144C107.06 64.5703 108.969 59.7834 104.535 58.0243C107.18 56.4931 110.264 56.3469 111.554 57.2888C112.844 58.2307 112.027 64.5144 112.027 64.5144Z" fill="#263238"/>
<path d="M112.191 65.8047C111.793 66.227 111.244 66.4744 110.664 66.4928C109.902 66.4928 109.705 65.7832 110.074 65.1595C110.444 64.5359 111.206 63.9209 111.898 64.1832C112.048 64.248 112.179 64.3487 112.28 64.4765C112.382 64.6042 112.45 64.7551 112.479 64.9156C112.508 65.076 112.497 65.2412 112.446 65.3963C112.396 65.5514 112.308 65.6917 112.191 65.8047Z" fill="#FFC2BC"/>
<path d="M105.898 151.467L108.758 151.901L110.044 144.744L107.188 144.31L105.898 151.467Z" fill="#FFC2BC"/>
<path d="M86.4407 145.205L89.1761 146.43L91.9373 139.983L89.2019 138.758L86.4407 145.205Z" fill="#FFC2BC"/>
<path d="M89.2881 146.185L86.772 143.923C86.728 143.884 86.6715 143.863 86.6129 143.863C86.5543 143.863 86.4977 143.884 86.4537 143.923L84.0925 145.841C84.0446 145.883 84.0054 145.933 83.9773 145.99C83.9491 146.047 83.9326 146.109 83.9286 146.172C83.9246 146.235 83.9332 146.299 83.954 146.359C83.9747 146.418 84.0072 146.474 84.0495 146.521L84.0925 146.559C84.9828 147.334 85.4516 147.661 86.5484 148.658C87.2322 149.282 88.8838 151.054 89.8257 151.897C90.7676 152.74 91.9762 151.673 91.6235 151.239C90.1999 149.278 89.6838 147.691 89.5375 146.663C89.5131 146.479 89.4248 146.31 89.2881 146.185Z" fill="#263238"/>
<path d="M109.245 150.534L105.804 149.622C105.739 149.604 105.67 149.609 105.608 149.634C105.545 149.66 105.493 149.705 105.46 149.764L103.989 152.301C103.957 152.351 103.936 152.407 103.926 152.466C103.917 152.524 103.92 152.584 103.935 152.641C103.95 152.699 103.976 152.752 104.013 152.799C104.05 152.846 104.096 152.884 104.148 152.912C104.186 152.934 104.226 152.952 104.268 152.964C105.485 153.291 106.062 153.428 107.58 153.824C108.522 154.069 111.163 155.235 112.5 155.209C113.838 155.183 114.057 153.863 113.511 153.751C111.077 153.26 110.229 151.712 109.683 150.839C109.582 150.684 109.425 150.574 109.245 150.534Z" fill="#263238"/>
<path opacity="0.2" d="M110.044 144.749L109.382 148.435L106.47 148.293L107.184 144.314L110.044 144.749Z" fill="black"/>
<path opacity="0.2" d="M89.202 138.758L91.9374 139.988L90.5138 143.304L87.774 142.082L89.202 138.758Z" fill="black"/>
<path d="M106.462 89.6319C107.32 89.7434 108.13 90.0936 108.799 90.6425C109.468 91.1915 109.97 91.9173 110.247 92.7372C112.001 97.9758 115.446 109.748 114.75 119.614C114.13 128.405 110.926 146.448 110.926 146.448L105.765 147.037C105.765 147.037 107.245 128.384 107.27 121.124C107.318 108.707 101.21 88.9524 101.21 88.9524L106.462 89.6319Z" fill="#263238"/>
<path d="M111.782 147.351L105.3 147.239L105.442 144.788L112.229 145.14L111.782 147.351Z" fill="#263238"/>
<path opacity="0.2" d="M105.223 95.5157L103.933 99.0339C105.076 103.659 105.985 108.338 106.655 113.055C108.384 106.303 106.234 98.7114 105.223 95.5157Z" fill="black"/>
<path d="M107.438 89.7912C107.438 89.7912 106.741 107.524 103.025 118.707C100.015 127.739 91.4127 142.392 91.4127 142.392L88.1354 139.846C88.1354 139.846 92.9568 124.672 95.2793 118.616C100.045 106.212 95.5115 96.9566 96.5696 91.3825C96.7307 90.5685 97.1978 89.8473 97.8747 89.3673C98.5515 88.8872 99.3867 88.6849 100.208 88.802L107.438 89.7912Z" fill="#263238"/>
<path d="M92.0277 143.063L87.3138 140.848L87.9332 138.852L93.1502 141.493L92.0277 143.063Z" fill="#263238"/>
<path d="M90.23 147.716C90.3243 147.7 90.4105 147.654 90.4751 147.583C90.5054 147.555 90.5281 147.52 90.5409 147.481C90.5537 147.442 90.5562 147.4 90.5483 147.359C90.4622 146.99 89.4472 146.62 89.3311 146.577C89.3212 146.571 89.3101 146.569 89.2988 146.569C89.2876 146.569 89.2765 146.571 89.2666 146.577C89.2605 146.586 89.2572 146.597 89.2572 146.609C89.2572 146.62 89.2605 146.632 89.2666 146.641C89.4257 147.007 89.7655 147.626 90.1268 147.695C90.1597 147.708 90.1946 147.715 90.23 147.716ZM89.43 146.749C89.7741 146.891 90.3805 147.179 90.4321 147.398C90.4358 147.419 90.4342 147.44 90.4275 147.459C90.4207 147.479 90.409 147.496 90.3934 147.51C90.3619 147.546 90.3218 147.575 90.2768 147.592C90.2318 147.609 90.1832 147.615 90.1354 147.609C89.9246 147.557 89.6623 147.239 89.4257 146.749H89.43Z" fill="#018A90"/>
<path d="M90.247 146.775C90.398 146.766 90.5418 146.707 90.6556 146.607C90.6887 146.564 90.7067 146.512 90.7067 146.458C90.7067 146.405 90.6887 146.352 90.6556 146.31C90.6294 146.264 90.5935 146.225 90.5504 146.194C90.5073 146.164 90.458 146.143 90.4061 146.134C89.976 146.048 89.2921 146.564 89.262 146.585C89.2575 146.593 89.2551 146.602 89.2551 146.611C89.2551 146.62 89.2575 146.629 89.262 146.637C89.2621 146.647 89.265 146.658 89.2702 146.667C89.2755 146.676 89.2831 146.683 89.2921 146.689C89.6003 146.787 89.9262 146.816 90.247 146.775ZM90.247 146.25C90.2997 146.241 90.3534 146.241 90.4061 146.25C90.442 146.256 90.4761 146.269 90.5059 146.29C90.5357 146.311 90.5604 146.338 90.5781 146.37C90.5959 146.393 90.6056 146.421 90.6056 146.45C90.6056 146.479 90.5959 146.507 90.5781 146.529C90.4233 146.701 89.7911 146.706 89.4556 146.615C89.6874 146.438 89.9519 146.308 90.2341 146.233L90.247 146.25Z" fill="#018A90"/>
<path d="M110.651 151.527C110.886 151.605 111.139 151.605 111.374 151.527C111.434 151.503 111.488 151.466 111.532 151.418C111.576 151.371 111.608 151.314 111.627 151.252C111.643 151.219 111.648 151.183 111.644 151.147C111.639 151.111 111.625 151.077 111.601 151.05C111.343 150.753 109.937 151.002 109.774 151.05C109.762 151.052 109.751 151.059 109.743 151.068C109.736 151.078 109.731 151.089 109.731 151.101C109.728 151.113 109.73 151.126 109.736 151.136C109.741 151.147 109.75 151.156 109.761 151.161C110.044 151.313 110.343 151.436 110.651 151.527ZM111.361 151.067C111.409 151.075 111.454 151.097 111.49 151.131C111.498 151.144 111.503 151.159 111.503 151.174C111.503 151.19 111.498 151.205 111.49 151.217C111.476 151.264 111.452 151.307 111.419 151.343C111.386 151.379 111.346 151.406 111.3 151.424C110.961 151.561 110.294 151.291 109.941 151.123C110.405 151.033 110.88 151.019 111.348 151.08L111.361 151.067Z" fill="#018A90"/>
<path d="M109.748 151.166H109.774C110.204 151.106 111.146 150.684 111.189 150.357C111.189 150.288 111.189 150.189 111.008 150.129C110.35 149.858 109.718 151.028 109.718 151.084C109.712 151.093 109.71 151.104 109.71 151.114C109.71 151.125 109.712 151.135 109.718 151.144L109.748 151.166ZM110.918 150.22H110.965C111.081 150.263 111.077 150.31 111.068 150.323C111.047 150.534 110.346 150.903 109.881 151.007C110.04 150.744 110.483 150.091 110.918 150.202V150.22Z" fill="#018A90"/>
<path d="M107.219 62.5059C107.158 62.7382 106.986 62.8973 106.836 62.8629C106.685 62.8285 106.599 62.6048 106.66 62.3726C106.72 62.1403 106.887 61.9769 107.038 62.0113C107.189 62.0457 107.275 62.2694 107.219 62.5059Z" fill="#263238"/>
<path d="M104.548 61.8607C104.488 62.0973 104.32 62.2564 104.161 62.222C104.002 62.1876 103.928 61.9639 103.989 61.7231C104.049 61.4822 104.212 61.3317 104.367 61.3661C104.522 61.4005 104.612 61.6241 104.548 61.8607Z" fill="#263238"/>
<path d="M104.436 61.3962L103.907 61.108C103.907 61.108 104.083 61.594 104.436 61.3962Z" fill="#263238"/>
<path d="M105.154 62.4413C104.812 62.9229 104.407 63.3568 103.95 63.7316C104.049 63.8456 104.172 63.9367 104.31 63.9983C104.449 64.06 104.599 64.0908 104.75 64.0886L105.154 62.4413Z" fill="#EC837E"/>
<path d="M105.408 65.095C105.266 65.1206 105.122 65.1321 104.978 65.1294C104.961 65.1295 104.946 65.1233 104.934 65.1121C104.922 65.1009 104.914 65.0856 104.913 65.0692C104.915 65.0536 104.923 65.0394 104.935 65.0291C104.947 65.0188 104.962 65.0132 104.978 65.0133C105.282 65.0263 105.585 64.9673 105.863 64.841C106.14 64.7146 106.384 64.5247 106.574 64.2865C106.581 64.274 106.592 64.2643 106.605 64.2589C106.618 64.2534 106.633 64.2525 106.647 64.2563C106.66 64.2612 106.671 64.2711 106.678 64.2839C106.684 64.2967 106.685 64.3115 106.681 64.3252C106.375 64.7401 105.917 65.0169 105.408 65.095Z" fill="#263238"/>
<path d="M107.756 61.0263C107.739 61.0231 107.724 61.016 107.71 61.0055C107.697 60.9951 107.686 60.9815 107.679 60.9661C107.618 60.8206 107.523 60.6918 107.403 60.59C107.283 60.4883 107.14 60.4167 106.986 60.3812C106.96 60.375 106.936 60.3594 106.92 60.3372C106.905 60.315 106.897 60.2878 106.9 60.2607C106.899 60.2478 106.901 60.2347 106.905 60.2225C106.909 60.2102 106.916 60.199 106.925 60.1896C106.934 60.1802 106.945 60.1728 106.957 60.168C106.969 60.1633 106.982 60.1611 106.995 60.1618C107.181 60.2019 107.355 60.2866 107.501 60.4088C107.647 60.5309 107.761 60.6868 107.834 60.8629C107.847 60.8875 107.851 60.9161 107.846 60.9435C107.84 60.971 107.825 60.9957 107.803 61.0134L107.756 61.0263Z" fill="#263238"/>
<path d="M103.859 59.9984C103.839 60.0028 103.818 60.001 103.799 59.9934C103.78 59.9857 103.763 59.9725 103.752 59.9554C103.733 59.9302 103.724 59.8985 103.728 59.8671C103.732 59.8357 103.749 59.8072 103.773 59.7876C103.949 59.65 104.155 59.5569 104.375 59.5165C104.594 59.476 104.82 59.4894 105.034 59.5554C105.048 59.5598 105.061 59.567 105.072 59.5765C105.084 59.5861 105.093 59.5978 105.1 59.611C105.107 59.6242 105.111 59.6387 105.112 59.6535C105.113 59.6683 105.111 59.6832 105.107 59.6973C105.101 59.7118 105.093 59.7251 105.083 59.7364C105.072 59.7477 105.06 59.7568 105.046 59.7633C105.032 59.7697 105.017 59.7732 105.001 59.7737C104.986 59.7742 104.971 59.7716 104.956 59.7661C104.78 59.7159 104.594 59.7079 104.414 59.7431C104.234 59.7782 104.064 59.8554 103.92 59.9683C103.904 59.9857 103.883 59.9965 103.859 59.9984Z" fill="#263238"/>
<path d="M82.6086 60.9704L81.1936 57.5726L78.8195 59.6457C79.5295 60.468 80.3157 61.2211 81.1678 61.8951L82.6086 60.9704Z" fill="#FFC2BC"/>
<path d="M79.5334 56.0157L78.1012 57.5597L78.8195 59.6457L81.1936 57.5726L79.5334 56.0157Z" fill="#FFC2BC"/>
<path d="M107.094 62.037L106.569 61.7532C106.569 61.7532 106.758 62.2521 107.094 62.037Z" fill="#263238"/>
<path d="M81.9593 59.1941L78.9701 59.8908L81.241 62.6478L83.1549 61.5854L81.9593 59.1941Z" fill="#018A90"/>
<path opacity="0.2" d="M81.9593 59.1941L78.9701 59.8908L81.241 62.6478L83.1549 61.5854L81.9593 59.1941Z" fill="black"/>
<path opacity="0.2" d="M98.3416 74.6174C98.6255 74.6863 98.4276 78.2776 98.3416 79.0603C98.2556 79.8431 100.789 75.4131 100.634 74.5314C100.397 73.1164 98.3416 74.6174 98.3416 74.6174Z" fill="black"/>
<path d="M81.1464 62.9187C81.1464 62.9187 82.5872 70.6948 98.3502 74.6173C103.511 75.9076 102.548 70.6217 98.9782 70.0583C96.3331 69.6282 90.5999 68.1787 87.615 65.7573C84.6302 63.3359 85.4388 61.6972 83.1635 61.6026C80.8883 61.508 81.1464 62.9187 81.1464 62.9187Z" fill="#018A90"/>
<path d="M110.797 93.4556C110.573 92.5954 109.692 90.7503 108.53 90.2342C106.991 89.5503 106.664 89.4041 100.208 88.8149C97.1672 88.5396 96.3844 90.789 96.2467 92.0191C96.2303 92.1841 96.2585 92.3505 96.3285 92.5008L96.4188 92.7029C96.6983 92.8707 110.496 93.8298 110.612 93.9373C110.684 93.8818 110.74 93.8075 110.772 93.7225C110.805 93.6375 110.813 93.5451 110.797 93.4556Z" fill="#018A90"/>
<path opacity="0.2" d="M103.412 70.1057L102.156 70.0283C102.242 70.0283 106.973 75.3959 106.973 75.3959L110.1 71.095L108.926 70.8369L106.909 73.7745L103.412 70.1057Z" fill="black"/>
<path opacity="0.2" d="M113.029 74.4969L113.683 77.8947L115.89 78.8581C115.89 78.8581 113.438 77.1205 113.029 74.4969Z" fill="black"/>
<path d="M23.2895 64.7423C23.139 64.781 20.2315 61.3918 20.2315 61.3918H23.8013L25.2808 63.0692C25.2808 63.0692 25.2679 64.2477 23.2895 64.7423Z" fill="#FFC2BC"/>
<path d="M20.2143 61.3919V58.493L23.3798 59.3532L23.7841 61.3661C23.7841 61.3661 21.711 62.5273 20.2143 61.3919Z" fill="#FFC2BC"/>
<path d="M49.4005 60.6091C47.564 62.0155 45.7146 63.2671 43.8093 64.4799C41.8606 65.6969 39.8397 66.7942 37.7578 67.7659C37.2331 68.0153 36.6826 68.2433 36.1321 68.4669C35.7533 68.6322 35.3583 68.7576 34.9536 68.8411C34.5505 68.9263 34.1398 68.9709 33.7278 68.9744C32.3917 68.9529 31.0687 68.7072 29.8139 68.2476C27.5926 67.4575 25.4921 66.3617 23.5733 64.9918C23.3357 64.8094 23.169 64.55 23.1018 64.2582C23.0345 63.9663 23.0708 63.6602 23.2046 63.3922C23.3383 63.1242 23.5611 62.9111 23.8347 62.7894C24.1084 62.6677 24.4158 62.645 24.7044 62.7252H24.7689C26.748 63.4127 28.773 63.9603 30.829 64.3638C31.6953 64.5353 32.5822 64.5788 33.4612 64.4928C33.6075 64.4725 33.7516 64.4379 33.8913 64.3896C33.9347 64.3754 33.9765 64.3567 34.016 64.3337L34.2654 64.2047C34.7213 63.9767 35.1815 63.7445 35.6331 63.4907C37.4567 62.4929 39.2631 61.3403 41.0394 60.1489C42.8157 58.9575 44.6221 57.7274 46.3296 56.4931H46.3683C46.6335 56.2428 46.9486 56.0516 47.293 55.9319C47.6374 55.8123 48.0033 55.767 48.3664 55.799C48.7296 55.8311 49.0819 55.9397 49.4 56.1177C49.7182 56.2958 49.995 56.5393 50.2122 56.8321C50.4295 57.1249 50.5822 57.4604 50.6603 57.8165C50.7385 58.1726 50.7403 58.5412 50.6656 58.8981C50.591 59.2549 50.4415 59.5919 50.2272 59.8869C50.0128 60.1818 49.7384 60.4279 49.422 60.6091H49.4005Z" fill="#018A90"/>
<path d="M60.4411 41.7408C60.6175 41.7107 60.8024 41.8956 60.8712 42.1709C60.9401 42.4462 60.8325 42.687 60.6562 42.7171C60.4799 42.7472 60.2949 42.5666 60.2261 42.287C60.1573 42.0075 60.2648 41.7752 60.4411 41.7408Z" fill="#263238"/>
<path d="M60.9488 45.2762C61.1776 45.2894 61.4065 45.2519 61.6191 45.1664C61.8317 45.0809 62.0229 44.9495 62.1789 44.7816C61.5158 44.1862 60.937 43.5033 60.4585 42.7515L60.9488 45.2762Z" fill="#EC837E"/>
<path d="M59.0564 40.9752C59.1857 40.8198 59.3505 40.6976 59.5369 40.6191C59.7232 40.5405 59.9257 40.5077 60.1273 40.5236H60.1789C60.2222 40.5236 60.2638 40.5064 60.2945 40.4757C60.3251 40.4451 60.3423 40.4035 60.3423 40.3602C60.3429 40.3389 60.3392 40.3177 60.3315 40.2979C60.3237 40.2781 60.3121 40.2601 60.2973 40.2448C60.2824 40.2296 60.2647 40.2175 60.2451 40.2092C60.2255 40.201 60.2045 40.1967 60.1832 40.1967C59.9309 40.1702 59.6759 40.2043 59.4395 40.2964C59.2031 40.3884 58.9921 40.5356 58.8241 40.7257C58.799 40.7542 58.7852 40.791 58.7854 40.829C58.7842 40.8506 58.7875 40.8722 58.7949 40.8925C58.8024 40.9128 58.814 40.9314 58.8288 40.9471C58.8437 40.9628 58.8617 40.9753 58.8816 40.9838C58.9015 40.9923 58.9229 40.9967 58.9445 40.9967C58.9832 41.0021 59.0225 40.9945 59.0564 40.9752Z" fill="#263238"/>
<path d="M57.9467 50.0502C57.465 51.977 57.4478 54.3512 59.5467 55.0264C59.5467 55.0264 62.1746 57.2285 57.1166 57.2285C52.5189 57.2285 51.8394 54.7168 51.8394 54.7168C53.5597 53.0609 53.2802 49.6373 52.7942 47.16L57.9467 50.0502Z" fill="#FFC2BC"/>
<path d="M49.9597 54.291C49.9597 54.291 50.8198 52.0889 51.9252 51.4352C53.0305 50.7814 57.8218 51.7534 58.5616 52.0846C59.3013 52.4158 59.9723 54.1878 59.9723 54.1878L49.9597 54.291Z" fill="#018A90"/>
<path opacity="0.2" d="M49.9597 54.291C49.9597 54.291 50.8198 52.0889 51.9252 51.4352C53.0305 50.7814 57.8218 51.7534 58.5616 52.0846C59.3013 52.4158 59.9723 54.1878 59.9723 54.1878L49.9597 54.291Z" fill="black"/>
<path d="M57.2024 153.235C57.1859 153.231 57.1708 153.223 57.1593 153.21C57.1477 153.198 57.1403 153.182 57.1379 153.166C57.1356 153.15 57.1381 153.134 57.145 153.119C57.1518 153.105 57.1629 153.092 57.1766 153.084C57.2369 153.058 58.4239 152.383 58.983 152.538C59.0366 152.549 59.0872 152.571 59.1317 152.603C59.1761 152.635 59.2134 152.676 59.2411 152.723C59.2766 152.774 59.2956 152.835 59.2956 152.897C59.2956 152.959 59.2766 153.02 59.2411 153.071C59.0992 153.269 58.6992 153.329 58.2476 153.329C57.8972 153.326 57.5477 153.294 57.2024 153.235ZM58.7852 152.663C58.3189 152.72 57.8678 152.866 57.4562 153.093C58.0841 153.179 58.94 153.174 59.0949 152.959C59.1336 152.925 59.1508 152.882 59.0949 152.783C59.0794 152.753 59.0575 152.727 59.0307 152.707C59.0039 152.687 58.9729 152.673 58.94 152.667C58.8885 152.663 58.8367 152.663 58.7852 152.667V152.663Z" fill="#018A90"/>
<path d="M57.2025 153.217C57.191 153.209 57.1815 153.198 57.1748 153.185C57.1681 153.173 57.1643 153.159 57.1638 153.144C57.1638 153.101 57.2412 152.194 57.6928 151.854C57.7547 151.801 57.8267 151.762 57.9044 151.738C57.982 151.715 58.0638 151.707 58.1444 151.716C58.3681 151.742 58.4455 151.854 58.4455 151.944C58.5057 152.336 57.6971 153.058 57.2885 153.235H57.2541C57.2448 153.235 57.2354 153.234 57.2266 153.231C57.2177 153.228 57.2095 153.224 57.2025 153.217ZM58.0928 151.854C57.9857 151.855 57.8829 151.897 57.8047 151.97C57.553 152.265 57.3957 152.63 57.3531 153.015C57.7832 152.761 58.3208 152.189 58.2864 151.957C58.2864 151.957 58.2864 151.867 58.1272 151.867H58.0627L58.0928 151.854Z" fill="#018A90"/>
<path d="M53.8564 145.308H57.2369L56.8972 153.144H53.5166L53.8564 145.308Z" fill="#FFC2BC"/>
<path d="M57.6928 153.015C59.9809 154.426 60.7034 154.49 63.3356 155.071C63.9163 155.196 63.5292 156.602 62.1443 156.602C59.8476 156.602 59.6067 156.495 57.6498 156.495C55.9724 156.495 54.0456 156.568 52.7123 156.594C52.6722 156.598 52.6319 156.598 52.5918 156.594C52.466 156.563 52.3574 156.484 52.2897 156.374C52.222 156.263 52.2008 156.13 52.2306 156.004L52.8929 152.994C52.9075 152.928 52.944 152.869 52.9963 152.827C53.0487 152.785 53.1138 152.762 53.1811 152.761H56.8799C57.1688 152.771 57.4497 152.859 57.6928 153.015Z" fill="#263238"/>
<path d="M49.7576 62.1488C49.6009 62.7413 49.2438 63.2611 48.7469 63.6198L42.1062 65.4907L41.246 64.7423L38.5063 61.779C38.5063 61.779 44.5276 55.3662 47.6974 54.6351C50.9576 53.8953 50.8328 57.9081 49.7576 62.1488Z" fill="#018A90"/>
<path opacity="0.2" d="M47.5341 62.9403C47.5341 62.9403 47.6459 63.9295 47.6416 63.9338L42.0762 65.6327C42.0762 65.6327 48.5448 61.4694 47.5341 62.9403Z" fill="black"/>
<path d="M61.9336 54.291C61.1896 54.162 62.6734 53.9297 61.8261 53.8609C59.267 53.7104 54.3811 53.8222 51.8221 53.9727C50.9619 54.0244 50.063 54.1061 49.1899 54.205C48.753 54.2563 48.331 54.3954 47.9493 54.6139C47.5675 54.8325 47.2338 55.1259 46.9683 55.4766C46.7028 55.8272 46.5109 56.228 46.4041 56.6547C46.2973 57.0814 46.2779 57.5253 46.347 57.9597C48.2394 70.0024 47.1211 81.7913 46.8244 84.1569H64.8884C66.9184 69.2928 66.484 61.7919 65.7916 58.1318C65.6137 57.176 65.1494 56.2968 64.4604 55.6109C63.7714 54.925 62.8902 54.4647 61.9336 54.291Z" fill="#018A90"/>
<path opacity="0.2" d="M53.8522 145.312L53.6802 149.351H57.065L57.2371 145.312H53.8522Z" fill="black"/>
<path d="M51.0995 41.4354C51.3297 40.2419 52.0244 39.1885 53.0309 38.507C54.0375 37.8255 55.2734 37.5716 56.4671 37.8011C59.9466 38.4549 61.3831 43.2375 61.2799 46.3342C61.181 49.775 57.409 52.1018 54.3984 50.0761C52.4027 48.7212 52.0544 46.7815 51.1856 43.5386C50.9918 42.8541 50.9623 42.1335 51.0995 41.4354Z" fill="#FFC2BC"/>
<path d="M46.6437 84.1354C46.6437 84.1354 43.7792 90.8621 41.0954 102.165C37.5988 116.904 29.1689 147.015 29.1689 147.015L35.1343 148.327C35.1343 148.327 47.4394 113.279 50.6737 102.711C52.7128 96.3214 55.2703 90.1088 58.3208 84.1354H46.6437Z" fill="#263238"/>
<path opacity="0.3" d="M54.4457 92.1137C49.1254 106.586 47.9942 110.93 47.9168 111.21C48.5663 102.402 51.2156 92.5739 54.4457 92.1137C54.6736 92.075 54.2263 92.0406 54.4457 92.1137Z" fill="black"/>
<path d="M52.837 84.1354C52.837 84.1354 53.0478 92.0707 52.794 103.563C52.5618 114.104 52.794 148.568 52.794 148.568H58.5272C58.5272 148.568 62.9314 113.408 64.084 102.69C64.761 96.5296 64.9752 90.3275 64.7249 84.1354H52.837Z" fill="#263238"/>
<path d="M51.9468 146.542L52.1403 148.663H59.1079C59.1079 148.663 59.4562 146.284 59.4304 146.284L51.9468 146.542Z" fill="#263238"/>
<path d="M81.2878 51.8352C81.4747 52.2294 81.5011 52.6807 81.3615 53.094C81.2218 53.5073 80.9271 53.8502 80.5394 54.0502C78.5351 55.0781 76.5309 56.0803 74.518 57.0609C72.0149 58.2651 69.4945 59.4436 66.9699 60.549C66.3638 60.7616 65.7001 60.7407 65.1087 60.4901C64.5172 60.2395 64.0405 59.7774 63.7717 59.194C63.5028 58.6106 63.4612 57.948 63.655 57.3356C63.8487 56.7231 64.2639 56.205 64.8194 55.8824V55.9039C67.3225 54.7226 69.8415 53.5757 72.3762 52.4632L79.9975 49.117L81.2878 51.8352Z" fill="#018A90"/>
<path d="M61.2627 54.218C65.1894 52.7728 76.6429 50.6525 76.6429 50.6525L72.6043 57.9641C72.6043 57.9641 65.7228 63.3661 62.4669 61.4694C59.6154 59.3189 59.0692 55.6889 61.2627 54.218Z" fill="#018A90"/>
<path d="M29.0013 153.192C28.9994 153.208 28.992 153.223 28.9803 153.235C28.9686 153.247 28.9532 153.254 28.9368 153.256C28.9208 153.26 28.904 153.258 28.8892 153.251C28.8744 153.244 28.8623 153.232 28.855 153.217C28.8249 153.157 28.1583 151.966 28.3174 151.407C28.3449 151.302 28.4109 151.211 28.5024 151.153C28.5542 151.117 28.6157 151.098 28.6787 151.098C28.7417 151.098 28.8032 151.117 28.855 151.153C29.0486 151.299 29.1045 151.699 29.1045 152.155C29.1004 152.503 29.0659 152.85 29.0013 153.192ZM28.4508 151.609C28.5012 152.074 28.6399 152.525 28.8593 152.938C28.954 152.31 28.954 151.458 28.7389 151.299C28.7131 151.26 28.6615 151.243 28.5626 151.299C28.5323 151.314 28.5063 151.337 28.4867 151.365C28.4672 151.392 28.4549 151.425 28.4508 151.458C28.4419 151.508 28.4419 151.559 28.4508 151.609Z" fill="#018A90"/>
<path d="M28.9968 153.226C28.9885 153.237 28.9773 153.246 28.9644 153.251C28.9515 153.256 28.9375 153.258 28.9237 153.256C28.8893 153.256 27.9732 153.174 27.6334 152.723C27.5833 152.664 27.5456 152.595 27.5227 152.521C27.4997 152.447 27.4921 152.37 27.5001 152.293C27.5001 152.073 27.6334 152 27.7237 152C28.1108 151.94 28.8334 152.753 29.014 153.161V153.192C29.011 153.204 29.0051 153.216 28.9968 153.226ZM27.6334 152.34C27.6388 152.444 27.6798 152.543 27.7496 152.62C28.0439 152.864 28.4052 153.014 28.7861 153.05C28.5409 152.62 27.9689 152.078 27.7409 152.112C27.7409 152.112 27.6506 152.112 27.6506 152.267V152.319L27.6334 152.34Z" fill="#018A90"/>
<path d="M30.4808 146.697L33.7753 146.947L32.2571 153.428L28.9496 153.192L30.4808 146.697Z" fill="#FFC2BC"/>
<path opacity="0.2" d="M30.5194 146.516L29.8527 149.368L33.1516 149.605L33.8225 146.744L30.5194 146.516Z" fill="black"/>
<path d="M28.1538 152.757C27.2635 153.811 26.7947 154.353 24.2098 155.17C23.6378 155.346 24.1496 156.71 25.5345 156.589C27.8226 156.383 26.5582 156.387 28.5065 156.219C30.1753 156.069 32.1021 155.979 33.4311 155.884C33.5051 155.877 33.5766 155.854 33.6404 155.816C33.7042 155.778 33.7587 155.726 33.8 155.664C33.8412 155.602 33.8681 155.532 33.8787 155.458C33.8893 155.385 33.8833 155.31 33.8612 155.239L32.9322 152.301C32.9117 152.237 32.8698 152.182 32.8133 152.145C32.7569 152.108 32.6895 152.092 32.6225 152.099L28.9409 152.426C28.6451 152.428 28.3623 152.547 28.1538 152.757Z" fill="#263238"/>
<path d="M28.4549 145.91L28.4205 148.061L35.5945 148.813C35.5945 148.813 36.2096 146.482 36.1838 146.482L28.4549 145.91Z" fill="#263238"/>
<path d="M79.0643 54.3039L65.8044 44.6526L67.8216 42.9322L80.2428 48.3299C80.7569 48.5664 81.2169 48.9061 81.5942 49.3278C81.9715 49.7495 82.2581 50.2443 82.4363 50.7814C82.8749 52.1405 82.5782 53.8007 79.0643 54.3039Z" fill="#018A90"/>
<path d="M67.8216 42.9322L66.8625 39.1904L63.5551 41.1903L65.8045 44.6483L67.8216 42.9322Z" fill="#FFC2BC"/>
<path d="M66.8624 39.1904L63.0474 39.9559L62.1571 40.971L63.5549 41.1903L66.8624 39.1904Z" fill="#FFC2BC"/>
<path d="M59.4479 35.7969C60.1871 35.8845 60.9345 35.7253 61.5738 35.3442C62.2132 34.9631 62.7087 34.3813 62.9833 33.6895C62.9413 34.307 62.7591 34.9068 62.4506 35.4434C62.142 35.98 61.7153 36.4392 61.2027 36.7861C61.8165 36.6613 62.3978 36.4108 62.91 36.0503C63.4222 35.6898 63.8543 35.2272 64.1789 34.6916C64.1636 35.3969 63.9601 36.0853 63.5896 36.6857C63.2191 37.286 62.695 37.7766 62.0715 38.1065L64.1101 37.2119C63.7277 37.863 63.2029 38.4191 62.575 38.8385C61.9471 39.2578 61.2323 39.5296 60.4844 39.6334C59.9934 39.6572 59.5062 39.7321 59.0307 39.857C58.7936 39.9229 58.5814 40.0578 58.4213 40.2448C58.2612 40.4317 58.1604 40.662 58.1318 40.9065C58.1318 41.4226 58.5619 41.8269 58.7124 42.3172C58.9103 42.9838 58.5447 43.6677 58.2522 44.2956C57.5297 45.8354 56.7039 47.216 56.6781 48.8589C56.6749 48.9976 56.6219 49.1305 56.5286 49.2332C56.4354 49.3359 56.3083 49.4015 56.1706 49.4181C54.3986 49.6245 52.9577 49.4998 51.4395 48.4073C49.7879 47.2074 49.1428 44.7902 49.1987 42.7516C49.2288 41.6376 49.6933 40.8161 50.532 39.8914C51.1 39.2437 51.5551 38.5051 51.8782 37.7065C52.4717 36.3689 53.8179 35.027 59.4479 35.7969Z" fill="#263238"/>
<path d="M58.4929 42.1107C59.4563 42.4032 59.9466 43.8311 59.9767 44.7343C60.0154 45.7364 59.3402 46.36 58.4757 45.6805C57.826 45.1583 57.3653 44.4377 57.1639 43.6289C56.9273 42.6483 57.5209 41.8139 58.4929 42.1107Z" fill="#FFC2BC"/>
</svg>
