<svg width="169" height="40" viewBox="0 0 169 40" fill="none" xmlns="http://www.w3.org/2000/svg">
<path fill-rule="evenodd" clip-rule="evenodd" d="M1.23047 2C0.944757 2 0.730469 2.21168 0.730469 2.45159V37.5484C0.730469 37.8024 0.962614 38 1.23047 38C1.51618 38 1.73047 37.7883 1.73047 37.5484V2.4657C1.73047 2.21168 1.51618 2 1.23047 2Z" fill="#C5C5C5"/>
<path fill-rule="evenodd" clip-rule="evenodd" d="M45.0184 0V16.4275L61.4721 0H45.0184Z" fill="#3BA6B3"/>
<path fill-rule="evenodd" clip-rule="evenodd" d="M38.8394 22.5964V39.0239L22.3857 22.5964H38.8394Z" fill="#E53712"/>
<path d="M162.798 18.4723H159.969V9.70403H156.671V7.5033H166.095V9.70403H162.798V18.4723ZM144.522 10.6398C144.522 10.0159 144.209 9.70403 143.584 9.70403H140.443V13.1524H143.584C144.209 13.1524 144.522 12.8405 144.522 12.2167V10.6398ZM137.614 7.5033H144.209C145.303 7.5033 146.101 7.7459 146.604 8.24843C147.108 8.75095 147.351 9.54807 147.351 10.6398V12.1993C147.351 13.291 147.108 14.0882 146.604 14.5907C146.101 15.0932 145.303 15.3358 144.209 15.3358H140.443V18.4723H137.614V7.5033ZM121.143 14.4867H123.659L122.41 10.7957L121.143 14.4867ZM119.72 18.4723H116.665L120.83 7.5033H123.972L128.137 18.4723H125.083L124.371 16.5142H120.448L119.72 18.4723ZM104.342 12.3726L102.138 16.2889H99.9335L97.7292 12.3726V18.4896H94.9001V7.52062H97.8854L101.027 13.3084L104.168 7.52062H107.154V18.4896H104.325V12.3726H104.342ZM79.1581 18.5243C78.134 18.5243 77.3704 18.2817 76.9017 17.8138C76.4158 17.3459 76.1728 16.6008 76.1728 15.5784V10.6051C76.1728 9.51341 76.4158 8.73363 76.9191 8.2311C77.4224 7.7459 78.2208 7.5033 79.3143 7.5033H84.9724V9.70403H79.9564C79.3316 9.70403 79.0192 10.0159 79.0192 10.6398V15.6304C79.0192 15.873 79.0886 16.0636 79.2275 16.2022C79.3663 16.3409 79.5572 16.4102 79.8002 16.4102C79.9912 16.4102 80.2341 16.4102 80.4945 16.4102C80.7548 16.4102 81.0325 16.4102 81.3102 16.4102C81.5879 16.4102 81.883 16.4102 82.1607 16.4102C82.4557 16.4102 82.7334 16.3582 82.9938 16.2716C83.636 16.2716 84.2955 16.2716 84.9724 16.2716V18.3163C84.2781 18.455 83.5839 18.5243 82.8897 18.5243C82.2995 18.5243 81.6574 18.5243 80.9978 18.5243C80.3209 18.5243 79.7135 18.5243 79.1581 18.5243Z" fill="#3BA6B3"/>
<path fill-rule="evenodd" clip-rule="evenodd" d="M38.8394 16.4275V0L22.3857 16.4275H38.8394Z" fill="#F7A803"/>
<path fill-rule="evenodd" clip-rule="evenodd" d="M45.0184 39.0239V22.5964L61.4721 39.0239H45.0184Z" fill="#F7A803"/>
<path d="M139.818 29.7532C139.818 29.1294 139.506 28.8175 138.881 28.8175H135.896V31.642H138.881C139.506 31.642 139.818 31.3301 139.818 30.7063V29.7532ZM146.726 33.8428H143.897V22.8738H146.726V33.8428ZM135.896 26.6341H139.506C140.599 26.6341 141.397 26.8767 141.901 27.3792C142.404 27.8817 142.647 28.6788 142.647 29.7706V30.7063C142.647 31.798 142.404 32.5951 141.901 33.0976C141.397 33.6002 140.599 33.8428 139.506 33.8428H133.066V22.8738H135.896V26.6341ZM116.665 31.5554C116.613 32.3005 116.37 32.907 115.936 33.3402C115.502 33.7735 114.929 33.9987 114.218 33.9987C114.027 33.9987 113.818 33.9987 113.627 33.9814C113.437 33.9641 113.263 33.9467 113.107 33.9294C112.916 33.9121 112.742 33.8774 112.569 33.8601V31.746H113.28C113.471 31.746 113.645 31.6767 113.784 31.5381C113.905 31.3994 113.992 31.2435 113.992 31.0355L114.461 22.8911H123.173V33.8601H120.344V25.0918H117.047L116.665 31.5554ZM97.6077 29.8399H100.124L98.8574 26.1662L97.6077 29.8399ZM96.1845 33.8428H93.1298L97.2953 22.8738H100.437L104.602 33.8428H101.548L100.836 31.8846H96.9135L96.1845 33.8428ZM165.731 27.7258L163.527 31.642H161.34L159.135 27.7258V33.8428H156.306V22.8738H159.292L162.433 28.6789L165.575 22.8738H168.56V33.8428H165.731V27.7258ZM79.1581 33.8774C78.134 33.8774 77.3704 33.6348 76.9017 33.167C76.4158 32.6991 76.1728 31.9366 76.1728 30.9316V25.9583C76.1728 24.8666 76.4158 24.0868 76.9191 23.5842C77.4224 23.099 78.2208 22.8391 79.3143 22.8391H84.9724V25.0398H79.9564C79.3316 25.0398 79.0192 25.3518 79.0192 25.9756V30.9662C79.0192 31.2088 79.0886 31.3994 79.2275 31.5381C79.3663 31.6767 79.5572 31.746 79.8002 31.746C79.9912 31.746 80.2341 31.746 80.4945 31.746C80.7548 31.746 81.0325 31.746 81.3102 31.746C81.5879 31.746 81.883 31.746 82.1607 31.746C82.4557 31.746 82.7334 31.694 82.9938 31.6074C83.636 31.6074 84.2955 31.6074 84.9724 31.6074V33.6522C84.2781 33.7908 83.5839 33.8601 82.8896 33.8601C82.2995 33.8601 81.6574 33.8601 80.9978 33.8601C80.3209 33.8774 79.7135 33.8774 79.1581 33.8774Z" fill="#E53712"/>
</svg>
