<svg width="387" height="230" viewBox="0 0 387 230" fill="none" xmlns="http://www.w3.org/2000/svg">
<path d="M26.9374 0H387V230H61.421C61.421 230 -28.1225 192.766 9.02385 130.082C46.1702 67.3975 26.9374 0 26.9374 0Z" fill="url(#paint0_linear_2001_71)"/>
<path d="M309.425 173.291V172.264L311.275 169.417C311.414 169.204 311.545 169.001 311.65 168.806C311.769 168.618 311.869 168.419 311.949 168.211C312.029 168.003 312.07 167.782 312.069 167.559C312.082 167.361 312.032 167.165 311.927 166.997C311.881 166.934 311.819 166.884 311.749 166.851C311.678 166.817 311.6 166.802 311.522 166.806C311.444 166.801 311.365 166.812 311.291 166.839C311.217 166.865 311.149 166.906 311.092 166.96C310.986 167.074 310.915 167.215 310.886 167.368C310.847 167.55 310.828 167.736 310.829 167.922V168.297H309.41V167.922C309.403 167.512 309.474 167.104 309.619 166.72C309.751 166.384 309.984 166.097 310.286 165.9C310.649 165.687 311.065 165.584 311.485 165.604C311.757 165.585 312.03 165.622 312.288 165.712C312.546 165.802 312.782 165.944 312.983 166.128C313.34 166.534 313.522 167.064 313.489 167.604C313.493 167.893 313.446 168.181 313.35 168.454C313.253 168.717 313.127 168.968 312.976 169.204C312.822 169.443 312.657 169.694 312.481 169.953L311.017 172.163H313.264V173.309L309.425 173.291Z" fill="white"/>
<path d="M314.418 174.587L314.306 174.107C314.47 174.053 314.62 173.965 314.748 173.849C314.816 173.774 314.869 173.686 314.903 173.59C314.936 173.494 314.95 173.392 314.943 173.29H314.193V171.916H315.557V173.129C315.572 173.493 315.469 173.851 315.265 174.152C315.161 174.279 315.033 174.383 314.887 174.458C314.741 174.533 314.582 174.577 314.418 174.587V174.587Z" fill="white"/>
<path d="M318.501 173.291V171.511H316.19V170.387L318.164 165.678H319.854V170.402H320.603V171.526H319.854V173.306L318.501 173.291ZM317.336 170.402H318.501V167.173L317.336 170.402Z" fill="white"/>
<path d="M323.188 173.392C322.801 173.407 322.416 173.331 322.064 173.171C321.79 173.03 321.574 172.798 321.453 172.515C321.32 172.175 321.257 171.812 321.266 171.447V171.335H322.637C322.624 171.577 322.659 171.818 322.738 172.047C322.802 172.204 322.959 172.283 323.203 172.283C323.267 172.287 323.332 172.277 323.392 172.253C323.453 172.229 323.507 172.192 323.551 172.144C323.647 172.001 323.705 171.836 323.72 171.665C323.754 171.361 323.769 171.056 323.765 170.751V169.983C323.675 170.124 323.544 170.235 323.39 170.301C323.205 170.379 323.006 170.421 322.806 170.425C322.454 170.449 322.107 170.344 321.828 170.129C321.577 169.913 321.396 169.627 321.307 169.308C321.2 168.936 321.148 168.55 321.154 168.162C321.144 167.702 321.21 167.244 321.348 166.806C321.464 166.445 321.694 166.132 322.004 165.914C322.359 165.687 322.777 165.575 323.199 165.596C323.613 165.577 324.022 165.683 324.375 165.899C324.678 166.107 324.907 166.404 325.031 166.75C325.178 167.159 325.249 167.592 325.241 168.027V170.799C325.247 171.25 325.189 171.699 325.068 172.133C324.974 172.503 324.759 172.831 324.458 173.066C324.082 173.312 323.635 173.426 323.188 173.392ZM323.188 169.305C323.315 169.311 323.441 169.269 323.54 169.188C323.62 169.121 323.69 169.043 323.75 168.956V167.735C323.751 167.555 323.736 167.376 323.705 167.199C323.68 167.056 323.622 166.92 323.536 166.802C323.49 166.75 323.432 166.708 323.367 166.682C323.302 166.656 323.231 166.646 323.161 166.652C323.094 166.649 323.026 166.662 322.964 166.69C322.902 166.718 322.848 166.76 322.806 166.813C322.714 166.947 322.657 167.102 322.641 167.263C322.612 167.497 322.598 167.732 322.6 167.967C322.6 168.226 322.6 168.454 322.626 168.657C322.634 168.822 322.684 168.984 322.772 169.125C322.821 169.19 322.886 169.241 322.961 169.273C323.036 169.304 323.118 169.315 323.199 169.305H323.188Z" fill="white"/>
<path d="M328.151 173.422C327.729 173.442 327.309 173.342 326.941 173.133C326.644 172.94 326.418 172.656 326.297 172.324C326.16 171.941 326.094 171.536 326.102 171.129V170.856H327.548V171.107C327.551 171.309 327.571 171.511 327.608 171.71C327.63 171.85 327.694 171.981 327.792 172.084C327.896 172.172 328.03 172.216 328.166 172.208C328.234 172.213 328.302 172.204 328.366 172.182C328.431 172.16 328.49 172.126 328.541 172.08C328.633 171.975 328.691 171.845 328.709 171.706C328.745 171.507 328.762 171.305 328.758 171.103C328.774 170.797 328.715 170.492 328.586 170.215C328.515 170.103 328.414 170.014 328.295 169.957C328.176 169.9 328.043 169.878 327.911 169.893H327.657V168.821H327.881C328.011 168.837 328.142 168.82 328.263 168.772C328.384 168.725 328.491 168.647 328.575 168.548C328.714 168.286 328.778 167.99 328.758 167.694C328.77 167.452 328.725 167.211 328.627 166.99C328.579 166.903 328.508 166.833 328.42 166.788C328.333 166.743 328.234 166.724 328.136 166.735C328.038 166.724 327.94 166.746 327.855 166.797C327.771 166.848 327.705 166.924 327.668 167.016C327.585 167.248 327.543 167.492 327.544 167.739V168.08H326.098V167.66C326.088 167.271 326.172 166.886 326.342 166.536C326.496 166.234 326.739 165.987 327.039 165.828C327.378 165.654 327.755 165.569 328.136 165.581C328.524 165.568 328.91 165.649 329.26 165.817C329.559 165.967 329.804 166.207 329.961 166.503C330.132 166.852 330.215 167.238 330.2 167.626C330.217 168.02 330.12 168.41 329.923 168.75C329.773 169.015 329.53 169.215 329.241 169.312C329.43 169.375 329.601 169.481 329.74 169.623C329.896 169.786 330.011 169.984 330.077 170.2C330.167 170.491 330.208 170.795 330.2 171.099C330.207 171.512 330.14 171.923 330.002 172.313C329.882 172.653 329.655 172.945 329.354 173.144C328.99 173.355 328.571 173.452 328.151 173.422V173.422Z" fill="white"/>
<path d="M331.118 174.587L331.006 174.107C331.17 174.054 331.321 173.966 331.448 173.849C331.517 173.774 331.571 173.686 331.605 173.59C331.639 173.494 331.653 173.392 331.646 173.29H330.897V171.916H332.261V173.129C332.278 173.493 332.175 173.852 331.969 174.152C331.865 174.28 331.736 174.384 331.589 174.459C331.443 174.534 331.282 174.577 331.118 174.587V174.587Z" fill="white"/>
<path d="M335.055 173.392C334.669 173.407 334.284 173.332 333.932 173.171C333.658 173.03 333.442 172.798 333.321 172.515C333.188 172.175 333.124 171.812 333.134 171.447V171.335H334.505C334.492 171.577 334.527 171.818 334.606 172.047C334.67 172.204 334.823 172.283 335.07 172.283C335.135 172.287 335.199 172.277 335.259 172.253C335.318 172.229 335.372 172.192 335.415 172.144C335.514 172.003 335.574 171.837 335.587 171.665C335.621 171.361 335.636 171.056 335.632 170.751V169.983C335.542 170.124 335.412 170.235 335.258 170.301C335.074 170.379 334.877 170.421 334.677 170.425C334.326 170.449 333.978 170.344 333.699 170.129C333.447 169.914 333.266 169.628 333.179 169.308C333.07 168.936 333.017 168.55 333.021 168.162C333.013 167.702 333.08 167.244 333.22 166.806C333.335 166.446 333.564 166.133 333.872 165.914C334.229 165.687 334.647 165.576 335.07 165.596C335.484 165.578 335.894 165.683 336.247 165.899C336.548 166.108 336.778 166.405 336.902 166.75C337.048 167.16 337.118 167.592 337.108 168.027V170.799C337.114 171.25 337.057 171.698 336.94 172.133C336.846 172.503 336.631 172.831 336.329 173.066C335.952 173.313 335.504 173.427 335.055 173.392V173.392ZM335.055 169.305C335.183 169.31 335.308 169.269 335.408 169.189C335.488 169.121 335.558 169.043 335.617 168.956V167.735C335.619 167.555 335.604 167.376 335.572 167.199C335.548 167.055 335.489 166.919 335.4 166.802C335.356 166.752 335.301 166.712 335.24 166.686C335.178 166.66 335.111 166.648 335.044 166.652C334.973 166.646 334.902 166.657 334.836 166.685C334.771 166.713 334.713 166.757 334.67 166.814C334.576 166.946 334.519 167.101 334.505 167.263C334.474 167.496 334.46 167.732 334.464 167.967C334.464 168.226 334.464 168.454 334.49 168.657C334.498 168.823 334.548 168.984 334.636 169.125C334.685 169.191 334.75 169.243 334.826 169.274C334.902 169.306 334.985 169.317 335.067 169.305H335.055Z" fill="white"/>
<path d="M340.188 173.291V171.511H337.876V170.387L339.858 165.69H341.547V170.414H342.297V171.537H341.547V173.317L340.188 173.291ZM339.023 170.402H340.188V167.173L339.023 170.402Z" fill="white"/>
<path d="M344.818 173.422C344.391 173.449 343.965 173.347 343.596 173.129C343.314 172.934 343.11 172.645 343.02 172.313C342.908 171.912 342.855 171.497 342.862 171.08H344.263C344.26 171.314 344.278 171.547 344.316 171.777C344.336 171.933 344.401 172.081 344.503 172.2C344.558 172.25 344.623 172.287 344.693 172.309C344.764 172.332 344.838 172.339 344.911 172.332C344.99 172.334 345.068 172.317 345.138 172.28C345.208 172.243 345.266 172.188 345.308 172.122C345.4 171.948 345.452 171.756 345.458 171.56C345.458 171.316 345.484 171.028 345.484 170.694C345.487 170.456 345.472 170.219 345.44 169.983C345.419 169.807 345.356 169.638 345.256 169.492C345.205 169.432 345.14 169.385 345.067 169.354C344.994 169.324 344.915 169.31 344.836 169.316C344.758 169.314 344.68 169.329 344.608 169.359C344.536 169.39 344.471 169.435 344.417 169.492C344.295 169.638 344.214 169.814 344.181 170.001H342.937L343.042 165.678H346.537V166.926H344.237L344.151 168.608C344.254 168.497 344.382 168.413 344.525 168.364C344.71 168.295 344.905 168.254 345.102 168.245C345.446 168.195 345.796 168.275 346.084 168.469C346.359 168.679 346.561 168.97 346.661 169.301C346.796 169.733 346.86 170.185 346.848 170.638C346.852 171.014 346.827 171.39 346.773 171.762C346.735 172.073 346.637 172.373 346.485 172.646C346.338 172.895 346.122 173.096 345.863 173.223C345.535 173.37 345.177 173.438 344.818 173.422Z" fill="white"/>
<path d="M80.5523 78.5025L82.0845 72.2652H80.0916V71.2163H83.4443V72.1341L81.9047 78.5025H80.5523Z" fill="white"/>
<path d="M86.0928 78.6074C85.6891 78.6271 85.2884 78.5295 84.939 78.3265C84.6507 78.1367 84.4344 77.8557 84.3246 77.5285C84.195 77.1514 84.1316 76.7547 84.1373 76.356C84.136 76.1685 84.1549 75.9814 84.1935 75.7978C84.2256 75.6315 84.2798 75.4703 84.3546 75.3183C84.425 75.1815 84.5146 75.0553 84.6206 74.9437C84.7274 74.8301 84.8544 74.7374 84.9952 74.6703C84.7809 74.5063 84.6045 74.298 84.4782 74.0597C84.3178 73.7525 84.2379 73.4096 84.246 73.0632C84.2319 72.7067 84.2999 72.3517 84.4445 72.0255C84.5762 71.7413 84.7937 71.5055 85.0663 71.3512C85.3883 71.1983 85.7402 71.119 86.0965 71.119C86.4529 71.119 86.8048 71.1983 87.1267 71.3512C87.3966 71.5044 87.6095 71.741 87.7336 72.0255C87.8738 72.3529 87.939 72.7074 87.9246 73.0632C87.9326 73.4119 87.8568 73.7575 87.7036 74.0709C87.5805 74.3095 87.4019 74.515 87.1829 74.6703C87.3237 74.7374 87.4507 74.8301 87.5575 74.9437C87.6635 75.0553 87.753 75.1815 87.8235 75.3183C87.8992 75.4706 87.9558 75.6317 87.992 75.7978C88.0307 75.9814 88.0495 76.1685 88.0482 76.356C88.0679 76.7544 88.0094 77.1527 87.8759 77.5285C87.7592 77.8561 87.5415 78.1382 87.2541 78.3339C86.9014 78.5352 86.4981 78.6301 86.0928 78.6074V78.6074ZM86.0928 77.5735C86.1651 77.5762 86.237 77.5612 86.3023 77.5299C86.3676 77.4986 86.4242 77.4518 86.4674 77.3937C86.5553 77.2612 86.6105 77.1097 86.6285 76.9516C86.6534 76.7842 86.666 76.6152 86.6659 76.4459C86.6719 76.2592 86.6606 76.0724 86.6322 75.8877C86.614 75.7292 86.5575 75.5775 86.4674 75.4457C86.4226 75.3899 86.3655 75.3452 86.3004 75.3153C86.2354 75.2854 86.1643 75.271 86.0928 75.2734C86.0212 75.2704 85.9499 75.2845 85.8847 75.3145C85.8196 75.3444 85.7625 75.3894 85.7182 75.4457C85.6256 75.5754 85.5664 75.726 85.5458 75.884C85.5196 76.0701 85.5071 76.2579 85.5084 76.4459C85.5089 76.6163 85.5202 76.7864 85.5421 76.9554C85.5595 77.1147 85.6176 77.2669 85.7107 77.3974C85.7544 77.4573 85.812 77.5056 85.8786 77.5383C85.9452 77.5709 86.0187 77.5868 86.0928 77.5847V77.5735ZM86.0928 74.1383C86.1491 74.1395 86.2049 74.128 86.2561 74.1047C86.3074 74.0813 86.3527 74.0467 86.3887 74.0035C86.4717 73.8929 86.5281 73.7647 86.5535 73.6289C86.5937 73.4329 86.6126 73.2332 86.6097 73.0332C86.6188 72.8178 86.5765 72.6034 86.4861 72.4076C86.4523 72.3327 86.3967 72.2698 86.3265 72.227C86.2563 72.1842 86.1749 72.1636 86.0928 72.1679C86.0099 72.1646 85.9279 72.1855 85.8567 72.2281C85.7855 72.2707 85.7283 72.3331 85.6919 72.4076C85.5978 72.5983 85.5527 72.8095 85.5608 73.022C85.5589 73.223 85.5764 73.4237 85.6133 73.6214C85.6326 73.7654 85.6909 73.9014 85.7819 74.0147C85.8219 74.0563 85.8703 74.0888 85.9239 74.1102C85.9776 74.1315 86.0351 74.1411 86.0928 74.1383V74.1383Z" fill="white"/>
<path d="M89.5916 74.1495C89.4567 74.1627 89.3206 74.1445 89.1939 74.0964C89.0672 74.0483 88.9533 73.9716 88.8611 73.8723C88.6995 73.632 88.623 73.3445 88.6438 73.0557V72.8421C88.6201 72.5547 88.6954 72.2679 88.8573 72.0292C88.9547 71.9325 89.0726 71.8589 89.2024 71.8142C89.3321 71.7694 89.4703 71.7546 89.6066 71.7708C89.7425 71.7554 89.8801 71.7703 90.0097 71.8144C90.1392 71.8584 90.2574 71.9305 90.3558 72.0255C90.5172 72.2587 90.5927 72.5407 90.5693 72.8234V73.0894C90.5894 73.3746 90.5128 73.6583 90.352 73.8948C90.2545 73.9944 90.1347 74.0695 90.0025 74.1138C89.8703 74.1581 89.7295 74.1703 89.5916 74.1495V74.1495ZM89.5916 73.6326C89.6279 73.6361 89.6645 73.6315 89.6988 73.6192C89.7331 73.6069 89.7643 73.5872 89.7901 73.5614C89.8359 73.5005 89.8633 73.4276 89.8688 73.3516C89.8752 73.2456 89.8752 73.1392 89.8688 73.0332V72.8496C89.8738 72.71 89.8612 72.5703 89.8313 72.4338C89.8051 72.3402 89.7189 72.2915 89.5766 72.2915C89.4342 72.2915 89.3556 72.3402 89.3294 72.4301C89.2941 72.567 89.279 72.7083 89.2844 72.8496V73.0369C89.284 73.1434 89.2903 73.2497 89.3031 73.3554C89.3105 73.4305 89.3391 73.5019 89.3855 73.5614C89.4116 73.5889 89.444 73.6098 89.4799 73.6222C89.5157 73.6346 89.554 73.6381 89.5916 73.6326ZM90.1048 76.0076L91.3747 71.782H91.8505L90.5843 76.0076H90.1048ZM92.3525 76.0076C92.2148 76.0251 92.075 76.0095 91.9446 75.9619C91.8143 75.9143 91.6972 75.8362 91.6032 75.7341C91.4421 75.4936 91.3657 75.2063 91.386 74.9175V74.7002C91.3649 74.4147 91.4386 74.1303 91.5957 73.891C91.6932 73.7945 91.8112 73.7211 91.9409 73.6764C92.0706 73.6316 92.2087 73.6167 92.345 73.6326C92.4806 73.6168 92.6181 73.6311 92.7476 73.6744C92.8771 73.7178 92.9954 73.7892 93.0942 73.8836C93.2561 74.1179 93.3316 74.4013 93.3077 74.6852V74.925C93.3292 75.2127 93.2526 75.4992 93.0904 75.7379C92.9968 75.8364 92.8821 75.9124 92.755 75.9604C92.6279 76.0084 92.4916 76.0271 92.3562 76.0151L92.3525 76.0076ZM92.3525 75.4944C92.389 75.4974 92.4258 75.4923 92.4602 75.4793C92.4945 75.4663 92.5255 75.4459 92.551 75.4195C92.594 75.3587 92.6198 75.2876 92.6259 75.2134C92.6406 75.1105 92.6468 75.0065 92.6446 74.9025V74.7114C92.6511 74.5703 92.6372 74.429 92.6034 74.2919C92.5772 74.1982 92.4911 74.1533 92.3525 74.1533C92.2138 74.1533 92.1314 74.1982 92.1052 74.2919C92.0705 74.4289 92.0554 74.5702 92.0603 74.7114V74.9025C92.0537 75.006 92.0537 75.1099 92.0603 75.2134C92.0623 75.289 92.0901 75.3617 92.1389 75.4195C92.1658 75.4497 92.1996 75.473 92.2375 75.4873C92.2753 75.5017 92.316 75.5067 92.3562 75.5019L92.3525 75.4944Z" fill="white"/>
<path d="M307.222 152.901H303V161.681H307.222V152.901Z" fill="white" stroke="white" stroke-linecap="round" stroke-linejoin="round"/>
<path d="M312.684 135.777H308.462V161.678H312.684V135.777Z" fill="#F7A803" stroke="white" stroke-linecap="round" stroke-linejoin="round"/>
<path d="M318.145 151.803H313.924V161.681H318.145V151.803Z" fill="white" stroke="white" stroke-linecap="round" stroke-linejoin="round"/>
<path d="M323.607 147.191H319.385V161.678H323.607V147.191Z" fill="#F7A803" stroke="white" stroke-linecap="round" stroke-linejoin="round"/>
<path d="M329.069 150.705H324.847V161.681H329.069V150.705Z" fill="white" stroke="white" stroke-linecap="round" stroke-linejoin="round"/>
<path d="M334.531 147.191H330.309V161.678H334.531V147.191Z" fill="#F7A803" stroke="white" stroke-linecap="round" stroke-linejoin="round"/>
<path d="M339.993 141.486H335.771V161.681H339.993V141.486Z" fill="white" stroke="white" stroke-linecap="round" stroke-linejoin="round"/>
<path d="M345.454 147.191H341.233V161.678H345.454V147.191Z" fill="#F7A803" stroke="white" stroke-linecap="round" stroke-linejoin="round"/>
<path d="M350.916 155.534H346.694V161.681H350.916V155.534Z" fill="white" stroke="white" stroke-linecap="round" stroke-linejoin="round"/>
<path d="M303 127H316.831" stroke="white" stroke-width="3" stroke-linecap="round" stroke-linejoin="round"/>
<path d="M303 129.851H325.829" stroke="white" stroke-linecap="round" stroke-linejoin="round"/>
<path d="M294.996 62.3606H320.458V92.8725" stroke="white" stroke-linecap="round" stroke-linejoin="round"/>
<path d="M320.679 85.8486H342.849V92.7602" stroke="white" stroke-linecap="round" stroke-linejoin="round"/>
<path d="M332.094 86.0659V92.7602" stroke="white" stroke-linecap="round" stroke-linejoin="round"/>
<path d="M285.339 68.5079V91.1156H295.217" stroke="white" stroke-linecap="round" stroke-linejoin="round"/>
<path d="M294.168 56.8726H279.12C277.949 56.8726 277 57.8218 277 58.9928V67.6238C277 68.7949 277.949 69.7441 279.12 69.7441H294.168C295.339 69.7441 296.289 68.7949 296.289 67.6238V58.9928C296.289 57.8218 295.339 56.8726 294.168 56.8726Z" fill="#F7A803" stroke="white" stroke-linecap="round" stroke-linejoin="round"/>
<path d="M306.677 83.8706H291.628C290.457 83.8706 289.508 84.8199 289.508 85.9909V94.6219C289.508 95.7929 290.457 96.7422 291.628 96.7422H306.677C307.848 96.7422 308.797 95.7929 308.797 94.6219V85.9909C308.797 84.8199 307.848 83.8706 306.677 83.8706Z" fill="white" stroke="white" stroke-linecap="round" stroke-linejoin="round"/>
<path d="M330.165 69.1635H315.117C313.946 69.1635 312.996 70.1127 312.996 71.2837V79.9147C312.996 81.0857 313.946 82.035 315.117 82.035H330.165C331.336 82.035 332.285 81.0857 332.285 79.9147V71.2837C332.285 70.1127 331.336 69.1635 330.165 69.1635Z" fill="white" stroke="white" stroke-linecap="round" stroke-linejoin="round"/>
<path d="M323.283 89.5422H316.956C316.039 89.5422 315.296 90.2852 315.296 91.2018V94.3185C315.296 95.235 316.039 95.978 316.956 95.978H323.283C324.199 95.978 324.942 95.235 324.942 94.3185V91.2018C324.942 90.2852 324.199 89.5422 323.283 89.5422Z" fill="#F7A803" stroke="white" stroke-linecap="round" stroke-linejoin="round"/>
<path d="M334.596 89.5422H328.269C327.352 89.5422 326.609 90.2852 326.609 91.2018V94.3185C326.609 95.235 327.352 95.978 328.269 95.978H334.596C335.513 95.978 336.256 95.235 336.256 94.3185V91.2018C336.256 90.2852 335.513 89.5422 334.596 89.5422Z" fill="#F7A803" stroke="white" stroke-linecap="round" stroke-linejoin="round"/>
<path d="M345.913 89.5422H339.586C338.67 89.5422 337.927 90.2852 337.927 91.2018V94.3185C337.927 95.235 338.67 95.978 339.586 95.978H345.913C346.83 95.978 347.573 95.235 347.573 94.3185V91.2018C347.573 90.2852 346.83 89.5422 345.913 89.5422Z" fill="#F7A803" stroke="white" stroke-linecap="round" stroke-linejoin="round"/>
<path d="M282.473 63.0985H290.52" stroke="white" stroke-linecap="round" stroke-linejoin="round"/>
<path d="M295.082 90.1941H303.129" stroke="white" stroke-linecap="round" stroke-linejoin="round"/>
<path d="M295.082 91.8049H303.129" stroke="white" stroke-linecap="round" stroke-linejoin="round"/>
<path d="M317.885 76.2437H329.153" stroke="white" stroke-linecap="round" stroke-linejoin="round"/>
<path d="M317.885 74.7415H329.153" stroke="white" stroke-linecap="round" stroke-linejoin="round"/>
<path d="M153.084 68.4424V71.252" stroke="white" stroke-linecap="round" stroke-linejoin="round"/>
<path d="M160.029 68.4424V71.252" stroke="white" stroke-linecap="round" stroke-linejoin="round"/>
<path d="M166.971 68.4424V71.252" stroke="white" stroke-linecap="round" stroke-linejoin="round"/>
<path d="M173.916 68.4424V71.252" stroke="white" stroke-linecap="round" stroke-linejoin="round"/>
<path d="M180.861 68.4424V71.252" stroke="white" stroke-linecap="round" stroke-linejoin="round"/>
<path d="M187.807 68.4424V71.252" stroke="white" stroke-linecap="round" stroke-linejoin="round"/>
<path d="M194.752 68.4424V71.252" stroke="white" stroke-linecap="round" stroke-linejoin="round"/>
<path d="M201.697 68.4424V71.252" stroke="white" stroke-linecap="round" stroke-linejoin="round"/>
<path d="M208.642 68.4424V71.252" stroke="white" stroke-linecap="round" stroke-linejoin="round"/>
<path d="M215.562 68.4424V71.252" stroke="white" stroke-linecap="round" stroke-linejoin="round"/>
<path d="M222.507 68.4424V71.252" stroke="white" stroke-linecap="round" stroke-linejoin="round"/>
<path d="M229.452 68.4424V71.252" stroke="white" stroke-linecap="round" stroke-linejoin="round"/>
<path d="M236.375 68.4424V71.252" stroke="white" stroke-linecap="round" stroke-linejoin="round"/>
<path d="M243.32 68.4424V71.252" stroke="white" stroke-linecap="round" stroke-linejoin="round"/>
<path d="M250.265 68.4424V71.252" stroke="white" stroke-linecap="round" stroke-linejoin="round"/>
<path d="M150.866 68.4424H251.67" stroke="white" stroke-linecap="round" stroke-linejoin="round"/>
<path d="M156.186 66.2285L162.981 61.3511L169.78 46.9473L177.022 61.647L183.079 53.9638L190.32 59.2832L197.562 39.4252L204.949 53.0759L211.156 45.9808L217.067 55.0501L225.511 50.1727L232.288 53.267L238.948 50.1727L247.864 39.59" stroke="white" stroke-width="3" stroke-linecap="round" stroke-linejoin="round"/>
<path d="M236.618 30H248.033V35.709H245.069L247.373 39.2191L243.11 35.709H236.618V30Z" fill="white"/>
<path d="M236.618 65.6778H248.033V59.9725H245.069L247.373 56.4586L243.11 59.9725H236.618V65.6778Z" fill="#F7A803"/>
<path d="M155.714 59.9501L164.026 53.7128L170.455 58.8187L176.879 53.3345L183.304 59.1933L191.811 48.4233L198.423 52.2031L204.851 59.3844L211.276 51.6337L218.648 46.7226L225.638 55.6046L232.632 57.6837L238.3 57.1143L247.373 52.9598" stroke="#F7A803" stroke-width="3" stroke-linecap="round" stroke-linejoin="round"/>
<path d="M75.6038 83.0652C77.0003 84.7249 78.7947 86.0035 80.8194 86.7817C82.844 87.5599 85.0329 87.8123 87.1815 87.5152C89.3301 87.2182 91.3684 86.3814 93.106 85.083C94.8436 83.7847 96.2237 82.0671 97.1176 80.0908" stroke="#9E9E9E" stroke-width="9" stroke-miterlimit="10"/>
<path d="M74.184 68.6128C72.9334 70.8834 72.3997 73.4794 72.6532 76.0591C72.9066 78.6389 73.9353 81.0814 75.6037 83.0652" stroke="#F7A803" stroke-width="9" stroke-miterlimit="10"/>
<path d="M97.1175 80.0908C98.4735 77.0708 98.61 73.6437 97.4986 70.5254C96.3872 67.4071 94.1138 64.8388 91.1534 63.3572C88.1931 61.8756 84.7747 61.5951 81.6124 62.5745C78.4502 63.5539 75.7887 65.7173 74.184 68.6128" stroke="white" stroke-width="9" stroke-miterlimit="10"/>
<path d="M106.633 68.5417C106.633 68.2149 106.536 67.8955 106.354 67.6239C106.173 67.3522 105.915 67.1404 105.613 67.0154C105.311 66.8904 104.979 66.8576 104.658 66.9214C104.338 66.9851 104.044 67.1425 103.812 67.3735C103.581 67.6046 103.424 67.8989 103.36 68.2194C103.297 68.5398 103.329 68.872 103.454 69.1739C103.579 69.4757 103.791 69.7338 104.063 69.9153C104.334 70.0968 104.654 70.1937 104.981 70.1937C105.198 70.1942 105.413 70.1518 105.613 70.069C105.814 69.9861 105.996 69.8644 106.15 69.7109C106.303 69.5574 106.425 69.3751 106.508 69.1745C106.591 68.9738 106.633 68.7588 106.633 68.5417V68.5417Z" fill="white"/>
<path d="M106.633 75.6442C106.633 75.3175 106.536 74.9981 106.354 74.7264C106.173 74.4547 105.915 74.243 105.613 74.1179C105.311 73.9929 104.979 73.9602 104.658 74.0239C104.338 74.0877 104.044 74.245 103.812 74.4761C103.581 74.7071 103.424 75.0015 103.36 75.3219C103.297 75.6424 103.329 75.9745 103.454 76.2764C103.579 76.5783 103.791 76.8363 104.063 77.0178C104.334 77.1994 104.654 77.2962 104.981 77.2962C105.198 77.2967 105.413 77.2543 105.613 77.1715C105.814 77.0886 105.996 76.967 106.15 76.8135C106.303 76.66 106.425 76.4777 106.508 76.277C106.591 76.0763 106.633 75.8613 106.633 75.6442V75.6442Z" fill="#9E9E9E"/>
<path d="M106.633 83.6121C106.633 83.2854 106.536 82.966 106.354 82.6943C106.173 82.4226 105.915 82.2109 105.613 82.0858C105.311 81.9608 104.979 81.9281 104.658 81.9918C104.338 82.0556 104.044 82.2129 103.812 82.444C103.581 82.675 103.424 82.9694 103.36 83.2898C103.297 83.6103 103.329 83.9424 103.454 84.2443C103.579 84.5462 103.791 84.8042 104.063 84.9857C104.334 85.1672 104.654 85.2641 104.981 85.2641C105.419 85.2641 105.839 85.0901 106.149 84.7803C106.459 84.4705 106.633 84.0503 106.633 83.6121V83.6121Z" fill="#F7A803"/>
<path d="M109.113 68.7477H126.453" stroke="white" stroke-linecap="round" stroke-linejoin="round"/>
<path d="M109.113 75.5618H126.453" stroke="white" stroke-linecap="round" stroke-linejoin="round"/>
<path d="M109.113 83.6122H126.453" stroke="white" stroke-linecap="round" stroke-linejoin="round"/>
<path d="M108.074 129.78H59V133.578H108.074V129.78Z" stroke="white" stroke-linecap="round" stroke-linejoin="round"/>
<path d="M108.074 135.796H59V139.594H108.074V135.796Z" stroke="white" stroke-linecap="round" stroke-linejoin="round"/>
<path d="M108.074 141.812H59V145.611H108.074V141.812Z" stroke="white" stroke-linecap="round" stroke-linejoin="round"/>
<path d="M108.074 147.828H59V151.627H108.074V147.828Z" stroke="white" stroke-linecap="round" stroke-linejoin="round"/>
<path d="M108.074 153.841H59V157.639H108.074V153.841Z" stroke="white" stroke-linecap="round" stroke-linejoin="round"/>
<path d="M59.8092 127H73.636" stroke="white" stroke-width="3" stroke-linecap="round" stroke-linejoin="round"/>
<path d="M59.8092 129.851H82.6379" stroke="white" stroke-linecap="round" stroke-linejoin="round"/>
<path d="M108.074 135.159H59V138.957H108.074V135.159Z" stroke="white" stroke-linecap="round" stroke-linejoin="round"/>
<path d="M108.074 141.172H59V144.97H108.074V141.172Z" stroke="white" stroke-linecap="round" stroke-linejoin="round"/>
<path d="M108.074 147.188H59V150.986H108.074V147.188Z" stroke="white" stroke-linecap="round" stroke-linejoin="round"/>
<path d="M108.074 153.204H59V157.002H108.074V153.204Z" stroke="white" stroke-linecap="round" stroke-linejoin="round"/>
<path d="M108.074 159.22H59V163.019H108.074V159.22Z" stroke="white" stroke-linecap="round" stroke-linejoin="round"/>
<path d="M77.2435 135.159H59V138.957H77.2435V135.159Z" fill="white" stroke="white" stroke-linecap="round" stroke-linejoin="round"/>
<path d="M83.7355 141.172H59V144.97H83.7355V141.172Z" fill="#F7A803" stroke="white" stroke-linecap="round" stroke-linejoin="round"/>
<path d="M68.3915 147.188H59V150.986H68.3915V147.188Z" fill="white" stroke="white" stroke-linecap="round" stroke-linejoin="round"/>
<path d="M99.3679 153.204H59V157.002H99.3679V153.204Z" fill="#F7A803" stroke="white" stroke-linecap="round" stroke-linejoin="round"/>
<path d="M89.0437 159.22H59V163.019H89.0437V159.22Z" fill="white" stroke="white" stroke-linecap="round" stroke-linejoin="round"/>
<path d="M260.14 108H147.652C145.668 108 144.06 109.608 144.06 111.593V178.382C144.06 180.366 145.668 181.974 147.652 181.974H260.14C262.124 181.974 263.733 180.366 263.733 178.382V111.593C263.733 109.608 262.124 108 260.14 108Z" fill="#263238" stroke="#263238" stroke-linecap="round" stroke-linejoin="round"/>
<path d="M256.076 112.064H151.721C149.799 112.064 148.24 113.623 148.24 115.545V174.426C148.24 176.348 149.799 177.906 151.721 177.906H256.076C257.998 177.906 259.556 176.348 259.556 174.426V115.545C259.556 113.623 257.998 112.064 256.076 112.064Z" fill="white" stroke="#263238" stroke-linecap="round" stroke-linejoin="round"/>
<path fill-rule="evenodd" clip-rule="evenodd" d="M179.041 135V143.014L187.068 135H179.041Z" fill="#3BA6B3"/>
<path fill-rule="evenodd" clip-rule="evenodd" d="M176.027 146.024V154.038L168 146.024H176.027Z" fill="#E53712"/>
<path d="M236.499 144.012H235.119V139.734H233.511V138.661H238.108V139.734H236.499V144.012ZM227.584 140.191C227.584 139.886 227.431 139.734 227.126 139.734H225.594V141.416H227.126C227.431 141.416 227.584 141.264 227.584 140.96V140.191ZM224.214 138.661H227.431C227.965 138.661 228.354 138.779 228.6 139.024C228.845 139.269 228.964 139.658 228.964 140.191V140.951C228.964 141.484 228.845 141.873 228.6 142.118C228.354 142.363 227.965 142.482 227.431 142.482H225.594V144.012H224.214V138.661V138.661ZM216.178 142.067H217.406L216.796 140.267L216.178 142.067ZM215.484 144.012H213.994L216.026 138.661H217.558L219.591 144.012H218.1L217.753 143.056H215.84L215.484 144.012ZM207.982 141.036L206.907 142.947H205.831L204.756 141.036V144.02H203.376V138.669H204.832L206.365 141.493L207.897 138.669H209.354V144.02H207.974V141.036H207.982ZM195.696 144.037C195.197 144.037 194.824 143.919 194.595 143.69C194.358 143.462 194.24 143.099 194.24 142.6V140.174C194.24 139.641 194.358 139.261 194.604 139.016C194.85 138.779 195.239 138.661 195.772 138.661H198.533V139.734H196.086C195.781 139.734 195.628 139.886 195.628 140.191V142.625C195.628 142.744 195.662 142.837 195.73 142.904C195.798 142.972 195.891 143.006 196.01 143.006C196.103 143.006 196.221 143.006 196.348 143.006C196.475 143.006 196.611 143.006 196.746 143.006C196.882 143.006 197.026 143.006 197.161 143.006C197.305 143.006 197.44 142.98 197.567 142.938C197.881 142.938 198.203 142.938 198.533 142.938V143.936C198.194 144.003 197.855 144.037 197.517 144.037C197.229 144.037 196.915 144.037 196.594 144.037C196.264 144.037 195.967 144.037 195.696 144.037Z" fill="#3BA6B3"/>
<path fill-rule="evenodd" clip-rule="evenodd" d="M176.027 143.014V135L168 143.014H176.027Z" fill="#F7A803"/>
<path fill-rule="evenodd" clip-rule="evenodd" d="M179.041 154.038V146.024L187.068 154.038H179.041Z" fill="#F7A803"/>
<path d="M225.289 149.515C225.289 149.211 225.137 149.058 224.832 149.058H223.375V150.436H224.832C225.137 150.436 225.289 150.284 225.289 149.98V149.515ZM228.659 151.51H227.279V146.159H228.659V151.51ZM223.375 147.993H225.137C225.67 147.993 226.059 148.112 226.305 148.357C226.551 148.602 226.669 148.991 226.669 149.523V149.98C226.669 150.513 226.551 150.901 226.305 151.147C226.059 151.392 225.67 151.51 225.137 151.51H221.995V146.159H223.375V147.993ZM213.994 150.394C213.968 150.758 213.85 151.054 213.638 151.265C213.426 151.476 213.147 151.586 212.8 151.586C212.707 151.586 212.605 151.586 212.512 151.578C212.419 151.569 212.334 151.561 212.258 151.552C212.165 151.544 212.08 151.527 211.996 151.519V150.487H212.343C212.436 150.487 212.52 150.453 212.588 150.386C212.647 150.318 212.69 150.242 212.69 150.141L212.918 146.167H217.169V151.519H215.789V147.241H214.18L213.994 150.394ZM204.697 149.557H205.925L205.306 147.765L204.697 149.557ZM204.003 151.51H202.512L204.544 146.159H206.077L208.109 151.51H206.619L206.272 150.555H204.358L204.003 151.51ZM237.93 148.526L236.855 150.436H235.788L234.713 148.526V151.51H233.333V146.159H234.789L236.322 148.991L237.854 146.159H239.311V151.51H237.93V148.526ZM195.696 151.527C195.197 151.527 194.824 151.409 194.595 151.18C194.358 150.952 194.24 150.58 194.24 150.09V147.664C194.24 147.131 194.358 146.751 194.604 146.505C194.85 146.269 195.239 146.142 195.772 146.142H198.533V147.216H196.086C195.781 147.216 195.628 147.368 195.628 147.672V150.107C195.628 150.225 195.662 150.318 195.73 150.386C195.798 150.453 195.891 150.487 196.01 150.487C196.103 150.487 196.221 150.487 196.348 150.487C196.475 150.487 196.611 150.487 196.746 150.487C196.882 150.487 197.026 150.487 197.161 150.487C197.305 150.487 197.44 150.462 197.567 150.42C197.881 150.42 198.203 150.42 198.533 150.42V151.417C198.194 151.485 197.855 151.519 197.517 151.519C197.229 151.519 196.915 151.519 196.594 151.519C196.264 151.527 195.967 151.527 195.696 151.527Z" fill="#E53712"/>
<path d="M156.662 181.97H147.54C146.617 181.97 145.732 181.604 145.079 180.951C144.427 180.298 144.06 179.413 144.06 178.49V137.845C141.602 139.666 136.504 143.539 134.766 145.566C132.443 148.278 130.701 152.537 129.926 156.991C129.15 161.445 126.247 165.319 127.019 167.45C127.791 169.582 130.701 182.555 131.668 187.781C132.337 191.295 132.725 194.858 132.829 198.434C132.829 199.596 129.926 214.31 129.926 214.31L151.031 215.086C151.031 215.086 150.657 207.728 151.406 205.402C152.155 203.076 155.47 197.659 155.085 194.366C154.718 191.133 156.931 185.477 156.662 181.97Z" fill="white" stroke="#263238" stroke-linecap="round" stroke-linejoin="round"/>
<path d="M144.06 145.143L141.932 147.615C141.932 147.615 141.157 151.762 140.771 153.699C140.521 154.903 140.13 156.074 139.606 157.186C139.606 157.186 140.962 160.284 141.737 161.446C142.216 162.171 142.606 162.95 142.899 163.768L144.06 164.517V145.143Z" fill="#263238" stroke="#263238" stroke-linecap="round" stroke-linejoin="round"/>
<path d="M134.335 157.673C135.372 157.536 136.417 157.462 137.463 157.452" stroke="#263238" stroke-linecap="round" stroke-linejoin="round"/>
<path d="M139.699 146.053C139.699 146.053 141.947 146.723 141.947 147.615" stroke="#263238" stroke-linecap="round" stroke-linejoin="round"/>
<path d="M126.258 216.809C126.258 216.809 127.229 207.616 127.229 206.65V203.746C127.229 202.78 128.195 202.053 128.195 202.053C128.195 202.053 137.628 200.116 147.064 203.263C156.501 206.41 154.309 211.497 154.309 211.497L153.826 218.757" fill="white"/>
<path d="M126.258 216.809C126.258 216.809 127.229 207.616 127.229 206.65V203.746C127.229 202.78 128.195 202.053 128.195 202.053C128.195 202.053 137.628 200.116 147.064 203.263C156.501 206.41 154.309 211.497 154.309 211.497L153.826 218.757" stroke="#263238" stroke-linecap="round" stroke-linejoin="round"/>
<path d="M138.838 171.343C138.838 171.343 142.318 163.768 142.707 160.854C143.097 157.939 142.333 151.17 143.288 148.462C144.243 145.753 143.663 142.262 145.997 140.909C148.33 139.557 151.421 139.939 151.99 145.364C152.56 150.788 151.99 159.303 152.181 162.221C152.372 165.139 157.426 169.387 157.606 175.583C157.786 181.779 155.669 188.17 155.088 190.879C154.508 193.587 152.181 199.982 152.181 199.982" fill="white"/>
<path d="M138.838 171.343C138.838 171.343 142.318 163.768 142.707 160.854C143.097 157.939 142.333 151.17 143.288 148.462C144.243 145.753 143.663 142.262 145.997 140.909C148.33 139.557 151.421 139.939 151.99 145.364C152.56 150.788 151.99 159.303 152.181 162.221C152.372 165.139 157.426 169.387 157.606 175.583C157.786 181.779 155.669 188.17 155.088 190.879C154.508 193.587 152.181 199.982 152.181 199.982" stroke="#263238" stroke-linecap="round" stroke-linejoin="round"/>
<path d="M144.243 147.184C145.391 146.905 146.585 146.882 147.742 147.117C148.789 147.316 149.823 147.575 150.84 147.892C150.951 146.603 150.951 145.308 150.84 144.019C150.84 144.019 151.095 141.805 149.754 140.913C148.413 140.022 145.731 140.243 144.839 142.254C143.947 144.266 144.243 147.184 144.243 147.184Z" stroke="#263238" stroke-linecap="round" stroke-linejoin="round"/>
<path d="M149.083 150.747C149.083 150.747 144.614 149.406 143.498 151.192" stroke="#263238" stroke-linecap="round" stroke-linejoin="round"/>
<path d="M144.614 151.863C144.614 151.863 145.955 152.309 148.862 152.088" stroke="#263238" stroke-linecap="round" stroke-linejoin="round"/>
<path d="M281.515 167.451C282.291 165.319 279.388 161.457 278.612 156.991C277.837 152.526 276.095 148.278 273.772 145.566C271.828 143.318 265.699 138.741 263.736 137.302V178.509C263.736 179.432 263.37 180.317 262.717 180.97C262.064 181.622 261.179 181.989 260.256 181.989H251.876C251.588 185.492 253.817 191.148 253.438 194.381C253.064 197.674 256.342 203.095 257.117 205.417C257.892 207.74 257.492 215.101 257.492 215.101L278.601 214.325C278.601 214.325 275.698 199.611 275.698 198.449C275.8 194.873 276.188 191.31 276.859 187.796C277.837 182.555 280.744 169.578 281.515 167.451Z" fill="white" stroke="#263238" stroke-linecap="round" stroke-linejoin="round"/>
<path d="M267.767 153.699C267.393 151.762 266.606 147.615 266.606 147.615L263.736 144.285V164.978L265.636 163.768C265.931 162.951 266.322 162.171 266.801 161.446C267.572 160.284 268.928 157.186 268.928 157.186C268.404 156.074 268.014 154.903 267.767 153.699V153.699Z" fill="#263238" stroke="#263238" stroke-linecap="round" stroke-linejoin="round"/>
<path d="M274.203 157.673C273.166 157.536 272.121 157.462 271.075 157.452" stroke="#263238" stroke-linecap="round" stroke-linejoin="round"/>
<path d="M268.838 146.053C268.838 146.053 266.591 146.723 266.591 147.615" stroke="#263238" stroke-linecap="round" stroke-linejoin="round"/>
<path d="M282.276 216.809C282.276 216.809 281.302 207.627 281.302 206.661V203.758C281.302 202.791 280.335 202.064 280.335 202.064C280.335 202.064 270.899 200.128 261.466 203.274C252.033 206.421 254.206 211.497 254.206 211.497L254.704 218.757" fill="white"/>
<path d="M282.276 216.809C282.276 216.809 281.302 207.627 281.302 206.661V203.758C281.302 202.791 280.335 202.064 280.335 202.064C280.335 202.064 270.899 200.128 261.466 203.274C252.033 206.421 254.206 211.497 254.206 211.497L254.704 218.757" stroke="#263238" stroke-linecap="round" stroke-linejoin="round"/>
<path d="M267.906 173.092C267.906 173.092 262.5 162.599 261.448 159.868C260.395 157.137 259.574 150.361 258.001 147.952C256.428 145.543 256.181 142.015 253.607 141.235C251.033 140.456 248.108 141.554 248.804 146.963C249.501 152.372 252.045 160.524 252.551 163.393C253.056 166.263 249.13 171.579 250.382 177.651C251.633 183.724 255.192 189.444 256.375 191.942" fill="white"/>
<path d="M267.906 173.092C267.906 173.092 262.5 162.599 261.448 159.868C260.395 157.137 259.574 150.361 258.001 147.952C256.428 145.543 256.181 142.015 253.607 141.235C251.033 140.456 248.108 141.554 248.804 146.963C249.501 152.372 252.045 160.524 252.551 163.393C253.056 166.263 249.13 171.579 250.382 177.651C251.633 183.724 255.192 189.444 256.375 191.942" stroke="#263238" stroke-linecap="round" stroke-linejoin="round"/>
<path d="M256.769 146.918C255.589 146.916 254.423 147.172 253.352 147.667C252.381 148.105 251.435 148.598 250.52 149.143C250.11 147.916 249.808 146.655 249.617 145.375C249.617 145.375 248.868 143.284 249.951 142.104C251.033 140.924 253.697 140.516 255.045 142.262C256.394 144.007 256.769 146.918 256.769 146.918Z" stroke="#263238" stroke-linecap="round" stroke-linejoin="round"/>
<path d="M252.891 151.507C252.891 151.507 256.926 149.162 258.428 150.642" stroke="#263238" stroke-linecap="round" stroke-linejoin="round"/>
<path d="M257.499 151.556C257.499 151.556 256.297 152.305 253.42 152.758" stroke="#263238" stroke-linecap="round" stroke-linejoin="round"/>
<defs>
<linearGradient id="paint0_linear_2001_71" x1="387" y1="230" x2="-21.6144" y2="17.5863" gradientUnits="userSpaceOnUse">
<stop stop-color="#056B70"/>
<stop offset="1" stop-color="#018A90"/>
</linearGradient>
</defs>
</svg>
