<svg width="218" height="249" viewBox="0 0 218 249" fill="none" xmlns="http://www.w3.org/2000/svg">
<path d="M17.3537 99.3361C20.891 121.352 19.8373 126.086 16.3754 135.028C16.1496 135.629 18.5579 137.658 19.461 135.404C22.2457 128.19 22.2457 128.115 22.6972 121.803C23.1488 113.838 17.2032 98.735 17.3537 99.3361ZM162.005 91.9723C162.155 91.2961 152.07 112.861 152.672 121.578C153.199 128.491 152.898 130.595 156.285 138.409C157.338 140.889 160.274 138.635 160.048 137.958C155.306 122.555 154.554 121.653 162.005 91.9723ZM177.884 94.0763C178.035 93.4 170.885 110.833 171.487 119.549C172.014 126.462 171.788 125.41 175.175 133.225C176.229 135.704 179.314 133.6 179.013 132.999C174.874 123.231 173.595 118.121 177.884 94.0763ZM195.571 97.6079C195.646 97.0819 189.55 110.307 190.077 117.295C190.528 122.855 190.528 122.93 193.388 129.167C194.291 131.121 196.775 129.392 196.549 128.866C193.012 121.127 191.883 116.919 195.571 97.6079ZM78.1643 84.5334C77.0354 83.0306 75.2291 81.4526 76.1322 83.256C78.4653 88.2153 81.25 90.6198 85.4645 91.5215C90.4317 92.5735 94.4206 89.4175 96.9794 83.9323C97.8073 82.0537 92.9153 88.4407 86.8192 88.2904C83.1315 88.2153 80.4221 87.4639 78.1643 84.5334ZM78.6158 107C77.4869 105.498 75.6807 103.92 76.5838 105.723C78.9169 110.682 81.7015 113.087 85.9161 113.989C90.8833 115.041 94.8721 111.885 97.431 106.399C98.2588 104.521 93.3669 110.908 87.2708 110.758C83.583 110.682 80.8736 110.006 78.6158 107ZM79.0674 131.196C77.9385 129.693 76.1322 128.115 77.0354 129.994C79.3684 134.953 82.1531 137.357 86.3677 138.259C91.3349 139.311 95.3237 136.155 97.8825 130.67C98.7104 128.791 93.8185 135.178 87.7224 135.028C84.0346 134.878 81.2499 134.201 79.0674 131.196ZM80.2716 151.935C79.1427 150.432 77.3364 148.854 78.2395 150.732C80.5726 155.692 83.3573 158.096 87.5718 158.998C92.539 160.05 96.5279 156.894 99.0867 151.409C99.9146 149.53 95.0226 155.917 88.9265 155.767C85.314 155.617 82.5294 154.94 80.2716 151.935ZM99.5383 72.8114C98.4094 71.3086 96.6031 69.7307 97.5062 71.534C99.8393 76.4933 102.624 78.8978 106.839 79.7995C111.806 80.8515 115.795 77.6956 118.353 72.2103C119.181 70.3318 114.289 76.7188 108.193 76.5685C104.505 76.4182 101.796 75.7419 99.5383 72.8114ZM99.9146 95.2785C98.7857 93.7757 96.9794 92.1978 97.8825 94.0011C100.216 98.9604 103 101.365 107.215 102.267C112.182 103.319 116.171 100.163 118.73 94.6774C119.558 92.7989 114.666 99.1858 108.57 99.0356C104.882 98.9604 102.172 98.209 99.9146 95.2785ZM100.366 119.474C99.2372 117.971 97.431 116.393 98.3341 118.196C100.667 123.156 103.452 125.56 107.666 126.462C112.634 127.514 116.622 124.358 119.181 118.873C120.009 116.994 115.117 123.381 109.021 123.231C105.333 123.156 102.624 122.404 100.366 119.474ZM101.646 140.213C100.517 138.71 98.7104 137.132 99.6135 139.01C101.947 143.97 104.731 146.374 108.946 147.276C113.913 148.328 117.902 145.172 120.461 139.687C121.289 137.808 116.397 144.195 110.301 144.045C106.613 143.895 103.903 143.218 101.646 140.213ZM119.257 85.6605C118.128 84.1577 116.321 82.5797 117.225 84.3831C119.558 89.3424 122.342 91.7469 126.557 92.6486C131.524 93.7006 135.513 90.5446 138.072 85.0594C138.9 83.1809 134.008 89.5678 127.912 89.4175C124.224 89.2673 121.439 88.591 119.257 85.6605ZM119.633 108.128C118.504 106.625 116.698 105.047 117.601 106.85C119.934 111.81 122.719 114.214 126.933 115.116C131.9 116.168 135.889 113.012 138.448 107.526C139.276 105.648 134.384 112.035 128.288 111.885C124.6 111.81 121.891 111.058 119.633 108.128ZM120.084 132.323C118.955 130.82 117.149 129.242 118.052 131.121C120.385 136.08 123.17 138.484 127.385 139.386C132.352 140.438 136.341 137.282 138.9 131.797C139.727 129.918 134.835 136.305 128.739 136.155C125.052 136.005 122.267 135.329 120.084 132.323ZM121.364 153.062C120.235 151.559 118.429 149.981 119.332 151.784C121.665 156.744 124.45 159.148 128.664 160.05C133.631 161.102 137.62 157.946 140.179 152.461C141.007 150.582 136.115 156.969 130.019 156.819C126.331 156.744 123.546 156.067 121.364 153.062ZM49.791 92.9492C57.0161 126.838 56.2635 127.814 51.6726 145.473C51.4468 146.224 54.3067 148.779 55.2851 145.999C58.5213 137.057 58.2955 134.577 58.7471 126.763C59.3491 116.769 49.6405 92.1978 49.791 92.9492ZM34.5132 95.3537C38.6525 122.78 37.3731 128.641 33.3843 139.762C33.0832 140.513 36.0936 142.843 37.1473 140.062C40.3835 131.121 40.233 132.323 40.6845 124.433C41.2866 114.439 34.3626 94.5271 34.5132 95.3537ZM101.495 8.41578C99.6888 8.41578 98.2588 9.91859 98.2588 11.722C98.2588 13.0745 99.8393 15.0282 101.269 15.1033C107.817 15.4039 105.559 11.6468 107.064 11.6468C108.193 11.6468 115.87 11.4965 115.87 14.7276C115.87 16.005 116.698 16.2304 116.698 14.8779C116.622 10.4446 104.882 8.41578 101.495 8.41578ZM172.692 35.0908C195.42 37.4953 218.224 79.6492 217.998 110.532C217.998 115.191 209.419 107.526 211.375 111.734C217.622 125.034 214.536 140.138 215.138 148.253C215.59 153.437 208.967 154.489 208.967 154.489C208.967 170.72 207.01 182.667 200.237 197.545C195.345 208.441 185.937 220.989 183.077 231.659C176.68 229.856 171.262 220.839 171.262 216.405C171.262 209.117 180.594 191.459 185.486 178.76C187.744 171.997 188.797 166.662 192.184 163.582C185.937 168.541 184.884 173.876 181.873 180.188C177.433 189.731 170.133 204.533 168.101 213.851C163.284 209.793 158.844 204.158 158.844 198.823C158.844 196.042 171.563 165.685 175.551 159.223C163.736 168.165 162.306 183.494 156.36 196.568C152.672 193.488 148.834 187.025 148.834 182.367C148.834 178.384 158.693 155.241 161.101 152.987C152.747 157.044 148.909 171.546 146.426 179.812C140.781 174.627 139.953 167.639 139.652 162.004C137.62 171.471 129.417 193.488 129.417 196.794C129.417 199.349 136.04 216.481 138.147 219.186C139.727 219.336 142.587 216.481 147.705 219.336C150.113 221.816 151.167 219.937 153.952 225.873C152.371 225.948 149.888 223.769 148.834 223.394C145.598 222.266 146.576 223.469 144.318 224.596C141.835 225.798 139.276 223.318 138.749 223.694C144.619 228.428 147.78 228.804 145.297 235.416C144.845 236.693 143.189 240.3 142.663 240.977C141.684 239.849 142.06 234.89 141.082 232.26C133.932 232.185 138.147 225.272 134.233 224.821C132.728 232.11 125.353 225.648 123.471 232.861L121.289 235.191C120.461 221.816 131.148 221.665 130.997 220.989C126.933 202.655 108.118 186.8 108.118 186.8C100.517 196.643 92.6143 200.476 85.6903 220.989C85.4645 221.665 96.0763 223.469 97.5062 236.919L96.1515 236.393C95.7752 234.514 93.6679 232.035 91.3349 231.584C87.7224 230.833 83.5078 232.035 84.3356 225.648C82.9809 226.625 82.9057 228.052 81.0994 230.833C79.6695 233.012 75.9817 235.717 75.5302 238.722C75.2291 240.676 76.7343 242.855 77.788 244.884C77.0354 243.907 72.1434 239.549 72.7455 238.271C76.5085 230.006 68.9072 231.358 77.8632 223.694C77.4117 223.243 74.7775 226.7 72.2939 225.498C69.2083 223.995 70.1867 227.827 63.7895 227.677C67.6278 225.197 68.3804 221.064 71.9176 219.561C73.4229 218.96 78.0138 219.035 79.5942 218.885C81.7015 216.18 87.1203 199.349 87.1203 196.794C87.1203 193.488 78.9169 171.471 76.8848 162.004C76.5838 167.639 75.8312 174.627 70.1114 179.812C67.6278 171.546 63.7895 157.044 55.4356 152.987C57.8439 155.241 67.7031 178.384 67.7031 182.367C67.7031 187.025 63.8648 193.488 60.177 196.568C54.2314 183.494 52.8015 168.09 40.9856 159.223C44.9744 165.685 57.6934 196.042 57.6934 198.823C57.6934 204.082 53.253 209.718 48.4364 213.851C46.4043 204.608 39.104 189.731 34.6637 180.188C31.6532 173.876 30.5996 168.541 24.353 163.582C27.7397 166.662 28.7934 171.997 31.0512 178.76C35.9431 191.384 45.2754 209.042 45.2754 216.405C45.2754 220.764 39.7814 229.856 33.4595 231.659C30.5243 220.989 21.8694 208.14 16.3001 197.545C1.77481 169.893 9.22561 164.183 6.89253 149.605C6.13992 144.947 1.77481 150.282 2.22638 141.941C2.22638 141.941 -5.60072 113.162 8.0967 93.3249C8.32248 90.0938 0.194339 97.0819 0.570642 94.0763C2.30163 81.6029 18.3321 37.7207 43.9207 35.0908C59.1233 33.5128 58.3707 53.5754 67.9288 60.4132C70.1114 61.9912 72.8208 62.8928 76.358 62.8928C82.8304 62.8928 86.6687 58.685 88.9265 53.4251C92.0122 46.5122 92.238 37.871 92.238 35.3162C92.238 28.4032 92.9153 19.236 79.5942 19.6118C81.9273 18.1841 84.4862 17.8084 85.8409 17.8084C89.7544 17.8084 93.7432 19.6117 97.5062 22.2417L98.3341 21.34C95.7 16.9067 88.776 15.5541 85.5398 15.5541C83.282 15.5541 76.057 17.2072 74.7775 19.9875C73.9497 19.3863 73.3476 18.8603 73.3476 17.5078C73.2723 14.3519 74.1002 10.2943 75.9064 8.94176C82.1531 4.35817 88.0234 7.3638 91.2596 5.18472C96.7536 1.42768 99.0867 0 103.828 0C105.183 0 116.923 1.6531 123.697 3.38134C124.299 3.98247 124.374 3.60676 124.374 5.03443C124.374 6.46211 123.772 7.21352 123.245 7.51408C127.084 9.0169 128.815 19.1609 128.815 22.6925V42.0788C128.815 51.0206 131.9 60.6386 143.49 60.7889C162.832 61.0895 155.758 33.3625 172.692 35.0908ZM78.8416 176.806L84.8625 196.042C82.0778 204.007 81.6263 211.371 78.6158 216.405C77.6374 217.983 71.165 217.007 69.4341 218.134C67.3268 219.561 64.6926 224.07 62.2843 225.723L78.8416 176.806ZM82.6046 248.941C81.25 248.941 68.6062 248.791 67.1762 248.791C63.1874 248.791 57.0913 247.514 57.0913 241.127C57.0913 239.699 59.3491 233.462 61.8327 229.405C62.6606 230.682 62.9616 229.179 64.3163 229.179C65.671 229.179 67.2515 229.405 68.4557 228.804C68.4557 228.804 71.0898 227.752 71.8424 227.601C70.7887 230.231 72.2187 232.936 71.7671 234.965C70.9393 238.422 70.563 239.774 71.3908 240.901C72.6703 242.63 74.326 245.786 78.1643 246.312C79.9705 246.387 77.1859 241.803 77.1859 239.323C77.2611 236.092 81.4005 234.514 82.9809 230.682C83.4325 233.462 87.7224 232.861 91.1091 233.988C93.6679 235.191 92.7648 238.196 97.5062 239.699C99.9146 240.451 99.2372 235.717 99.2372 234.965C99.2372 230.231 93.8185 222.191 88.776 220.613C91.0338 207.614 108.344 190.933 108.871 190.332C113.988 195.817 125.804 208.065 127.535 219.561C125.654 221.665 121.289 221.44 119.407 231.208C119.257 231.96 118.955 237.295 121.289 238.347C122.944 239.098 125.729 234.74 126.181 232.26C126.783 229.104 130.922 233.763 133.857 229.029C134.835 230.307 135.362 231.509 135.964 233.237C136.491 234.74 139.351 233.538 139.803 234.965C140.856 238.422 140.028 243.456 142.136 243.381C144.619 242.855 147.63 237.745 147.63 234.74C147.63 233.312 149.812 228.804 144.695 226.249C145.297 225.573 148.984 225.347 148.984 225.347C150.189 225.948 152.221 228.353 155.758 229.48C158.242 233.538 160.499 239.774 160.499 241.202C160.499 247.514 155.306 248.866 151.242 248.866C149.963 248.791 95.3237 248.941 82.6046 248.941ZM138.373 175.228L153.876 221.816C151.468 220.163 149.436 217.758 147.329 216.405C145.598 215.278 141.007 217.758 140.028 216.105C135.889 208.967 134.233 204.533 131.449 196.568L138.373 175.228Z" fill="#EFF0F2" fill-opacity="0.7"/>
</svg>
