<?xml version="1.0" encoding="utf-8"?>
<!-- Generator: Adobe Illustrator 23.1.0, SVG Export Plug-In . SVG Version: 6.00 Build 0)  -->
<svg version="1.1" id="Layer_1" xmlns="http://www.w3.org/2000/svg" xmlns:xlink="http://www.w3.org/1999/xlink" x="0px" y="0px"
	 viewBox="0 0 2850 1650" style="enable-background:new 0 0 2850 1650;" xml:space="preserve">
<style type="text/css">
	.st0{fill:none;}
	.st1{fill:#C8FFFA;}
	.st2{fill:#58DFD2;}
	.st3{fill:#EAF8FE;}
	.st4{fill:#666666;}
	.st5{fill:#B3B3B3;}
	.st6{fill:#00A99D;}
	.st7{fill:#FBFFFA;}
	.st8{fill:#F0D0B4;}
	.st9{fill:#B49C87;}
	.st10{fill:#333333;}
	.st11{fill:#021E37;}
	.st12{fill:#58D4DB;}
	.st13{fill:#B59420;}
	.st14{fill:#886F18;}
	.st15{fill:#429FA4;}
	.st16{fill:#D1EAFD;}
	.st17{fill:#4982A6;}
	.st18{fill:#8C0D0D;}
	.st19{fill:#92B4CA;}
	.st20{fill:#E0F5FF;}
	.st21{fill:#FFFFFF;}
	.st22{fill:#1A1A1A;}
	.st23{fill:#F3D9C3;}
	.st24{fill:#032859;}
	.st25{fill:#001957;}
	.st26{fill:#283657;}
	.st27{fill:#4D4D4D;}
	.st28{fill:#CCD1DD;}
	.st29{fill:#CDDEED;}
	.st30{fill:#BBE3FC;}
	.st31{fill:#001935;}
	.st32{fill:#002146;}
	.st33{opacity:0.3;fill:#006666;}
	.st34{opacity:0.5;fill:#F0D0B4;}
	.st35{fill:#999999;}
	.st36{fill:#808080;}
	.st37{fill:#2A8AFF;}
	.st38{fill:#D99066;}
	.st39{fill:#BF6E50;}
	.st40{fill:#03233F;}
	.st41{fill:#1E2D59;}
	.st42{fill:#394159;}
	.st43{fill:#162243;}
</style>
<g>
	<rect class="st0" width="2850" height="1650"/>
</g>
<ellipse class="st1" cx="648.88" cy="1400.64" rx="126.24" ry="26.01"/>
<ellipse class="st1" cx="872.98" cy="1396.55" rx="126.24" ry="26.01"/>
<ellipse class="st1" cx="1164.43" cy="1388.71" rx="126.24" ry="26.01"/>
<ellipse class="st1" cx="1425" cy="1323.41" rx="489.28" ry="39.3"/>
<ellipse class="st1" cx="1606.16" cy="1370.54" rx="126.24" ry="26.01"/>
<ellipse class="st1" cx="1779.67" cy="1374.63" rx="126.24" ry="26.01"/>
<ellipse class="st1" cx="2124.69" cy="1374.06" rx="126.24" ry="26.01"/>
<g>
	<g>
		<path class="st1" d="M1287.94,859.63c94.07-109.64,124.37-163.33,171.53-311.53c58.51-120.33,235.84-229.71,365.97-250.17
			c97.81-10.77,131.07,107.54,46.88,154.59c-116.97,51.13-175.38,47.69-238.51,177.07c-135.48,257.19-176.33,60.83-209.23,436.77
			c-0.75,63.97-51.82,124.27-116.74,71.02C1191.79,1052.17,1207.44,978.57,1287.94,859.63z"/>
		<path class="st1" d="M1283.4,1056.59c25.5-77.49,53.81-154.99,94.66-226.01c34.65-66.21,91.07-117.9,130.24-181.11
			c61.58-139.81,125.49-273.27,298.39-277.25l-0.56,3.41c-170.91,3.72-233.92,137.38-294.86,275.28
			c-39.28,63.41-95.6,114.87-130.35,181.18c-40.75,70.8-68.86,147.93-94.39,225.15L1283.4,1056.59z"/>
	</g>
	<g>
		<g>
			<path class="st1" d="M575.47,671.13c394.28,47.69,728.42,180.57,667.88,629.2c-163.64,15.74-271.58-20.32-382.81-145.19
				C729.18,1024,604.43,856.01,575.47,671.13z"/>
		</g>
		<path class="st1" d="M1226.3,1281.71c-130-270.53-402.85-446.47-648.41-604l-1.52,3.33c244.56,157.01,516.36,331.94,646.37,601.67
			L1226.3,1281.71z"/>
		<path class="st1" d="M1152.04,1187.94l1.1-3.72c-88.85-50.79-184.79-87.76-281.31-121.07l-0.49,3.83
			C967.63,1100.2,1063.43,1137.2,1152.04,1187.94z"/>
		<path class="st1" d="M1115.64,1087.94c-17.43-68.3-40.07-136.35-64.33-202.61l-4.37,0.04c24.26,66.17,46.96,134.06,64.4,202.28
			L1115.64,1087.94z"/>
		<path class="st1" d="M940.4,951.05l-0.37-4.08c-66.39-13.4-132.3-24.82-198.71-37.05l0.44,4.09
			C808.17,926.2,874.02,937.68,940.4,951.05z"/>
		<path class="st1" d="M854.05,850.06c-21.94-36.05-43.8-71.96-64.82-107.76l-3.78,1.12c20.98,35.82,42.86,71.72,64.78,107.77
			L854.05,850.06z"/>
	</g>
	<g>
		<g>
			<path class="st2" d="M2416.32,494.71c-507.94-90.45-989.23,104.39-1081.03,645.52c236.39,42.51,417-97.62,591.92-232.56
				C2095.1,780.95,2271.22,642.26,2416.32,494.71z"/>
		</g>
		<path class="st2" d="M1357.49,1115.42c240-305.24,646.84-567.68,1046.81-619.34l-0.55,3.86
			c-398.05,51.58-803.63,313.24-1042.57,616.87L1357.49,1115.42z"/>
		<path class="st2" d="M1480.62,1004.39l0-4.4c123.76-60.66,253.81-109.69,386.45-146.65l-0.63,4.3
			C1734.68,894.38,1603.35,944.07,1480.62,1004.39z"/>
		<path class="st2" d="M1557.63,886.76c42.55-78.82,91.56-159.44,142.81-232.77l5.52,0c-50.79,72.14-100.9,154.51-143.01,232.35
			L1557.63,886.76z"/>
		<path class="st2" d="M1818.17,727.34c0.6-1.56,1.21-3.09,1.85-4.59c88.26-14.51,175.81-23.79,261.97-28.4l-2.19,4.27
			C1993.74,703.34,1906.36,712.82,1818.17,727.34z"/>
		<path class="st2" d="M1964.99,618.18c42.76-38.14,87.21-75.21,133.42-110.86l4.38,1.8c-46.2,35.52-90.64,72.5-133.36,110.59
			L1964.99,618.18z"/>
	</g>
	<g>
		<g>
			<path class="st1" d="M2268.72,655.4c-426.27,2.54-747.11,202.76-733.49,647.1c191.54,29.48,307.69-58.23,428.91-198.58
				C2083.9,971.3,2196.32,816.09,2268.72,655.4z"/>
		</g>
		<path class="st1" d="M1549.97,1281.35c0.34-0.57,4.94-8.14,13.13-21.62c8.19-13.54,20.92-32.27,36.81-55.95
			c32.45-46.7,80.45-110.86,143.54-179.49c31.35-34.49,66.86-69.58,105.1-104.79c38.75-34.58,80.1-69.49,124.57-101.6
			c88.26-65.08,187.27-121.15,286.73-159.43l0.66,3.53c-99.02,38.16-197.62,94.01-285.52,158.85
			c-44.29,31.99-85.48,66.76-124.08,101.21c-38.09,35.08-73.46,70.03-104.7,104.39c-62.86,68.37-110.7,132.28-143.05,178.79
			c-15.84,23.58-28.5,42.28-36.7,55.73c-8.15,13.43-12.74,20.98-13.08,21.54L1549.97,1281.35z"/>
		<path class="st1" d="M1634.69,1185.24l-0.84-3.76c23.59-14.1,47.86-27.23,71.73-40.41c11.84-6.68,24.2-12.77,36.21-19.11
			c12.14-6.22,23.99-12.64,36.25-18.57c24.47-11.89,48.46-23.95,73.12-34.93c12.26-5.56,24.36-11.22,36.63-16.59l36.89-15.75
			l0.46,3.79l-36.87,15.73l-36.57,16.6c-24.64,10.96-48.55,23.07-73.03,34.92C1730.42,1131.57,1682.03,1157.26,1634.69,1185.24z"/>
		<path class="st1" d="M1676.16,1082.21c19.01-69.32,41.7-138.4,67.19-207.96l4.47-0.37c-6.59,17.14-12.59,34.71-18.64,52.01
			c-6,17.35-12.02,34.44-17.47,51.94l-16.31,51.84l-14.91,51.96L1676.16,1082.21z"/>
		<path class="st1" d="M1855.95,929.99l0.43-4.13c68.23-19.25,136.31-35.4,203.88-48.72l-0.67,4.01
			C1992.11,894.51,1924.13,910.74,1855.95,929.99z"/>
		<path class="st1" d="M1948.03,822.11c24.72-37.54,50.55-74.78,77.57-111.55l3.9,1.07c-27.02,36.7-52.86,73.88-77.55,111.39
			L1948.03,822.11z"/>
	</g>
	<g>
		<path class="st1" d="M1147.56,1069.5c-48.36-99.55-70.44-173.76-117.26-267.89c-24.68-50.65-64.42-127.5-57.88-190.32
			c1.34-80.04,31.68-157.61,52.73-233.48c9.47-45.84,27.66-95.89,74.54-125.99c62.99-42.96,138.49,15.1,133.99,71.83
			c2.35,51.37-32.16,101.59-45.7,149.08c-22.78,82.53,10.63,165.52,24.87,246.04c15.82,54.4-7.24,109.08,3.41,162.85
			c36.25,79.05,137.08,117.63,213.92,166.59c64.29,27.07,109.08,104.57,19.66,138.45
			C1299.27,1257.59,1209.17,1176.08,1147.56,1069.5z"/>
		<path class="st1" d="M1352.3,1169.35c-162.23-128.79-234.32-238.13-249.74-427.19c-47.49-140.74-91.1-267.3,14.94-402.02
			l2.96,1.96c-105.4,133.16-61.07,259.79-14.32,398.96c15.67,189.44,86.16,296.62,248.37,425.79L1352.3,1169.35z"/>
	</g>
	<g>
		<path class="st2" d="M1138.07,1092.77c-57.67-236.05-149.32-220.94-281.39-379.92c-44.49-53.78-85.49-111.85-131.36-164.5
			c-31.31-34.68-65.73-72.65-75.23-117.52c-11.92-49.96,44.1-72.35,85.06-53.35c87.53,34.66,114.46,133.51,177.54,193.92
			c80.06,81.52,189.19,144.81,226.98,258.83c33.57,124.64,139.19,199.15,196.22,313.19c33.04,47.24,58.36,162.52-24.09,166.75
			c-46.2,0-81.3-14.25-107.4-49.96C1170.41,1210.33,1157.42,1150.41,1138.07,1092.77z"/>
		<path class="st2" d="M1257.67,1250.62c-36.78-116.45-93.03-224.27-148.43-333.03c-22.56-44.26-46.36-90.2-78.58-127.55
			c-38.29-43.96-86.97-72.86-131.71-109.89c-65.6-54.76-127.15-129.48-161.53-205.9l3.24,0.12
			c33.81,75.52,94.63,149.33,159.43,203.36c44.4,36.74,93.9,66.16,132.04,110.11c32.6,37.72,56.47,83.79,79.21,128.38
			c55.32,108.59,111.64,216.36,148.45,332.67L1257.67,1250.62z"/>
	</g>
</g>
<g>
	<path d="M2003.17,487.79H846.83c-13.81,0-25.01,11.2-25.01,25.01v655.32c0,13.81,11.2,25.01,25.01,25.01h1156.34
		c13.81,0,25.01-11.2,25.01-25.01V512.8C2028.18,498.99,2016.98,487.79,2003.17,487.79z"/>
	<path class="st3" d="M2008.18,512.81v655.29c0,2.78-2.25,5.03-5,5.03H846.82c-2.75,0-5-2.25-5-5.03V512.81c0-2.78,2.25-5,5-5
		h1156.36C2005.93,507.81,2008.18,510.03,2008.18,512.81z"/>
	<path class="st4" d="M1525.04,1297.6h-227.38c0,0,33.79-18.39,33.79-104.13h159.76C1491.22,1279.21,1525.04,1297.6,1525.04,1297.6z
		"/>
	<path class="st5" d="M1726.5,1316.18c-0.96-10.22-9.55-18.21-20.02-18.21h-592.11c-10.47,0-19.06,8-20.02,18.21H1726.5z"/>
</g>
<rect x="1367.82" y="870.33" class="st1" width="589.42" height="276.68"/>
<g>
	<g>
		<rect x="1422.02" y="983.53" class="st2" width="35.58" height="74.18"/>
		<rect x="1469.2" y="1002.42" class="st2" width="35.58" height="55.28"/>
		<rect x="1516.39" y="972.33" class="st2" width="35.58" height="85.37"/>
		<rect x="1563.58" y="923.35" class="st2" width="35.58" height="134.36"/>
	</g>
	<path class="st2" d="M1895.09,959.76h-216.71c-8.27,0-14.97-6.7-14.97-14.97l0,0c0-8.27,6.7-14.97,14.97-14.97h216.71
		c8.27,0,14.98,6.7,14.98,14.97l0,0C1910.06,953.05,1903.36,959.76,1895.09,959.76z"/>
	<path class="st2" d="M1895.09,1010.35h-216.71c-8.27,0-14.97-6.7-14.97-14.97l0,0c0-8.27,6.7-14.97,14.97-14.97h216.71
		c8.27,0,14.98,6.7,14.98,14.97l0,0C1910.06,1003.64,1903.36,1010.35,1895.09,1010.35z"/>
	<path class="st2" d="M1771.34,1060.94h-92.96c-8.27,0-14.97-6.7-14.97-14.97l0,0c0-8.27,6.7-14.97,14.97-14.97h92.96
		c8.27,0,14.97,6.7,14.97,14.97l0,0C1786.31,1054.23,1779.61,1060.94,1771.34,1060.94z"/>
</g>
<g>
	<rect x="1367.82" y="552.57" class="st1" width="589.42" height="276.68"/>
	<g>
		<path class="st2" d="M1574.94,677.2l26.68-8.48c-9.46-29.77-32.89-53.31-62.6-62.92l-8.62,26.63
			C1551.54,639.26,1568.21,656.01,1574.94,677.2z"/>
		<path class="st6" d="M1509.12,767.18c-7.42,0-14.57-1.18-21.27-3.35l-8.62,26.63c9.42,3.05,19.46,4.7,29.89,4.7
			c26.79,0,51.05-10.86,68.61-28.42l-19.78-19.78C1545.46,759.45,1528.19,767.18,1509.12,767.18z"/>
		<path class="st7" d="M1606.16,698.12c0-10.25-1.6-20.13-4.54-29.4l-26.68,8.48c2.1,6.6,3.24,13.63,3.24,20.92
			c0,19.07-7.73,36.34-20.22,48.83l19.78,19.78C1595.3,749.18,1606.16,724.92,1606.16,698.12z"/>
		<path class="st6" d="M1440.06,698.12c0-38.13,30.92-69.05,69.06-69.05c7.42,0,14.57,1.18,21.27,3.35l8.62-26.63
			c-9.42-3.05-19.46-4.7-29.89-4.7c-53.59,0-97.03,43.44-97.03,97.02c0,10.25,1.6,20.14,4.54,29.41l26.67-8.48
			C1441.2,712.45,1440.06,705.42,1440.06,698.12z"/>
		<path class="st2" d="M1443.3,719.06l-26.67,8.48c9.46,29.77,32.89,53.31,62.6,62.92l8.62-26.63
			C1466.71,756.99,1450.03,740.25,1443.3,719.06z"/>
	</g>
	<path class="st2" d="M1895.09,648.08h-216.71c-8.27,0-14.97-6.7-14.97-14.97l0,0c0-8.27,6.7-14.97,14.97-14.97h216.71
		c8.27,0,14.98,6.7,14.98,14.97l0,0C1910.06,641.37,1903.36,648.08,1895.09,648.08z"/>
	<path class="st2" d="M1895.09,698.67h-216.71c-8.27,0-14.97-6.7-14.97-14.97l0,0c0-8.27,6.7-14.97,14.97-14.97h216.71
		c8.27,0,14.98,6.7,14.98,14.97l0,0C1910.06,691.96,1903.36,698.67,1895.09,698.67z"/>
	<path class="st2" d="M1771.34,749.26h-92.96c-8.27,0-14.97-6.7-14.97-14.97l0,0c0-8.27,6.7-14.98,14.97-14.98h92.96
		c8.27,0,14.97,6.7,14.97,14.98l0,0C1786.31,742.55,1779.61,749.26,1771.34,749.26z"/>
</g>
<g>
	<path class="st8" d="M1784.39,839.06c-21.65,0.63-33.07,5.51-35.04,25.2c-1.58,10.61,2.05,16.29,0,22.44
		c-2.05,6.15,4.25,25.55,8.35,27.44c4.1,1.89,10.25-2.68,10.25-2.68s25.07-9.46,27.12-15.3c2.05-5.83,21.6-27.6,9.93-42.1
		C1793.34,839.55,1787.12,838.98,1784.39,839.06z"/>
	<path class="st9" d="M1757.71,914.14c1.18-6.57,2.46-13.13,7.22-15.26l4.02,12.19c0,0-5.43,4.12-9.53,3.52
		C1758.37,914.6,1757.71,914.14,1757.71,914.14z"/>
	<path class="st10" d="M1816.12,1346.87c0,0,5.65,19.38,0,23.67c-9.61,0-39.31,0-48.54,0c-1.65-9.9,4.29-4.29,11.55-9.24
		c7.26-4.95,14.55-14.44,14.55-14.44H1816.12z"/>
	<path class="st11" d="M1799.86,1073.13c-0.36,18.65-2.63,34.91-21.5,64.2c-6.28,44.58-11.39,79.72-11.39,79.72l12.69,129.82h-22.45
		l-24.73-132.75l9.44-140.99H1799.86z"/>
	<path class="st10" d="M1779.66,1346.87c0,0,5.65,19.38,0,23.67c-9.61,0-39.31,0-48.54,0c-1.65-9.9,4.29-4.29,11.55-9.24
		c7.26-4.95,14.55-14.44,14.55-14.44H1779.66z"/>
	<path class="st11" d="M1813.03,1071.37c0,0,3.49,12.97,3.49,29.24c0,46.99-7.81,116.01-7.81,116.01l9.93,130.24h-25.51
		l-14.93-130.24l-15.81-143.49L1813.03,1071.37z"/>
	<path class="st11" d="M1739.96,1102.3c22.17,2.02,55.96,3.54,76.56-1.69l-0.74-11.58h-74.93L1739.96,1102.3z"/>
	<path class="st12" d="M1740.43,1063.95c4.63-18.93-1.01-120.25,0-129.62c1.01-9.37,19.19-12.67,21.75-15.06
		c0.07-0.07,0.14-0.18,0.21-0.26c10.09-1.1,24.93-3.12,36.36-1.38c6.07,5.91,14.97,10.66,20.39,18.65c9.23,13.62,6,41.09-0.92,67.88
		c-6.93,26.78,2.43,84.62,2.43,84.62c-9,10.89-84.93,5.05-84.93,5.05L1740.43,1063.95z"/>
	<path class="st12" d="M1740.72,1062.57c12.39-6.92,33.17,3.36,36.04-56.41c2.07-43.05-7.1-32.86-7.1-32.86l-25.5,10.69
		L1740.72,1062.57z"/>
	<path class="st8" d="M1772.07,987.46c0,0-1.14,57.66-23.13,62.37c-21.99,4.71-57.59,2.59-57.59,2.59s-13.55,7.62-22.56,7.82
		c-9.02,0.2-9.91,4.36-13.38,3.67c-3.47-0.69-1.98-4.66,8.13-8.82c0,0-11,3.77-15.16,3.17c-4.16-0.59,13.08-8.03,13.08-8.03
		s-15.26,2.38-17.54,0.5c-2.28-1.88,17.34-6.74,17.34-6.74s-12.59,2.68-14.77,0.1c-2.18-2.58,10.21-5.75,25.27-7.43
		c0,0,1.59-3.77-3.57-4.26s-0.2-2.58,3.37-2.48c3.57,0.1,9.61,2.18,15.06,6.34c5.45,4.16,26.26-1.29,34.79-4.96
		c8.52-3.67,20.02-6.94,20.02-6.94l-1.13-34.54L1772.07,987.46z"/>
	<path class="st12" d="M1768.95,925.85c14.81,8.01,12.36,44.79,5.57,60.82c0,0-35.96,12.54-35.08,0c0.86-12.26-1.81-48.24,9.5-57.28
		C1760.25,920.34,1768.95,925.85,1768.95,925.85z"/>
	<path class="st8" d="M1762.38,919c2.37-2.89,2.83-15.13,2.55-20.13l27.43,3c-0.76,6.86,2.12,11.59,6.39,15.75
		C1787.32,915.88,1772.47,917.9,1762.38,919z"/>
	<path class="st13" d="M1748.95,881.82c0,0-0.28-3.79,0.23-7.74c0,0,0.79,6.78,3.64,8.99l1.58-5.03l4.29,14.81
		c0,0-2.26-12.63,1.22-16.02c0,0,1.3,2.15,2.88,5.62c2.8,6.24,6.44,16.78,4.8,27.1c0,0,16.73,0.9,25.54-0.65
		c-0.28-9.47,10.57-20.46,15.57-24.87c0.37-0.34,0.76-0.88,1.1-1.58c4.38-8.73,6.1-43.63-24.53-46.68
		c-7.8-0.76-14.81,1.58-17.49-2.51v3.79c0,0-21.62,3.93-23.34,20.34C1742.74,873.77,1748.95,881.82,1748.95,881.82z"/>
	<path class="st14" d="M1767.6,909.54c0,0,16.73,0.9,25.54-0.65c-0.28-9.47,10.57-20.46,15.57-24.87c0.37-0.34,0.76-0.88,1.1-1.58
		h-47.02C1765.6,888.68,1769.24,899.22,1767.6,909.54z"/>
	<path class="st8" d="M1760.72,890.34c0,0-2.94-11.66,0-14.79c2.94-3.12,3.86,1.56,4.13,5.51
		C1765.13,885.01,1764.85,889.24,1760.72,890.34z"/>
	<path class="st15" d="M1775.17,986.94l-1.31-0.54c2.79-6.68,5.76-20.58,4.97-37.78c-0.45-9.69-3.35-17.17-8.17-21.04
		c-3.07-2.46-6.83-3.4-10.89-2.69l-0.24-1.39c4.46-0.77,8.62,0.25,12.02,2.98c5.14,4.13,8.24,11.97,8.7,22.08
		C1781.05,965.98,1778.01,980.12,1775.17,986.94z"/>
</g>
<path class="st2" d="M1761.21,306.6c1.48-4.5,1.96-9.27,1.12-14.07c-2.98-17-20.58-27.22-37.17-29.81
	c-22-3.44-45.25,2.59-63.04,16.35c-7.09-36.66-40.86-65.92-77.15-66.83c-36.29-0.91-71.4,26.62-80.21,62.89
	c-22.26-11.92-50.47-11.11-72.04,2.07c-10.16,6.21-19.51,18.22-16.57,29.41H1761.21z"/>
<path class="st2" d="M879.8,347.62c1.48-4.5,1.96-9.27,1.12-14.07c-2.98-17-20.58-27.22-37.17-29.81
	c-22-3.44-45.25,2.59-63.04,16.35c-7.09-36.66-40.86-65.92-77.15-66.83c-36.29-0.91-71.4,26.62-80.21,62.89
	c-22.26-11.92-50.47-11.11-72.04,2.07c-10.16,6.21-19.51,18.22-16.57,29.41H879.8z"/>
<path class="st1" d="M2404.74,478.4c1.48-4.5,1.96-9.27,1.12-14.07c-2.98-17-20.58-27.22-37.17-29.81
	c-22-3.44-45.25,2.59-63.04,16.35c-7.09-36.66-40.86-65.92-77.15-66.83c-36.29-0.91-71.4,26.62-80.21,62.89
	c-22.26-11.92-50.47-11.11-72.04,2.07c-10.16,6.21-19.51,18.22-16.57,29.41H2404.74z"/>
<g>
	<path class="st2" d="M1137.91,946.08c0,2.07-0.84,3.95-2.2,5.32c-1.36,1.36-3.24,2.2-5.32,2.2h-82.06c-4.16,0-7.52-3.37-7.52-7.52
		c0-2.07,0.84-3.95,2.2-5.32c1.35-1.36,3.24-2.2,5.32-2.2h1.91c0-33.78-218.2-300.6,39.12-301.06
		c257.32,0.47,39.12,267.29,39.12,301.06h1.92C1134.54,938.56,1137.91,941.93,1137.91,946.08z"/>
	<path class="st2" d="M1049.7,1019.81c8.35,5.71,21.06,9.13,39.65,9.19c18.59-0.05,31.31-3.48,39.65-9.19H1049.7z"/>
	<path class="st2" d="M1129.43,974.37h-80.15c-4.66,0-8.44-3.78-8.44-8.44l0,0c0-4.66,3.78-8.44,8.44-8.44h80.15
		c4.66,0,8.44,3.78,8.44,8.44l0,0C1137.87,970.59,1134.09,974.37,1129.43,974.37z"/>
	<path class="st2" d="M1129.43,995.15h-80.15c-4.66,0-8.44-3.78-8.44-8.44l0,0c0-4.66,3.78-8.44,8.44-8.44h80.15
		c4.66,0,8.44,3.78,8.44,8.44l0,0C1137.87,991.37,1134.09,995.15,1129.43,995.15z"/>
	<path class="st2" d="M1129.43,1015.92h-80.15c-4.66,0-8.44-3.78-8.44-8.44l0,0c0-4.66,3.78-8.44,8.44-8.44h80.15
		c4.66,0,8.44,3.78,8.44,8.44l0,0C1137.87,1012.14,1134.09,1015.92,1129.43,1015.92z"/>
	<path class="st16" d="M1073.23,952.71c0.18-22.24,3.55-44.32,4.59-66.52c0.53-11.17,0.56-22.44-0.86-33.55
		c-1.09-8.55-2.6-18.96-7.7-26.16c-2.29-3.24-7.58-8.3-11.08-3.59c-2.35,3.17-1.89,7.97-2.43,11.63c-0.64,4.32-1.54,9.66,0.34,13.81
		c3.59,7.92,12.51,12.52,20.3,15.1c4.21,1.39,8.53,2.39,12.77,3.68c3.67,1.11,6.58,1.5,10.38,0.61c7.52-1.76,14.22-6.8,18.58-13.1
		c2.63-3.8,4.42-8.18,5.14-12.75c0.49-3.1,0.05-4.73-1.44-7.39c-2.2-3.94-6.42-8.74-10.75-4.42c-4.97,4.96-6.43,14.15-7.82,20.67
		c-2.5,11.7-3.94,23.65-5.07,35.55c-1.17,12.3-1.93,24.65-2.21,37c-0.18,8.15-0.54,16.65,0.74,24.74c0.15,0.93,0.31,1.86,0.64,2.75
		c0.48,1.28,2.55,0.73,2.07-0.57c-1.87-5.05-1.35-11.53-1.39-16.8c-0.08-9.82,0.31-19.64,0.91-29.43
		c1.26-20.42,2.72-41.78,8.58-61.48c0.85-2.86,3.11-12.33,7.45-12.05c1.97,0.13,3.49,2.65,4.39,4.1c1.43,2.32,2.26,3.97,1.83,6.79
		c-0.7,4.56-2.52,8.9-5.2,12.63c-4.6,6.4-12.17,11.64-20.19,12.22c-3.55,0.26-7.15-1.45-10.55-2.38c-3.71-1.02-7.43-2-11.03-3.37
		c-4.08-1.56-8.01-3.66-11.22-6.66c-4.57-4.28-6.16-8.69-5.65-14.88c0.19-2.27,0.69-4.49,0.92-6.75c0.22-2.2,0.09-4.47,0.92-6.57
		c1.61-4.06,4.85-1.91,6.98,0.47c6.19,6.95,7.71,18.86,8.78,27.75c1.31,10.95,1.23,22.04,0.69,33.04
		c-1.07,21.99-4.39,43.87-4.56,65.91C1071.07,954.09,1073.22,954.09,1073.23,952.71L1073.23,952.71z"/>
</g>
<path class="st6" d="M1833.28,475.89v-31.25h-17.34c-1.86-8.49-5.2-16.41-9.74-23.51l12.26-12.26l-22.1-22.1l-12.26,12.26
	c-7.09-4.54-15.02-7.89-23.51-9.75v-17.33h-31.25v17.33c-8.49,1.86-16.41,5.21-23.51,9.75l-12.26-12.26l-22.1,22.1l12.26,12.26
	c-4.54,7.09-7.89,15.02-9.75,23.51h-17.33v31.25h17.32c1.86,8.49,5.21,16.42,9.75,23.51l-12.26,12.26l22.1,22.1l12.26-12.26
	c7.09,4.54,15.02,7.88,23.51,9.75v17.33h31.25v-17.33c8.49-1.86,16.42-5.2,23.51-9.75l12.26,12.26l22.1-22.1l-12.26-12.26
	c4.54-7.09,7.88-15.02,9.74-23.51H1833.28z M1744.98,496.64c-20.09,0-36.39-16.3-36.39-36.36c0-20.09,16.3-36.39,36.39-36.39
	s36.36,16.31,36.36,36.39C1781.34,480.34,1765.07,496.64,1744.98,496.64z"/>
<g>
	<path class="st6" d="M2254.73,560.15c4.61-0.18,14.27,0.43,16.52,5.24c1.26,2.7,1.79,10.85-16.52,30.95v12.8
		c21.33-21.58,29.37-37.14,24.51-47.5c-4.7-10.01-18.99-10.52-24.51-10.32V560.15z"/>
	<path class="st6" d="M2121.44,560.15c-4.61-0.18-14.27,0.43-16.52,5.24c-1.26,2.7-1.78,10.85,16.52,30.95v12.8
		c-21.33-21.58-29.37-37.14-24.51-47.5c4.7-10.01,18.99-10.52,24.51-10.32V560.15z"/>
	<rect x="2179.2" y="647.98" class="st6" width="15.1" height="50.96"/>
	<path class="st6" d="M2256.54,550.08c0,0,0,30.34,0,48.54c0,27.78-16.2,44.99-32.99,55.36c-22.48,13.9-51.09,13.9-73.58,0
		c-16.8-10.38-33.01-27.59-33.01-55.37c0-18.2,0-48.54,0-48.54H2256.54z"/>
	<path class="st6" d="M2140.79,732.91c0,0,0-9.02,0-14.42c0-8.25,10.67-13.37,21.73-16.45c14.81-4.13,33.65-4.13,48.46,0
		c11.06,3.08,21.74,8.2,21.74,16.45c0,5.41,0,14.42,0,14.42H2140.79z"/>
</g>
<g>
	<path class="st17" d="M2052.41,1067.45c-7.87,23.33-14.35,35.42-1.82,95.03c3.89,21.6,10.8,66.09,10.8,66.09l-8.92,123.11h26.63
		l20.3-135.63l-0.13-35.48l14.38,47.58l9.5,123.54h25.49v-134.77l-18.99-133.52L2052.41,1067.45z"/>
	<path class="st18" d="M2127.28,1358.01c-1.35,5.63-5.1,15.9,0,19.05h57.31c0,0,1.5-3.6-3-4.95c-4.5-1.35-36.16-10.2-37.06-14.1
		H2127.28z"/>
	<path class="st18" d="M2056.86,1358.01c-1.35,5.63-5.1,15.9,0,19.05h57.31c0,0,1.5-3.6-3-4.95c-4.5-1.35-36.16-10.2-37.05-14.1
		H2056.86z"/>
	<rect x="2097.87" y="1145.29" class="st19" width="2.81" height="35.27"/>
	<path class="st6" d="M2018.86,1011.5c0,0,11.02-42.73,21.1-64.97c0.97-2.86,2.29-5.47,4.02-7.77c2.06-3.33,4-5.33,5.71-5.36
		c0.02,0,0.05,0,0.07,0c4.19-2.67,9.65-4.22,16.76-4.12c5.03,0,16.5,5.14,16.5,5.14c7.67,2.08,14.72,5.85,20.96,10.76l-0.01-0.02
		c18.57,2.61,56.85,35.88,56.85,35.88l-3.7,30.89l-27.98-9.96c2.01,34.14,3.42,89.04,3.42,89.04s-60.26,12.16-86.01-10.21
		c0,0,5.66-47,1.79-68.39l-4.77,8.09L2018.86,1011.5z"/>
	<path class="st8" d="M2060.75,931.63c0,0,9.13-16.15,8.65-28.54c0,0-20.23-36.37,7.67-43.39c27.89-7.01,30.37-2.26,36.23,16.65
		c3.7,11.96,10.91,17.77,10.91,17.77l-3.75,2.77c0,0,1.16,20.72-1.7,23c-2.86,2.28-14.44,2.77-14.44,2.77l-0.18-0.13
		c-0.02,2.06-0.23,4.72-0.79,8.12c-1.79,10.77,1.96,25.61,1.96,25.61L2060.75,931.63z"/>
	<path class="st8" d="M2160.82,982.98l5.22,1.96c0,0,17.18-23.71,19.36-30.88c0,0-4.78-4.35-3.91-12.4
		c0.87-8.05,3.7-19.79,9.57-20.66c5.87-0.87,11.31,5.44,11.31,5.44s9.13,6.09,7.83,14.79c-1.3,8.7-9.13,10.87-12.18,17.18
		c-3.04,6.31-4.35,57.41-18.05,57.85c-13.7,0.43-22.68-5.64-22.68-5.64L2160.82,982.98z"/>
	<g>
		<path class="st6" d="M2202.97,953.02L2202.97,953.02c-2.02,1.23-4.54,1.25-6.58,0.06l-32.18-18.75l18.6-11.32l21.21,19.8
			C2207.14,945.73,2206.61,950.8,2202.97,953.02z"/>
		<path class="st6" d="M2163.34,936l24.01-14.61l-18.13-29.8l-24.01,14.61c-2.51,1.53-3.31,4.8-1.78,7.31l12.59,20.7
			C2157.56,936.73,2160.83,937.53,2163.34,936z"/>
		<polygon class="st20" points="2223.37,843.14 2255.28,895.59 2187.36,921.39 2169.23,891.59 		"/>
		
			<rect x="2238.43" y="831.38" transform="matrix(0.8543 -0.5197 0.5197 0.8543 -123.2015 1292.7738)" class="st6" width="12.31" height="69.58"/>
		<path class="st21" d="M2182.03,892.01c-0.7,0.43-1.63,0.29-2.18-0.35c-0.61-0.72-0.52-1.79,0.2-2.4l34.1-28.98
			c0.72-0.61,1.79-0.52,2.4,0.2c0.61,0.72,0.52,1.79-0.19,2.4l-34.1,28.98C2182.18,891.91,2182.1,891.96,2182.03,892.01z"/>
	</g>
	<path d="M2068.69,856.63c20.83-5.69,35.47-11.96,46.25,6.02c10.78,17.97-11.98,25.64-11.98,25.64l0.52-7.08c0,0-2.47,7.5-6.91,9.77
		l-2.66-8.68c0,0-1.97,12.43-7.89,17.47l-3.85-6.81c0,0,3.58,18.79-17.92,31.46c0,0-1.49-13.75-9.89-23.67
		C2045.97,890.81,2045.8,862.87,2068.69,856.63z"/>
	<path class="st8" d="M2020.01,1011.92c0,0-13.52,12.79-1.15,33.31c12.37,20.52,21.65,30.68,21.65,30.68s-1.23,2.33,0.96,6.86
		c2.19,4.53,3.98,6.36,3.36,10.64c-0.62,4.28,4.73,7.74,4.73,7.74s14.13-0.55,17.56-4.8c3.43-4.25,8.37-11.8,3.57-16.73
		c-4.8-4.94-20.16-14.27-23.73-29.49c-3.57-15.22-4.25-24.17-5.14-30.26L2020.01,1011.92z"/>
	<path class="st6" d="M2057.32,998.53l-1.14-0.81c7.64-10.68,9.37-22.92,9.39-23.04c3.65-16.65,2.54-28.44-3.27-35.11
		c-5.21-5.98-12.48-5.47-12.55-5.47l-0.11-1.4c0.32-0.02,8.04-0.56,13.72,5.95c6.13,7.03,7.34,19.23,3.6,36.28
		C2066.94,974.99,2065.17,987.55,2057.32,998.53z"/>
	<path class="st6" d="M2129.84,1001.98l-1.41-0.04c0.77-26.91-12.22-49.03-24.82-56.19l0.69-1.22
		C2117.27,951.89,2130.63,974.53,2129.84,1001.98z"/>
	
		<rect x="2127.33" y="1351.68" transform="matrix(-1 -1.224647e-16 1.224647e-16 -1 4271.8662 2709.6887)" class="st8" width="17.2" height="6.33"/>
	
		<rect x="2057.09" y="1351.68" transform="matrix(-1 -1.224647e-16 1.224647e-16 -1 4131.3862 2709.6887)" class="st8" width="17.2" height="6.33"/>
	<path class="st8" d="M2118.74,919.89c0,0-23.28-0.7-28.9-3.01l-6.33-12.49l6.33,16.3l14.27,1.86
		C2104.11,922.54,2115.52,922.22,2118.74,919.89z"/>
</g>
<g>
	<rect x="1350.07" y="409.91" class="st6" width="62.82" height="41.5"/>
	<rect x="1426.18" y="377.43" class="st6" width="62.82" height="73.97"/>
	<rect x="1502.29" y="327.86" class="st6" width="62.82" height="123.55"/>
</g>
<g>
	<path class="st22" d="M1152.07,1118.03c0,0-9.73,46.4-12.28,125.83l2.55,114.57h18.33l11.2-108.97l12.73-47.35l5.09,61.61
		l23.93,94.71h17.82l-8.15-106.42c0,0,18.44-66.99,21.41-98.27c1.57-16.61,2.81-25.31-6.24-47.79L1152.07,1118.03z"/>
	<path class="st2" d="M1156.21,979.86c-18.48,16.85-11.94,32.68-14.01,40.26c-2.07,7.57-12.05,17.9-12.05,17.9l-38.2,57.14
		l14.11,6.51l47.84-51.4L1156.21,979.86z"/>
	<path class="st22" d="M1142.63,1358.43c-0.94,6.86-14.64,18.87-25.15,22.44c-5.61,1.9-8.7,3.27-10.4,4.67
		c-1.69,1.4-0.72,4.15,1.48,4.15h43.04c4.58,0,8.29-3.71,8.29-8.29v-22.97H1142.63z"/>
	<path class="st22" d="M1214.03,1358.43c-0.94,6.86-14.64,18.87-25.15,22.44c-5.61,1.9-8.7,3.27-10.4,4.67
		c-1.69,1.4-0.72,4.15,1.48,4.15h43.04c4.58,0,8.29-3.71,8.29-8.29v-22.97H1214.03z"/>
	<path class="st23" d="M1104.3,1100.85c-3.09,5.32-1,11.86-3.86,16.86c-2.86,5-11.32,24.07-14.48,25.19
		c-3.16,1.12,2.86-14.07,2.86-14.07s-10.5,18.15-12.75,16.01c-2.24-2.14,5.91-17.85,5.91-17.85s-9.38,15.91-13.05,15.81
		c-3.67-0.1-2.14-7.85,6.93-18.46c0,0-7.85,9.79-13.46,9.79c-5.61,0,8.57-14.79,8.57-14.79s-7.85,2.45-6.22-0.31
		c1.63-2.75,11.73-11.93,19.99-15.5c8.26-3.57,8.99-7.56,8.99-7.56L1104.3,1100.85z"/>
	<path class="st23" d="M1225.55,960.73c-11.06,7.28-34.75,16.58-43.21,15.4c-9.29-1.32,0.62-13.49,0.62-13.49l-0.03-1.91l-0.24-8.95
		l29.89-21.15l2.39-1.7c0,0.35-0.03,0.73,0,1.14c-0.07,1.59-0.07,3.78,0.07,6.21C1215.43,944.57,1217.37,956.12,1225.55,960.73z"/>
	<path class="st23" d="M1216.99,929.59c-0.56,2.05-1.11,4.3-1.94,6.69c-2.98,8.6-9.43,18.69-32.11,24.45l-0.24-8.95l29.89-21.15
		l2.39-0.55L1216.99,929.59z"/>
	<path class="st23" d="M1215.39,894.46c-8.22-5.13-35.16-16.03-45.21,7.65c-3.59,9.33-2.15,44.25,0,51.91
		c2.15,7.65,29.3,0.79,36.79-13.67l1.24-4.67l8.7-8.7C1216.91,926.99,1226.57,901.44,1215.39,894.46z"/>
	<path d="M1171.52,905.69c4.98,7.11,30.38,9.94,30.38,9.94l3.53,20.05l2.75-17.8c0,0,2.18,23.22,8.79,29.61
		c0,0-1.21-13.39,4.95-27.01c6.16-13.62,5.82-31.51-9.06-33.52c0,0-5.28-6.4-20.68-6.04c-15.4,0.36-23.34,5.8-27.13-1.78
		c0,0-2.49,28.43,2.37,34.83L1171.52,905.69z"/>
	<path class="st2" d="M1250.38,1019.51c-3.43,11.1-6.9,21.53-8.11,27.01c-3.02,13.66,4.86,72.01,9.2,86.13
		c0.62,2.01-0.28,4.09-2.36,6.14c-12.59,12.41-84.78,15.97-105.45,2.58c0,0,16.8-73.99,5.92-123.94
		c-4.29-19.71-5.41-35.4,25.83-50.8c3.09-1.63,7.04-3.71,7.52-3.95c-0.59,0.76-9.57,12.17-0.59,13.45
		c8.46,1.18,32.14-8.11,43.21-15.4c0.8,0.45,1.66,0.87,2.6,1.18c13.91,4.61,25.21,9.92,29.75,17.96
		C1260.65,984.69,1255.55,1002.83,1250.38,1019.51z"/>
	<path class="st23" d="M1207.83,920.78c2.68-2.68,8.99-3.32,8.14,0c-0.86,3.32-2.25,10.38-8.14,12.1V920.78z"/>
	<polygon class="st24" points="1184.6,1202.11 1184.6,1174.54 1167.06,1250.51 1157.3,1358.43 1159.9,1358.43 1171.88,1249.47 	"/>
	<path class="st6" d="M1199.33,1088.6c1.37,6.26,3.84,12.1,7.18,17.33l-9.04,9.04l16.29,16.29l9.04-9.04
		c5.23,3.35,11.08,5.82,17.34,7.19v12.78h23.04v-12.78c6.26-1.37,12.1-3.84,17.33-7.19l9.04,9.04l16.29-16.29l-9.04-9.04
		c3.35-5.23,5.82-11.08,7.19-17.34h12.77v-23.04H1304c-1.37-6.26-3.84-12.1-7.19-17.33l9.04-9.04l-16.29-16.29l-9.04,9.04
		c-5.23-3.35-11.07-5.82-17.33-7.19v-12.78h-23.04v12.78c-6.26,1.37-12.11,3.84-17.34,7.19l-9.04-9.04l-16.29,16.29l9.04,9.04
		c-3.35,5.23-5.81,11.07-7.18,17.33h-12.79v23.04H1199.33z M1224.84,1077.09c0-14.81,12-26.84,26.81-26.84s26.84,12.02,26.84,26.84
		c0,14.79-12.02,26.81-26.84,26.81S1224.84,1091.88,1224.84,1077.09z"/>
	<path class="st2" d="M1257.91,979.86c13.24,26.29,32.1,57,32.54,72.79c0.44,15.79-32.54,68-32.54,68s-7.6-9.65-19.44-5.48
		l23.25-59.66c0,0-22.32-21.9-25.83-31.11C1232.38,1015.18,1257.91,979.86,1257.91,979.86z"/>
	<path class="st6" d="M1236.75,1024.43l-1.73-0.06c0.81-22.44,21.39-44.19,22.27-45.1l1.25,1.2
		C1258.33,980.68,1237.54,1002.66,1236.75,1024.43z"/>
	<path class="st23" d="M1256.98,1119.63c-2.63,5.9-1.82,12.51-5.69,20.73c-3.88,8.21-8.57,23.51-14.07,27.38
		c-2.28,0.94,3.23-13.86,3.23-13.86s-6.71,14.7-9.83,15.72c-3.12,1.01,4.14-19.3,4.14-19.3s-7.81,16.27-10.94,17.19
		c-3.12,0.92-1.47-15.44,4.87-24.45c0,0-9.59,19.01-12.5,17.55c0,0-6.8-6.82,9.74-27.7c0,0-9.31,13.33-8.03,8.35
		c1.28-4.98,4.5-13.65,15.25-19.59c5.32-3.05,6.52-6.87,6.52-6.87l10.66-1.7L1256.98,1119.63z"/>
	<path class="st6" d="M1153.1,1050.56c-5.53-14.71-9.07-55.15,0.79-69.66l1.43,0.97c-9.22,13.58-6.09,53.45-0.6,68.07
		L1153.1,1050.56z"/>
</g>
<g>
	<path class="st2" d="M610.38,966.18c-9.39,7.93-22.26,32.65-27.34,74.66c0,0,8.5,10.36,20,13.14l8.58-15.17L610.38,966.18z"/>
	<path class="st8" d="M583.04,1040.83c-4.4,12.87-16.94,50.13-25.74,57.92c-8.81,7.79-14.2,21.7-12.91,26.85
		c0.87,3.03,2.77-2.15,2.77-2.15s-1.67,6.46-0.08,8.75c1.6,2.28,2.74,0.61,2.74,0.61s-1.75,3.42,0.61,4.49
		c2.36,1.06,3.35-4.03,3.35-4.03s-0.7,3.06,1.74,4.18s2.03-10.89,6.1-16.25c4.07-5.36,6.94-9.46,8.24-17.31
		c1.31-7.85,22.36-21.05,26.17-33.7c3.82-12.65,6.54-17.56,6.54-17.56L583.04,1040.83z"/>
	<path class="st9" d="M559.53,1112.07c-0.27,0-0.55-0.05-0.86-0.16c-3.94-1.35-3.78-7.03-3.77-7.27l1.49,0.05
		c0,0.05-0.13,4.81,2.76,5.8c0.28,0.1,0.44,0.09,0.48,0.06c0.4-0.31,0.27-2.43,0.18-3.84c-0.14-2.31-0.3-4.93,0.48-6.96l1.39,0.54
		c-0.67,1.73-0.52,4.17-0.38,6.33c0.15,2.42,0.27,4.33-0.77,5.12C560.24,1111.97,559.91,1112.07,559.53,1112.07z"/>
	<path class="st25" d="M592.27,1245.79c0.27,18.61,12.11,119.66,12.11,119.66h14.67c0,0,1.69-18.45,3.66-44.97
		c6.9-53.95,3.46-53.26,3.46-71.26c0-17.98,9.46-61.55,9.46-61.55s2.29,17.3,7.82,49.1c5.53,31.82,32.25,128.67,32.25,128.67h20.31
		c0,0,0.38-79.48-8.09-102.52c-7.21-19.53-12.22-33.1-12.22-33.1c17.21-94.49,10.83-120.07,6.38-134.29
		c-0.88-2.79-1.66-5.15-2.2-7.51l-71.84,6.11C608.05,1094.15,591.98,1227.21,592.27,1245.79z"/>
	<path class="st26" d="M670.83,1228.85c0,0,28.58,50.27,19.8,136.61h5.39c0,0,0.38-79.48-8.09-102.52
		c-7.21-19.53-12.22-33.1-12.22-33.1c17.21-94.49,10.83-120.07,6.38-134.29l-11.26,1.17
		C670.83,1096.72,684.36,1205.79,670.83,1228.85z"/>
	<path class="st27" d="M675.7,1365.44c0,0-4.04,27.6-22.15,36.41c-18.11,8.81,11.7,16.18,33.81,2.72s19.23-17.63,14.9-25.64
		c-4.33-8.01-7.37-13.5-7.37-13.5H675.7z"/>
	<path class="st27" d="M604.23,1365.44c0,0-3.06,20.88-16.75,27.54c-13.69,6.67,8.85,12.24,25.57,2.06
		c16.72-10.18,14.54-13.33,11.27-19.39s-5.57-10.21-5.57-10.21H604.23z"/>
	<path class="st8" d="M627.06,958.4c1.1,7.03,4.58,16.45,4.58,16.45s27.01-16.11,35.26-28.58c-6.92-6.22-5.55-11.66-4.99-19.3
		c0.02-0.13,0.02-0.27,0.02-0.43c0.02-0.07,0.02-0.11,0.02-0.18l-0.54,0.29l-26.43,14.27c0.13,1.46,0.25,3.1,0.07,4.83
		C634.7,949.66,632.95,954.11,627.06,958.4z"/>
	<path class="st8" d="M635.06,945.75l27.7-15.42l0-3.97l-0.83,0.18l-0.52,0.11l-26.43,14.27
		C635.13,942.38,635.24,944.02,635.06,945.75z"/>
	<path class="st28" d="M627.05,958.4c1.1,7.03,4.6,16.45,4.6,16.45s27.01-16.1,35.26-28.57c0.09,0.08,0.18,0.16,0.27,0.23
		c-7.31,24.53-21.72,106.47-29.36,150.17c-6.37,0.14-12.12-0.17-16.95-0.64c0.33-31.78,1.47-110.68,4.94-136.79
		C626.24,958.97,626.66,958.68,627.05,958.4z"/>
	<path class="st2" d="M676.59,952.67c17.95,9.48,19.65,32.86,12.87,49.12c-6.77,16.26-6.32,87.4,1.18,112.97
		c-8.86,14.66-45.01,9.68-58.24,9.97c7.64-43.7,27.48-153.68,34.78-178.22C669.41,948.45,672.44,950.48,676.59,952.67z"/>
	<path class="st6" d="M673.73,992.84c-4.42,32.01,14.3,109.55,14.3,109.55s-5.1-49.2-4.36-68.34L673.73,992.84z"/>
	<path class="st2" d="M607.83,1028.54c-8.13-33.53-4.97-59.21,2.56-62.36c6.84-2.17,11.81-4.52,15.43-6.93
		c-3.47,26.11-4.62,132.76-4.94,164.55c-9.49-0.92-23.54-4.19-23.54-4.19S615.95,1062.08,607.83,1028.54z"/>
	<path class="st8" d="M707.61,1059.47c1.16,10.04-3.6,20.4-29.28,18.74c-13.87,0.18-23.4,2.07-36.03,7.25
		c-8.94,3.85-14.19,2.66-13.85,1.14c0.34-1.52,10.84-6.69,10.84-6.69s-13.72,3.47-17.61,0.68c-3.9-2.79,16.26-5.84,16.26-5.84
		s-16,1.69-18.88-0.34c-2.88-2.03,18.55-5,18.55-5s-17.44-1.35-17.19-4.4c0.25-3.05,19.98-2.71,19.98-2.71s0.57-3.91-9.22-4.41
		c-0.62-2.73-1.36-3.35,2.11-3.84c3.47-0.5,13.89,1.69,17.85,5.43c3.97,3.74,9.42,3.62,16.86,3.37c7.44-0.25,18.21-2.18,18.28-7.97
		c0,0,4.42-1.54,10.92,0.09C704.14,1056.72,707.61,1059.47,707.61,1059.47z"/>
	<path class="st2" d="M676.59,952.67c17.23,6.67,24.45,5.35,27.74,41.8c3.28,36.44,3.28,65.01,3.28,65.01s-3.07-2.42-10.67-4.16
		c-7.09-1.62-10.67-0.44-10.67-0.44s-11.37-26.27-12.42-56.47C672.8,968.2,676.59,952.67,676.59,952.67z"/>
	<path class="st6" d="M684.26,1052.86l1.93-1.15c-23.52-39.44-3.73-96.24-3.53-96.81l-2.12-0.75
		C680.34,954.73,660.2,1012.53,684.26,1052.86z"/>
	<path class="st6" d="M609.15,967.3c-8.78,11.89-3.19,52.72,0,68.61l0.64,8.21l-5.36,7.37c0,0-9.02-60.08-2.96-73.95
		C602.59,975.73,609.15,967.3,609.15,967.3z"/>
	<path class="st8" d="M652.25,876.97c-17.53-6.82-41.1-0.71-37.91,23.03c3.19,23.74,3.9,36.85,12.76,41.1
		c8.86,4.25,29.48-9.37,35.79-16.25C667.67,919.64,677.23,886.68,652.25,876.97z"/>
	<path class="st26" d="M654.4,905.35c-0.93,9.17-1.33,11.43-1.33,11.43s-1.21-15.68-4.99-19.13c0,0-29.44,8.84-33.75,2.36
		c-4.31-6.48-2.19-22.69-2.19-22.69s8.5-1.99,18.07-5.32c9.57-3.32,34.15-2.66,39.33,11.43c5.18,14.09,8.74,43.2-8.12,51.56
		L654.4,905.35z"/>
	<path class="st8" d="M655.02,918.91v-10.23c0,0,0.16-4.12,3.33-4.04c3.17,0.08,6.98,5.47,3.57,9.75
		C658.51,918.67,655.02,918.91,655.02,918.91z"/>
	<path class="st26" d="M635.64,1187.68l-3.25-35.03l-13.62,95.91l-4.85,116.89h4.82c0,0,11.25-90.41,7.43-116.2L635.64,1187.68z"/>
	<g>
		<path class="st6" d="M563.72,1126.44L563.72,1126.44c1.13-1.52,1.33-3.55,0.53-5.27l-12.65-27.14l-10.42,14.07l14.3,18.43
			C557.57,1129.24,561.68,1129.2,563.72,1126.44z"/>
		<path class="st2" d="M552.99,1093.47l-13.45,18.16l-22.53-16.69l13.45-18.16c1.41-1.9,4.09-2.3,5.99-0.89l15.65,11.6
			C554,1088.89,554.4,1091.57,552.99,1093.47z"/>
		<polygon class="st29" points="479.36,1127.83 519.02,1157.22 539.54,1111.63 517.01,1094.93 		"/>
		
			<rect x="491.29" y="1118.53" transform="matrix(-0.5954 0.8035 -0.8035 -0.5954 1712.8517 1430.3884)" class="st2" width="9.9" height="55.94"/>
		<path class="st21" d="M516.4,1105.21c0.39-0.53,0.35-1.29-0.12-1.77c-0.53-0.54-1.4-0.55-1.94-0.02l-25.7,25.18
			c-0.54,0.53-0.55,1.4-0.02,1.94c0.53,0.54,1.4,0.55,1.94,0.02l25.7-25.18C516.31,1105.32,516.36,1105.27,516.4,1105.21z"/>
	</g>
</g>
<g>
	<path class="st6" d="M1281.74,370.45h-146.36c-9.63,0-17.43-7.8-17.43-17.43v-82.84c0-9.63,7.8-17.43,17.43-17.43h146.36
		c9.63,0,17.43,7.8,17.43,17.43v82.84C1299.17,362.64,1291.37,370.45,1281.74,370.45z"/>
	<path class="st30" d="M1212.37,303.25l-81.85-24.35c-1.77-0.53-2.78-2.39-2.25-4.16c0.53-1.77,2.38-2.78,4.16-2.25l79.84,23.75
		l72.33-23.72c1.76-0.57,3.64,0.38,4.22,2.13c0.58,1.75-0.38,3.64-2.13,4.22L1212.37,303.25z"/>
</g>
<g>
	<path d="M1084.53,313.58c-6.81-15.43-12.15-28.44-9.65-35.28c2.5-6.84,4.5-11.01,15.18-14.01c10.68-3,20.57-1.67,27.3,3.67
		c6.73,5.34,6.94,20.68,4.33,26.69c-2.61,6.01-8.15,21.97-8.15,21.97L1084.53,313.58z"/>
	<path class="st31" d="M1064.03,443.3c-8.14,17.51,6.96,51.22,15.61,56.67c0,0,26.75,93.78,40.52,104.04l17.82-3.78
		c0,0-17.83-99.18-24.04-118.08c-6.21-18.9-8.18-38.84-8.18-38.84H1064.03z"/>
	<path class="st32" d="M1136.08,444.53c8.92,17.63,1.09,39.77-21.05,43.28l-20.25-7.56c0,0-5.13,34.02-23.76,59.95
		c-18.63,25.92-22.95,28.89-22.95,28.89l-15.39-8.64c0,0,27.27-85.87,40.78-98.02c13.5-12.15,30.56-17.39,30.56-17.39
		L1136.08,444.53z"/>
	<path class="st2" d="M1146.45,340.28c-3.82-5.09-27.1-12.92-37.69-16.21c0,0-51.88-0.29-58.43,19.85c0,0-33.79,47.17-31.61,61.4
		c0,0,10.28-5.73,20.56-1.38l20.14-19.57c3.13,25.8,3.86,53.23,4.6,58.93c1.19,9.22,22.22,2.48,32.77,1.39
		c10.55-1.09,42.38,10,39.29-3.27c-1.58-6.8,2.18-31.85,5.71-55.34l0,0c0,0,17.48,13.9,21.43,4.42
		C1167.19,381,1154.53,351.95,1146.45,340.28z"/>
	<path class="st33" d="M1142.45,379.67c0,0-21.35-27.31-9.05-46.86c0,0-16.21,30.52,5.56,72.5L1142.45,379.67z"/>
	<path class="st8" d="M1111.89,318.27c0,0-1.64,3.82,1.09,10l-12.37,19.1l-14.73-18.33c0,0,1.64-4.04,1.64-10.77H1111.89z"/>
	<path class="st8" d="M1111.42,320.93c0,0-1.11,13.02-9.42,14.43c-8.31,1.4-16.12-13.12-16.12-13.12L1111.42,320.93z"/>
	<path class="st8" d="M1113.16,318.27c0,0-2.02,3.69-5.38,6.74c-2.16,1.97-4.88,3.69-7.99,3.99c-7.92,0.77-14.12-9.35-14.12-9.35
		s-0.67-3.35-1.48-8.05c-1.23-7.11-2.75-17.32-2.7-23.58c0.1-9.51,3.73-19.06,17.78-19.06c14.05,0,16.61,10.99,17.88,19.06
		C1118.44,296.08,1113.16,318.27,1113.16,318.27z"/>
	<path class="st6" d="M1149.84,362.33c8.92-1.13,13.89,6.31,15.64,13.49c1.75,7.18,4.38,24.86-11.38,20.66
		C1138.34,392.29,1131.93,364.6,1149.84,362.33z"/>
	<path class="st6" d="M1018.73,405.32l-2.43,4.13c0,0-4.03,10.16,8.4,9.28c12.43-0.88,21.19-4.03,21.01-9.28
		c-0.18-5.25-6.69-7.19-15.6-7.82C1025.31,401.29,1018.73,405.32,1018.73,405.32z"/>
	<path class="st8" d="M1036.79,405.32c10.17,2.16,16.4,18.66,22.64,19.71c6.25,1.05,16.1,4.41,16.84,9.42c0,0-2,0.94-7.42-2.54
		c0,0,11.49,4.28,10.76,7.55s-13.76-4.08-13.76-4.08s15.1,10.56,13.36,13.43c-1.74,2.87-15.18-5.51-15.18-5.51
		s11.37,9.65,9.23,11.73c-2.14,2.07-10.76-6.94-10.76-6.94s8.08,8.07,5.88,8.74c-2.2,0.67-15.3-8.69-18.44-18.44
		c-6.88-7.3-28.39-19.17-29.86-25.12C1018.61,407.32,1027.37,403.31,1036.79,405.32z"/>
	<path d="M1032.67,560.45c-6.38,5.68-7.38,9.86-7.38,13.76c0,3.89-11.93,7.67-13.26,11.56c-1.34,3.89,7.79,21.29,22.15,17.77
		c9.86-6.69,4.98-25.14,13.08-34.9C1040.5,562.53,1032.67,560.45,1032.67,560.45z"/>
	<path d="M1120.17,604.01c0,0,4.68,8.15,3.02,16.48c-1.67,8.33-13.7,21.47,4.63,18.32c18.32-3.15,12.03-3.33,17.03-6.11
		c5-2.78,2.59-6.66-2.41-17.95c-5-11.29-4.44-14.52-4.44-14.52L1120.17,604.01z"/>
	<polygon points="1116.09,299 1113.92,287.31 1084.56,288.31 1082.31,299 1077.55,284.14 1087.06,268.96 1103.41,265.12 
		1116.09,272.63 1120.09,282.97 	"/>
	<path class="st34" d="M1107.79,325.01c-2.16,1.97-4.88,3.69-7.99,3.99c-7.92,0.77-14.12-9.35-14.12-9.35s-0.67-3.35-1.48-8.05
		c2.09,1.94,7.22,6.37,10.38,5.93C1098.02,317.05,1105.68,323.25,1107.79,325.01z"/>
	<path class="st8" d="M1113.81,340.28c13.57,8.7,46.21,25.94,47.91,33.02c1.7,7.08,5.31,21.09-5.98,20.23
		c-11.29-0.86-40.15-37.63-52.01-43.56c-11.86-5.93-23.72-9.88-23.33-13.24c0,0,0.43-1.77,3.69-0.54c0,0-6.39-5.5-3.7-9.04
		c0,0-2.23-6.95,2.18-8.03c0,0-0.72-4.92,2.6-4.2c0,0,7.17,11.21,13.49,11.72c0,0-6.4-5.14-4.16-6.58
		c2.24-1.45,13.1,6.76,14.54,9.41C1110.5,332.1,1110.59,338.21,1113.81,340.28z"/>
	<path class="st8" d="M1114.82,307.3c2.85-2.25,5.46-8.01,5.27-10.26c-0.19-2.25-0.75-4.9-2.86-2.6l-1.14,4.56L1114.82,307.3z"/>
	<path class="st8" d="M1083.74,307.3c-2.85-2.25-5.46-8.01-5.27-10.26c0.19-2.25,0.75-4.9,2.86-2.6l1.14,4.56L1083.74,307.3z"/>
	<path class="st33" d="M1051.73,340.94c0.14,21.92,7.7,43.43,7.7,43.43l-7.7,7.48V340.94z"/>
	<polygon class="st33" points="1062.28,415.98 1074.26,389.63 1061.7,410.19 	"/>
	<path class="st33" d="M1096.8,444.69c0,0,17.98-3.42,26.45-2.63c0,0-20.89-3.6-37.06,4.39L1096.8,444.69z"/>
	<rect x="1051.73" y="391.85" class="st35" width="98.78" height="61.57"/>
	<rect x="1051.73" y="453.43" class="st36" width="98.78" height="5.2"/>
	<path class="st37" d="M1085.99,304.98c-1.43,0-2.6-1.15-2.63-2.58l-0.05-3.45c-0.01-0.7,0.25-1.36,0.74-1.87
		c0.49-0.5,1.14-0.79,1.84-0.8l9.97-0.16c0.72,0.02,1.36,0.25,1.87,0.74c0.5,0.49,0.79,1.14,0.8,1.84l0.06,3.45
		c0.02,1.44-1.13,2.64-2.58,2.66h0l-9.97,0.16C1086.01,304.98,1086,304.98,1085.99,304.98z M1095.89,297.82c0,0-0.01,0-0.01,0
		l-9.97,0.16c-0.25,0-0.48,0.1-0.65,0.28c-0.17,0.18-0.26,0.41-0.26,0.66l0.05,3.45c0.01,0.51,0.51,0.92,0.94,0.91l9.97-0.16
		c0.51-0.01,0.92-0.43,0.91-0.94l-0.06-3.45c0-0.25-0.1-0.48-0.28-0.65C1096.37,297.92,1096.14,297.82,1095.89,297.82z"/>
	<path class="st37" d="M1103.1,304.7c-0.68,0-1.33-0.26-1.82-0.74c-0.5-0.49-0.79-1.14-0.8-1.84l-0.06-3.45
		c-0.01-0.7,0.25-1.36,0.74-1.87c0.49-0.5,1.14-0.79,1.84-0.8l9.97-0.16c0.01,0,0.03,0,0.04,0c1.43,0,2.6,1.15,2.62,2.58l0.05,3.45
		c0.01,0.7-0.25,1.36-0.74,1.87c-0.49,0.5-1.14,0.79-1.84,0.8l-9.97,0.16C1103.13,304.7,1103.11,304.7,1103.1,304.7z
		 M1113.01,297.55c0,0-0.01,0-0.01,0l-9.97,0.16c-0.51,0.01-0.92,0.43-0.91,0.94l0.06,3.45c0.01,0.51,0.41,0.82,0.94,0.91l9.97-0.16
		c0.25,0,0.48-0.1,0.65-0.28c0.17-0.18,0.26-0.41,0.26-0.66l-0.05-3.45C1113.93,297.95,1113.52,297.55,1113.01,297.55z"/>
</g>
<g>
	<polygon class="st6" points="704.63,497.9 667,497.9 667,460.26 637.14,460.26 637.14,497.9 599.51,497.9 599.51,527.76 
		637.14,527.76 637.14,565.39 667,565.39 667,527.76 704.63,527.76 	"/>
	<polygon class="st6" points="599.27,550.46 561.64,550.46 561.64,512.83 531.78,512.83 531.78,550.46 494.14,550.46 494.14,580.32 
		531.78,580.32 531.78,617.95 561.64,617.95 561.64,580.32 599.27,580.32 	"/>
</g>
<polygon class="st6" points="2064.31,321.08 2064.47,325.47 2080.73,324.88 2023.48,382.13 1988.46,347.1 1925.69,409.87 
	1930.86,415.04 1988.46,357.45 2023.48,392.48 2085.92,330.05 2085.32,346.32 2089.71,346.48 2090.67,320.12 "/>
<g>
	<polygon class="st6" points="737.89,817.15 713.78,796.94 713.78,701.02 533.4,701.02 533.4,820.12 713.78,820.12 713.78,812.42 	
		"/>
	<rect x="561.39" y="724.44" class="st21" width="125.98" height="10.1"/>
	<rect x="561.39" y="755.72" class="st21" width="125.98" height="10.1"/>
	<rect x="561.39" y="787" class="st21" width="125.98" height="10.1"/>
</g>
<g>
	<polygon class="st38" points="924.22,1393.62 912.97,1393.62 1047.66,641.5 1058.91,641.5 	"/>
	<polygon class="st38" points="788.56,1393.62 777.31,1393.62 912,641.5 923.25,641.5 	"/>
	<polygon class="st39" points="915.96,682.22 1040.37,682.22 1041.87,673.83 917.46,673.83 	"/>
	<polygon class="st39" points="904.45,746.46 1028.86,746.46 1030.36,738.08 905.95,738.08 	"/>
	<polygon class="st39" points="892.95,810.71 1017.36,810.71 1018.86,802.33 894.45,802.33 	"/>
	<polygon class="st39" points="881.44,874.96 1005.85,874.96 1007.35,866.58 882.94,866.58 	"/>
	<polygon class="st39" points="869.94,939.2 994.35,939.2 995.85,930.82 871.44,930.82 	"/>
	<polygon class="st39" points="858.43,1003.45 982.84,1003.45 984.34,995.07 859.93,995.07 	"/>
	<polygon class="st39" points="846.92,1067.7 971.33,1067.7 972.84,1059.32 848.43,1059.32 	"/>
	<polygon class="st39" points="835.42,1131.94 959.83,1131.94 961.33,1123.56 836.92,1123.56 	"/>
	<polygon class="st39" points="823.91,1196.19 948.32,1196.19 949.82,1187.81 825.41,1187.81 	"/>
	<polygon class="st39" points="812.41,1260.44 936.82,1260.44 938.32,1252.06 813.91,1252.06 	"/>
	<polygon class="st39" points="800.9,1324.68 925.31,1324.68 926.81,1316.3 802.4,1316.3 	"/>
</g>
<g>
	<path class="st23" d="M933.33,736.37c-17.94-0.59-25.4,19.57-21.23,34.55c4.16,14.99,2.5,24.98,2.5,24.98l27.06,1.67
		c0,0,8.4-1.84,9.42-12.23C952.1,774.94,963.29,737.36,933.33,736.37z"/>
	<path class="st40" d="M943.14,1061.78c-0.92,6.9-4.07,14.05-4.28,16.15c-0.21,2.1,3.86,18.97,8.07,22.34
		c4.21,3.37,22.93,7.36,21.45,0c-1.47-7.36-6.73-12.62-6.31-21.03c0.42-8.41,1.34-14.65,1.34-14.65l-13.11-7.85L943.14,1061.78z"/>
	<path class="st40" d="M838.75,1108.65c-2.89,4.66-10.88,9.92-11.93,14.13c-1.05,4.21-3.16,25.87-0.84,33.86
		c2.31,7.99,25.66,21.66,25.45,8.62c-0.21-13.04-3.95-31.35,2.13-46.38l-5.7-10.23H838.75z"/>
	<path class="st41" d="M902.12,963.62c22.77,12.38,41.98,17.29,41.98,17.29l-0.96,80.87c0,0,10.86-5.12,20.27,2.8
		c0,0,15.35-79.22,12.87-97.53c-2.48-18.32-37.22-53.47-37.22-53.47l-12.29-25.25l-60.83,6.8l-3.56,12.97c0,0-9.69,39.2-3.37,60.97
		c6.31,21.78,9.58,60.54,9.58,60.54l-29.83,79.05c0,0,9.8,0.22,14.81,10.23l47.91-87.1L902.12,963.62z"/>
	<path class="st23" d="M986.24,798.35l10.96-0.77l7.67-41.16c0,0-0.91-9.5,0-14.42c0.91-4.91,3.31-15.66,3.31-15.66
		s1.49-1.6,3.43-1.14c1.94,0.46,1.37,1.83,0,3.31c-1.37,1.49-0.11,5.94-0.11,5.94s2.74-7.2,5.37-8s4.11,1.6,3.66,2.06
		c-0.46,0.46-3.66,3.77-3.31,5.94c0.34,2.17,3.77-5.83,6.97-5.49c3.2,0.34,1.37,3.77,1.37,3.77s-3.31,2.4-3.54,3.09
		s3.89-3.66,6.63-1.94c2.74,1.71-2.97,3.43-3.2,4.8c-0.23,1.37,1.14,6.74-1.14,11.43c-2.29,4.69-5.83,6.63-6.51,12.46
		c-0.69,5.83-5.94,50.29-9.71,53.26s-9.37,3.89-9.37,3.89L986.24,798.35z"/>
	<path class="st1" d="M923.15,792.27c-14.07,0-44.24,12.23-46.48,30.17c-2.24,17.94-6.52,69.28-13.66,79.49
		c-1.43,3.49,0,4.91,0,4.91s5.3-11.01,41.8-7.34c36.49,3.67,34.25,14.07,34.25,14.07s3.93,0.9,4.05-2.97
		c0.11-3.87,0.46-18.45,2.85-26.42c2.39-7.97,28.97-55.98,55.21-63.65c0,0,0-20.66-14.11-22.96
		C972.93,795.28,923.15,792.27,923.15,792.27z"/>
	<path class="st42" d="M955.91,747.99c1.28,3.46,1.08,7.26-0.06,10.77c-1.14,3.52,0.63,4.45,0.43,8.21
		c-0.38,7.13-3.8,6.37-8.78,10.31c-4.97,3.94-16.8,10.63-16.8,10.63h-16.63c0,0-2.4-12-4.46-16.29c-2.06-4.29-2.59-22.12,1.36-27.09
		c3.95-4.97,12.9-12.23,23.17-11.2C942.61,734.18,952.17,737.89,955.91,747.99z"/>
	<path class="st6" d="M960.11,858.01c-7.76-15.41-11.9-32.15-6.88-63.76l1.47,0.23c-4.96,31.22-0.89,47.7,6.74,62.85L960.11,858.01z
		"/>
	<path class="st43" d="M901.64,964.2c-11.73-9.66-17.81-18.4-17.87-18.49l1.23-0.85c0.06,0.09,6.04,8.67,17.59,18.18L901.64,964.2z"
		/>
	<path class="st23" d="M946.34,771.36c0,0-4.02-5.12-5.54-3.58c-1.53,1.55,2.95,13.68,5.8,13.52L946.34,771.36z"/>
</g>
</svg>
