<?xml version="1.0" standalone="no"?>
<!DOCTYPE svg PUBLIC "-//W3C//DTD SVG 20010904//EN"
 "http://www.w3.org/TR/2001/REC-SVG-20010904/DTD/svg10.dtd">
<svg version="1.0" xmlns="http://www.w3.org/2000/svg"
 width="577.000000pt" height="139.000000pt" viewBox="0 0 577.000000 139.000000"
 preserveAspectRatio="xMidYMid meet">

<g transform="translate(0.000000,139.000000) scale(0.100000,-0.100000)"
fill="#000000" stroke="none">
<path d="M358 1216 c-90 -37 -139 -70 -199 -133 -100 -104 -149 -230 -150
-380 0 -189 94 -362 253 -464 164 -106 387 -110 558 -12 114 66 200 171 245
298 35 99 35 260 1 358 -56 159 -173 277 -329 336 -48 18 -79 21 -190 21 -115
0 -139 -3 -189 -24z m357 -17 c78 -24 172 -85 225 -147 183 -215 172 -519 -26
-718 -73 -74 -158 -118 -271 -141 -325 -68 -631 205 -610 542 15 253 192 442
457 489 45 8 161 -5 225 -25z"/>
<path d="M480 1210 c-202 -27 -372 -181 -425 -387 -73 -281 128 -579 422 -623
250 -39 504 130 568 375 30 117 16 247 -41 364 -34 69 -141 179 -209 214 -98
49 -215 70 -315 57z m20 -27 c0 -10 -8 -28 -18 -40 l-17 -23 -29 23 c-17 14
-26 29 -22 35 10 16 36 15 36 0 0 -7 5 -5 11 5 5 9 17 17 24 17 8 0 15 -8 15
-17z m79 -7 c24 -25 21 -46 -5 -46 -8 0 -14 8 -14 18 -1 16 -1 16 -11 0 -13
-23 -39 -23 -39 -1 0 16 27 53 40 53 3 0 17 -11 29 -24z m57 9 c5 -12 10 -13
20 -4 7 6 18 8 24 4 18 -11 10 -33 -18 -47 -26 -13 -29 -13 -46 9 -18 24 -16
53 4 53 6 0 13 -7 16 -15z m-211 -52 c6 -18 -25 -30 -35 -14 -5 9 -9 6 -13 -8
-6 -24 -37 -29 -37 -6 0 8 5 25 11 38 10 22 14 23 40 14 16 -6 31 -17 34 -24z
m334 1 c12 -28 7 -44 -15 -44 -8 0 -14 9 -14 21 0 19 -1 19 -16 4 -19 -19 -21
-16 35 -45 25 -12 68 -45 96 -74 202 -202 145 -536 -113 -663 -72 -36 -81 -38
-171 -38 -53 0 -108 3 -122 7 -24 7 -26 5 -21 -18 4 -23 6 -24 26 -11 19 13
23 12 39 -10 19 -24 17 -53 -3 -53 -6 0 -13 7 -16 15 -5 12 -10 13 -20 4 -15
-13 -34 -4 -34 16 0 11 -8 13 -29 9 -23 -5 -30 -2 -36 15 -7 24 -16 26 -32 10
-16 -16 -35 -1 -27 23 4 13 2 18 -4 14 -6 -3 -12 -3 -15 1 -2 5 -2 2 0 -5 1
-8 -3 -12 -9 -9 -7 2 -12 14 -11 26 2 16 -3 21 -21 21 -18 0 -25 7 -29 27 -3
17 0 34 8 42 13 14 35 8 35 -10 0 -6 -4 -7 -10 -4 -5 3 -7 0 -4 -8 3 -9 13
-13 25 -10 15 4 19 0 19 -20 0 -20 4 -24 20 -20 14 4 21 -1 26 -21 5 -21 9
-24 20 -15 20 16 45 4 37 -18 -7 -17 -6 -17 11 0 21 21 23 18 -33 47 -65 33
-138 111 -173 186 -135 288 89 617 402 591 36 -3 74 -9 86 -12 17 -5 21 -2 20
16 -1 20 15 31 55 38 3 1 11 -11 18 -25z m-437 -35 c-1 -18 -4 -34 -5 -35 -1
-1 -17 1 -34 3 -24 4 -33 11 -33 24 0 21 25 26 33 7 3 -7 6 -4 6 8 1 24 11 36
25 31 6 -2 10 -19 8 -38z m498 19 c0 -5 -4 -7 -9 -3 -5 3 -13 0 -17 -6 -4 -8
-3 -9 4 -5 7 4 12 2 12 -5 0 -9 4 -9 15 1 19 16 37 3 30 -21 -5 -15 -1 -19 18
-19 19 0 26 -6 30 -27 3 -15 3 -33 0 -40 -7 -17 -35 -13 -41 6 -3 8 0 11 7 7
7 -4 9 -2 5 7 -3 9 -13 13 -26 9 -18 -4 -20 -2 -16 16 5 18 2 22 -18 22 -25 0
-42 35 -30 65 6 15 36 10 36 -7z m-552 -82 c3 -15 0 -18 -16 -14 -13 4 -23 0
-26 -9 -3 -8 -1 -11 4 -8 6 3 10 2 10 -4 0 -18 -22 -24 -35 -10 -8 9 -11 25
-8 42 5 24 10 28 37 25 21 -2 32 -9 34 -22z m-80 -63 c2 -25 -1 -33 -18 -38
-16 -5 -19 -10 -10 -20 14 -17 3 -38 -16 -31 -8 3 -14 1 -14 -4 0 -6 5 -10 10
-10 13 0 13 -27 0 -35 -15 -9 -37 11 -42 40 -4 18 0 26 14 31 16 5 18 12 12
36 -6 28 -4 30 15 25 18 -4 20 -2 15 20 -6 21 -3 24 12 21 13 -2 20 -13 22
-35z m770 18 c3 -8 0 -11 -5 -8 -5 3 -10 -3 -10 -14 -1 -11 2 -17 7 -14 4 3
10 2 13 -2 2 -5 2 -2 1 5 -2 6 2 12 8 12 6 0 8 -11 5 -29 -5 -24 -2 -31 13
-36 16 -5 19 -12 14 -33 -9 -36 -13 -42 -29 -42 -19 0 -29 19 -16 33 6 8 6 18
1 27 -7 11 -10 12 -10 2 0 -7 -5 -10 -11 -6 -8 4 -8 9 0 17 16 16 14 25 -9 32
-20 6 -25 29 -14 60 8 19 35 16 42 -4z m-842 -172 c17 -33 17 -34 -28 -59 -28
-17 -33 12 -12 78 6 21 23 13 40 -19z m919 -4 c0 -11 3 -25 8 -32 4 -6 0 -19
-9 -28 -15 -14 -15 -18 -1 -33 14 -15 14 -19 -3 -39 -10 -13 -26 -23 -35 -23
-11 0 -15 7 -13 23 2 12 9 21 15 20 7 -2 10 4 6 13 -5 13 -7 13 -14 2 -6 -9
-9 -7 -9 9 0 12 6 24 13 27 8 3 7 9 -6 20 -18 14 -18 16 -1 41 19 29 49 30 49
0z m-917 -107 c0 -24 -5 -46 -12 -51 -7 -5 -5 -12 8 -22 16 -12 17 -18 8 -27
-17 -17 -15 -25 8 -31 11 -3 20 -10 20 -17 0 -6 -4 -9 -8 -6 -5 3 -9 -1 -9 -9
0 -8 6 -15 13 -15 19 0 27 -19 14 -35 -9 -10 -6 -15 10 -20 29 -9 25 -70 -4
-70 -11 0 -21 6 -24 14 -3 8 0 11 5 8 5 -3 9 4 10 16 0 12 -1 16 -4 10 -3 -7
-12 -13 -20 -13 -12 0 -14 7 -9 30 3 17 2 30 -2 30 -23 1 -32 18 -23 43 9 23
8 27 -8 27 -13 0 -20 10 -24 37 -4 20 -2 42 4 49 7 9 6 19 -2 33 -11 17 -10
23 5 40 30 34 45 26 44 -21z m918 -95 c-3 -21 -5 -41 -5 -45 -2 -19 -32 -5
-45 20 -13 26 -13 31 2 45 9 10 24 17 34 17 16 0 18 -6 14 -37z m-34 -77 c3
-15 -2 -27 -14 -35 -14 -8 -17 -18 -12 -38 6 -23 4 -25 -15 -20 -23 6 -27 -3
-9 -21 9 -9 7 -13 -5 -18 -24 -9 -37 4 -37 35 0 21 6 30 22 34 18 5 19 9 9 21
-15 18 -5 40 15 32 9 -4 14 2 14 17 0 18 -2 19 -10 7 -5 -8 -10 -10 -10 -4 0
5 5 15 12 22 15 15 34 0 40 -32z m-99 -159 c-5 -24 -10 -28 -37 -25 -21 2 -32
9 -34 22 -3 15 0 18 16 14 13 -4 23 0 26 9 4 9 2 12 -7 7 -7 -5 -7 -1 2 10 20
24 42 1 34 -37z m-53 -58 c0 -21 -25 -26 -33 -6 -3 6 -6 0 -6 -15 -1 -18 -6
-28 -16 -28 -21 0 -28 21 -16 52 8 21 14 24 40 20 22 -3 31 -10 31 -23z m-90
-14 c0 -8 -5 -25 -11 -39 -10 -21 -15 -23 -40 -14 -34 12 -43 54 -10 45 12 -3
22 1 25 9 7 19 36 18 36 -1z m-70 -66 c0 -15 -31 -23 -40 -10 -5 10 -9 9 -13
-3 -8 -21 -37 -21 -37 0 0 8 8 26 18 38 l17 24 28 -20 c15 -11 27 -24 27 -29z
m-146 24 c6 -14 8 -14 21 3 13 16 16 17 25 4 7 -11 3 -21 -15 -39 -24 -24 -25
-24 -45 -6 -23 21 -27 55 -6 55 8 0 17 -7 20 -17z"/>
<path d="M512 900 c0 -14 2 -19 5 -12 2 6 2 18 0 25 -3 6 -5 1 -5 -13z"/>
<path d="M540 899 c0 -11 4 -18 10 -14 5 3 7 12 3 20 -7 21 -13 19 -13 -6z"/>
<path d="M560 913 c0 -5 5 -15 10 -23 8 -12 10 -11 10 8 0 12 -4 22 -10 22 -5
0 -10 -3 -10 -7z"/>
<path d="M661 904 c0 -11 3 -14 6 -6 3 7 2 16 -1 19 -3 4 -6 -2 -5 -13z"/>
<path d="M712 900 c0 -14 2 -19 5 -12 2 6 2 18 0 25 -3 6 -5 1 -5 -13z"/>
<path d="M390 900 c0 -5 5 -10 10 -10 6 0 10 5 10 10 0 6 -4 10 -10 10 -5 0
-10 -4 -10 -10z"/>
<path d="M591 894 c0 -11 3 -14 6 -6 3 7 2 16 -1 19 -3 4 -6 -2 -5 -13z"/>
<path d="M314 838 c4 -20 36 -22 36 -3 0 14 -3 15 -14 6 -10 -8 -16 -9 -19 -1
-3 6 -4 5 -3 -2z"/>
<path d="M360 829 c0 -11 4 -18 10 -14 5 3 7 12 3 20 -7 21 -13 19 -13 -6z"/>
<path d="M380 841 c0 -6 5 -13 10 -16 6 -3 10 1 10 9 0 9 -4 16 -10 16 -5 0
-10 -4 -10 -9z"/>
<path d="M411 834 c0 -11 3 -14 6 -6 3 7 2 16 -1 19 -3 4 -6 -2 -5 -13z"/>
<path d="M561 834 c0 -11 3 -14 6 -6 3 7 2 16 -1 19 -3 4 -6 -2 -5 -13z"/>
<path d="M591 834 c0 -11 3 -14 6 -6 3 7 2 16 -1 19 -3 4 -6 -2 -5 -13z"/>
<path d="M661 834 c0 -11 3 -14 6 -6 3 7 2 16 -1 19 -3 4 -6 -2 -5 -13z"/>
<path d="M682 830 c0 -14 2 -19 5 -12 2 6 2 18 0 25 -3 6 -5 1 -5 -13z"/>
<path d="M761 838 c-1 -11 6 -16 19 -15 11 1 20 8 20 15 0 11 -3 12 -14 3 -11
-9 -15 -9 -19 1 -4 9 -6 7 -6 -4z"/>
<path d="M220 827 c0 -21 30 -56 61 -73 16 -8 60 -20 97 -27 l67 -12 0 -42 c0
-28 6 -48 19 -60 18 -17 18 -17 5 4 -10 17 -10 28 0 61 8 22 10 45 7 51 -4 6
-28 11 -54 11 -54 0 -139 36 -177 74 -14 14 -25 20 -25 13z"/>
<path d="M461 824 c0 -11 3 -14 6 -6 3 7 2 16 -1 19 -3 4 -6 -2 -5 -13z"/>
<path d="M843 803 c-38 -36 -109 -63 -169 -63 -24 0 -46 -4 -49 -10 -3 -5 0
-28 6 -51 10 -31 10 -45 1 -60 -10 -15 -9 -17 3 -13 17 7 18 11 19 69 l1 40
67 12 c74 13 114 31 141 61 33 36 15 50 -20 15z"/>
<path d="M238 743 c14 -26 98 -61 113 -46 6 6 -5 14 -32 22 -24 7 -54 20 -67
29 -24 16 -25 16 -14 -5z"/>
<path d="M844 746 c-10 -7 -36 -19 -56 -25 -36 -12 -52 -31 -25 -31 19 1 94
37 102 50 11 18 1 21 -21 6z"/>
<path d="M540 740 c-9 -27 -4 -46 12 -47 10 -1 18 4 18 12 0 7 6 16 13 19 6 4
2 4 -10 2 -12 -2 -24 1 -27 8 -2 6 -5 9 -6 6z"/>
<path d="M249 687 c14 -17 71 -32 93 -24 7 2 -6 10 -30 16 -24 7 -51 15 -60
18 -15 6 -15 5 -3 -10z"/>
<path d="M386 689 c3 -6 0 -15 -7 -20 -11 -7 -10 -9 5 -9 12 0 16 -5 12 -15
-3 -9 0 -15 10 -15 8 0 12 -4 9 -10 -3 -5 -2 -10 4 -10 6 0 8 -8 4 -17 -4 -14
-3 -15 6 -7 9 8 9 17 0 38 -10 21 -10 32 -2 46 14 22 7 30 -24 30 -15 0 -22
-4 -17 -11z"/>
<path d="M667 694 c-3 -3 -1 -14 6 -24 8 -14 8 -25 -2 -46 -9 -21 -9 -30 0
-38 9 -8 10 -7 6 7 -5 12 -1 17 11 17 15 0 15 2 2 10 -13 8 -12 10 4 10 12 0
16 5 12 15 -3 10 1 15 12 15 13 0 14 2 3 9 -7 5 -10 14 -7 20 8 12 -35 16 -47
5z"/>
<path d="M815 688 c-64 -22 -71 -29 -26 -24 24 2 51 12 60 20 17 18 10 19 -34
4z"/>
<path d="M511 654 c0 -11 3 -14 6 -6 3 7 2 16 -1 19 -3 4 -6 -2 -5 -13z"/>
<path d="M531 654 c0 -11 3 -14 6 -6 3 7 2 16 -1 19 -3 4 -6 -2 -5 -13z"/>
<path d="M570 665 c0 -5 5 -17 10 -25 5 -8 10 -10 10 -5 0 6 -5 17 -10 25 -5
8 -10 11 -10 5z"/>
<path d="M551 644 c0 -11 3 -14 6 -6 3 7 2 16 -1 19 -3 4 -6 -2 -5 -13z"/>
<path d="M274 636 c22 -18 71 -21 81 -6 4 6 -6 10 -22 10 -15 0 -39 3 -53 6
-24 5 -24 5 -6 -10z"/>
<path d="M777 643 c-20 -2 -35 -8 -32 -14 9 -14 59 -11 81 6 14 10 15 14 4 13
-8 -1 -32 -3 -53 -5z"/>
<path d="M338 602 c-21 -2 -38 -7 -38 -13 0 -15 58 -14 74 2 13 12 6 14 -36
11z"/>
<path d="M488 589 c-10 -11 -18 -32 -18 -49 0 -25 4 -30 25 -30 14 0 25 -5 25
-11 0 -6 -9 -9 -20 -6 -28 7 -25 -15 6 -52 31 -37 53 -39 82 -8 43 46 55 124
25 156 -25 25 -102 25 -125 0z m79 -7 c10 -6 10 -12 -1 -28 -11 -15 -17 -16
-27 -7 -6 6 -9 19 -6 27 7 18 16 20 34 8z m-57 -37 c0 -8 -2 -15 -4 -15 -2 0
-6 7 -10 15 -3 8 -1 15 4 15 6 0 10 -7 10 -15z m100 6 c0 -6 -4 -13 -10 -16
-5 -3 -10 1 -10 9 0 9 5 16 10 16 6 0 10 -4 10 -9z m7 -46 c-5 -16 -37 -18
-37 -3 0 8 9 14 20 14 11 0 19 -5 17 -11z m-43 -24 c33 -37 -12 -77 -48 -42
-19 20 -19 21 -1 41 22 25 27 25 49 1z"/>
<path d="M720 597 c0 -12 42 -25 62 -19 35 9 27 20 -17 24 -25 2 -45 0 -45 -5z"/>
<path d="M376 565 c-23 -17 -3 -30 24 -15 23 13 25 16 7 23 -7 3 -21 -1 -31
-8z"/>
<path d="M694 569 c-6 -10 12 -28 28 -29 16 0 15 17 -2 28 -14 8 -21 8 -26 1z"/>
<path d="M427 554 c-4 -4 -7 -17 -7 -28 0 -19 1 -19 17 -3 12 11 14 20 7 27
-6 6 -13 7 -17 4z"/>
<path d="M655 551 c-9 -15 8 -35 24 -30 8 3 7 10 -2 23 -10 14 -16 16 -22 7z"/>
<path d="M470 400 c0 -5 5 -10 11 -10 5 0 7 5 4 10 -3 6 -8 10 -11 10 -2 0 -4
-4 -4 -10z"/>
<path d="M615 400 c-3 -5 -1 -10 4 -10 6 0 11 5 11 10 0 6 -2 10 -4 10 -3 0
-8 -4 -11 -10z"/>
<path d="M500 376 c0 -9 5 -16 10 -16 6 0 10 4 10 9 0 6 -4 13 -10 16 -5 3
-10 -1 -10 -9z"/>
<path d="M587 384 c-4 -4 -7 -14 -7 -23 0 -11 3 -12 11 -4 6 6 10 16 7 23 -2
6 -7 8 -11 4z"/>
<path d="M532 350 c2 -8 10 -15 18 -15 8 0 16 7 18 15 2 10 -5 16 -18 16 -13
0 -20 -6 -18 -16z"/>
<path d="M76 795 c-9 -26 -7 -32 5 -12 6 10 9 21 6 23 -2 3 -7 -2 -11 -11z"/>
<path d="M70 631 c0 -6 4 -13 10 -16 6 -3 7 1 4 9 -7 18 -14 21 -14 7z"/>
<path d="M1011 611 c-8 -15 -8 -22 1 -27 7 -4 10 -4 6 1 -4 4 -3 14 4 22 6 7
8 16 5 19 -3 3 -10 -3 -16 -15z"/>
</g>
</svg>
