<?xml version="1.0" standalone="no"?>
<!DOCTYPE svg PUBLIC "-//W3C//DTD SVG 20010904//EN"
 "http://www.w3.org/TR/2001/REC-SVG-20010904/DTD/svg10.dtd">
<svg version="1.0" xmlns="http://www.w3.org/2000/svg"
 width="512.000000pt" height="256.000000pt" viewBox="0 0 512.000000 256.000000"
 preserveAspectRatio="xMidYMid meet">

<g transform="translate(0.000000,256.000000) scale(0.100000,-0.100000)"
fill="#000000" stroke="none">
<path d="M0 1280 l0 -1280 2560 0 2560 0 0 1280 0 1280 -2560 0 -2560 0 0
-1280z m1640 0 c0 -333 -3 -510 -10 -510 -7 0 -10 177 -10 510 0 333 3 510 10
510 7 0 10 -177 10 -510z m-671 454 c1 -10 10 -27 20 -38 9 -10 15 -26 13 -37
-5 -27 16 -59 38 -59 22 0 26 20 9 37 -7 7 -9 19 -6 27 9 23 37 8 37 -21 0
-31 42 -73 75 -73 15 0 25 -6 25 -14 0 -24 -18 -28 -42 -12 -29 21 -38 20 -38
-2 0 -26 20 -42 53 -42 16 0 40 -9 54 -20 14 -11 32 -20 39 -20 17 0 19 -26 3
-35 -6 -4 -19 2 -30 14 -10 11 -25 18 -33 15 -8 -3 -25 2 -38 10 -27 17 -38
13 -38 -15 0 -22 34 -42 59 -34 20 6 46 -18 36 -35 -8 -13 -45 -13 -45 0 0 6
-9 10 -20 10 -26 0 -46 -46 -29 -66 9 -11 7 -20 -6 -40 -9 -14 -15 -37 -12
-49 5 -31 -7 -49 -28 -41 -13 5 -15 12 -10 29 4 12 8 38 9 59 0 20 4 40 9 44
12 12 8 51 -7 63 -11 9 -19 9 -35 -1 -24 -15 -31 -44 -17 -77 8 -18 7 -26 -7
-36 -9 -7 -20 -27 -23 -46 -3 -19 -14 -52 -24 -74 -10 -22 -20 -48 -23 -57 -4
-11 -12 -15 -22 -12 -20 8 -19 21 5 51 11 14 20 34 20 43 0 10 6 33 14 51 10
23 11 39 5 51 -7 13 -4 26 12 47 26 35 19 61 -15 61 -34 0 -60 -40 -54 -82 4
-22 -1 -41 -13 -58 -10 -14 -20 -35 -22 -47 -4 -29 -13 -37 -31 -30 -12 5 -12
11 4 42 10 20 16 43 13 51 -3 8 2 30 12 48 32 59 0 79 -61 39 -12 -7 -28 -11
-37 -7 -9 3 -30 -1 -48 -10 -33 -16 -49 -14 -49 8 0 8 16 16 36 19 20 3 43 12
51 19 9 7 35 13 58 13 52 1 75 18 75 56 0 24 -4 29 -24 29 -13 0 -29 -7 -36
-15 -9 -11 -22 -14 -46 -9 -23 4 -42 1 -59 -10 -13 -9 -33 -16 -43 -16 -10 0
-27 -7 -38 -15 -27 -20 -56 -19 -52 2 2 10 18 21 38 26 19 5 42 15 51 23 8 8
29 14 46 14 17 0 36 7 43 16 10 11 23 14 52 9 44 -8 78 13 78 46 0 23 -44 36
-65 19 -9 -7 -26 -10 -41 -6 -17 5 -35 1 -50 -9 -28 -18 -44 -12 -44 15 0 16
7 19 35 18 19 -1 41 4 48 11 10 7 30 9 56 5 46 -7 62 10 43 50 -12 27 0 51 21
43 10 -4 17 -21 19 -44 3 -33 7 -38 31 -41 31 -4 37 17 12 38 -9 7 -13 20 -10
28 3 8 -2 23 -11 33 -18 20 -12 53 9 47 6 -3 14 -13 16 -24z m-79 2 c0 -20
-19 -31 -32 -18 -6 6 -7 15 -4 21 10 16 36 13 36 -3z m143 -11 c1 -5 -6 -11
-15 -13 -11 -2 -18 3 -18 13 0 17 30 18 33 0z m-214 -31 c23 -39 20 -58 -9
-49 -10 3 -39 1 -64 -5 -26 -6 -51 -8 -56 -5 -14 9 1 36 19 34 9 -1 33 -1 54
0 35 1 37 3 27 21 -9 17 -7 40 5 40 1 0 13 -16 24 -36z m1121 -9 c0 -11 -11
-15 -40 -15 l-40 0 0 -75 c0 -68 -2 -75 -20 -75 -19 0 -20 7 -20 90 l0 90 60
0 c47 0 60 -3 60 -15z m1847 4 c8 -8 13 -8 17 0 10 16 36 13 30 -3 -12 -30
-66 -31 -78 -1 -6 17 15 20 31 4z m-2653 -27 c8 -15 26 -33 40 -40 14 -6 26
-16 26 -22 0 -12 -23 -13 -35 -1 -6 5 -19 11 -29 13 -11 1 -20 10 -21 19 -2 9
-6 26 -10 38 -10 31 12 26 29 -7z m906 -22 c42 -42 15 -120 -41 -120 -60 0
-85 81 -37 123 27 22 53 22 78 -3z m128 4 c23 -16 30 -44 11 -44 -7 0 -17 7
-24 17 -18 25 -45 9 -45 -27 0 -33 24 -50 43 -31 16 16 37 14 37 -4 0 -37 -80
-47 -104 -13 -22 31 -20 60 5 92 23 30 45 33 77 10z m74 -25 l14 -42 12 42 c8
24 19 41 27 41 20 0 19 -5 -9 -86 -36 -103 -36 -104 -62 -104 -29 0 -30 10 -4
32 19 17 19 18 1 70 -11 29 -22 61 -26 71 -5 13 -2 17 13 17 15 0 24 -11 34
-41z m193 -16 c-1 -29 3 -53 7 -53 4 0 8 -18 8 -40 0 -29 -4 -40 -15 -40 -9 0
-15 9 -15 25 0 23 -4 25 -40 25 -36 0 -40 -2 -40 -25 0 -16 -6 -25 -15 -25
-20 0 -20 68 0 94 8 11 15 37 15 58 l0 39 48 -3 47 -3 0 -52z m127 40 c13 -12
18 -30 18 -69 l0 -52 -52 1 -53 2 0 35 c0 30 4 35 33 44 17 5 32 13 32 17 0
13 -24 11 -38 -3 -8 -8 -15 -9 -23 -1 -7 7 -5 15 6 27 21 21 53 21 77 -1z
m141 -1 c19 -17 23 -72 7 -103 -7 -12 -21 -19 -40 -19 -25 0 -30 -4 -30 -25 0
-18 -5 -25 -20 -25 -19 0 -20 7 -20 94 l0 93 43 1 c24 0 49 -7 60 -16z m129 1
c20 -18 24 -43 7 -43 -7 0 -17 7 -24 17 -18 25 -45 9 -45 -26 0 -37 15 -47 46
-30 28 15 43 5 28 -19 -15 -23 -77 -28 -94 -7 -20 24 -17 80 5 105 22 24 52
26 77 3z m138 2 c0 -8 -9 -15 -20 -15 -18 0 -20 -7 -20 -55 0 -42 -3 -55 -15
-55 -12 0 -15 13 -15 55 0 48 -2 55 -20 55 -11 0 -20 7 -20 15 0 12 13 15 55
15 42 0 55 -3 55 -15z m111 4 c13 -6 19 -19 18 -32 -2 -12 1 -32 5 -45 12 -35
-9 -52 -65 -52 l-49 0 0 70 0 70 36 0 c19 0 44 -5 55 -11z m137 -5 c14 -10 22
-25 22 -45 0 -27 -2 -29 -41 -29 -27 0 -38 -4 -33 -11 3 -6 19 -9 35 -5 31 6
50 -11 28 -25 -27 -17 -77 -10 -93 13 -22 31 -20 60 5 92 23 30 45 33 77 10z
m80 -17 c2 -19 9 -27 23 -27 14 0 19 7 19 30 0 20 5 30 15 30 12 0 15 -14 15
-70 0 -56 -3 -70 -15 -70 -9 0 -15 9 -15 25 0 18 -5 25 -20 25 -15 0 -20 -7
-20 -25 0 -18 -5 -25 -20 -25 -18 0 -20 7 -20 71 0 62 2 70 18 67 10 -2 18
-14 20 -31z m137 0 c-1 -22 4 -27 22 -27 19 0 23 5 23 31 0 24 4 30 18 27 14
-3 18 -16 20 -71 3 -62 1 -67 -18 -67 -15 0 -20 6 -20 25 0 18 -5 25 -20 25
-15 0 -20 -7 -20 -25 0 -18 -5 -25 -20 -25 -18 0 -20 7 -20 71 0 62 2 70 18
67 11 -2 17 -13 17 -31z m145 15 c0 -11 11 -21 32 -27 42 -13 55 -36 40 -69
-10 -23 -18 -26 -62 -26 l-50 0 0 63 c0 35 3 67 7 70 13 13 33 7 33 -11z m130
-52 c0 -56 -3 -70 -15 -70 -12 0 -15 14 -15 70 0 56 3 70 15 70 12 0 15 -14
15 -70z m62 28 l3 -43 23 43 c35 65 52 56 52 -28 0 -54 -3 -70 -14 -70 -10 0
-16 13 -18 38 l-3 37 -20 -37 c-11 -23 -26 -38 -37 -38 -16 0 -18 9 -18 70 0
54 3 70 14 70 10 0 16 -14 18 -42z m278 -28 c0 -56 -3 -70 -15 -70 -12 0 -15
13 -15 55 0 52 -1 55 -25 55 -24 0 -25 -3 -25 -55 0 -42 -3 -55 -15 -55 -12 0
-15 14 -15 70 l0 70 55 0 55 0 0 -70z m124 54 c46 -45 25 -117 -35 -122 -44
-4 -63 16 -63 65 0 58 62 94 98 57z m123 10 c31 -6 49 -64 31 -101 -10 -21
-22 -29 -46 -31 -26 -3 -32 -7 -32 -28 0 -17 -5 -24 -20 -24 -18 0 -20 7 -20
88 0 49 3 91 6 94 6 7 49 7 81 2z m161 -11 c2 -8 -6 -13 -22 -13 -25 0 -26 -3
-26 -55 0 -42 -3 -55 -15 -55 -12 0 -15 13 -15 55 0 48 -2 55 -20 55 -11 0
-20 7 -20 15 0 13 11 15 57 13 34 -2 58 -8 61 -15z m102 -3 c15 -15 20 -33 20
-70 l0 -50 -50 0 c-39 0 -52 4 -60 20 -15 28 4 59 41 67 19 4 27 9 21 15 -6 6
-17 6 -30 -1 -28 -15 -42 7 -17 26 26 19 52 16 75 -7z m150 -50 c0 -56 -3 -70
-15 -70 -12 0 -15 13 -15 55 0 74 -23 75 -36 3 -7 -44 -13 -54 -31 -56 -16 -2
-23 2 -23 12 0 9 5 16 10 16 6 0 10 18 10 39 0 63 7 71 56 71 l44 0 0 -70z
m-4062 -57 c-2 -10 -10 -18 -18 -18 -8 0 -16 8 -18 18 -2 12 3 17 18 17 15 0
20 -5 18 -17z m596 -12 c3 -5 -1 -14 -8 -20 -16 -13 -32 2 -21 19 8 12 22 13
29 1z m11 -151 c0 -8 -8 -16 -17 -18 -13 -2 -18 3 -18 18 0 15 5 20 18 18 9
-2 17 -10 17 -18z m655 -30 c42 -42 13 -124 -42 -118 -31 3 -59 31 -45 44 4 4
19 1 33 -6 22 -12 27 -12 34 0 7 11 4 16 -10 18 -23 4 -27 32 -5 32 8 0 15 5
15 10 0 6 -6 10 -14 10 -8 0 -18 -4 -21 -10 -9 -15 -35 -12 -35 5 0 35 60 45
90 15z m160 -50 c0 -63 -2 -70 -20 -70 -18 0 -20 7 -20 55 0 40 -4 55 -14 55
-8 0 -15 -16 -19 -40 -3 -23 -11 -47 -17 -55 -16 -19 -40 -19 -40 0 0 8 4 15
9 15 5 0 12 25 16 55 l6 55 50 0 49 0 0 -70z m108 61 c7 -4 17 -24 22 -45 l8
-36 -45 0 c-29 0 -42 -4 -37 -11 4 -6 20 -8 40 -4 26 4 34 2 34 -8 0 -30 -63
-37 -92 -10 -27 24 -24 87 4 107 25 18 46 20 66 7z m82 -18 l1 -28 22 28 c21
25 28 27 100 27 62 0 77 -3 77 -15 0 -8 -9 -15 -20 -15 -18 0 -20 -7 -20 -55
0 -42 -3 -55 -15 -55 -12 0 -15 13 -15 55 0 52 -1 55 -25 55 -14 0 -28 1 -31
3 -4 1 -13 -7 -20 -18 -12 -18 -11 -25 12 -58 l25 -37 -23 0 c-16 0 -30 11
-43 33 l-20 32 -3 -32 c-2 -25 -8 -33 -23 -33 -17 0 -19 7 -19 63 0 35 3 67 7
70 15 16 33 5 33 -20z m321 6 c41 -41 11 -125 -42 -117 -26 4 -29 2 -29 -24 0
-18 -5 -28 -15 -28 -12 0 -15 17 -15 94 l0 94 41 0 c27 1 47 -6 60 -19z m131
4 c23 -28 28 -51 17 -80 -12 -33 -26 -43 -61 -43 -52 0 -78 80 -38 120 25 25
62 26 82 3z m78 -13 c0 -23 4 -30 20 -30 16 0 20 7 20 30 0 23 4 30 20 30 18
0 20 -7 20 -70 0 -63 -2 -70 -20 -70 -15 0 -20 7 -20 25 0 18 -5 25 -20 25
-15 0 -20 -7 -20 -25 0 -18 -5 -25 -20 -25 -18 0 -20 7 -20 70 0 63 2 70 20
70 16 0 20 -7 20 -30z m140 0 c0 -23 5 -30 19 -30 14 0 21 8 23 27 2 17 10 29
21 31 15 3 17 -5 17 -67 0 -64 -2 -71 -20 -71 -15 0 -20 7 -20 25 0 18 -5 25
-20 25 -15 0 -20 -7 -20 -25 0 -18 -5 -25 -20 -25 -18 0 -20 7 -20 70 0 63 2
70 20 70 16 0 20 -7 20 -30z m140 10 c0 -14 7 -20 22 -20 27 0 58 -27 58 -51
0 -29 -29 -49 -71 -49 l-39 0 0 70 c0 56 3 70 15 70 8 0 15 -9 15 -20z m130
-50 c0 -56 -3 -70 -15 -70 -12 0 -15 14 -15 70 0 56 3 70 15 70 12 0 15 -14
15 -70z m71 48 l12 -23 10 23 c6 12 19 22 29 22 11 0 18 -3 16 -7 -2 -5 -10
-20 -17 -35 -12 -24 -12 -32 0 -55 7 -16 15 -31 17 -35 2 -5 -5 -8 -16 -8 -10
0 -23 10 -29 22 l-10 23 -12 -23 c-6 -12 -21 -22 -32 -22 l-20 0 20 29 c25 34
26 49 6 75 -19 25 -19 36 0 36 8 0 20 -10 26 -22z m174 -8 c9 -42 22 -46 30
-9 6 27 29 48 40 37 6 -6 -45 -159 -58 -175 -13 -18 -47 -16 -47 2 0 8 7 15
15 15 19 0 20 36 1 81 -28 69 -29 79 -7 79 13 0 21 -9 26 -30z m186 9 c27 -27
10 -52 -19 -26 -10 9 -24 17 -30 17 -14 0 -26 -44 -18 -65 6 -17 46 -21 46 -5
0 6 7 10 15 10 8 0 15 -6 15 -13 0 -36 -59 -50 -92 -20 -23 20 -24 80 -1 105
22 24 58 23 84 -3z m147 -51 c3 -63 1 -68 -18 -68 -18 0 -20 6 -20 55 0 40 -4
55 -14 55 -9 0 -15 -16 -19 -46 -5 -45 -18 -64 -44 -64 -15 0 -17 27 -3 32 6
2 13 27 17 56 l6 53 46 -3 46 -3 3 -67z m57 28 c12 -43 19 -40 30 12 5 22 12
32 26 32 23 0 24 7 -5 -77 -32 -94 -43 -113 -66 -113 -25 0 -26 19 -2 36 16
12 16 15 0 61 -31 93 -32 95 -12 91 12 -2 23 -18 29 -42z m175 29 c0 -10 -10
-15 -30 -15 -30 0 -30 -1 -30 -55 0 -42 -3 -55 -15 -55 -12 0 -15 14 -15 70
l0 70 45 0 c33 0 45 -4 45 -15z m-3364 -26 c3 -6 2 -15 -2 -19 -12 -12 -38 5
-30 19 9 14 23 14 32 0z m554 -4 c17 -9 30 -19 30 -24 0 -16 -13 -20 -31 -10
-20 10 -27 -5 -32 -66 -2 -20 -9 -31 -21 -33 -16 -3 -18 0 -12 19 4 13 10 48
13 77 6 57 10 59 53 37z m-395 -16 c7 -10 -13 -60 -47 -117 -14 -22 -24 -30
-30 -24 -7 7 -4 20 9 39 44 63 35 79 -25 43 -38 -23 -52 -25 -51 -7 0 6 28 26
62 43 74 37 74 37 82 23z m244 -185 c-9 -11 -15 -12 -25 -3 -11 9 -12 15 -3
25 9 11 15 12 25 3 11 -9 12 -15 3 -25z m-219 11 c0 -8 -7 -15 -15 -15 -8 0
-15 7 -15 15 0 8 7 15 15 15 8 0 15 -7 15 -15z m1610 -110 c0 -88 -1 -95 -20
-95 -19 0 -20 7 -20 95 0 88 1 95 20 95 19 0 20 -7 20 -95z m560 1 l0 -93 -42
-1 c-55 0 -78 20 -78 68 0 45 28 75 63 66 21 -5 23 -3 19 24 -4 25 -1 30 17
30 20 0 21 -5 21 -94z m190 43 l0 -52 21 27 c11 14 29 26 40 26 19 0 19 -1 -2
-29 l-22 -29 22 -35 c25 -41 26 -47 6 -47 -8 0 -22 11 -31 25 -9 14 -20 25
-25 25 -5 0 -9 -11 -9 -25 0 -16 -6 -25 -15 -25 -12 0 -15 17 -15 95 0 78 3
95 15 95 11 0 15 -12 15 -51z m190 0 l0 -52 21 27 c11 14 29 26 40 26 20 0 20
-1 -1 -30 l-22 -31 26 -39 c25 -38 25 -40 6 -40 -11 0 -27 11 -36 25 -9 14
-20 25 -25 25 -5 0 -9 -11 -9 -25 0 -16 -6 -25 -15 -25 -12 0 -15 17 -15 95 0
78 3 95 15 95 11 0 15 -12 15 -51z m-1150 16 c0 -8 5 -15 10 -15 6 0 10 -7 10
-15 0 -8 -4 -15 -10 -15 -18 0 -11 -72 8 -86 16 -12 16 -13 0 -19 -35 -14 -48
2 -48 55 l0 51 -32 -3 c-32 -3 -33 -4 -36 -55 -2 -38 -7 -53 -18 -53 -11 0
-14 16 -14 71 0 61 2 70 18 68 49 -5 82 2 82 16 0 8 7 15 15 15 8 0 15 -7 15
-15z m340 4 c0 -7 8 -18 18 -25 16 -12 16 -13 0 -19 -24 -10 -26 -85 -2 -85 9
0 14 -6 12 -12 -3 -7 -16 -13 -29 -13 -22 0 -24 4 -27 53 -2 28 -7 52 -13 52
-5 0 -9 7 -9 15 0 8 5 15 10 15 6 0 10 7 10 15 0 8 7 15 15 15 8 0 15 -5 15
-11z m-647 -37 c41 -36 7 -132 -43 -119 -17 4 -20 0 -20 -24 0 -22 -5 -29 -20
-29 -19 0 -20 7 -20 94 l0 93 43 1 c24 0 49 -7 60 -16z m137 -2 c40 -40 12
-120 -42 -120 -29 0 -42 9 -57 37 -16 31 -14 47 10 77 25 31 61 34 89 6z m304
4 c11 -10 16 -34 16 -68 l0 -53 -45 -1 c-49 0 -68 15 -63 50 2 16 13 26 36 33
43 12 41 28 -3 19 -38 -7 -48 7 -17 25 25 15 58 13 76 -5z m284 -42 c3 -44 6
-53 20 -50 13 2 18 16 20 56 2 37 7 52 18 52 11 0 14 -15 14 -69 l0 -68 -45
-1 c-54 -1 -65 13 -65 88 0 44 3 51 18 48 13 -2 18 -15 20 -56z m199 46 c20
-16 18 -128 -2 -128 -11 0 -15 11 -15 43 0 50 -12 72 -34 64 -12 -5 -16 -20
-16 -57 0 -38 -4 -50 -15 -50 -12 0 -15 14 -15 69 l0 69 42 0 c23 1 48 -4 55
-10z m209 -41 c1 -53 6 -62 29 -54 11 5 15 21 15 57 0 38 4 50 15 50 12 0 15
-14 15 -69 l0 -68 -45 -1 c-54 -1 -65 13 -65 88 0 44 3 51 18 48 13 -3 17 -14
18 -51z m534 -28 c0 -57 -4 -82 -16 -93 -20 -20 -68 -21 -84 -1 -13 16 -11 17
34 19 16 0 31 6 33 12 2 7 -6 10 -22 7 -33 -7 -53 11 -61 53 -10 54 15 83 71
82 l45 -1 0 -78z m-1092 -42 c2 -10 -3 -17 -12 -17 -18 0 -29 16 -21 31 9 14
29 6 33 -14z m822 3 c0 -11 -7 -20 -15 -20 -8 0 -15 9 -15 20 0 11 7 20 15 20
8 0 15 -9 15 -20z m-2767 -15 c-1 -5 -14 -11 -28 -13 -23 -3 -25 -7 -25 -51 0
-46 -18 -80 -33 -64 -4 3 -7 30 -7 60 0 52 0 53 -30 53 -29 0 -38 9 -23 24 11
11 148 2 146 -9z m70 -15 l26 -30 24 32 c17 21 30 29 42 24 15 -5 13 -11 -14
-48 -17 -23 -31 -52 -31 -64 0 -12 -6 -24 -14 -27 -18 -7 -26 1 -26 25 0 10
-13 37 -30 59 -27 38 -31 59 -10 59 4 0 20 -13 33 -30z m167 5 c0 -22 4 -25
34 -25 28 0 35 4 38 22 2 13 11 24 21 26 15 3 17 -5 17 -67 0 -64 -2 -71 -20
-71 -15 0 -20 7 -20 25 0 22 -4 25 -35 25 -31 0 -35 -3 -35 -26 0 -19 -5 -25
-17 -22 -14 2 -19 15 -21 57 -4 63 2 81 23 81 9 0 15 -9 15 -25z m300 -28 c0
-29 6 -59 12 -65 22 -22 -11 -32 -87 -30 l-70 3 3 50 c5 77 22 95 87 95 l55 0
0 -53z m91 22 l21 -30 28 33 c22 26 31 30 41 21 9 -9 5 -20 -20 -51 -17 -22
-31 -50 -31 -62 0 -30 -34 -22 -38 10 -2 13 -17 40 -32 59 -16 19 -27 38 -24
43 10 17 33 7 55 -23z m159 6 c0 -20 5 -25 25 -25 15 0 31 9 41 25 17 26 44
34 44 12 0 -7 -7 -23 -16 -35 -14 -20 -14 -24 0 -44 9 -12 16 -28 16 -35 0
-22 -29 -14 -46 12 -22 34 -62 34 -66 0 -7 -54 -23 -27 -26 43 -2 59 0 72 13
72 9 0 15 -9 15 -25z m-400 -805 c0 -5 -4 -10 -10 -10 -5 0 -10 5 -10 10 0 6
5 10 10 10 6 0 10 -4 10 -10z"/>
<path d="M930 1565 c-25 -30 15 -70 45 -45 20 16 19 46 -1 54 -23 9 -30 8 -44
-9z"/>
<path d="M1022 1549 c4 -29 33 -48 49 -32 16 16 -6 53 -32 53 -15 0 -20 -5
-17 -21z"/>
<path d="M932 1478 c-17 -17 -15 -57 2 -64 21 -8 56 14 56 34 0 20 -18 42 -35
42 -6 0 -16 -5 -23 -12z"/>
<path d="M1030 1475 c-19 -23 -8 -50 20 -50 16 0 26 6 28 18 4 18 -14 47 -28
47 -4 0 -13 -7 -20 -15z"/>
<path d="M1980 1616 c-18 -23 -8 -61 17 -64 17 -3 24 3 29 22 4 16 1 32 -6 41
-16 19 -24 19 -40 1z"/>
<path d="M2368 1590 c-3 -33 0 -40 14 -40 14 0 18 8 18 40 0 28 -4 40 -14 40
-9 0 -15 -14 -18 -40z"/>
<path d="M2507 1573 c-13 -12 -7 -23 13 -23 11 0 20 7 20 15 0 15 -21 21 -33
8z"/>
<path d="M2647 1623 c-4 -3 -7 -22 -7 -40 0 -30 3 -34 23 -31 25 3 35 41 17
64 -14 15 -23 18 -33 7z"/>
<path d="M3020 1620 c0 -5 12 -10 26 -10 14 0 23 4 19 10 -3 6 -15 10 -26 10
-10 0 -19 -4 -19 -10z"/>
<path d="M3020 1566 c0 -11 9 -16 26 -16 31 0 28 23 -4 28 -15 2 -22 -2 -22
-12z"/>
<path d="M3167 1624 c-14 -14 -6 -24 19 -24 16 0 24 5 22 13 -5 14 -31 21 -41
11z"/>
<path d="M3580 1565 c0 -8 9 -15 20 -15 11 0 20 7 20 15 0 8 -9 15 -20 15 -11
0 -20 -7 -20 -15z"/>
<path d="M4114 1616 c-11 -28 0 -61 21 -61 16 0 20 7 20 35 0 25 -5 36 -18 38
-9 2 -20 -3 -23 -12z"/>
<path d="M4257 1624 c-4 -4 -7 -23 -7 -41 0 -30 3 -34 23 -31 18 2 22 9 22 38
0 33 -20 51 -38 34z"/>
<path d="M4507 1573 c-13 -12 -7 -23 13 -23 11 0 20 7 20 15 0 15 -21 21 -33
8z"/>
<path d="M2127 1315 c-5 -11 0 -15 19 -15 16 0 24 5 22 13 -7 18 -35 20 -41 2z"/>
<path d="M2514 1316 c-11 -28 0 -61 21 -61 16 0 20 7 20 35 0 25 -5 36 -18 38
-9 2 -20 -3 -23 -12z"/>
<path d="M2651 1308 c-11 -29 4 -60 27 -56 24 5 24 71 -1 76 -11 2 -20 -5 -26
-20z"/>
<path d="M3070 1270 c0 -16 5 -21 23 -18 12 2 22 10 22 18 0 8 -10 16 -22 18
-18 3 -23 -2 -23 -18z"/>
<path d="M2920 1015 c-18 -21 -4 -65 20 -65 17 0 20 7 20 40 0 43 -17 53 -40
25z"/>
<path d="M1860 990 c0 -33 3 -41 16 -38 9 2 22 11 28 21 13 20 -2 50 -28 55
-13 3 -16 -5 -16 -38z"/>
<path d="M1997 1024 c-14 -14 -7 -65 9 -71 23 -9 45 23 35 50 -8 23 -31 33
-44 21z"/>
<path d="M2305 969 c-4 -6 -4 -13 -1 -16 8 -8 36 5 36 17 0 13 -27 13 -35 -1z"/>
<path d="M3514 1016 c-11 -28 0 -61 21 -61 16 0 20 7 20 35 0 25 -5 36 -18 38
-9 2 -20 -3 -23 -12z"/>
<path d="M1003 904 c-7 -3 -13 -21 -13 -40 0 -32 2 -34 36 -34 35 0 35 1 32
38 -3 37 -22 50 -55 36z"/>
</g>
</svg>
