<?xml version="1.0" standalone="no"?>
<!DOCTYPE svg PUBLIC "-//W3C//DTD SVG 20010904//EN"
 "http://www.w3.org/TR/2001/REC-SVG-20010904/DTD/svg10.dtd">
<svg version="1.0" xmlns="http://www.w3.org/2000/svg"
 width="512.000000pt" height="139.000000pt" viewBox="0 0 512.000000 139.000000"
 preserveAspectRatio="xMidYMid meet">

<g transform="translate(0.000000,139.000000) scale(0.100000,-0.100000)"
fill="#000000" stroke="none">
<path d="M1851 1097 c-1 -19 -8 -30 -26 -37 -55 -21 -55 -99 -1 -120 14 -5 26
-19 29 -32 4 -21 4 -21 6 -2 0 12 12 26 26 32 55 25 55 101 1 122 -16 6 -26
19 -29 37 l-4 28 -2 -28z m-1 -97 c0 -51 -12 -64 -38 -38 -26 26 -8 88 25 88
9 0 13 -16 13 -50z m56 25 c15 -23 15 -27 0 -50 -28 -42 -46 -32 -46 25 0 57
18 67 46 25z"/>
<path d="M1616 1091 c-10 -11 -20 -37 -23 -58 -4 -32 -1 -44 18 -65 13 -15 35
-30 49 -33 21 -6 19 -3 -10 17 -30 20 -35 30 -38 70 -4 68 40 99 99 68 29 -16
27 -102 -3 -130 -12 -11 -17 -20 -11 -20 7 0 21 12 33 28 18 21 21 36 17 71
-3 27 -12 50 -23 58 -27 20 -88 16 -108 -6z"/>
<path d="M3220 1100 c-23 -7 -23 -8 -3 -9 12 -1 25 4 28 9 3 6 5 10 3 9 -2 -1
-14 -5 -28 -9z"/>
<path d="M3380 1025 c0 -50 4 -85 10 -85 6 0 10 33 10 80 l0 80 45 0 44 0 3
-82 3 -83 5 88 5 87 -62 0 -63 0 0 -85z"/>
<path d="M1180 1051 c0 -6 4 -13 10 -16 6 -3 7 1 4 9 -7 18 -14 21 -14 7z"/>
<path d="M1972 1003 c-1 -35 2 -63 7 -63 5 0 23 24 40 52 32 56 37 54 44 -17
3 -28 4 -22 5 23 2 48 -1 62 -12 62 -8 0 -17 -8 -20 -18 -4 -10 -17 -33 -31
-51 l-24 -33 -4 53 -3 54 -2 -62z"/>
<path d="M2120 1000 l0 -60 50 0 c47 0 50 -2 50 -25 0 -14 5 -25 10 -25 6 0
10 14 10 30 0 17 -4 30 -10 30 -5 0 -10 25 -10 55 0 30 -3 55 -7 55 -5 0 -8
-24 -8 -52 0 -52 0 -53 -32 -56 l-33 -3 0 55 c0 31 -4 56 -10 56 -6 0 -10 -27
-10 -60z"/>
<path d="M2270 1000 c0 -33 4 -60 9 -60 5 0 22 20 38 45 15 24 31 44 36 45 4
0 7 -20 7 -45 0 -25 5 -45 10 -45 6 0 10 27 10 61 0 51 -3 60 -17 57 -9 -2
-26 -21 -38 -43 -30 -53 -41 -54 -37 0 3 28 0 45 -7 45 -7 0 -11 -23 -11 -60z"/>
<path d="M2458 1053 c24 -3 32 -9 32 -24 0 -13 -7 -19 -23 -19 -29 0 -47 -18
-47 -47 0 -13 2 -23 4 -23 2 0 13 -3 23 -7 17 -6 17 -5 -1 15 -23 27 -14 52
19 52 21 0 25 -5 25 -30 0 -16 5 -30 10 -30 11 0 14 78 4 104 -4 11 -18 16
-43 14 l-36 -1 33 -4z"/>
<path d="M2570 1016 c0 -27 -6 -51 -16 -60 -8 -9 -12 -16 -7 -16 20 0 33 27
33 67 0 39 2 43 25 43 23 0 25 -3 25 -49 0 -28 5 -53 10 -56 6 -4 10 17 10 54
l0 61 -40 0 -40 0 0 -44z"/>
<path d="M2698 1000 c4 -68 18 -83 16 -17 -2 66 -3 77 -11 77 -5 0 -6 -27 -5
-60z"/>
<path d="M2830 1000 c0 -60 16 -84 22 -32 2 22 8 28 36 30 30 3 32 1 32 -27 0
-17 5 -31 10 -31 6 0 10 27 10 60 0 33 -4 60 -10 60 -5 0 -10 -11 -10 -25 0
-22 -4 -25 -35 -25 -31 0 -35 3 -35 25 0 14 -4 25 -10 25 -6 0 -10 -27 -10
-60z"/>
<path d="M2980 1000 c0 -41 4 -60 13 -60 8 0 11 14 10 42 -1 24 -2 51 -2 61
-1 9 -5 17 -11 17 -6 0 -10 -27 -10 -60z"/>
<path d="M3108 1013 c5 -76 10 -83 11 -15 0 34 -2 62 -7 62 -4 0 -6 -21 -4
-47z"/>
<path d="M3172 1003 c-1 -36 2 -63 8 -63 5 0 23 23 39 52 32 55 38 53 44 -17
3 -28 4 -22 5 23 2 66 -8 78 -33 37 -8 -14 -23 -37 -32 -52 l-18 -28 -6 55 -6
55 -1 -62z"/>
<path d="M3560 1041 c-23 -44 -6 -93 37 -106 17 -4 29 1 48 19 29 29 31 52 9
84 -20 29 -79 31 -94 3z m85 -15 c17 -26 11 -50 -19 -75 -20 -17 -54 2 -62 33
-14 58 49 91 81 42z"/>
<path d="M3711 965 c1 -60 4 -78 8 -55 7 35 11 37 42 25 28 -11 63 28 63 69 0
45 -15 57 -71 53 l-43 -2 1 -90z m87 73 c13 -13 16 -57 4 -74 -15 -22 -42 -24
-62 -4 -23 23 -24 29 -10 64 10 28 47 35 68 14z"/>
<path d="M3863 1053 c13 -4 17 -15 17 -59 0 -30 5 -54 10 -54 6 0 10 24 10 54
0 49 2 55 23 59 12 2 0 4 -28 4 -27 1 -42 -1 -32 -4z"/>
<path d="M4000 1051 c43 -7 56 -41 16 -41 -24 0 -56 -23 -56 -40 0 -9 28 -40
36 -40 2 0 -1 8 -7 19 -17 26 -4 51 26 51 30 0 35 -33 8 -49 -15 -9 -14 -10 7
-7 19 2 26 9 28 32 2 17 -2 42 -7 57 -9 23 -16 27 -48 26 l-38 -2 35 -6z"/>
<path d="M4110 1012 c0 -26 -5 -53 -12 -60 -9 -9 -9 -12 0 -12 16 0 32 42 32
81 0 24 4 29 25 29 24 0 25 -3 25 -55 0 -30 5 -55 10 -55 6 0 10 27 10 60 l0
60 -45 0 -45 0 0 -48z"/>
<path d="M3038 1008 c26 -13 29 -43 5 -57 -24 -14 -7 -14 18 -1 27 15 24 45
-6 58 -33 15 -48 14 -17 0z"/>
<path d="M2768 998 c19 -19 14 -38 -10 -48 -17 -6 -18 -9 -6 -9 23 -1 50 28
44 46 -3 8 -6 17 -6 19 0 2 -8 4 -17 4 -13 0 -14 -3 -5 -12z"/>
<path d="M1282 830 c-15 -41 -15 -41 3 -33 13 4 15 -2 11 -38 -5 -55 -27 -107
-62 -148 -15 -18 -24 -34 -21 -37 2 -3 15 9 27 25 23 33 50 41 50 15 0 -19
-52 -114 -62 -114 -5 0 -8 -5 -8 -11 0 -5 5 -7 10 -4 14 8 13 -17 -2 -52 -11
-26 -18 -63 -13 -63 1 0 13 17 27 38 32 49 68 146 68 183 0 16 5 29 10 29 6 0
10 28 10 64 0 36 -4 68 -10 71 -5 3 -10 21 -11 38 0 18 -4 41 -8 51 -7 18 -9
16 -19 -14z"/>
<path d="M1600 725 c0 -50 4 -85 10 -85 6 0 10 33 10 79 l0 80 43 4 c40 3 40
4 -10 5 l-53 2 0 -85z"/>
<path d="M3743 803 c47 -5 59 -29 29 -54 l-22 -17 25 -16 c14 -9 25 -23 25
-31 0 -22 -41 -45 -69 -39 l-26 4 24 -10 c26 -11 61 -4 73 14 13 20 8 55 -9
65 -14 7 -15 12 -4 24 7 9 11 26 9 39 -3 20 -9 23 -48 24 -40 1 -41 1 -7 -3z"/>
<path d="M1220 735 c-13 -14 -19 -25 -13 -25 12 0 48 38 41 45 -2 3 -15 -6
-28 -20z"/>
<path d="M1703 748 c-24 -29 -19 -84 10 -102 54 -35 113 22 84 83 -9 20 -21
27 -48 29 -21 2 -40 -2 -46 -10z m76 -12 c18 -21 9 -66 -14 -82 -18 -12 -24
-11 -43 2 -24 17 -30 62 -10 82 16 16 53 15 67 -2z"/>
<path d="M1864 752 c-23 -15 -34 -50 -24 -76 12 -33 55 -55 73 -37 9 10 8 11
-5 6 -20 -8 -58 27 -58 53 0 28 22 50 55 55 l30 4 -30 1 c-16 1 -35 -2 -41 -6z"/>
<path d="M1985 700 c20 -50 22 -65 12 -81 -6 -10 -15 -19 -19 -19 -5 0 -8 -4
-8 -10 0 -21 19 -8 40 28 28 47 62 142 50 142 -4 0 -14 -23 -21 -50 -10 -40
-15 -48 -25 -38 -7 7 -16 28 -21 47 -5 19 -14 36 -20 38 -7 3 -2 -22 12 -57z"/>
<path d="M2116 716 c-4 -24 -14 -50 -21 -56 -8 -7 -15 -27 -14 -44 1 -29 1
-30 8 -6 6 21 13 25 53 28 44 3 47 2 51 -25 2 -15 5 11 6 60 l1 87 -39 0 c-38
0 -39 -1 -45 -44z m64 -16 l0 -50 -36 0 c-30 0 -35 3 -29 18 4 9 9 32 12 50 5
25 10 32 29 32 22 0 24 -4 24 -50z"/>
<path d="M2272 753 c20 -2 39 -11 42 -19 6 -15 1 -18 -45 -28 -45 -10 -49 -59
-6 -70 21 -5 21 -4 4 9 -29 21 -18 49 22 53 31 3 33 2 27 -22 -3 -13 -2 -28 4
-31 6 -4 10 14 10 48 0 60 -8 68 -63 65 -31 -1 -30 -2 5 -5z"/>
<path d="M2382 665 c1 -49 3 -73 5 -53 4 35 6 37 29 28 48 -19 88 25 77 83 -6
30 -27 39 -80 35 l-33 -3 2 -90z m86 73 c13 -13 16 -57 4 -74 -15 -22 -42 -24
-62 -4 -22 22 -25 42 -10 71 12 21 50 25 68 7z"/>
<path d="M2543 748 c-19 -24 -22 -48 -12 -77 12 -33 54 -50 73 -30 8 9 8 10
-2 5 -22 -13 -62 21 -62 53 0 34 14 48 55 54 28 4 28 4 -6 6 -20 0 -41 -5 -46
-11z"/>
<path d="M2665 751 c15 -6 21 -20 26 -62 l6 -54 1 57 c2 50 5 57 25 61 12 2 0
5 -28 5 -34 0 -43 -2 -30 -7z"/>
<path d="M2772 698 c3 -54 6 -63 23 -65 11 -2 14 0 8 3 -8 4 -13 26 -13 60 0
54 1 55 27 52 34 -4 41 -26 13 -36 -21 -8 -21 -8 4 -20 30 -14 33 -27 9 -41
-16 -9 -16 -10 -2 -11 19 0 32 26 22 43 -4 7 -7 25 -8 42 0 28 -3 30 -43 33
l-43 3 3 -63z"/>
<path d="M2922 748 c-13 -13 -16 -76 -4 -94 11 -17 50 -26 68 -16 12 6 8 9
-16 9 -31 0 -50 15 -50 41 0 8 16 12 45 12 25 0 45 2 45 4 0 3 -4 16 -10 30
-7 20 -17 26 -38 26 -15 0 -33 -5 -40 -12z m66 -20 c3 -15 -4 -18 -32 -18 -34
0 -47 15 -29 34 13 13 58 1 61 -16z"/>
<path d="M3040 700 c0 -60 16 -84 22 -32 2 22 8 28 36 30 30 3 32 1 32 -27 0
-17 5 -31 10 -31 6 0 10 27 10 60 0 33 -4 60 -10 60 -5 0 -10 -11 -10 -25 0
-22 -4 -25 -35 -25 -31 0 -35 3 -35 25 0 14 -4 25 -10 25 -6 0 -10 -27 -10
-60z"/>
<path d="M3202 700 c0 -44 2 -55 7 -35 5 25 12 31 39 33 30 3 32 1 32 -27 0
-17 5 -31 10 -31 6 0 10 27 10 60 0 33 -4 60 -10 60 -5 0 -10 -12 -10 -26 0
-22 -3 -25 -32 -22 -25 2 -34 9 -39 28 -4 16 -7 1 -7 -40z"/>
<path d="M3340 700 c0 -41 4 -60 13 -60 8 0 12 15 11 43 -2 68 -3 77 -14 77
-6 0 -10 -27 -10 -60z"/>
<path d="M3473 700 c0 -36 2 -50 4 -32 2 17 2 47 0 65 -2 17 -4 3 -4 -33z"/>
<path d="M3538 737 c27 -29 27 -38 1 -71 -11 -14 -16 -26 -11 -26 5 0 18 12
27 27 l17 26 17 -26 c22 -37 34 -34 13 3 -16 28 -16 32 0 60 21 37 9 40 -13 3
l-17 -26 -17 26 c-9 15 -22 27 -28 27 -6 0 -1 -10 11 -23z"/>
<path d="M3888 753 c39 -5 46 -39 10 -46 -19 -4 -18 -5 6 -6 21 -1 27 -5 22
-17 -3 -9 -6 -19 -6 -24 0 -12 -36 -19 -50 -10 -7 4 -10 17 -7 29 3 12 1 19
-4 15 -5 -3 -9 -16 -9 -30 0 -22 14 -30 45 -24 5 1 18 2 28 3 15 1 17 9 15 57
l-3 55 -40 1 c-32 1 -34 1 -7 -3z"/>
<path d="M3980 700 c0 -62 14 -82 22 -30 6 39 -2 90 -13 90 -5 0 -9 -27 -9
-60z"/>
<path d="M4042 737 c-12 -13 -22 -26 -22 -29 0 -3 14 -20 30 -38 17 -18 30
-27 30 -21 0 7 -11 23 -25 37 l-25 25 26 24 c15 14 23 25 17 25 -5 0 -19 -10
-31 -23z"/>
<path d="M4116 738 c3 -13 13 -35 20 -50 18 -36 18 -63 -2 -83 -9 -9 -14 -18
-11 -21 8 -9 55 59 63 91 4 17 13 42 21 58 7 15 10 27 6 27 -8 0 -26 -36 -38
-78 -9 -31 -20 -21 -35 33 -7 25 -17 45 -22 45 -5 0 -6 -10 -2 -22z"/>
<path d="M4250 700 c0 -33 4 -60 10 -60 6 0 10 25 10 56 l0 55 33 -3 c31 -3
32 -5 38 -58 l6 -55 1 63 2 62 -50 0 -50 0 0 -60z"/>
<path d="M4406 738 c-39 -55 -5 -106 65 -100 36 4 48 93 15 114 -23 16 -65 8
-80 -14z m84 -13 c11 -21 11 -29 0 -49 -23 -44 -64 -43 -81 0 -14 38 5 74 39
74 20 0 33 -7 42 -25z"/>
<path d="M4550 700 c0 -33 4 -60 10 -60 6 0 10 27 10 60 0 33 -4 60 -10 60 -6
0 -10 -27 -10 -60z"/>
<path d="M4602 730 c-26 -35 -27 -40 -7 -40 9 0 20 -12 26 -27 7 -17 13 -23
16 -15 3 7 -5 24 -18 38 l-22 24 23 25 c13 14 19 25 14 25 -6 0 -20 -13 -32
-30z"/>
<path d="M3398 708 c27 -14 31 -58 5 -59 -12 0 -13 -2 -5 -6 17 -7 42 15 42
38 0 12 -11 23 -26 29 -34 13 -45 12 -16 -2z"/>
<path d="M3843 513 c-12 -2 -27 -11 -33 -19 -10 -11 -5 -11 26 2 57 24 58 27
7 17z"/>
<path d="M1602 423 c1 -49 3 -71 5 -50 2 21 10 40 18 43 23 9 53 -14 60 -46 4
-16 11 -30 17 -30 6 0 7 7 4 16 -3 9 -6 20 -6 25 0 6 -12 21 -27 35 l-26 24
33 35 c19 19 29 35 23 35 -6 0 -23 -16 -37 -35 -15 -19 -34 -35 -43 -35 -12 0
-14 8 -11 35 2 19 0 35 -4 35 -4 0 -7 -39 -6 -87z"/>
<path d="M2926 499 c6 -11 41 -12 47 -1 3 4 -8 7 -24 8 -15 1 -26 -3 -23 -7z"/>
<path d="M3121 423 c1 -58 4 -76 8 -53 5 28 11 36 31 38 81 12 76 102 -6 102
l-34 0 1 -87z m73 62 c26 -27 2 -65 -41 -65 -20 0 -23 5 -23 40 0 36 3 40 24
40 14 0 31 -7 40 -15z"/>
<path d="M3793 458 c3 -9 1 -19 -6 -21 -16 -5 12 -89 33 -95 11 -4 11 0 -3 16
-22 24 -19 70 6 86 46 29 80 -61 35 -96 l-23 -18 24 8 c33 12 46 53 29 89 -11
23 -20 28 -48 27 -19 0 -39 5 -43 10 -6 7 -7 4 -4 -6z"/>
<path d="M1750 400 c0 -51 3 -60 18 -59 10 0 12 3 5 6 -22 8 -15 53 9 62 l22
8 -24 6 c-15 4 -21 11 -17 21 4 9 2 16 -3 16 -6 0 -10 -27 -10 -60z"/>
<path d="M1870 400 c0 -33 4 -60 10 -60 6 0 10 27 10 60 0 33 -4 60 -10 60 -6
0 -10 -27 -10 -60z"/>
<path d="M1930 371 c0 -54 4 -91 10 -91 6 0 10 16 10 35 0 28 3 33 18 29 15
-5 15 -4 -1 6 -14 9 -18 22 -16 58 2 29 -1 47 -9 50 -9 3 -12 -20 -12 -87z"/>
<path d="M1995 452 c26 -6 30 -12 33 -46 3 -32 -1 -43 -20 -58 l-23 -18 25 8
c31 11 47 52 34 90 -8 22 -16 27 -44 29 -34 1 -34 1 -5 -5z"/>
<path d="M2092 398 l2 -63 3 57 c4 56 5 57 36 61 31 4 31 4 -5 5 l-38 2 2 -62z"/>
<path d="M2190 400 c0 -41 4 -60 13 -60 11 0 12 13 8 98 0 12 -5 22 -11 22 -6
0 -10 -27 -10 -60z"/>
<path d="M2323 400 c0 -36 2 -50 4 -32 2 17 2 47 0 65 -2 17 -4 3 -4 -33z"/>
<path d="M2405 451 c17 -3 29 -10 28 -14 -2 -4 -3 -11 -3 -17 0 -5 -7 -10 -16
-10 -12 0 -11 -5 7 -20 24 -20 24 -20 5 -35 -11 -8 -29 -13 -40 -10 -16 5 -18
4 -6 -4 8 -5 27 -7 43 -4 20 4 27 11 27 29 0 12 -5 26 -10 29 -8 5 -7 11 1 21
19 23 3 44 -33 43 l-33 -1 30 -7z"/>
<path d="M2508 449 c-12 -7 -18 -22 -18 -49 0 -31 5 -43 25 -56 21 -13 30 -14
48 -5 l22 11 -22 -5 c-14 -4 -29 1 -42 14 -38 38 -20 86 34 94 l30 4 -30 1
c-16 1 -38 -3 -47 -9z"/>
<path d="M2623 400 c0 -36 2 -53 4 -37 3 18 10 27 23 27 10 0 28 -12 39 -27
11 -16 21 -23 21 -17 0 6 -10 23 -21 38 l-21 27 23 25 c12 13 17 24 11 24 -6
0 -19 -11 -28 -25 -21 -33 -42 -32 -47 3 -2 15 -4 -2 -4 -38z"/>
<path d="M2757 442 c-45 -49 6 -126 68 -102 29 11 43 66 26 99 -15 27 -71 29
-94 3z m77 -8 c12 -33 6 -73 -13 -84 -41 -22 -80 26 -61 75 7 19 17 25 39 25
17 0 31 -6 35 -16z"/>
<path d="M2902 403 c-2 -79 12 -82 53 -10 l30 52 6 -55 6 -55 1 63 c1 34 -2
62 -7 62 -8 0 -47 -56 -62 -90 -6 -13 -7 -13 -13 0 -3 8 -7 33 -9 55 -3 28 -4
22 -5 -22z"/>
<path d="M3263 448 c-19 -24 -22 -48 -12 -78 6 -16 15 -30 19 -30 5 0 17 -3
27 -6 15 -5 15 -3 -2 7 -51 32 -47 59 10 59 46 0 53 7 35 41 -12 22 -62 26
-77 7z m65 -20 c3 -15 -4 -18 -32 -18 -34 0 -47 15 -29 34 13 13 58 1 61 -16z"/>
<path d="M3397 442 c-20 -22 -22 -75 -4 -90 6 -5 23 -13 37 -16 25 -7 25 -7
-2 9 -53 30 -44 101 14 108 l33 4 -31 1 c-19 1 -37 -5 -47 -16z"/>
<path d="M3510 400 c0 -33 4 -60 10 -60 6 0 10 25 10 55 l0 55 35 0 35 0 0
-55 c0 -30 3 -55 8 -55 4 0 7 27 7 60 l0 60 -52 0 -53 0 0 -60z"/>
<path d="M3671 403 c23 -68 23 -77 3 -98 -9 -9 -14 -18 -11 -21 14 -15 87 126
87 168 0 22 -18 -5 -24 -36 -7 -35 -36 -72 -36 -45 0 27 -21 89 -30 89 -5 0 0
-25 11 -57z"/>
<path d="M3950 418 c0 -25 -7 -49 -17 -60 -18 -20 -15 -31 6 -19 8 5 16 32 19
60 4 48 6 51 33 51 27 0 28 -2 32 -57 l3 -58 2 63 2 62 -40 0 -40 0 0 -42z"/>
<path d="M4070 400 c0 -48 3 -60 16 -60 11 0 14 5 10 16 -3 9 -6 36 -6 60 0
24 -4 44 -10 44 -6 0 -10 -27 -10 -60z"/>
<path d="M4149 443 c-12 -15 -12 -16 3 -10 14 5 18 -2 21 -46 l3 -52 2 63 c2
64 -5 75 -29 45z"/>
<path d="M4233 400 c0 -36 2 -53 4 -37 7 41 59 31 76 -15 2 -7 7 -10 11 -7 4
4 -5 21 -20 38 l-27 32 23 24 c13 14 19 25 12 25 -6 0 -19 -11 -30 -25 -26
-32 -40 -32 -45 3 -2 15 -4 -2 -4 -38z"/>
<path d="M4362 403 c-2 -50 1 -63 13 -63 8 0 15 4 15 9 0 14 44 80 53 81 4 0
7 -20 7 -45 0 -25 5 -45 11 -45 6 0 9 23 8 60 -3 73 -17 77 -53 15 -15 -25
-31 -45 -36 -45 -5 0 -11 21 -13 48 -3 42 -4 41 -5 -15z"/>
<path d="M2248 408 c27 -14 31 -58 5 -59 -12 0 -13 -2 -5 -6 17 -7 42 15 42
38 0 12 -11 23 -26 29 -34 13 -45 12 -16 -2z"/>
<path d="M4121 402 c-17 -31 -13 -40 5 -14 9 13 14 26 11 29 -3 2 -10 -4 -16
-15z"/>
<path d="M1818 398 c19 -19 14 -38 -10 -48 l-23 -9 22 0 c28 -1 45 28 32 52
-6 9 -15 17 -21 17 -9 0 -9 -3 0 -12z"/>
</g>
</svg>
