<?xml version="1.0" standalone="no"?>
<!DOCTYPE svg PUBLIC "-//W3C//DTD SVG 20010904//EN"
 "http://www.w3.org/TR/2001/REC-SVG-20010904/DTD/svg10.dtd">
<svg version="1.0" xmlns="http://www.w3.org/2000/svg"
 width="483.000000pt" height="483.000000pt" viewBox="0 0 483.000000 483.000000"
 preserveAspectRatio="xMidYMid meet">

<g transform="translate(0.000000,483.000000) scale(0.100000,-0.100000)"
fill="#000000" stroke="none">
<path d="M2242 4819 c-468 -35 -899 -197 -1277 -478 -128 -96 -380 -348 -476
-476 -402 -541 -560 -1196 -448 -1863 61 -368 216 -725 448 -1037 96 -128 348
-380 476 -476 312 -232 669 -387 1037 -448 667 -112 1322 46 1863 448 128 96
380 348 476 476 402 541 560 1196 448 1863 -117 701 -557 1324 -1189 1685
-199 114 -445 209 -663 256 -211 46 -491 66 -695 50z m475 -34 c442 -58 862
-238 1208 -518 112 -90 308 -294 392 -407 258 -345 413 -723 468 -1143 20
-154 20 -450 0 -604 -58 -442 -238 -862 -518 -1208 -90 -112 -294 -308 -407
-392 -344 -258 -724 -413 -1143 -468 -154 -20 -450 -20 -604 0 -442 58 -862
238 -1208 518 -112 90 -308 294 -392 407 -258 345 -413 723 -468 1143 -20 154
-20 450 0 604 55 420 210 798 468 1143 84 113 280 317 392 407 341 276 762
458 1195 517 145 19 469 20 617 1z"/>
<path d="M2322 4668 c5 -24 8 -60 6 -80 -3 -33 -1 -38 17 -37 11 0 14 3 8 6
-7 2 -13 20 -13 38 0 33 2 34 43 38 l42 4 -42 1 c-40 2 -43 4 -43 31 0 16 6
32 13 34 6 3 0 6 -14 6 -26 1 -27 0 -17 -41z"/>
<path d="M2417 4702 c7 -4 13 -36 14 -75 1 -37 6 -67 10 -67 4 0 9 34 11 75 3
74 3 75 -22 75 -15 0 -20 -3 -13 -8z"/>
<path d="M2242 4634 c4 -37 5 -71 2 -75 -3 -5 5 -9 18 -8 13 0 17 3 11 6 -7 2
-13 19 -13 36 0 46 -11 107 -20 107 -3 0 -3 -30 2 -66z"/>
<path d="M2605 4653 c0 -27 -3 -61 -5 -78 -4 -23 -1 -30 14 -33 13 -3 16 0 10
10 -9 14 -9 16 1 90 4 32 11 48 23 51 9 3 4 5 -13 6 -29 1 -30 0 -30 -46z"/>
<path d="M2015 4681 c-24 -5 -26 -8 -12 -13 20 -8 23 -54 5 -61 -8 -3 -6 -6 5
-6 10 -1 17 -9 17 -20 0 -25 10 -51 19 -51 4 0 1 30 -6 66 -10 50 -11 70 -2
80 6 8 10 13 8 13 -2 -1 -17 -4 -34 -8z"/>
<path d="M2112 4624 c4 -37 5 -71 2 -75 -3 -5 5 -9 18 -8 13 0 17 3 11 6 -7 2
-13 22 -13 43 0 47 -10 100 -19 100 -4 0 -4 -30 1 -66z"/>
<path d="M2698 4683 c24 -5 25 -11 16 -90 -5 -36 -12 -53 -23 -56 -9 -3 -3 -5
12 -6 16 0 26 3 23 8 -3 5 -2 38 3 73 9 67 4 79 -34 76 -17 -1 -17 -1 3 -5z"/>
<path d="M2798 4667 c15 -19 -7 -135 -27 -140 -10 -3 -8 -5 7 -6 15 -1 22 5
22 18 0 11 7 26 15 34 8 9 10 17 5 19 -6 2 -8 17 -4 36 5 26 11 32 27 30 30
-5 45 -33 29 -58 -7 -11 -8 -20 -2 -20 5 0 14 9 20 20 15 27 -3 58 -38 65 -63
14 -63 14 -54 2z"/>
<path d="M1897 4652 c6 -4 17 -38 23 -75 13 -71 32 -95 23 -28 -5 35 -3 40 18
44 22 4 22 4 -3 6 -27 1 -32 10 -31 49 1 6 -9 12 -21 12 -13 0 -17 -3 -9 -8z"/>
<path d="M1820 4627 c0 -7 7 -37 16 -66 8 -29 13 -60 10 -68 -5 -11 -2 -13 10
-9 8 3 17 6 19 6 2 0 -3 12 -11 28 -7 15 -17 48 -20 75 -4 26 -10 47 -15 47
-5 0 -9 -6 -9 -13z"/>
<path d="M2952 4634 c10 -9 -23 -119 -40 -131 -14 -12 -14 -13 0 -13 9 0 25
-3 35 -6 13 -4 14 -3 5 4 -17 12 -6 59 17 72 9 5 11 10 4 10 -8 0 -10 12 -6
35 4 25 2 35 -7 35 -7 0 -11 -3 -8 -6z"/>
<path d="M2155 4623 c28 -7 44 -30 37 -55 -3 -14 -1 -19 6 -14 31 19 -1 77
-41 75 -20 -1 -21 -2 -2 -6z"/>
<path d="M3000 4623 c8 -3 23 -12 33 -21 10 -9 17 -11 17 -4 0 13 -32 32 -52
31 -9 0 -8 -2 2 -6z"/>
<path d="M1692 4603 c-20 -4 -21 -7 -9 -16 22 -18 48 -122 33 -137 -9 -10 -6
-10 10 -2 12 6 25 8 29 4 4 -4 0 7 -8 23 -23 45 -40 111 -33 124 4 6 6 10 4
10 -2 -1 -13 -4 -26 -6z"/>
<path d="M3085 4590 c-3 -5 -1 -10 4 -10 6 0 11 5 11 10 0 6 -2 10 -4 10 -3 0
-8 -4 -11 -10z"/>
<path d="M1581 4566 c11 -9 69 -15 64 -6 -3 6 -20 10 -37 10 -17 0 -29 -2 -27
-4z"/>
<path d="M3162 4565 c11 -11 -10 -45 -28 -45 -14 0 -14 -2 0 -16 28 -28 16
-56 -29 -67 -16 -4 -15 -5 6 -6 35 -1 52 21 44 57 -4 22 -2 31 9 35 19 8 21
33 4 43 -7 4 -10 4 -6 -1z"/>
<path d="M1544 4529 c-29 -56 8 -120 69 -118 l32 1 -31 7 c-17 4 -36 11 -42
15 -17 10 -26 75 -13 102 16 35 4 30 -15 -7z"/>
<path d="M2998 4553 c7 -3 16 -2 19 1 4 3 -2 6 -13 5 -11 0 -14 -3 -6 -6z"/>
<path d="M1767 4540 c30 -12 40 -50 17 -67 -10 -7 -13 -13 -8 -13 17 0 34 23
34 47 0 22 -26 44 -52 42 -7 0 -3 -4 9 -9z"/>
<path d="M3222 4470 c-17 -39 -27 -72 -21 -75 5 -4 9 1 9 9 0 9 5 16 10 16 6
0 10 6 10 14 0 8 9 35 20 60 10 25 16 46 11 46 -4 0 -22 -31 -39 -70z"/>
<path d="M3340 4495 c10 -11 5 -17 -22 -30 -18 -8 -23 -12 -10 -9 26 6 26 6 6
-46 -9 -23 -23 -40 -33 -41 -12 0 -11 -2 4 -8 17 -7 24 0 49 55 15 35 35 64
43 66 8 2 1 8 -17 15 -27 10 -30 10 -20 -2z"/>
<path d="M1413 4457 c-1 -22 1 -27 6 -14 6 16 13 12 53 -31 25 -27 51 -47 56
-43 6 3 -18 32 -53 63 l-62 57 0 -32z"/>
<path d="M2990 4480 c-23 -7 -23 -8 -3 -9 12 -1 25 4 28 9 3 6 5 10 3 9 -2 -1
-14 -5 -28 -9z"/>
<path d="M3040 4475 c0 -8 4 -15 10 -15 5 0 7 7 4 15 -4 8 -8 15 -10 15 -2 0
-4 -7 -4 -15z"/>
<path d="M1662 4442 c-11 -25 -11 -25 4 -10 9 9 15 21 13 27 -2 6 -10 -2 -17
-17z"/>
<path d="M3250 4440 c-8 -5 -10 -10 -5 -10 6 0 17 5 25 10 8 5 11 10 5 10 -5
0 -17 -5 -25 -10z"/>
<path d="M2115 4420 c-501 -77 -936 -323 -1261 -711 -66 -78 -69 -83 -133
-180 -194 -294 -311 -645 -327 -984 l-6 -120 1006 1005 c553 553 1006 1006
1006 1007 0 10 -185 -2 -285 -17z"/>
<path d="M3430 3435 l1005 -1005 3 62 c4 86 -24 289 -59 425 -182 712 -728
1263 -1442 1458 -119 32 -338 65 -437 65 l-75 0 1005 -1005z"/>
<path d="M3495 4420 c3 -5 -8 -36 -25 -70 -23 -46 -28 -65 -21 -79 6 -10 7
-22 3 -26 -4 -5 -1 -5 6 -1 7 4 10 17 6 30 -4 15 4 42 23 77 15 30 29 57 31
60 2 4 -4 9 -13 13 -9 3 -13 2 -10 -4z"/>
<path d="M1278 4413 c7 -3 16 -2 19 1 4 3 -2 6 -13 5 -11 0 -14 -3 -6 -6z"/>
<path d="M1438 4403 c-13 -3 -18 -15 -18 -44 0 -22 4 -38 9 -35 4 3 6 17 3 31
-3 18 1 30 14 40 20 15 20 15 -8 8z"/>
<path d="M1204 4376 c-18 -13 -18 -14 -1 -13 13 1 28 -16 51 -60 23 -44 36
-59 45 -53 7 4 9 9 4 11 -5 2 -25 32 -44 66 -33 59 -37 62 -55 49z"/>
<path d="M1281 4374 c0 -11 3 -14 6 -6 3 7 2 16 -1 19 -3 4 -6 -2 -5 -13z"/>
<path d="M3546 4307 c-21 -34 -38 -64 -38 -66 0 -10 82 -52 82 -43 0 5 -11 13
-25 16 -14 4 -28 13 -32 21 -7 20 25 68 39 59 7 -4 8 -3 4 5 -4 6 -1 23 8 36
18 27 20 35 9 35 -5 0 -25 -28 -47 -63z"/>
<path d="M1276 4342 c-4 -3 13 -13 36 -22 24 -9 42 -21 41 -27 -2 -7 9 -5 27
4 34 16 39 23 12 16 -10 -2 -38 5 -64 16 -25 11 -49 17 -52 13z"/>
<path d="M1136 4331 c-4 -5 -2 -12 3 -15 5 -3 7 -16 4 -29 -3 -15 -2 -18 4 -9
7 10 17 3 37 -27 15 -22 25 -45 21 -51 -6 -9 -2 -9 15 0 18 10 20 13 7 23 -8
7 -30 36 -50 65 -19 30 -38 49 -41 43z"/>
<path d="M3355 4333 c-11 -3 -24 -10 -30 -15 -7 -7 -3 -8 12 -4 13 4 36 0 55
-9 29 -14 30 -14 14 0 -11 8 -24 15 -29 15 -4 0 -5 5 -2 10 3 6 5 9 3 9 -2 -1
-12 -3 -23 -6z"/>
<path d="M3647 4319 c4 -13 8 -18 11 -10 2 7 -1 18 -6 23 -8 8 -9 4 -5 -13z"/>
<path d="M3597 4273 c3 -7 6 -13 8 -13 2 0 5 6 8 13 3 8 -1 14 -8 14 -7 0 -11
-6 -8 -14z"/>
<path d="M3710 4282 c0 -18 -73 -102 -89 -102 -13 -1 -13 -3 3 -15 17 -13 20
-12 35 16 9 17 21 30 26 29 4 -1 14 13 22 30 9 22 18 30 28 26 22 -8 18 1 -5
14 -11 6 -20 7 -20 2z"/>
<path d="M1050 4265 c-7 -8 -9 -15 -4 -15 5 0 25 -25 44 -55 36 -56 44 -62 55
-45 3 6 1 10 -4 10 -6 0 -11 7 -11 15 0 8 -4 15 -8 15 -12 0 -55 61 -55 77 0
16 -2 16 -17 -2z"/>
<path d="M1132 4225 c0 -16 2 -22 5 -12 2 9 2 23 0 30 -3 6 -5 -1 -5 -18z"/>
<path d="M959 4200 c-22 -19 -22 -20 -2 -8 12 7 24 10 26 8 2 -3 22 -28 44
-57 37 -48 42 -51 59 -37 15 11 16 13 2 8 -11 -4 -28 11 -58 50 -23 31 -44 56
-45 56 -2 0 -13 -9 -26 -20z"/>
<path d="M3785 4194 c-9 -14 -21 -22 -27 -18 -7 4 -8 3 -4 -5 4 -6 -5 -24 -22
-41 -17 -17 -25 -31 -18 -33 6 -3 29 19 51 49 22 29 47 54 55 56 12 3 12 5 -2
10 -11 5 -22 -1 -33 -18z"/>
<path d="M3840 4170 c-12 -8 -11 -10 8 -10 12 0 22 5 22 10 0 13 -11 13 -30 0z"/>
<path d="M905 4160 c-3 -6 1 -7 9 -4 18 7 21 14 7 14 -6 0 -13 -4 -16 -10z"/>
<path d="M930 4146 c0 -2 8 -10 18 -17 15 -13 16 -12 3 4 -13 16 -21 21 -21
13z"/>
<path d="M3850 4086 c-25 -29 -49 -51 -55 -48 -5 3 -1 -4 9 -16 22 -25 28 -28
21 -9 -6 14 73 113 87 109 5 -1 7 2 3 8 -10 16 -18 11 -65 -44z"/>
<path d="M845 4100 c-3 -5 1 -10 10 -10 9 0 13 5 10 10 -3 6 -8 10 -10 10 -2
0 -7 -4 -10 -10z"/>
<path d="M3936 4084 c-5 -14 -4 -15 9 -4 17 14 19 20 6 20 -5 0 -12 -7 -15
-16z"/>
<path d="M990 4048 c0 -9 -6 -19 -12 -21 -10 -4 -10 -6 0 -6 14 -1 28 26 18
36 -3 4 -6 -1 -6 -9z"/>
<path d="M773 4033 c-10 -8 -12 -11 -5 -8 9 5 33 -11 65 -43 40 -39 56 -49 67
-42 13 9 13 10 0 10 -9 0 -37 22 -62 49 -43 45 -48 48 -65 34z"/>
<path d="M900 4046 c0 -3 11 -17 25 -32 18 -19 25 -23 25 -11 0 17 -26 47 -41
47 -5 0 -9 -2 -9 -4z"/>
<path d="M3932 3998 c-50 -48 -52 -52 -36 -67 10 -10 14 -11 9 -2 -4 7 -3 16
2 20 20 13 95 101 87 101 -5 0 -33 -23 -62 -52z"/>
<path d="M725 3980 c-3 -5 -1 -10 4 -10 6 0 11 5 11 10 0 6 -2 10 -4 10 -3 0
-8 -4 -11 -10z"/>
<path d="M4015 3929 c-30 -31 -55 -47 -64 -44 -10 4 -9 0 4 -15 18 -20 19 -20
28 -3 5 10 30 36 55 59 25 22 41 43 36 46 -5 3 -31 -16 -59 -43z"/>
<path d="M753 3928 c4 -10 10 -24 13 -32 4 -12 -2 -13 -37 -5 -24 6 -48 14
-55 20 -8 6 -13 5 -17 -4 -4 -10 13 -18 63 -29 l69 -14 -15 35 c-15 36 -33 60
-21 29z"/>
<path d="M4120 3910 c0 -8 -25 -33 -54 -54 -46 -33 -53 -42 -45 -58 11 -21 21
-24 13 -4 -6 15 43 59 57 50 5 -3 8 -1 7 4 -2 5 7 18 19 28 17 14 20 23 13 34
-9 13 -10 13 -10 0z"/>
<path d="M594 3828 c-12 -14 -13 -18 -3 -10 14 10 24 6 68 -29 28 -22 51 -46
51 -52 0 -8 4 -7 9 2 7 10 -5 25 -42 54 -29 22 -55 44 -58 49 -3 5 -14 -2 -25
-14z"/>
<path d="M4182 3810 c-7 -11 -16 -20 -21 -20 -6 0 -24 -13 -42 -30 -27 -24
-35 -27 -48 -17 -9 7 -7 1 4 -15 14 -18 22 -22 25 -13 5 13 70 68 100 85 10 6
12 12 5 19 -7 7 -14 4 -23 -9z"/>
<path d="M766 3811 c-12 -5 -15 -10 -9 -14 6 -4 16 0 23 8 14 17 13 17 -14 6z"/>
<path d="M537 3756 c-2 -6 20 -28 50 -50 29 -22 53 -46 53 -55 0 -11 3 -10 14
4 13 18 11 21 -14 33 -15 7 -44 28 -63 46 -20 18 -38 28 -40 22z"/>
<path d="M4240 3758 c0 -16 -90 -88 -110 -88 -5 0 5 -20 22 -45 17 -24 35 -42
39 -39 4 2 -3 15 -17 29 -13 13 -24 28 -24 33 0 17 39 44 55 38 9 -3 14 -2 10
3 -3 5 6 19 21 30 20 16 23 24 15 38 -9 16 -10 16 -11 1z"/>
<path d="M486 3681 c-4 -5 3 -7 14 -4 23 6 26 13 6 13 -8 0 -17 -4 -20 -9z"/>
<path d="M4290 3680 c0 -5 5 -10 11 -10 5 0 7 5 4 10 -3 6 -8 10 -11 10 -2 0
-4 -4 -4 -10z"/>
<path d="M2280 3674 c-570 -73 -1008 -489 -1105 -1048 -19 -113 -19 -295 0
-416 62 -381 330 -747 664 -908 62 -30 88 -36 156 -40 68 -4 89 -1 133 18 105
45 172 160 159 272 -12 98 -93 199 -173 214 -78 14 -156 -48 -158 -127 -2
-107 150 -123 173 -19 l8 35 12 -30 c31 -76 -13 -170 -94 -201 -39 -15 -54
-15 -96 -6 -116 27 -193 123 -191 238 0 61 17 109 50 147 14 16 12 17 -39 17
-126 1 -286 58 -374 134 l-40 35 153 -6 c95 -4 214 -1 313 7 238 20 332 -5
451 -117 l61 -58 -6 47 c-10 75 -48 137 -133 218 l-79 75 98 3 97 3 0 32 c1
67 64 302 90 330 17 19 82 -190 96 -306 l7 -57 88 0 c66 0 89 -3 89 -13 0 -7
-32 -41 -70 -76 -77 -69 -113 -127 -128 -210 l-9 -52 55 56 c30 31 82 68 116
85 98 48 160 55 345 40 99 -8 218 -11 313 -7 l153 6 -40 -34 c-90 -77 -248
-134 -373 -135 l-52 0 27 -41 c20 -31 28 -57 31 -104 5 -78 -10 -126 -56 -177
-123 -137 -317 -98 -330 66 -2 33 1 57 10 69 13 17 14 16 16 -10 3 -38 44 -73
88 -73 105 0 114 155 11 203 -46 22 -72 21 -125 -4 -84 -41 -140 -150 -129
-253 14 -141 124 -236 272 -236 96 0 182 33 304 114 269 179 454 448 529 770
33 143 37 381 8 515 -92 428 -366 763 -758 925 -146 60 -272 86 -438 91 -80 2
-161 1 -180 -1z m292 -30 c96 -29 170 -74 243 -148 115 -116 165 -237 165
-397 0 -157 -52 -281 -164 -394 -117 -117 -234 -165 -401 -165 -105 0 -170 16
-266 66 -214 112 -335 368 -285 604 50 237 241 417 481 454 49 7 170 -4 227
-20z"/>
<path d="M2314 3576 c-34 -8 -76 -22 -94 -31 l-33 -17 117 -116 116 -117 115
115 c63 63 111 118 107 122 -4 4 -34 17 -67 28 -79 27 -184 33 -261 16z"/>
<path d="M2122 3487 c-17 -12 -32 -24 -32 -27 0 -3 54 -59 120 -125 l120 -120
27 27 26 27 -80 88 c-45 48 -96 103 -115 120 l-34 33 -32 -23z"/>
<path d="M2564 3389 l-119 -119 27 -27 27 -26 125 117 c69 65 123 122 121 127
-3 4 -18 17 -34 28 l-27 20 -120 -120z"/>
<path d="M2033 3397 l-23 -32 117 -117 118 -118 30 30 30 30 -120 120 c-66 66
-122 120 -125 120 -3 0 -15 -15 -27 -33z"/>
<path d="M2652 3308 l-122 -123 27 -27 27 -27 115 112 c64 61 117 117 119 123
2 6 -7 24 -20 38 l-23 27 -123 -123z"/>
<path d="M1969 3285 c-49 -110 -48 -262 2 -374 l20 -45 117 117 117 117 -117
117 -117 117 -22 -49z"/>
<path d="M2726 3214 l-110 -115 115 -115 114 -115 25 53 c23 48 25 65 25 178
0 110 -3 131 -24 178 -13 28 -26 51 -30 51 -3 -1 -55 -53 -115 -115z"/>
<path d="M2387 3212 l-27 -28 28 -27 28 -27 27 28 27 28 -28 27 -28 27 -27
-28z"/>
<path d="M2300 3125 l-24 -26 27 -26 27 -27 30 29 30 29 -22 23 c-27 29 -39
29 -68 -2z"/>
<path d="M2470 3125 l-24 -26 27 -27 27 -27 27 27 27 27 -24 26 c-13 14 -26
25 -30 25 -4 0 -17 -11 -30 -25z"/>
<path d="M2126 2951 l-118 -118 29 -33 29 -32 118 126 119 127 -23 24 c-13 14
-26 25 -29 25 -4 0 -60 -53 -125 -119z"/>
<path d="M2392 3047 c-28 -29 -28 -38 1 -65 l23 -22 29 30 29 30 -24 25 c-29
31 -31 31 -58 2z"/>
<path d="M2557 3042 l-27 -28 124 -123 123 -123 22 30 c11 17 21 34 21 39 0 8
-52 60 -185 186 l-51 47 -27 -28z"/>
<path d="M2211 2866 l-123 -123 33 -27 c17 -15 35 -23 39 -19 3 4 57 60 118
124 l112 115 -28 27 -28 27 -123 -124z"/>
<path d="M2475 2960 l-29 -31 119 -119 120 -119 33 27 32 27 -123 123 -123
122 -29 -30z"/>
<path d="M2302 2789 c-61 -61 -110 -115 -107 -119 8 -13 99 -41 165 -50 74
-10 174 3 242 32 l50 21 -114 114 c-62 62 -115 113 -118 113 -3 0 -56 -50
-118 -111z"/>
<path d="M606 3617 c3 -10 9 -15 12 -12 3 3 0 11 -7 18 -10 9 -11 8 -5 -6z"/>
<path d="M461 3604 c-2 -37 30 -66 73 -66 21 0 42 4 48 10 6 6 0 8 -16 5 -38
-8 -83 15 -95 46 -8 23 -10 23 -10 5z"/>
<path d="M397 3536 c-4 -10 1 -12 14 -9 23 6 24 9 5 16 -8 3 -17 0 -19 -7z"/>
<path d="M4321 3512 c-51 -28 -65 -32 -72 -21 -15 23 -9 -4 6 -31 10 -18 14
-20 15 -8 0 21 96 71 123 64 16 -4 16 -2 5 12 -7 9 -12 17 -13 18 0 0 -29 -15
-64 -34z"/>
<path d="M367 3476 c-3 -8 16 -23 55 -42 33 -15 63 -35 67 -42 6 -11 9 -10 13
5 4 16 -2 23 -28 32 -19 7 -34 17 -34 22 0 5 -3 8 -7 8 -18 -3 -33 2 -46 16
-12 12 -16 12 -20 1z"/>
<path d="M523 3462 c-1 -22 0 -24 9 -8 6 10 6 22 2 26 -5 5 -10 -3 -11 -18z"/>
<path d="M4322 3444 c-12 -25 -26 -42 -31 -39 -5 3 -3 -8 5 -25 9 -16 18 -30
20 -30 3 0 2 5 -1 11 -4 5 3 35 15 65 28 67 22 80 -8 18z"/>
<path d="M4401 3467 c2 -1 12 -9 22 -16 15 -12 17 -12 11 3 -3 9 -13 16 -22
16 -8 0 -13 -1 -11 -3z"/>
<path d="M345 3400 c-3 -5 2 -10 12 -10 11 0 24 -5 31 -12 7 -7 12 -8 12 -2 0
26 -42 44 -55 24z"/>
<path d="M299 3327 c-9 -17 -9 -19 1 -11 15 15 130 -34 131 -56 0 -10 3 -9 8
5 6 16 1 22 -33 38 -23 10 -53 24 -68 32 -26 13 -29 12 -39 -8z"/>
<path d="M4442 3339 c9 -6 8 -13 -6 -28 -10 -11 -23 -18 -27 -15 -5 3 -9 -1
-9 -8 0 -23 -22 -39 -36 -27 -10 8 -10 4 -1 -21 6 -17 13 -25 16 -18 2 7 28
38 58 69 l54 56 -31 0 c-19 0 -26 -3 -18 -8z"/>
<path d="M4333 3333 c9 -2 23 -2 30 0 6 3 -1 5 -18 5 -16 0 -22 -2 -12 -5z"/>
<path d="M4386 3325 c4 -8 8 -15 10 -15 2 0 4 7 4 15 0 8 -4 15 -10 15 -5 0
-7 -7 -4 -15z"/>
<path d="M4463 3202 c-69 -23 -88 -42 -61 -58 7 -4 8 -3 4 4 -4 7 3 17 19 24
22 10 28 9 36 -3 7 -12 9 -11 9 3 0 19 40 34 64 25 10 -4 12 0 9 14 -3 10 -6
18 -7 18 0 -1 -34 -13 -73 -27z"/>
<path d="M263 3168 c20 -7 27 -17 28 -36 1 -17 3 -21 6 -10 5 20 50 35 63 22
5 -5 10 -20 13 -34 4 -21 5 -20 6 8 1 26 -4 35 -24 44 -18 8 -28 8 -39 -1 -11
-9 -15 -8 -20 4 -3 9 -17 15 -33 14 l-28 -1 28 -10z"/>
<path d="M4482 3136 c11 -13 24 -17 42 -12 14 3 26 11 26 16 0 6 -10 6 -26 0
-19 -8 -31 -7 -43 2 -14 10 -14 10 1 -6z"/>
<path d="M350 3065 c-7 -9 -8 -15 -2 -15 5 0 12 7 16 15 3 8 4 15 2 15 -2 0
-9 -7 -16 -15z"/>
<path d="M4430 3044 c0 -14 3 -14 15 -4 8 7 15 14 15 16 0 2 -7 4 -15 4 -8 0
-15 -7 -15 -16z"/>
<path d="M187 3024 c-3 -16 -1 -22 5 -16 14 14 136 -18 141 -37 3 -11 5 -8 6
5 1 25 -8 30 -73 39 -26 4 -53 13 -60 21 -12 11 -15 9 -19 -12z"/>
<path d="M4519 3041 l43 -6 -21 -20 c-19 -16 -24 -17 -33 -5 -8 13 -9 12 -5
-2 8 -24 -25 -52 -43 -35 -10 10 -12 9 -6 -6 3 -10 6 -23 6 -29 0 -5 21 8 48
29 26 22 57 46 70 55 l23 15 -32 7 c-17 3 -46 5 -63 4 -25 -1 -23 -2 13 -7z"/>
<path d="M249 2943 c-13 -15 -12 -15 8 -5 28 15 28 15 47 -4 14 -13 16 -13 16
-1 0 29 -50 36 -71 10z"/>
<path d="M158 2896 c-4 -19 -2 -23 6 -17 14 12 126 -13 136 -29 5 -7 9 -2 12
12 4 22 2 24 -25 20 -21 -3 -34 1 -44 14 -7 10 -13 12 -13 6 0 -14 -51 -5 -61
10 -4 6 -9 -2 -11 -16z"/>
<path d="M4553 2902 c-72 -16 -73 -17 -72 -46 1 -29 1 -30 8 -6 6 20 16 26 69
35 34 7 64 9 67 7 3 -3 5 2 5 11 0 10 -1 16 -2 16 -2 -1 -36 -9 -75 -17z"/>
<path d="M4627 2847 c-3 -8 -23 -17 -44 -21 -89 -16 -93 -17 -93 -39 0 -18 1
-19 13 -5 6 9 38 22 71 28 48 10 60 10 68 -2 5 -8 6 -2 2 17 -8 37 -10 39 -17
22z"/>
<path d="M158 2833 c7 -3 16 -2 19 1 4 3 -2 6 -13 5 -11 0 -14 -3 -6 -6z"/>
<path d="M142 2800 c0 -14 2 -19 5 -12 2 6 2 18 0 25 -3 6 -5 1 -5 -13z"/>
<path d="M140 2763 c0 -6 31 -15 69 -22 39 -7 72 -18 75 -24 2 -7 5 -3 5 9 1
19 -6 22 -57 27 -32 4 -66 9 -75 13 -9 3 -17 2 -17 -3z"/>
<path d="M4640 2761 c-8 -5 -41 -12 -72 -16 -44 -6 -58 -4 -58 6 0 7 -2 10 -5
7 -4 -3 -3 -17 1 -32 5 -21 8 -23 19 -12 15 14 110 30 125 21 5 -3 8 4 7 15
-1 11 -1 20 -2 20 0 0 -7 -5 -15 -9z"/>
<path d="M135 2680 c-3 -5 2 -9 12 -8 44 3 53 -2 53 -33 0 -28 -2 -30 -32 -27
-25 2 -34 9 -39 28 -6 22 -7 21 -8 -10 l-1 -35 78 -3 c54 -2 73 0 62 8 -8 5
-23 10 -32 10 -13 0 -18 8 -18 28 0 15 -5 33 -12 40 -15 15 -54 16 -63 2z"/>
<path d="M4648 2683 c6 -2 12 -15 12 -28 0 -21 -6 -24 -70 -30 -38 -4 -70 -11
-70 -17 0 -5 8 -7 18 -4 9 3 43 6 75 7 l57 2 0 39 c0 30 -4 38 -17 37 -11 0
-13 -3 -5 -6z"/>
<path d="M113 2518 c-1 -18 1 -27 4 -20 3 8 28 12 73 12 45 0 70 -4 73 -12 3
-7 6 0 6 17 1 22 -2 26 -11 17 -13 -13 -129 -5 -139 10 -3 5 -6 -6 -6 -24z"/>
<path d="M4670 2530 c0 -6 -21 -24 -47 -41 -49 -30 -60 -49 -33 -56 12 -4 12
-3 2 5 -10 7 -3 15 30 35 30 18 45 22 50 14 4 -7 8 3 8 21 0 17 -2 32 -5 32
-3 0 -5 -5 -5 -10z"/>
<path d="M4527 2524 c-4 -4 -7 -14 -7 -23 0 -11 3 -12 11 -4 6 6 10 16 7 23
-2 6 -7 8 -11 4z"/>
<path d="M206 2467 c-16 -11 -13 -13 18 -13 41 0 43 2 17 15 -13 7 -23 6 -35
-2z"/>
<path d="M181 2423 c-1 -18 -7 -23 -30 -23 -16 0 -32 6 -34 13 -3 6 -5 -4 -5
-23 0 -19 2 -29 5 -22 6 16 140 17 145 1 2 -6 4 9 4 32 1 24 -1 34 -3 22 -8
-41 -68 -41 -76 0 l-4 22 -2 -22z"/>
<path d="M4663 2416 c-10 -11 -9 -15 2 -20 10 -4 15 1 15 14 0 23 -1 24 -17 6z"/>
<path d="M390 2335 c0 -101 31 -310 65 -439 124 -474 427 -897 835 -1168 197
-130 427 -232 640 -282 141 -34 323 -58 409 -54 l71 3 -1010 1010 -1010 1010
0 -80z"/>
<path d="M3425 1400 l-1010 -1010 80 0 c94 0 306 30 425 60 104 26 281 91 375
137 418 208 730 517 936 927 127 252 218 619 207 834 l-3 62 -1010 -1010z"/>
<path d="M4526 2351 c-4 -7 -5 -15 -2 -18 9 -9 19 4 14 18 -4 11 -6 11 -12 0z"/>
<path d="M4668 2341 c-6 -15 -108 -62 -121 -55 -9 5 -9 4 0 -6 10 -11 21 -10
62 9 27 13 54 20 60 17 7 -5 11 2 11 18 0 26 -5 34 -12 17z"/>
<path d="M219 2288 c-26 -27 -41 -48 -35 -48 19 1 88 68 84 82 -2 8 -21 -6
-49 -34z"/>
<path d="M263 2236 c-15 -18 -124 -20 -135 -3 -4 7 -8 -3 -8 -23 0 -19 4 -30
8 -23 4 6 36 15 71 19 49 5 65 4 72 -7 6 -10 9 -4 9 19 0 36 0 36 -17 18z"/>
<path d="M4646 2222 c6 -4 14 -14 17 -22 4 -10 6 -8 6 8 1 15 -5 22 -16 22
-11 0 -14 -3 -7 -8z"/>
<path d="M4510 2031 c0 -17 6 -21 35 -21 26 0 35 -4 36 -17 0 -11 3 -13 6 -5
6 16 38 15 56 -3 13 -12 15 -11 19 10 3 13 1 22 -4 19 -15 -10 -119 8 -134 23
-12 13 -14 12 -14 -6z"/>
<path d="M300 1991 c0 -6 -25 -28 -55 -49 l-55 -40 36 -7 c20 -3 39 -4 42 -1
3 3 -4 6 -16 6 -33 0 -27 12 23 45 41 28 59 55 35 55 -5 0 -10 -4 -10 -9z"/>
<path d="M4501 1984 c0 -11 3 -14 6 -6 3 7 2 16 -1 19 -3 4 -6 -2 -5 -13z"/>
<path d="M248 1983 c6 -2 18 -2 25 0 6 3 1 5 -13 5 -14 0 -19 -2 -12 -5z"/>
<path d="M171 1964 c0 -11 3 -14 6 -6 3 7 2 16 -1 19 -3 4 -6 -2 -5 -13z"/>
<path d="M198 1973 c7 -3 16 -2 19 1 4 3 -2 6 -13 5 -11 0 -14 -3 -6 -6z"/>
<path d="M4564 1959 c-3 -6 -17 -8 -30 -5 -27 7 -33 -8 -8 -18 9 -4 25 1 34 9
16 15 20 13 54 -18 26 -25 36 -30 36 -18 0 9 -16 26 -35 39 -40 25 -42 26 -51
11z"/>
<path d="M4485 1889 c-4 -5 1 -9 9 -9 9 0 16 -5 16 -11 0 -5 4 -8 9 -4 16 9
100 -18 104 -34 3 -10 5 -7 6 6 1 18 -7 24 -41 33 -24 6 -55 15 -70 20 -17 5
-30 5 -33 -1z"/>
<path d="M310 1880 l25 -7 -30 -9 c-16 -4 -49 -8 -71 -9 -29 0 -40 -4 -37 -12
6 -16 16 -16 81 1 30 8 60 12 68 9 18 -7 18 2 -2 21 -8 9 -25 16 -37 15 -20
-1 -20 -2 3 -9z"/>
<path d="M4450 1780 c-8 -16 -8 -18 5 -14 21 8 118 -15 131 -32 10 -12 12 -10
16 9 4 21 1 23 -20 19 -16 -3 -23 -1 -18 6 3 6 -1 8 -12 5 -11 -2 -35 2 -55
11 -35 14 -37 14 -47 -4z"/>
<path d="M218 1768 c2 -11 8 -16 11 -11 3 4 10 11 14 14 4 4 -1 9 -11 11 -15
4 -18 1 -14 -14z"/>
<path d="M272 1766 c7 -8 15 -10 16 -5 2 5 17 9 34 9 31 0 31 0 13 -20 -10
-11 -23 -19 -29 -17 -6 2 -16 -6 -22 -17 -5 -12 -17 -20 -26 -20 -11 1 -14 -5
-10 -18 4 -19 5 -19 26 -1 11 11 40 35 63 55 38 34 39 37 20 42 -12 3 -39 6
-60 6 -32 0 -36 -2 -25 -14z"/>
<path d="M4430 1725 c-19 -22 -8 -25 13 -3 9 10 13 18 8 18 -5 0 -14 -7 -21
-15z"/>
<path d="M4557 1699 c7 -7 15 -10 18 -7 3 3 -2 9 -12 12 -14 6 -15 5 -6 -5z"/>
<path d="M411 1663 c0 -7 -9 -13 -18 -13 -13 0 -14 -3 -6 -8 9 -6 2 -19 -27
-47 -21 -21 -37 -42 -34 -47 3 -4 30 -8 60 -8 30 0 53 -4 50 -8 -3 -5 -29 -17
-59 -27 -54 -18 -55 -19 -45 -47 6 -15 14 -30 18 -33 10 -6 8 15 -4 33 -4 7
-6 14 -5 16 13 9 114 46 127 46 12 0 12 3 2 15 -9 10 -32 15 -76 15 l-63 0 46
43 c32 31 44 49 40 63 -2 10 -5 13 -6 7z"/>
<path d="M4429 1631 c17 -31 58 -45 93 -30 16 6 31 16 34 21 4 6 -3 5 -14 -1
-32 -17 -67 -13 -97 11 l-28 21 12 -22z"/>
<path d="M283 1605 c-3 -9 -3 -19 1 -22 3 -4 6 1 6 10 0 8 6 18 13 20 9 4 9 6
-1 6 -7 1 -15 -6 -19 -14z"/>
<path d="M4361 1548 c-3 -69 50 -112 109 -88 17 7 33 17 36 22 4 6 -3 5 -14
-1 -28 -15 -73 -13 -96 4 -10 8 -22 31 -26 52 -6 30 -8 32 -9 11z"/>
<path d="M4508 1533 c5 -21 7 -23 10 -9 2 10 0 22 -6 28 -6 6 -7 0 -4 -19z"/>
<path d="M474 1465 c-18 -14 -18 -14 3 -9 15 4 25 0 33 -15 15 -29 7 -39 -59
-70 -36 -17 -56 -32 -53 -40 3 -9 7 -10 11 -3 3 6 34 24 67 39 65 31 68 40 31
94 -12 17 -16 17 -33 4z"/>
<path d="M4316 1455 c-8 -23 -8 -27 4 -20 6 3 14 -4 19 -17 6 -13 10 -17 10
-10 1 16 70 -11 87 -34 10 -12 13 -12 17 -1 4 10 -14 23 -55 43 -33 15 -63 35
-67 42 -7 12 -9 11 -15 -3z"/>
<path d="M556 1356 c3 -9 -17 -25 -60 -47 l-64 -33 14 -28 c8 -15 17 -28 20
-28 2 0 0 9 -6 21 -7 11 -10 22 -8 23 47 31 56 34 68 23 10 -9 11 -9 6 0 -10
17 34 45 51 32 8 -8 8 -1 -3 20 -15 31 -28 43 -18 17z"/>
<path d="M4267 1357 c-4 -10 11 -21 49 -37 30 -12 60 -31 68 -41 13 -20 14
-19 19 1 3 13 0 20 -9 20 -8 0 -14 8 -15 18 0 10 -3 12 -6 5 -3 -9 -16 -7 -46
9 -23 11 -45 25 -48 30 -3 5 -9 3 -12 -5z"/>
<path d="M4240 1309 c-12 -22 -8 -32 15 -35 22 -3 84 -43 93 -61 8 -13 10 -13
15 0 4 10 -12 26 -54 52 -40 24 -58 42 -55 51 8 21 -2 17 -14 -7z"/>
<path d="M595 1270 c-3 -5 -1 -10 4 -10 6 0 11 5 11 10 0 6 -2 10 -4 10 -3 0
-8 -4 -11 -10z"/>
<path d="M530 1260 c0 -5 5 -10 11 -10 5 0 7 5 4 10 -3 6 -8 10 -11 10 -2 0
-4 -4 -4 -10z"/>
<path d="M620 1241 c0 -7 -41 -41 -108 -87 -2 -1 1 -11 7 -21 10 -17 10 -17
11 -1 0 10 24 34 55 54 55 37 63 48 45 59 -5 3 -10 2 -10 -4z"/>
<path d="M4165 1189 c-6 -9 -2 -11 13 -7 11 3 48 0 81 -7 58 -12 60 -12 50 6
-5 11 -12 19 -15 19 -3 0 -2 -5 2 -11 4 -7 0 -9 -12 -6 -51 15 -112 18 -119 6z"/>
<path d="M587 1161 c3 -11 -2 -34 -11 -52 -10 -21 -13 -36 -7 -42 6 -6 13 5
20 29 16 63 17 77 4 81 -7 3 -10 -3 -6 -16z"/>
<path d="M630 1166 c0 -2 13 -6 29 -8 17 -2 28 -1 25 4 -5 8 -54 12 -54 4z"/>
<path d="M716 1116 c4 -11 -24 -37 -104 -92 -2 -1 1 -11 7 -21 8 -14 10 -14
11 -3 0 19 98 92 112 84 5 -4 2 5 -7 20 -19 28 -27 34 -19 12z"/>
<path d="M4149 1120 c42 -10 61 -29 71 -71 l8 -34 1 36 c1 47 -32 79 -80 78
l-34 -1 34 -8z"/>
<path d="M4276 1107 c3 -10 9 -15 12 -12 3 3 0 11 -7 18 -10 9 -11 8 -5 -6z"/>
<path d="M4071 1048 c-1 -49 29 -78 78 -77 l36 1 -34 8 c-42 10 -61 29 -71 71
l-8 34 -1 -37z"/>
<path d="M766 1034 c-8 -22 -9 -21 18 -26 17 -3 23 -1 19 8 -2 7 -11 10 -19 7
-10 -4 -12 0 -8 11 3 9 4 16 1 16 -3 0 -8 -7 -11 -16z"/>
<path d="M4199 993 c-13 -16 -12 -17 4 -4 16 13 21 21 13 21 -2 0 -10 -8 -17
-17z"/>
<path d="M4013 965 c0 -22 2 -30 4 -17 2 12 2 30 0 40 -3 9 -5 -1 -4 -23z"/>
<path d="M785 942 c-22 -25 -47 -47 -56 -51 -14 -5 -14 -8 4 -26 11 -11 17
-14 12 -7 -5 9 9 30 41 63 45 46 49 48 66 32 11 -9 16 -24 13 -34 -5 -14 -1
-16 15 -12 28 7 25 13 -18 48 l-37 31 -40 -44z"/>
<path d="M655 950 c3 -5 12 -7 20 -3 21 7 19 13 -6 13 -11 0 -18 -4 -14 -10z"/>
<path d="M3951 937 c-9 -12 -10 -17 -2 -17 21 0 102 -83 96 -98 -5 -12 -3 -13
10 -2 14 12 13 16 -12 42 -35 37 -22 52 35 40 29 -7 44 -6 51 2 6 8 -6 12 -47
14 -33 1 -58 -2 -62 -9 -9 -14 -48 8 -52 30 -2 12 -5 11 -17 -2z"/>
<path d="M872 829 c-29 -31 -50 -59 -45 -61 4 -2 32 22 61 53 29 31 50 59 45
61 -4 2 -32 -22 -61 -53z"/>
<path d="M967 839 c7 -7 15 -10 18 -7 3 3 -2 9 -12 12 -14 6 -15 5 -6 -5z"/>
<path d="M954 754 c-32 -35 -46 -58 -40 -64 6 -6 21 8 43 41 19 27 44 54 55
58 17 6 18 9 6 13 -10 4 -32 -12 -64 -48z"/>
<path d="M3841 766 c-1 -34 -3 -37 -17 -25 -9 7 -19 21 -23 30 -5 15 -8 16
-25 3 -17 -12 -17 -14 -3 -14 9 0 36 -25 61 -55 24 -30 47 -51 50 -46 3 4 -3
16 -14 26 -11 10 -20 27 -20 37 0 20 17 20 81 2 8 -2 23 2 34 9 16 13 15 14
-11 10 -49 -8 -97 10 -105 38 -6 20 -7 17 -8 -15z"/>
<path d="M1047 697 c-21 -26 -47 -51 -57 -55 -19 -7 -19 -8 0 -20 11 -7 20 -8
20 -3 0 13 69 95 85 101 10 4 10 8 1 16 -8 7 -22 -3 -49 -39z"/>
<path d="M3720 730 c-13 -8 -12 -10 3 -10 9 0 17 5 17 10 0 12 -1 12 -20 0z"/>
<path d="M978 713 c12 -2 30 -2 40 0 9 3 -1 5 -23 4 -22 0 -30 -2 -17 -4z"/>
<path d="M3742 690 c0 -14 2 -19 5 -12 2 6 2 18 0 25 -3 6 -5 1 -5 -13z"/>
<path d="M1140 689 c0 -5 -18 -34 -40 -64 -22 -30 -36 -56 -32 -59 5 -3 16 8
26 25 26 44 46 38 46 -15 0 -24 -5 -46 -10 -48 -6 -2 -1 -9 11 -16 20 -13 20
-12 14 44 -6 43 -4 58 6 66 11 7 10 8 -5 6 -27 -4 -30 14 -7 39 17 17 18 22 6
27 -8 3 -15 1 -15 -5z"/>
<path d="M3651 676 c-10 -12 -1 -19 48 -42 46 -20 61 -32 62 -48 0 -11 3 -16
5 -10 2 6 0 28 -5 50 -5 21 -9 31 -10 22 -1 -22 -3 -22 -52 2 -22 12 -37 25
-34 30 9 15 -1 12 -14 -4z"/>
<path d="M3610 650 c0 -5 5 -10 10 -10 6 0 10 5 10 10 0 6 -4 10 -10 10 -5 0
-10 -4 -10 -10z"/>
<path d="M1200 640 c-12 -8 -10 -10 8 -10 13 0 20 4 17 10 -7 12 -6 12 -25 0z"/>
<path d="M3538 602 c-16 -9 -28 -21 -28 -26 0 -5 8 -2 18 7 10 10 23 17 28 17
15 0 77 -108 69 -120 -5 -7 0 -7 13 1 17 11 18 15 6 26 -7 8 -26 36 -41 63
-15 28 -30 50 -33 50 -3 0 -17 -8 -32 -18z"/>
<path d="M3480 578 c0 -9 5 -20 10 -23 13 -8 13 5 0 25 -8 13 -10 13 -10 -2z"/>
<path d="M1328 563 c7 -3 16 -2 19 1 4 3 -2 6 -13 5 -11 0 -14 -3 -6 -6z"/>
<path d="M1363 554 c8 -15 -47 -117 -67 -124 -11 -4 -9 -8 9 -17 14 -6 22 -7
19 -2 -3 6 10 36 29 69 32 53 34 60 19 72 -9 7 -13 8 -9 2z"/>
<path d="M3710 550 c0 -5 7 -10 16 -10 8 0 12 5 9 10 -3 6 -10 10 -16 10 -5 0
-9 -4 -9 -10z"/>
<path d="M3436 542 c-4 -7 6 -35 24 -67 18 -31 29 -62 26 -70 -4 -12 -1 -12
20 -3 21 10 22 13 9 20 -16 9 -56 78 -65 113 -4 14 -8 16 -14 7z"/>
<path d="M1426 504 c-5 -14 -4 -15 9 -4 23 19 19 -9 -10 -76 -29 -67 -29 -61
-11 -67 10 -4 13 -1 9 8 -3 9 4 18 18 24 17 7 19 10 7 10 -16 1 -16 4 2 43 10
24 24 44 30 46 6 2 -1 10 -15 18 -34 17 -32 17 -39 -2z"/>
<path d="M3352 500 c-18 -10 -28 -20 -22 -22 7 -2 10 -21 8 -46 l-3 -42 -38
25 c-21 14 -35 30 -32 35 3 6 -1 7 -9 4 -21 -8 -14 -18 39 -54 24 -16 46 -40
48 -53 2 -12 5 15 6 60 1 78 13 111 31 83 5 -8 9 -5 13 9 6 25 2 25 -41 1z"/>
<path d="M1546 457 c7 -19 -42 -127 -58 -127 -7 -1 7 -10 30 -21 24 -11 46
-18 49 -15 3 3 -6 8 -21 12 -33 8 -33 26 3 92 28 50 29 53 10 62 -14 8 -17 7
-13 -3z"/>
<path d="M1630 419 c0 -5 5 -7 10 -4 6 3 10 8 10 11 0 2 -4 4 -10 4 -5 0 -10
-5 -10 -11z"/>
<path d="M3162 418 c-39 -10 -42 -17 -5 -15 24 2 29 -4 51 -60 14 -34 29 -60
33 -57 5 3 4 15 -2 27 -7 12 -19 42 -28 67 -16 45 -17 46 -49 38z"/>
<path d="M1660 416 c0 -2 7 -7 16 -10 8 -3 12 -2 9 4 -6 10 -25 14 -25 6z"/>
<path d="M1677 334 c-15 -37 -23 -72 -20 -78 4 -5 10 1 14 14 3 14 16 49 28
78 11 28 17 52 13 52 -5 0 -21 -30 -35 -66z"/>
<path d="M3048 373 c7 -3 16 -2 19 1 4 3 -2 6 -13 5 -11 0 -14 -3 -6 -6z"/>
<path d="M1820 295 c-7 -40 -19 -69 -29 -75 -14 -8 -13 -9 5 -10 17 0 23 8 28
35 5 24 12 35 24 35 13 0 14 2 3 9 -9 6 -11 18 -6 40 4 18 3 31 -3 31 -5 0
-15 -29 -22 -65z"/>
<path d="M2952 353 c-21 -4 -21 -6 16 -33 21 -15 49 -40 60 -55 18 -23 22 -25
22 -9 -1 11 -19 33 -40 49 -22 17 -37 36 -35 43 2 6 3 11 2 11 -1 -1 -12 -4
-25 -6z"/>
<path d="M1888 343 c7 -3 16 -2 19 1 4 3 -2 6 -13 5 -11 0 -14 -3 -6 -6z"/>
<path d="M1920 320 c0 -11 2 -20 4 -20 2 0 6 9 9 20 3 11 1 20 -4 20 -5 0 -9
-9 -9 -20z"/>
<path d="M3052 320 c0 -14 2 -19 5 -12 2 6 2 18 0 25 -3 6 -5 1 -5 -13z"/>
<path d="M1984 297 c-30 -26 -37 -78 -15 -100 10 -9 11 -6 6 16 -10 39 12 86
44 93 43 10 47 12 19 13 -15 1 -39 -10 -54 -22z"/>
<path d="M3295 310 c3 -5 8 -10 11 -10 2 0 4 5 4 10 0 6 -5 10 -11 10 -5 0 -7
-4 -4 -10z"/>
<path d="M2770 288 c0 -12 3 -18 7 -15 3 4 19 -16 36 -44 23 -41 26 -53 15
-60 -15 -10 0 -11 24 -1 16 6 12 16 -27 75 -25 37 -48 67 -50 67 -3 0 -5 -10
-5 -22z"/>
<path d="M2090 298 c0 -4 5 -18 11 -32 9 -19 8 -31 -5 -57 -19 -37 -15 -47 8
-24 20 20 21 75 1 101 -8 10 -15 16 -15 12z"/>
<path d="M2160 230 c0 -55 -4 -71 -17 -79 -16 -9 -15 -10 7 -11 22 0 25 4 25
37 0 46 18 53 30 11 6 -17 17 -34 25 -36 12 -4 13 -2 3 9 -16 17 -17 81 -1 97
6 6 9 15 5 18 -3 4 -12 -5 -18 -20 -17 -37 -43 -35 -37 4 3 18 0 31 -9 34 -10
4 -13 -11 -13 -64z"/>
<path d="M2677 293 c-4 -3 -7 -19 -7 -35 0 -34 -40 -59 -68 -41 -22 13 -28 53
-10 64 9 6 3 9 -17 9 -17 0 -25 -4 -18 -8 6 -4 13 -20 15 -36 4 -39 29 -54 67
-39 24 9 31 8 35 -4 10 -25 7 -51 -6 -56 -7 -3 -3 -6 9 -6 19 -1 21 3 17 34
-2 19 -6 50 -8 69 -2 18 1 39 7 45 7 7 7 11 1 11 -6 0 -14 -3 -17 -7z"/>
<path d="M3151 278 c-1 -16 -8 -28 -18 -31 -17 -4 -17 -5 0 -6 20 -1 31 19 24
46 -3 12 -5 9 -6 -9z"/>
<path d="M2258 283 c7 -3 16 -2 19 1 4 3 -2 6 -13 5 -11 0 -14 -3 -6 -6z"/>
<path d="M2489 277 c6 -6 11 -21 11 -33 0 -17 -7 -24 -27 -27 l-28 -4 28 -2
c25 -1 27 -4 27 -41 0 -22 5 -40 11 -40 6 0 9 27 7 74 -3 64 -6 76 -22 80 -14
4 -16 2 -7 -7z"/>
<path d="M2388 205 c3 -55 0 -75 -9 -75 -7 0 -10 -2 -7 -5 3 -3 13 -3 22 1 13
5 16 21 16 80 0 53 -4 74 -12 74 -10 0 -12 -20 -10 -75z"/>
<path d="M1901 254 c2 -11 0 -25 -5 -32 -10 -16 -2 -27 13 -17 14 8 14 52 0
61 -6 4 -9 -1 -8 -12z"/>
<path d="M2330 255 c14 -17 8 -79 -11 -101 -6 -8 -26 -15 -43 -15 -18 -1 -23
-3 -13 -6 59 -15 107 42 87 103 -6 19 -16 34 -22 34 -6 0 -6 -6 2 -15z"/>
<path d="M2754 207 c-10 -55 -10 -57 10 -56 12 0 15 3 9 6 -14 5 -18 49 -5 55
5 2 6 14 2 28 -5 20 -8 13 -16 -33z"/>
<path d="M2980 209 c0 -5 9 -9 20 -9 11 0 20 2 20 4 0 2 -9 6 -20 9 -11 3 -20
1 -20 -4z"/>
<path d="M1858 193 c7 -3 16 -2 19 1 4 3 -2 6 -13 5 -11 0 -14 -3 -6 -6z"/>
</g>
</svg>
