<?xml version="1.0" standalone="no"?>
<!DOCTYPE svg PUBLIC "-//W3C//DTD SVG 20010904//EN"
 "http://www.w3.org/TR/2001/REC-SVG-20010904/DTD/svg10.dtd">
<svg version="1.0" xmlns="http://www.w3.org/2000/svg"
 width="210.000000pt" height="120.000000pt" viewBox="0 0 210.000000 120.000000"
 preserveAspectRatio="xMidYMid meet">

<g transform="translate(0.000000,120.000000) scale(0.100000,-0.100000)"
fill="#000000" stroke="none">
<path d="M1642 1064 c-29 -20 -28 -36 3 -28 30 7 44 -18 24 -42 -21 -25 -165
-12 -333 31 -77 19 -163 35 -192 35 -103 0 -294 -78 -294 -121 0 -11 16 -51
35 -89 36 -72 42 -107 25 -141 -13 -24 -43 -26 -38 -1 2 9 -5 21 -17 27 -11 6
-21 18 -23 28 -5 23 35 23 41 0 4 -15 5 -14 6 3 1 22 -34 44 -69 44 -13 0 -20
7 -20 20 0 11 5 20 12 20 6 0 9 3 5 6 -3 3 -26 -4 -50 -16 -47 -23 -76 -23
-111 3 -24 17 -15 47 14 47 12 0 32 -11 46 -25 19 -19 26 -22 30 -10 7 18 -3
35 -22 35 -19 0 -18 26 1 34 25 9 18 45 -11 56 -34 13 -41 13 -26 -2 21 -21
13 -39 -24 -54 -39 -16 -69 -12 -78 11 -7 18 -47 20 -43 3 1 -10 -17 -12 -73
-10 -50 2 -91 -2 -120 -12 -39 -13 -46 -13 -60 -1 -22 20 -31 19 -23 -2 3 -10
26 -36 51 -59 39 -35 44 -44 38 -67 -4 -18 -13 -27 -26 -27 -29 0 -33 -17 -5
-24 31 -8 32 -23 0 -66 -21 -28 -22 -35 -10 -44 12 -9 12 -16 0 -43 -8 -18
-19 -33 -25 -33 -5 0 -10 -9 -10 -20 0 -11 -5 -20 -10 -20 -6 0 -8 11 -4 25 4
18 2 25 -8 25 -7 0 -14 -10 -15 -22 -1 -11 -8 -25 -15 -29 -10 -6 -10 -11 -1
-20 19 -19 62 -2 74 29 19 54 34 74 81 107 26 19 48 42 48 50 0 8 4 15 10 15
19 0 33 -45 31 -104 l-1 -60 23 22 c28 27 51 21 111 -27 21 -17 42 -31 45 -31
3 0 -4 8 -17 18 -12 10 -33 40 -46 67 -13 28 -41 70 -63 95 -22 25 -38 50 -36
56 4 11 -22 35 -116 108 -28 22 -51 43 -51 48 0 11 76 10 170 -2 153 -19 352
-149 407 -267 14 -30 37 -63 52 -74 l26 -21 5 29 c4 23 11 29 40 33 35 5 35 5
35 56 1 29 7 59 14 68 17 20 55 21 71 1 15 -18 6 -45 -16 -45 -11 0 -14 5 -10
16 8 21 -23 15 -37 -8 -15 -23 8 -48 42 -48 68 0 96 70 44 109 -16 12 -32 24
-38 28 -5 5 -25 9 -43 10 -49 2 -82 37 -82 85 0 72 74 114 121 67 31 -31 6
-93 -35 -87 -29 4 -35 48 -7 48 24 0 28 18 6 26 -24 9 -65 -23 -65 -51 0 -51
89 -85 123 -47 12 13 26 17 46 14 36 -5 50 14 16 22 -19 5 -25 13 -25 35 0 34
20 54 52 49 34 -5 30 -34 -4 -30 -41 4 -35 -21 9 -41 24 -11 41 -13 47 -7 6 6
20 10 33 10 13 0 23 5 23 10 0 6 -9 10 -21 10 -14 0 -19 5 -17 18 4 23 57 23
71 0 9 -13 7 -22 -7 -37 -16 -18 -17 -21 -4 -21 9 0 19 -10 22 -22 6 -22 7
-22 20 -5 7 9 18 17 25 17 6 0 11 5 11 10 0 6 -4 10 -9 10 -13 0 -21 27 -14
45 7 20 55 45 86 45 13 0 32 -6 43 -14 15 -12 17 -18 8 -33 -16 -25 -59 -24
-59 2 0 13 -7 20 -20 20 -27 0 -32 -40 -9 -66 28 -31 63 -24 105 21 41 43 52
49 43 25 -4 -9 0 -15 9 -15 8 0 20 7 27 15 7 8 21 15 31 15 10 0 21 5 24 10 3
6 -3 10 -14 10 -12 0 -21 7 -21 15 0 11 11 15 39 15 23 0 44 6 52 16 9 11 23
14 46 11 46 -8 33 8 -23 27 -25 8 -55 27 -66 41 -23 29 -35 31 -66 9z m-287
-66 c119 -30 125 -33 82 -36 -25 -2 -55 2 -66 8 -17 9 -19 8 -15 -5 7 -17 -11
-21 -21 -5 -3 6 -15 10 -26 10 -11 0 -17 -4 -14 -10 4 -6 -5 -10 -20 -10 -21
0 -26 4 -21 16 5 13 2 15 -19 10 -14 -3 -37 -9 -51 -12 -20 -5 -25 -3 -22 7 6
19 -13 37 -35 31 -11 -3 -16 -10 -12 -19 4 -11 1 -13 -12 -8 -52 23 -70 18
-114 -29 -24 -25 -47 -46 -51 -46 -4 0 -12 10 -19 21 -16 31 14 57 98 85 97
34 179 31 338 -8z"/>
<path d="M210 855 c13 -14 26 -25 28 -25 3 0 -5 11 -18 25 -13 14 -26 25 -28
25 -3 0 5 -11 18 -25z"/>
<path d="M711 562 c-16 -30 -14 -47 9 -67 11 -10 20 -31 20 -47 0 -32 -35
-108 -50 -108 -5 0 -17 16 -26 35 -9 19 -20 35 -25 35 -5 0 -20 24 -34 54 -23
49 -51 85 -58 75 -30 -39 -57 -105 -57 -138 0 -22 -5 -43 -12 -47 -7 -5 -4
-10 10 -15 29 -11 28 -22 -7 -51 l-28 -25 30 -11 c34 -13 57 -2 57 28 0 9 11
23 25 30 23 13 32 11 93 -21 55 -28 80 -35 143 -38 46 -2 85 2 98 9 l22 11
-31 35 c-16 19 -30 43 -30 52 0 10 -11 33 -25 52 -31 42 -49 100 -35 114 6 6
10 21 10 35 l0 24 -23 -21 -23 -22 -21 21 -21 21 -11 -20z"/>
<path d="M1000 480 c0 -15 7 -20 25 -20 24 0 25 -2 25 -70 0 -63 2 -70 20 -70
18 0 20 7 20 70 0 68 1 70 25 70 18 0 25 5 25 20 0 18 -7 20 -70 20 -63 0 -70
-2 -70 -20z"/>
<path d="M1160 438 c0 -90 14 -112 72 -116 62 -4 78 18 78 110 0 61 -2 68 -20
68 -18 0 -20 -7 -20 -64 0 -67 -15 -94 -45 -82 -11 4 -15 22 -15 76 0 68 -1
70 -25 70 -24 0 -25 -2 -25 -62z"/>
<path d="M1350 410 l0 -90 55 0 c42 0 55 3 55 15 0 10 -11 15 -35 15 l-35 0 0
75 c0 68 -2 75 -20 75 -19 0 -20 -7 -20 -90z"/>
<path d="M1493 493 c-9 -3 -13 -31 -13 -89 0 -77 2 -84 20 -84 16 0 20 7 20
30 0 25 4 30 23 30 60 0 91 72 45 104 -22 15 -69 20 -95 9z m72 -43 c8 -13
-13 -40 -31 -40 -8 0 -14 10 -14 25 0 18 5 25 19 25 11 0 23 -5 26 -10z"/>
<path d="M1637 417 c-32 -100 -32 -97 -6 -97 12 0 23 8 26 20 4 13 14 20 30
20 16 0 27 -7 30 -20 4 -13 14 -20 30 -20 16 0 23 5 20 13 -2 6 -14 47 -27 90
-21 71 -25 77 -49 77 -25 0 -29 -7 -54 -83z m63 -9 c0 -10 -7 -18 -16 -18 -11
0 -14 5 -10 16 3 9 6 23 6 32 0 15 2 15 10 2 5 -8 10 -23 10 -32z"/>
<path d="M1803 493 c-9 -3 -13 -31 -13 -89 0 -83 0 -84 25 -84 22 0 25 4 25
35 0 42 23 39 39 -6 7 -19 17 -29 31 -29 17 0 19 4 14 28 -4 15 -11 33 -17 40
-7 9 -7 16 1 24 22 22 14 64 -13 76 -26 12 -70 15 -92 5z m75 -50 c-5 -26 -38
-29 -38 -4 0 15 6 21 21 21 14 0 19 -5 17 -17z"/>
<path d="M296 457 c-30 -30 -33 -52 -10 -74 8 -9 13 -24 11 -34 -7 -28 -2 -23
21 16 23 38 64 54 87 35 8 -7 15 -10 15 -7 0 2 6 20 14 39 11 26 12 35 3 36
-7 0 -35 4 -64 8 -47 6 -54 4 -77 -19z"/>
<path d="M1043 290 c-35 -14 -46 -44 -25 -69 9 -12 28 -27 41 -34 32 -16 24
-32 -16 -31 -37 1 -51 -21 -23 -36 24 -13 43 -13 74 2 50 22 46 75 -9 101 -45
21 -45 37 0 37 23 0 35 5 35 14 0 24 -37 32 -77 16z"/>
<path d="M1345 291 c-56 -23 -55 -74 1 -97 47 -20 46 -48 -1 -42 -24 3 -36 -1
-40 -10 -8 -21 1 -27 45 -27 42 0 80 27 80 56 0 19 -45 59 -66 59 -8 0 -14 7
-14 15 0 10 10 15 29 15 26 0 50 15 39 25 -9 10 -55 13 -73 6z"/>
<path d="M1170 237 c16 -30 30 -68 30 -85 0 -25 4 -32 20 -32 16 0 20 7 20 36
0 23 11 55 30 85 l30 49 -26 0 c-19 0 -29 -7 -37 -30 -6 -16 -14 -30 -17 -30
-3 0 -11 14 -17 30 -9 23 -18 30 -37 30 l-26 0 30 -53z"/>
<path d="M1440 276 c0 -8 10 -16 23 -18 20 -3 22 -9 25 -70 3 -60 5 -68 22
-68 18 0 20 7 20 70 0 68 1 70 25 70 16 0 25 6 25 15 0 12 -14 15 -70 15 -54
0 -70 -3 -70 -14z"/>
<path d="M1600 205 l0 -85 60 0 c47 0 60 3 60 15 0 11 -11 15 -40 15 -33 0
-40 3 -40 20 0 16 7 20 36 20 28 0 35 3 32 18 -2 11 -14 18 -36 20 -46 5 -43
32 3 32 24 0 35 5 35 15 0 12 -13 15 -55 15 l-55 0 0 -85z"/>
<path d="M1746 268 c-12 -46 -7 -146 8 -151 22 -9 26 2 27 62 l0 56 17 -55
c25 -77 45 -78 69 -3 l18 58 5 -60 c4 -53 7 -60 25 -57 11 2 20 5 21 5 0 1 -2
39 -4 85 l-4 83 -31 -3 c-27 -3 -32 -9 -45 -53 l-15 -50 -15 53 c-13 46 -18
52 -42 52 -20 0 -29 -6 -34 -22z"/>
<path d="M271 254 c0 -11 3 -14 6 -6 3 7 2 16 -1 19 -3 4 -6 -2 -5 -13z"/>
<path d="M244 209 c-3 -6 -15 -9 -25 -6 -26 7 -24 -9 6 -41 l25 -27 21 21 c18
19 19 24 8 43 -15 23 -25 26 -35 10z"/>
</g>
</svg>
