<?xml version="1.0" standalone="no"?>
<!DOCTYPE svg PUBLIC "-//W3C//DTD SVG 20010904//EN"
 "http://www.w3.org/TR/2001/REC-SVG-20010904/DTD/svg10.dtd">
<svg version="1.0" xmlns="http://www.w3.org/2000/svg"
 width="606.000000pt" height="129.000000pt" viewBox="0 0 606.000000 129.000000"
 preserveAspectRatio="xMidYMid meet">

<g transform="translate(0.000000,129.000000) scale(0.100000,-0.100000)"
fill="#000000" stroke="none">
<path d="M0 645 l0 -645 3030 0 3030 0 0 645 0 645 -3030 0 -3030 0 0 -645z
m670 316 c0 -3 -14 -15 -30 -24 -29 -18 -31 -18 -60 3 -17 12 -30 23 -30 25 0
2 14 12 32 23 32 21 32 21 60 1 15 -11 28 -24 28 -28z m2424 -35 c-3 -8 -19
-18 -35 -21 -38 -9 -47 -25 -13 -25 55 0 81 -52 48 -98 -17 -25 -71 -31 -92
-10 -17 17 -15 100 4 126 8 12 24 22 34 22 10 0 22 5 25 10 10 16 35 12 29 -4z
m1774 2 c-2 -6 -18 -16 -35 -22 -45 -16 -51 -26 -15 -26 38 0 62 -23 62 -60 0
-54 -61 -80 -102 -43 -20 18 -24 69 -7 107 14 30 106 73 97 44z m-4498 -73
c-41 -41 -76 -73 -78 -71 -4 5 16 118 23 124 5 6 74 18 110 21 14 1 -2 -20
-55 -74z m173 61 c25 -20 22 -24 -28 -28 -50 -4 -52 -2 -28 24 19 21 32 22 56
4z m197 -6 c32 -24 26 -28 -35 -21 l-50 6 25 18 c30 21 29 21 60 -3z m161 -1
c14 -7 37 -105 26 -115 -2 -2 -34 28 -72 66 l-70 70 50 -6 c28 -4 57 -10 66
-15z m329 11 c-8 -5 -30 -10 -47 -10 -30 0 -33 -3 -33 -30 0 -28 3 -30 36 -30
21 0 33 -4 29 -10 -3 -5 -19 -10 -36 -10 -24 0 -29 -4 -29 -24 0 -21 5 -24 48
-28 58 -6 72 8 72 69 l0 43 45 0 45 0 0 -47 c0 -27 3 -65 6 -85 5 -25 3 -38
-5 -38 -6 0 -11 9 -11 20 0 17 -7 20 -45 20 -38 0 -45 -3 -45 -20 0 -11 -4
-20 -10 -20 -5 0 -10 9 -10 20 0 18 -7 20 -60 20 l-60 0 0 85 0 85 63 0 c44 0
58 -3 47 -10z m653 -2 c3 -10 8 -10 21 1 18 15 32 9 21 -8 -10 -16 -62 -13
-69 4 -3 9 0 15 8 15 8 0 16 -6 19 -12z m-473 -75 l0 -48 31 48 c44 67 59 62
59 -18 0 -51 -3 -65 -15 -65 -11 0 -15 11 -15 43 l0 42 -28 -42 c-39 -62 -52
-56 -52 22 0 37 4 65 10 65 6 0 10 -21 10 -47z m140 17 c0 -27 3 -30 30 -30
27 0 30 3 30 30 0 17 5 30 10 30 6 0 10 -28 10 -65 0 -37 -4 -65 -10 -65 -5 0
-10 11 -10 25 0 21 -5 25 -30 25 -25 0 -30 -4 -30 -25 0 -16 -6 -25 -15 -25
-12 0 -15 14 -15 65 0 51 3 65 15 65 10 0 15 -10 15 -30z m130 5 c0 -22 4 -25
35 -25 41 0 62 -28 45 -60 -8 -15 -21 -20 -55 -20 l-45 0 0 65 c0 37 4 65 10
65 6 0 10 -11 10 -25z m130 -40 c0 -51 -3 -65 -15 -65 -12 0 -15 14 -15 65 0
51 3 65 15 65 12 0 15 -14 15 -65z m50 18 l0 -48 31 48 c44 67 59 62 59 -18 0
-51 -3 -65 -15 -65 -11 0 -15 11 -15 43 l0 42 -28 -42 c-39 -62 -52 -56 -52
22 0 37 4 65 10 65 6 0 10 -21 10 -47z m280 -18 c0 -51 -3 -65 -15 -65 -12 0
-15 13 -15 55 0 52 -1 55 -25 55 -24 0 -25 -3 -25 -55 0 -42 -3 -55 -15 -55
-12 0 -15 14 -15 65 l0 65 55 0 55 0 0 -65z m124 49 c9 -8 16 -31 16 -49 0
-40 -22 -65 -57 -65 -55 0 -84 70 -46 112 20 22 66 24 87 2z m134 4 c7 -7 12
-30 12 -53 0 -48 -13 -65 -52 -65 -23 0 -28 -4 -28 -25 0 -16 -6 -25 -15 -25
-12 0 -15 17 -15 90 l0 90 43 0 c24 0 48 -5 55 -12z m127 2 c-3 -5 -15 -10
-26 -10 -16 0 -19 -7 -19 -55 0 -30 -4 -55 -10 -55 -5 0 -10 25 -10 55 0 48
-3 55 -19 55 -11 0 -23 5 -26 10 -4 6 17 10 55 10 38 0 59 -4 55 -10z m103 -2
c7 -7 12 -35 12 -64 l0 -52 -46 2 c-32 1 -50 6 -57 18 -15 23 8 48 44 48 22 0
29 5 29 20 0 14 -7 20 -24 20 -13 0 -26 -5 -28 -11 -2 -7 -10 -10 -17 -8 -11
4 -10 9 3 22 20 20 67 22 84 5z m142 -53 c0 -37 -4 -65 -10 -65 -5 0 -10 25
-10 55 0 46 -3 55 -18 55 -14 0 -20 -12 -28 -52 -8 -46 -12 -53 -34 -57 -24
-3 -24 -2 -7 16 11 13 17 36 17 66 l0 47 45 0 45 0 0 -65z m194 43 c34 -48 7
-108 -48 -108 -41 0 -60 21 -60 65 0 44 19 65 60 65 23 0 38 -7 48 -22z m186
-33 c0 -52 1 -55 25 -55 24 0 25 3 25 55 0 30 5 55 10 55 6 0 10 -25 10 -55 0
-52 1 -55 25 -55 24 0 25 3 25 55 0 30 5 55 10 55 6 0 10 -24 10 -54 0 -30 5
-58 10 -61 16 -10 12 -55 -5 -55 -8 0 -15 9 -15 20 0 18 -7 20 -75 20 l-75 0
0 65 c0 37 4 65 10 65 6 0 10 -25 10 -55z m263 34 c18 -29 1 -49 -43 -49 -38
0 -40 -1 -29 -21 9 -17 17 -20 45 -16 35 6 47 -6 18 -17 -49 -19 -94 9 -94 57
0 42 27 69 63 65 17 -2 35 -10 40 -19z m121 5 c9 -8 13 -20 10 -26 -5 -7 -12
-5 -20 6 -7 10 -22 16 -36 14 -20 -3 -23 -9 -23 -43 0 -35 3 -40 24 -43 13 -2
27 2 31 8 4 7 13 11 20 8 22 -7 -19 -38 -49 -38 -36 0 -55 23 -55 65 0 18 6
40 13 49 17 21 65 21 85 0z m131 6 c-3 -5 -15 -10 -26 -10 -16 0 -19 -7 -19
-55 0 -42 -3 -55 -15 -55 -12 0 -15 13 -15 55 0 41 -4 55 -14 55 -8 0 -18 5
-21 10 -4 6 17 10 55 10 38 0 59 -4 55 -10z m116 -6 c10 -12 10 -20 1 -34 -7
-12 -8 -21 -2 -25 16 -10 12 -42 -6 -49 -9 -3 -33 -6 -55 -6 l-39 0 0 65 0 65
44 0 c27 0 48 -6 57 -16z m129 -5 c18 -33 5 -49 -40 -49 -41 0 -46 -5 -31 -29
6 -10 19 -12 47 -7 34 7 36 6 25 -8 -14 -17 -57 -21 -78 -8 -32 20 -32 94 0
114 24 15 66 8 77 -13z m50 -9 c0 -27 3 -30 30 -30 27 0 30 3 30 30 0 17 5 30
10 30 6 0 10 -28 10 -65 0 -37 -4 -65 -10 -65 -5 0 -10 11 -10 25 0 21 -5 25
-30 25 -25 0 -30 -4 -30 -25 0 -14 -4 -25 -10 -25 -6 0 -10 28 -10 65 0 37 4
65 10 65 6 0 10 -13 10 -30z m140 0 c0 -25 4 -30 25 -30 21 0 25 5 25 30 0 20
5 30 15 30 12 0 15 -14 15 -65 0 -51 -3 -65 -15 -65 -9 0 -15 9 -15 25 0 20
-5 25 -25 25 -20 0 -25 -5 -25 -25 0 -16 -6 -25 -15 -25 -12 0 -15 14 -15 65
0 51 3 65 15 65 10 0 15 -10 15 -30z m204 14 c9 -8 16 -31 16 -49 0 -40 -22
-65 -57 -65 -55 0 -84 70 -46 112 20 22 66 24 87 2z m121 6 c-3 -5 -17 -10
-31 -10 -23 0 -24 -3 -24 -55 0 -42 -3 -55 -15 -55 -12 0 -15 14 -15 65 l0 65
46 0 c27 0 43 -4 39 -10z m119 -12 c34 -48 7 -108 -48 -108 -41 0 -60 21 -60
65 0 44 19 65 60 65 23 0 38 -7 48 -22z m190 0 c32 -46 7 -108 -43 -108 -43 0
-63 21 -63 65 0 44 20 65 63 65 17 0 34 -8 43 -22z m260 0 c14 -23 -1 -36 -17
-14 -22 31 -52 16 -55 -27 -4 -43 17 -58 50 -38 25 15 35 7 18 -14 -19 -23
-66 -19 -84 7 -34 48 -6 111 46 106 17 -2 36 -11 42 -20z m55 -19 c13 -45 20
-44 37 4 10 30 34 50 34 28 0 -7 -14 -48 -31 -91 -27 -70 -33 -80 -55 -80 -14
0 -22 4 -19 10 3 6 12 10 20 10 23 0 22 32 -2 94 -27 70 -26 66 -10 66 8 0 19
-18 26 -41z m129 8 l22 -32 0 33 c0 22 5 32 15 32 10 0 15 -10 15 -32 l0 -33
21 33 c12 17 28 32 36 32 14 0 13 -3 -1 -22 -29 -41 -29 -49 -2 -76 26 -26 27
-27 42 -8 7 11 14 39 14 63 l0 43 45 0 45 0 0 -47 c0 -27 3 -65 6 -85 5 -25 3
-38 -5 -38 -6 0 -11 9 -11 20 0 17 -7 20 -45 20 -38 0 -45 -3 -45 -20 0 -11
-4 -20 -10 -20 -5 0 -10 9 -10 20 0 11 -5 20 -12 20 -7 0 -25 12 -40 27 l-28
27 0 -27 c0 -17 -5 -27 -15 -27 -10 0 -15 10 -15 27 l0 27 -28 -27 c-39 -37
-63 -35 -28 2 29 30 29 38 0 79 -13 17 -14 22 -3 22 8 0 24 -15 37 -33z m378
8 c21 -32 11 -45 -37 -45 -33 0 -40 -3 -37 -17 3 -14 13 -18 41 -17 49 2 44
-20 -5 -24 -28 -2 -40 2 -52 20 -20 28 -20 57 0 86 21 31 69 30 90 -3z m54 -5
c0 -27 3 -30 30 -30 27 0 30 3 30 30 0 17 5 30 10 30 6 0 10 -28 10 -65 0 -37
-4 -65 -10 -65 -5 0 -10 11 -10 25 0 21 -5 25 -30 25 -25 0 -30 -4 -30 -25 0
-16 -6 -25 -15 -25 -12 0 -15 14 -15 65 0 51 3 65 15 65 10 0 15 -10 15 -30z
m132 -12 l3 -43 28 43 c41 63 57 56 57 -23 0 -51 -3 -65 -15 -65 -11 0 -15 11
-15 43 l0 42 -28 -42 c-39 -62 -52 -56 -52 22 0 72 17 90 22 23z m208 -23 c0
-37 -4 -65 -10 -65 -5 0 -10 9 -10 20 0 27 -27 26 -50 -2 -10 -13 -22 -20 -26
-16 -4 4 -1 15 6 23 10 12 10 19 2 27 -15 15 -15 51 0 66 7 7 29 12 50 12 l38
0 0 -65z m-5482 -10 c-21 -14 -49 -42 -63 -63 -23 -34 -25 -35 -24 -12 4 80
20 97 94 99 l30 1 -37 -25z m361 10 c2 -2 5 -26 8 -52 l5 -48 -27 32 c-14 18
-40 44 -58 58 l-32 27 50 -7 c28 -4 52 -8 54 -10z m-158 -16 c119 -36 184
-181 130 -288 -82 -159 -293 -160 -373 -2 -33 65 -35 110 -7 171 27 60 45 79
104 106 56 27 90 29 146 13z m-339 -104 l-8 -50 -18 28 c-19 27 -19 28 4 52
13 14 25 24 26 22 2 -1 0 -25 -4 -52z m598 2 c0 -15 -20 -47 -30 -47 -6 0 -10
24 -10 53 l0 52 20 -25 c11 -14 20 -29 20 -33z m-639 -79 c7 -13 5 -26 -8 -48
-9 -17 -20 -30 -23 -30 -4 0 -16 13 -27 28 l-21 29 20 32 c22 33 37 31 59 -11z
m719 -20 c0 -4 -10 -19 -23 -34 l-24 -27 -22 31 -22 31 23 31 23 31 22 -28
c13 -15 23 -31 23 -35z m210 -43 c0 -37 -4 -65 -10 -65 -5 0 -10 25 -10 55 0
54 0 55 -30 55 -30 0 -30 -1 -30 -55 0 -30 -4 -55 -10 -55 -6 0 -10 28 -10 65
l0 65 50 0 50 0 0 -65z m130 46 c14 -27 13 -74 -3 -95 -10 -14 -23 -17 -45
-14 -30 4 -32 2 -32 -24 0 -15 -4 -28 -10 -28 -6 0 -10 36 -10 88 l0 89 45 1
c35 2 46 -2 55 -17z m134 -3 c32 -45 7 -108 -42 -108 -35 0 -49 10 -60 40 -10
27 1 69 21 82 24 15 66 8 81 -14z m129 1 c18 -29 1 -49 -43 -49 -38 0 -40 -1
-29 -21 9 -17 17 -20 45 -16 35 6 47 -6 18 -17 -49 -19 -94 9 -94 57 0 42 27
69 63 65 17 -2 35 -10 40 -19z m57 -11 l0 -33 26 33 c25 31 28 32 100 32 48 0
73 -4 69 -10 -3 -5 -15 -10 -26 -10 -16 0 -19 -7 -19 -55 0 -30 -4 -55 -10
-55 -5 0 -10 24 -10 54 0 51 -2 54 -27 59 -22 5 -33 0 -51 -19 l-22 -25 26
-35 c21 -27 23 -34 10 -34 -8 0 -23 11 -32 25 -9 14 -20 25 -25 25 -5 0 -9
-11 -9 -25 0 -16 -6 -25 -15 -25 -12 0 -15 14 -15 65 0 51 3 65 15 65 10 0 15
-10 15 -32z m304 16 c9 -8 16 -31 16 -49 0 -40 -22 -65 -57 -65 -55 0 -84 70
-46 112 20 22 66 24 87 2z m137 0 c10 -12 10 -20 1 -34 -7 -12 -8 -21 -2 -25
16 -10 12 -42 -6 -49 -9 -3 -33 -6 -55 -6 l-39 0 0 65 0 65 44 0 c27 0 48 -6
57 -16z m119 -14 c0 -25 4 -30 25 -30 21 0 25 5 25 30 0 20 5 30 15 30 12 0
15 -14 15 -65 0 -51 -3 -65 -15 -65 -9 0 -15 9 -15 25 0 20 -5 25 -25 25 -20
0 -25 -5 -25 -25 0 -16 -6 -25 -15 -25 -12 0 -15 14 -15 65 0 51 3 65 15 65
10 0 15 -10 15 -30z m204 14 c9 -8 16 -31 16 -49 0 -40 -22 -65 -57 -65 -55 0
-84 70 -46 112 20 22 66 24 87 2z m134 4 c7 -7 12 -30 12 -53 0 -48 -13 -65
-52 -65 -23 0 -28 -4 -28 -25 0 -16 -6 -25 -15 -25 -12 0 -15 17 -15 90 l0 90
43 0 c24 0 48 -5 55 -12z m89 -35 l20 -48 23 48 c34 67 50 62 50 -18 0 -37 -4
-65 -10 -65 -5 0 -10 19 -11 43 l0 42 -19 -42 c-11 -24 -24 -43 -29 -43 -6 0
-19 17 -30 38 l-20 37 -1 -37 c0 -27 -4 -38 -15 -38 -12 0 -15 14 -15 65 0 56
2 65 18 65 12 0 25 -16 39 -47z m209 39 c7 -4 14 -32 15 -63 l4 -57 -47 -1
c-37 0 -50 4 -58 18 -13 26 11 51 51 51 19 0 29 5 29 15 0 22 -29 30 -52 16
-25 -15 -35 -7 -18 14 13 16 57 20 76 7z m139 -2 c-3 -5 -15 -10 -26 -10 -16
0 -19 -7 -19 -55 0 -30 -4 -55 -10 -55 -5 0 -10 25 -10 55 0 48 -3 55 -19 55
-11 0 -23 5 -26 10 -4 6 17 10 55 10 38 0 59 -4 55 -10z m45 -32 l1 -43 25 43
c38 62 54 56 54 -23 0 -51 -3 -65 -15 -65 -11 0 -15 11 -15 43 l0 42 -26 -42
c-38 -64 -54 -57 -54 22 0 51 3 65 15 65 11 0 15 -12 15 -42z m209 24 c5 -10
6 -24 1 -32 -5 -7 -3 -21 3 -31 17 -28 -8 -49 -59 -49 l-44 0 0 65 0 65 45 0
c32 0 47 -5 54 -18z m51 -12 c0 -27 3 -30 30 -30 27 0 30 3 30 30 0 20 5 30
15 30 12 0 15 -14 15 -65 0 -51 -3 -65 -15 -65 -9 0 -15 9 -15 25 0 21 -5 25
-30 25 -25 0 -30 -4 -30 -25 0 -14 -4 -25 -10 -25 -6 0 -10 28 -10 65 0 37 4
65 10 65 6 0 10 -13 10 -30z m140 6 c0 -20 6 -25 31 -28 39 -4 59 -30 43 -55
-7 -12 -27 -19 -58 -21 l-46 -3 0 65 c0 52 3 66 15 66 9 0 15 -9 15 -24z m130
-41 c0 -51 -3 -65 -15 -65 -12 0 -15 14 -15 65 0 51 3 65 15 65 12 0 15 -14
15 -65z m54 44 l14 -21 14 21 c7 11 19 21 26 21 10 0 9 -8 -6 -32 l-21 -32 21
-29 c25 -36 13 -51 -14 -17 l-20 25 -15 -22 c-9 -13 -22 -23 -30 -23 -11 0
-10 7 6 29 26 36 26 42 0 75 -16 21 -17 26 -5 26 8 0 22 -10 30 -21z m256 -44
c0 -51 -3 -65 -15 -65 -12 0 -15 13 -15 55 0 54 0 55 -30 55 -30 0 -30 -1 -30
-55 0 -30 -4 -55 -10 -55 -6 0 -10 28 -10 65 l0 65 55 0 55 0 0 -65z m121 49
c7 -9 13 -31 13 -49 0 -43 -19 -65 -55 -65 -24 0 -29 -4 -29 -25 0 -16 -6 -25
-15 -25 -12 0 -15 17 -15 90 l0 90 44 0 c28 0 48 -6 57 -16z m127 4 c7 -7 12
-35 12 -64 l0 -52 -46 2 c-32 1 -50 6 -57 18 -15 23 8 48 44 48 22 0 29 5 29
20 0 14 -7 20 -24 20 -13 0 -26 -5 -28 -11 -2 -7 -10 -10 -17 -8 -11 4 -10 9
3 22 20 20 67 22 84 5z m141 -6 c5 -10 6 -24 1 -32 -5 -7 -3 -21 3 -31 17 -28
-8 -49 -59 -49 l-44 0 0 65 0 65 45 0 c32 0 47 -5 54 -18z m135 -4 c34 -48 7
-108 -48 -108 -41 0 -60 21 -60 65 0 44 19 65 60 65 23 0 38 -7 48 -22z m135
4 c5 -10 6 -24 1 -32 -5 -7 -3 -21 3 -31 17 -28 -8 -49 -59 -49 l-44 0 0 65 0
65 45 0 c32 0 47 -5 54 -18z m51 -7 c0 -22 4 -25 35 -25 41 0 62 -28 45 -60
-8 -15 -21 -20 -55 -20 l-45 0 0 65 c0 37 4 65 10 65 6 0 10 -11 10 -25z m130
-40 c0 -51 -3 -65 -15 -65 -12 0 -15 14 -15 65 0 51 3 65 15 65 12 0 15 -14
15 -65z m60 43 l17 -22 12 22 c6 12 19 22 27 22 13 0 12 -5 -5 -29 -12 -16
-21 -32 -21 -36 0 -4 9 -20 21 -36 17 -24 18 -29 5 -29 -8 0 -21 10 -27 22
l-12 22 -17 -22 c-17 -20 -40 -30 -40 -16 0 3 9 17 20 31 l20 26 -21 33 c-23
38 -8 47 21 12z m240 -4 c6 -14 10 -43 10 -65 l0 -40 -52 3 c-47 3 -53 6 -56
27 -4 28 12 41 51 41 17 0 27 5 27 15 0 22 -29 30 -52 16 -25 -15 -35 -7 -18
14 7 8 28 15 46 15 28 0 36 -5 44 -26z m60 -6 l1 -33 27 33 c26 31 30 32 100
32 46 0 71 -4 67 -10 -3 -5 -15 -10 -26 -10 -16 0 -19 -7 -19 -55 0 -30 -4
-55 -10 -55 -5 0 -10 24 -10 54 0 51 -2 54 -27 59 -22 5 -33 0 -50 -21 l-22
-27 24 -25 c28 -30 31 -40 11 -40 -7 0 -21 11 -30 25 -9 14 -21 25 -26 25 -6
0 -10 -11 -10 -25 0 -16 -6 -25 -15 -25 -12 0 -15 14 -15 65 0 51 3 65 15 65
10 0 15 -10 15 -32z m304 16 c9 -8 16 -31 16 -49 0 -40 -22 -65 -57 -65 -55 0
-84 70 -46 112 20 22 66 24 87 2z m137 0 c9 -11 10 -20 2 -32 -7 -13 -7 -21 3
-30 11 -10 11 -18 4 -32 -8 -16 -21 -20 -60 -20 l-50 0 0 65 0 65 44 0 c27 0
48 -6 57 -16z m-5198 -106 c7 -54 1 -59 -26 -22 -18 23 -18 27 -2 50 9 14 18
24 19 22 2 -1 6 -24 9 -50z m583 35 c19 -25 17 -47 -6 -68 -20 -18 -20 -17
-20 33 0 56 5 62 26 35z m-460 -132 l39 -33 -49 6 c-27 3 -51 7 -52 9 -2 1 -6
27 -9 57 l-7 55 20 -31 c11 -17 37 -45 58 -63z m380 14 c-7 -35 -25 -45 -80
-45 l-30 0 33 25 c19 13 43 38 55 54 24 34 32 21 22 -34z m-467 -66 l71 -71
-57 7 c-63 7 -83 23 -83 64 0 14 -3 36 -6 49 -4 12 -4 22 -1 22 3 0 37 -32 76
-71z m556 19 c-4 -29 -12 -58 -18 -65 -7 -6 -37 -14 -67 -18 l-55 -7 70 71
c38 39 71 71 73 71 2 0 1 -24 -3 -52z m2373 30 c-3 -7 -19 -17 -36 -22 -40
-11 -42 -26 -4 -26 37 0 52 -17 52 -56 0 -39 -22 -64 -57 -64 -39 0 -63 27
-63 69 0 45 21 77 63 95 41 18 50 19 45 4z m-2148 -40 l1 -43 37 43 c49 56 76
56 29 -1 l-35 -43 36 -39 c23 -25 31 -40 23 -43 -7 -2 -26 12 -43 32 -37 45
-48 45 -48 1 0 -24 -5 -35 -15 -35 -12 0 -15 16 -15 85 0 69 3 85 15 85 11 0
15 -12 15 -42z m1255 32 c5 -8 11 -7 21 1 17 14 32 3 17 -12 -14 -14 -55 -8
-61 9 -5 15 14 16 23 2z m269 -13 c25 -37 10 -66 -40 -79 -39 -11 -44 -16 -44
-40 0 -18 -5 -28 -15 -28 -12 0 -15 16 -15 85 l0 85 50 0 c40 0 52 -4 64 -23z
m-1384 -42 c0 -22 4 -25 35 -25 41 0 62 -28 45 -60 -8 -15 -21 -20 -55 -20
l-45 0 0 65 c0 37 4 65 10 65 6 0 10 -11 10 -25z m130 -40 c0 -51 -3 -65 -15
-65 -12 0 -15 14 -15 65 0 51 3 65 15 65 12 0 15 -14 15 -65z m130 46 c14 -27
13 -74 -3 -95 -10 -14 -23 -17 -45 -14 -30 4 -32 2 -32 -24 0 -15 -4 -28 -10
-28 -6 0 -10 36 -10 88 l0 89 45 1 c35 2 46 -2 55 -17z m115 9 c-3 -5 -17 -10
-31 -10 -23 0 -24 -3 -24 -55 0 -42 -3 -55 -15 -55 -12 0 -15 14 -15 65 l0 65
46 0 c27 0 43 -4 39 -10z m45 -14 c0 -20 6 -25 31 -28 39 -4 59 -30 43 -55 -7
-12 -27 -19 -58 -21 l-46 -3 0 65 c0 52 3 66 15 66 9 0 15 -9 15 -24z m130
-41 c0 -51 -3 -65 -15 -65 -12 0 -15 14 -15 65 0 51 3 65 15 65 12 0 15 -14
15 -65z m107 57 c8 -5 11 -28 10 -62 -2 -49 -4 -55 -26 -58 -35 -5 -71 7 -71
23 0 17 16 20 25 5 10 -16 55 -12 55 5 0 8 -9 15 -19 15 -30 0 -34 17 -6 24
14 4 25 11 25 17 0 17 -32 23 -52 10 -25 -15 -35 -7 -18 14 13 16 57 20 77 7z
m133 -13 c15 -26 3 -40 -14 -16 -18 24 -53 22 -61 -4 -12 -36 3 -69 30 -69 14
0 25 5 25 10 0 6 7 10 15 10 13 0 14 -4 5 -20 -7 -14 -21 -20 -43 -20 -44 0
-57 15 -57 65 0 50 13 65 57 65 23 0 36 -6 43 -21z m50 -9 c0 -38 10 -38 35 0
11 16 26 30 33 30 18 0 15 -14 -8 -35 -26 -24 -25 -33 7 -67 19 -20 22 -28 12
-28 -9 0 -26 11 -39 25 -13 14 -27 25 -32 25 -4 0 -8 -11 -8 -25 0 -14 -4 -25
-10 -25 -6 0 -10 28 -10 65 0 37 4 65 10 65 6 0 10 -13 10 -30z m194 14 c9 -8
16 -31 16 -49 0 -41 -22 -65 -60 -65 -32 0 -60 31 -60 65 0 55 67 86 104 49z
m66 -26 l1 -43 25 43 c38 62 54 56 54 -23 0 -51 -3 -65 -15 -65 -11 0 -15 11
-15 43 l0 42 -26 -42 c-38 -64 -54 -57 -54 22 0 51 3 65 15 65 11 0 15 -12 15
-42z m405 26 c28 -28 15 -49 -33 -52 -43 -3 -48 -7 -33 -31 6 -10 19 -12 41
-8 23 5 30 3 28 -6 -7 -19 -72 -21 -88 -2 -18 21 -18 78 -1 99 17 21 65 21 86
0z m129 -6 c5 -9 7 -21 2 -25 -4 -4 -12 0 -17 10 -25 45 -84 -6 -60 -52 13
-23 40 -28 59 -9 17 17 28 2 12 -17 -16 -20 -59 -19 -82 2 -23 20 -23 71 -1
95 21 23 71 21 87 -4z m136 -43 c0 -51 -3 -65 -15 -65 -12 0 -15 13 -15 55 0
54 0 55 -30 55 -30 0 -30 -1 -30 -55 0 -30 -4 -55 -10 -55 -6 0 -10 28 -10 65
l0 65 55 0 55 0 0 -65z m49 24 c13 -45 20 -44 37 4 10 30 34 50 34 28 0 -7
-14 -48 -31 -91 -23 -62 -35 -80 -50 -80 -10 0 -19 5 -19 10 0 6 6 10 14 10
24 0 23 31 -1 94 -27 70 -26 66 -10 66 8 0 19 -18 26 -41z m331 -24 c0 -51 -3
-65 -15 -65 -12 0 -15 13 -15 55 0 48 -2 55 -20 55 -17 0 -20 -7 -20 -43 0
-43 -13 -67 -36 -67 -10 0 -9 7 2 28 7 15 14 44 14 65 l0 37 45 0 45 0 0 -65z
m50 18 l0 -47 30 47 c16 26 34 47 40 47 6 0 10 -27 10 -65 0 -72 -17 -90 -22
-22 l-3 42 -25 -42 c-36 -62 -50 -56 -50 22 0 37 4 65 10 65 6 0 10 -21 10
-47z m140 15 l0 -33 26 33 c14 17 32 32 40 32 12 0 9 -8 -9 -32 l-25 -32 25
-33 c20 -26 22 -33 9 -33 -8 0 -23 11 -32 25 -9 14 -20 25 -25 25 -5 0 -9 -11
-9 -25 0 -16 -6 -25 -15 -25 -12 0 -15 14 -15 65 0 51 3 65 15 65 10 0 15 -10
15 -32z m120 -10 l0 -43 28 42 c39 62 52 56 52 -22 0 -72 -17 -90 -22 -22 l-3
42 -29 -42 c-42 -62 -56 -57 -56 22 0 51 3 65 15 65 11 0 15 -11 15 -42z
m-3190 -6 c0 -5 -11 -14 -24 -21 -20 -11 -28 -10 -50 4 -14 10 -26 19 -26 21
0 2 23 4 50 4 28 0 50 -4 50 -8z m185 -12 c-21 -23 -43 -25 -67 -6 -28 21 -22
26 34 26 50 0 51 0 33 -20z m-104 -31 c24 -17 28 -24 18 -36 -27 -32 -48 -35
-80 -12 l-31 22 29 23 c34 28 29 28 64 3z"/>
<path d="M3015 841 c-11 -36 3 -63 33 -59 24 3 27 8 27 38 0 30 -3 35 -27 38
-19 2 -28 -2 -33 -17z"/>
<path d="M4790 840 c-23 -42 30 -81 60 -45 7 8 10 25 6 40 -8 31 -50 35 -66 5z"/>
<path d="M1293 825 c-10 -44 -9 -45 13 -45 22 0 24 4 24 45 0 31 -4 45 -13 45
-8 0 -18 -19 -24 -45z"/>
<path d="M1680 800 c0 -16 7 -20 30 -20 23 0 30 4 30 20 0 16 -7 20 -30 20
-23 0 -30 -4 -30 -20z"/>
<path d="M2189 849 c-8 -16 -8 -28 0 -45 18 -41 71 -25 71 21 0 44 -50 61 -71
24z"/>
<path d="M2330 825 c0 -41 2 -45 24 -45 28 0 41 28 32 66 -5 17 -13 24 -31 24
-23 0 -25 -4 -25 -45z"/>
<path d="M2573 813 c-23 -9 -14 -33 12 -33 18 0 25 5 25 20 0 19 -12 24 -37
13z"/>
<path d="M2884 857 c-3 -9 -4 -28 -2 -44 3 -24 7 -28 33 -28 28 0 30 2 30 40
0 36 -3 40 -28 43 -17 2 -29 -2 -33 -11z"/>
<path d="M3340 855 c-11 -13 -8 -15 25 -15 25 0 35 4 33 13 -7 18 -43 20 -58
2z"/>
<path d="M3700 849 c0 -16 5 -20 27 -17 17 2 29 10 31 21 3 13 -3 17 -27 17
-25 0 -31 -4 -31 -21z"/>
<path d="M3700 795 c0 -12 8 -16 33 -13 17 2 32 8 32 13 0 6 -15 11 -32 13
-25 3 -33 -1 -33 -13z"/>
<path d="M3836 855 c-4 -12 3 -15 29 -15 26 0 33 3 29 15 -4 8 -16 15 -29 15
-13 0 -25 -7 -29 -15z"/>
<path d="M4229 849 c-8 -16 -8 -28 0 -45 18 -41 71 -25 71 21 0 44 -50 61 -71
24z"/>
<path d="M4464 846 c-10 -43 -2 -61 31 -61 28 0 30 2 30 40 0 36 -3 40 -27 43
-22 3 -29 -2 -34 -22z"/>
<path d="M4654 846 c-10 -41 4 -68 34 -64 24 3 27 7 27 43 0 36 -3 40 -27 43
-22 3 -29 -2 -34 -22z"/>
<path d="M5363 825 c-10 -44 -9 -45 13 -45 22 0 24 4 24 45 0 31 -4 45 -13 45
-8 0 -18 -19 -24 -45z"/>
<path d="M5487 864 c-15 -15 -6 -24 24 -24 20 0 29 4 27 13 -5 14 -40 21 -51
11z"/>
<path d="M5875 860 c-9 -15 14 -40 36 -40 14 0 19 7 19 25 0 20 -5 25 -24 25
-14 0 -28 -5 -31 -10z"/>
<path d="M588 748 l22 -22 22 22 22 22 -44 0 -44 0 22 -22z"/>
<path d="M516 742 c-3 -5 8 -21 23 -36 36 -34 54 -16 20 20 -24 25 -35 29 -43
16z"/>
<path d="M661 726 c-34 -36 -16 -54 20 -20 16 15 29 31 29 36 0 16 -27 7 -49
-16z"/>
<path d="M475 700 c-10 -17 41 -68 55 -54 7 7 1 19 -19 38 -20 19 -31 24 -36
16z"/>
<path d="M712 687 c-22 -24 -29 -47 -14 -47 12 0 52 44 52 58 0 18 -14 14 -38
-11z"/>
<path d="M600 655 c0 -9 5 -15 11 -13 6 2 11 8 11 13 0 5 -5 11 -11 13 -6 2
-11 -4 -11 -13z"/>
<path d="M450 610 l0 -44 22 22 22 22 -22 22 -22 22 0 -44z"/>
<path d="M745 630 c-17 -19 -17 -21 0 -40 22 -25 35 -17 35 20 0 37 -13 45
-35 20z"/>
<path d="M552 609 c2 -6 8 -10 13 -10 5 0 11 4 13 10 2 6 -4 11 -13 11 -9 0
-15 -5 -13 -11z"/>
<path d="M642 609 c2 -6 8 -10 13 -10 5 0 11 4 13 10 2 6 -4 11 -13 11 -9 0
-15 -5 -13 -11z"/>
<path d="M492 557 c-22 -23 -29 -47 -14 -47 14 0 63 56 55 63 -11 11 -18 8
-41 -16z"/>
<path d="M600 565 c0 -9 5 -15 11 -13 6 2 11 8 11 13 0 5 -5 11 -11 13 -6 2
-11 -4 -11 -13z"/>
<path d="M690 567 c0 -20 47 -60 60 -52 8 5 3 16 -16 36 -30 32 -44 36 -44 16z"/>
<path d="M532 507 c-25 -27 -28 -37 -9 -37 14 0 57 41 57 53 0 15 -28 6 -48
-16z"/>
<path d="M640 522 c0 -5 13 -21 29 -36 36 -34 54 -16 20 20 -22 23 -49 32 -49
16z"/>
<path d="M587 472 c-20 -22 -13 -32 23 -32 15 0 30 3 33 7 7 7 -21 43 -33 43
-4 0 -14 -8 -23 -18z"/>
<path d="M1274 596 c-3 -8 -4 -27 -2 -43 2 -20 9 -29 25 -31 30 -4 50 36 34
67 -13 24 -49 28 -57 7z"/>
<path d="M1404 586 c-10 -41 4 -68 34 -64 24 3 27 7 27 43 0 36 -3 40 -27 43
-22 3 -29 -2 -34 -22z"/>
<path d="M1540 595 c-11 -13 -8 -15 25 -15 25 0 35 4 33 13 -7 18 -43 20 -58
2z"/>
<path d="M1899 589 c-8 -16 -8 -28 0 -45 18 -41 71 -25 71 21 0 44 -50 61 -71
24z"/>
<path d="M2030 589 c0 -16 5 -20 27 -17 17 2 29 10 31 21 3 13 -3 17 -27 17
-25 0 -31 -4 -31 -21z"/>
<path d="M2030 535 c0 -12 8 -16 33 -13 17 2 32 8 32 13 0 6 -15 11 -32 13
-25 3 -33 -1 -33 -13z"/>
<path d="M2359 589 c-8 -16 -8 -28 0 -45 18 -41 71 -25 71 21 0 44 -50 61 -71
24z"/>
<path d="M2500 565 c0 -41 2 -45 24 -45 28 0 41 28 32 66 -5 17 -13 24 -31 24
-23 0 -25 -4 -25 -45z"/>
<path d="M2818 553 c-10 -2 -18 -11 -18 -19 0 -22 54 -14 58 9 3 17 -6 19 -40
10z"/>
<path d="M3180 589 c0 -16 5 -20 27 -17 17 2 29 10 31 21 3 13 -3 17 -27 17
-25 0 -31 -4 -31 -21z"/>
<path d="M3180 535 c0 -10 10 -15 30 -15 20 0 30 5 30 15 0 10 -10 15 -30 15
-20 0 -30 -5 -30 -15z"/>
<path d="M3450 540 c0 -17 5 -21 28 -18 16 2 27 9 27 18 0 9 -11 16 -27 18
-23 3 -28 -1 -28 -18z"/>
<path d="M3940 565 c0 -45 1 -46 28 -43 24 3 27 7 27 43 0 36 -3 40 -27 43
-27 3 -28 2 -28 -43z"/>
<path d="M4083 553 c-23 -9 -14 -33 12 -33 18 0 25 5 25 20 0 19 -12 24 -37
13z"/>
<path d="M4200 589 c0 -16 5 -20 27 -17 17 2 29 10 31 21 3 13 -3 17 -27 17
-25 0 -31 -4 -31 -21z"/>
<path d="M4200 535 c0 -10 10 -15 30 -15 20 0 30 5 30 15 0 10 -10 15 -30 15
-20 0 -30 -5 -30 -15z"/>
<path d="M4334 586 c-10 -43 -2 -61 31 -61 28 0 30 2 30 40 0 36 -3 40 -27 43
-22 3 -29 -2 -34 -22z"/>
<path d="M4470 589 c0 -16 5 -20 27 -17 17 2 29 10 31 21 3 13 -3 17 -27 17
-25 0 -31 -4 -31 -21z"/>
<path d="M4470 535 c0 -10 10 -15 30 -15 20 0 30 5 30 15 0 10 -10 15 -30 15
-20 0 -30 -5 -30 -15z"/>
<path d="M4600 540 c0 -16 7 -20 30 -20 23 0 30 4 30 20 0 16 -7 20 -30 20
-23 0 -30 -4 -30 -20z"/>
<path d="M4968 549 c-27 -15 -21 -31 9 -27 17 2 29 10 31 21 4 19 -14 22 -40
6z"/>
<path d="M5319 589 c-8 -16 -8 -28 0 -45 18 -41 71 -25 71 21 0 44 -50 61 -71
24z"/>
<path d="M5460 589 c0 -15 5 -20 22 -17 34 5 37 38 4 38 -20 0 -26 -5 -26 -21z"/>
<path d="M5460 535 c0 -10 10 -15 30 -15 20 0 30 5 30 15 0 10 -10 15 -30 15
-20 0 -30 -5 -30 -15z"/>
<path d="M3224 326 c-12 -32 0 -61 28 -64 29 -4 44 22 33 58 -7 24 -53 28 -61
6z"/>
<path d="M2590 354 c0 -32 2 -35 26 -32 55 6 59 68 4 68 -28 0 -30 -3 -30 -36z"/>
<path d="M1290 280 c0 -16 7 -20 30 -20 23 0 30 4 30 20 0 16 -7 20 -30 20
-23 0 -30 -4 -30 -20z"/>
<path d="M1474 336 c-3 -8 -4 -27 -2 -43 2 -20 9 -29 25 -31 30 -4 50 36 34
67 -13 24 -49 28 -57 7z"/>
<path d="M1710 280 c0 -17 5 -21 28 -18 16 2 27 9 27 18 0 9 -11 16 -27 18
-23 3 -28 -1 -28 -18z"/>
<path d="M2254 336 c-3 -8 -4 -27 -2 -43 2 -22 9 -29 30 -31 30 -4 44 23 34
64 -5 17 -13 24 -32 24 -13 0 -27 -6 -30 -14z"/>
<path d="M2727 343 c-15 -14 -6 -23 23 -23 20 0 30 5 30 15 0 15 -40 21 -53 8z"/>
</g>
</svg>
